#N canvas 169 23 1916 1001 10;
#X obj 109 138 hsl 128 15 0 127 0 1 \$0-achordion-tone-s \$0-achordion-tone-r
TONE 133 7 0 10 #fcfcfc #000000 #000000 9400 1;
#X obj 104 126 cnv 5 5 5 empty empty ACHORDION 0 0 0 12 #fcfcfc #404040
0;
#X obj 107 330 cnv 5 5 5 empty empty MIX 0 0 0 8 #fcfcfc #404040 0
;
#X obj 179 198 hradio 15 1 1 4 \$0-achordion-bank-s \$0-achordion-bank-r
BANK 63 7 0 10 #fcfcfc #000000 #000000 2;
#X obj 175 126 cnv 5 5 5 empty \$0-instance-num 1 0 0 0 12 #fcfcfc
#404040 0;
#N canvas 315 35 1916 1001 state-saving-multiple-instances 0;
#X obj 429 34 loadbang;
#X obj 388 422 textfile;
#X msg 670 405 rewind;
#X msg 627 405 bang;
#X obj 87 826 textfile;
#X obj 627 366 t b b;
#X obj 87 327 f;
#X obj 100 550 f;
#X obj 28 371 t b b b;
#X msg 163 550 clear;
#X obj 495 222 outlet;
#X text 538 223 INSTANCE NUMBER;
#X obj 456 158 f \$1;
#X obj 456 194 t f f f;
#X obj 429 67 t b b;
#X obj 28 348 bng 15 250 50 0 empty empty empty 17 7 0 10 #fcfcfc #000000
#000000;
#X obj 28 24 r SAVE-S;
#X obj 513 42 r \$0-reload!;
#X text 595 43 RETURN TO PREVIOUS VALUE AFTER USING MORPH-SEQ module
;
#X msg 388 397 read statesave/\$1-achordion-ss.txt;
#X msg 100 786 write statesave/\$1-achordion-ss.txt;
#X obj 103 29 r \$0-achordion-tone-s;
#X obj 115 56 r \$0-achordion-tone-i-s;
#X obj 127 81 r \$0-achordion-wavetable-s;
#X obj 150 108 r \$0-achordion-wavetable-att-s;
#X obj 164 133 r \$0-achordion-bank-s;
#X obj 179 161 r \$0-achordion-detune-s;
#X obj 191 188 r \$0-achordion-detune-att-s;
#X obj 203 213 r \$0-achordion-chord-s;
#X obj 226 240 r \$0-achordion-chord-att-s;
#X obj 240 265 r \$0-achordion-style-s;
#X obj 268 318 r \$0-achordion-mode-s;
#X obj 464 755 s \$0-achordion-tone-r;
#X obj 475 732 s \$0-achordion-tone-i-r;
#X obj 489 709 s \$0-achordion-wavetable-r;
#X obj 497 686 s \$0-achordion-wavetable-att-r;
#X obj 511 664 s \$0-achordion-bank-r;
#X obj 522 641 s \$0-achordion-detune-r;
#X obj 532 618 s \$0-achordion-detune-att-r;
#X obj 541 595 s \$0-achordion-chord-r;
#X obj 550 573 s \$0-achordion-chord-att-r;
#X obj 561 550 s \$0-achordion-style-r;
#X obj 581 505 s \$0-achordion-mode-r;
#X obj 592 482 s \$0-achordion-tone-i-on-r;
#X obj 388 444 unpack f f f f f f f f f f f f f;
#X obj 281 344 r \$0-achordion-tone-i-on-s;
#X obj 87 370 pack f f f f f f f f f f f f f;
#X msg 87 408 set \$1 \$2 \$3 \$4 \$5 \$6 \$7 \$8 \$9 \$10 \$11 \$12
\$13;
#X obj 254 293 r \$0-achordion-tonic-s;
#X obj 570 527 s \$0-achordion-tonic-r;
#X connect 0 0 14 0;
#X connect 1 0 44 0;
#X connect 2 0 1 0;
#X connect 3 0 1 0;
#X connect 5 0 3 0;
#X connect 5 1 2 0;
#X connect 6 0 46 0;
#X connect 7 0 20 0;
#X connect 8 0 7 0;
#X connect 8 1 6 0;
#X connect 8 2 9 0;
#X connect 9 0 4 0;
#X connect 12 0 13 0;
#X connect 13 0 7 1;
#X connect 13 1 19 0;
#X connect 13 2 10 0;
#X connect 14 0 5 0;
#X connect 14 1 12 0;
#X connect 15 0 8 0;
#X connect 16 0 15 0;
#X connect 17 0 14 0;
#X connect 19 0 1 0;
#X connect 20 0 4 0;
#X connect 21 0 6 1;
#X connect 22 0 46 1;
#X connect 23 0 46 2;
#X connect 24 0 46 3;
#X connect 25 0 46 4;
#X connect 26 0 46 5;
#X connect 27 0 46 6;
#X connect 28 0 46 7;
#X connect 29 0 46 8;
#X connect 30 0 46 9;
#X connect 31 0 46 11;
#X connect 44 0 32 0;
#X connect 44 1 33 0;
#X connect 44 2 34 0;
#X connect 44 3 35 0;
#X connect 44 4 36 0;
#X connect 44 5 37 0;
#X connect 44 6 38 0;
#X connect 44 7 39 0;
#X connect 44 8 40 0;
#X connect 44 9 41 0;
#X connect 44 10 49 0;
#X connect 44 11 42 0;
#X connect 44 12 43 0;
#X connect 45 0 46 12;
#X connect 46 0 47 0;
#X connect 47 0 4 0;
#X connect 48 0 46 10;
#X restore 546 122 pd state-saving-multiple-instances;
#X obj 546 197 s \$0-instance-num;
#X obj 546 149 makefilename %d;
#X msg 546 174 label \$1;
#N canvas 81 22 1916 1001 state-saving-via-preset-manager-module 0
;
#X obj 481 228 textfile;
#X msg 860 211 rewind;
#X msg 817 211 bang;
#X obj 109 686 textfile;
#X obj 817 172 t b b;
#X obj 107 354 f;
#X obj 120 577 f;
#X obj 53 472 t b b b;
#X msg 189 627 clear;
#X obj 107 56 delay 5;
#X obj 53 527 delay 10;
#X msg 53 312 bang;
#X obj 53 26 r STORE-S!;
#X obj 481 129 f;
#X obj 454 93 t b b;
#X obj 469 50 t b f;
#X obj 526 147 f \$1;
#X obj 481 174 pack f f;
#X obj 526 97 loadbang;
#X obj 120 607 pack f f;
#X obj 165 560 loadbang;
#X obj 165 582 f \$1;
#X obj 469 27 r preset-manager-scan;
#X obj 135 538 r preset-manager-store-slot;
#X msg 188 654 write statesave/\$1-\$2-achordion-ss.txt;
#X msg 481 203 read statesave/\$1-\$2-achordion-ss.txt;
#X obj 122 80 r \$0-achordion-tone-s;
#X obj 134 107 r \$0-achordion-tone-i-s;
#X obj 146 132 r \$0-achordion-wavetable-s;
#X obj 169 159 r \$0-achordion-wavetable-att-s;
#X obj 183 184 r \$0-achordion-bank-s;
#X obj 198 212 r \$0-achordion-detune-s;
#X obj 210 239 r \$0-achordion-detune-att-s;
#X obj 222 264 r \$0-achordion-chord-s;
#X obj 245 291 r \$0-achordion-chord-att-s;
#X obj 259 316 r \$0-achordion-style-s;
#X obj 287 369 r \$0-achordion-mode-s;
#N canvas 0 22 1069 747 morph-frequencies 0;
#X obj 176 94 inlet;
#X obj 176 236 pack f f;
#X obj 176 261 line;
#X obj 209 117 r preset-manager-morph-s;
#X msg 72 244 stop;
#X obj 72 214 r STOP-MORPH!;
#X obj 398 102 r frequencies-s;
#X obj 209 206 spigot;
#X obj 398 137 t f f;
#X obj 455 154 == 0;
#X obj 221 176 f;
#X floatatom 455 222 5 0 0 0 - - - 0;
#X obj 398 159 t b f;
#X floatatom 425 192 5 0 0 0 - - - 0;
#X obj 209 139 t f f;
#X obj 176 283 outlet;
#X connect 0 0 1 0;
#X connect 1 0 2 0;
#X connect 2 0 15 0;
#X connect 3 0 14 0;
#X connect 4 0 2 0;
#X connect 5 0 4 0;
#X connect 6 0 8 0;
#X connect 7 0 1 1;
#X connect 8 0 12 0;
#X connect 8 1 9 0;
#X connect 9 0 11 0;
#X connect 10 0 7 0;
#X connect 11 0 1 1;
#X connect 12 0 10 0;
#X connect 12 1 13 0;
#X connect 13 0 7 1;
#X connect 14 0 7 0;
#X connect 14 1 10 1;
#X restore 551 791 pd morph-frequencies;
#X obj 551 816 s \$0-achordion-tone-r;
#N canvas 0 22 1069 747 morph-frequencies 0;
#X obj 176 94 inlet;
#X obj 176 236 pack f f;
#X obj 176 261 line;
#X obj 209 117 r preset-manager-morph-s;
#X msg 72 244 stop;
#X obj 72 214 r STOP-MORPH!;
#X obj 398 102 r frequencies-s;
#X obj 209 206 spigot;
#X obj 398 137 t f f;
#X obj 455 154 == 0;
#X obj 221 176 f;
#X floatatom 455 222 5 0 0 0 - - - 0;
#X obj 398 159 t b f;
#X floatatom 425 192 5 0 0 0 - - - 0;
#X obj 209 139 t f f;
#X obj 176 283 outlet;
#X connect 0 0 1 0;
#X connect 1 0 2 0;
#X connect 2 0 15 0;
#X connect 3 0 14 0;
#X connect 4 0 2 0;
#X connect 5 0 4 0;
#X connect 6 0 8 0;
#X connect 7 0 1 1;
#X connect 8 0 12 0;
#X connect 8 1 9 0;
#X connect 9 0 11 0;
#X connect 10 0 7 0;
#X connect 11 0 1 1;
#X connect 12 0 10 0;
#X connect 12 1 13 0;
#X connect 13 0 7 1;
#X connect 14 0 7 0;
#X connect 14 1 10 1;
#X restore 562 741 pd morph-frequencies;
#X obj 562 765 s \$0-achordion-tone-i-r;
#X obj 576 715 s \$0-achordion-wavetable-r;
#N canvas 0 22 1916 1001 morph-parameters 0;
#X obj 176 94 inlet;
#X obj 176 236 pack f f;
#X obj 176 261 line;
#X obj 209 117 r preset-manager-morph-s;
#X msg 72 244 stop;
#X obj 72 214 r STOP-MORPH!;
#X obj 209 206 spigot;
#X obj 398 137 t f f;
#X obj 455 154 == 0;
#X obj 221 176 f;
#X floatatom 455 222 5 0 0 0 - - - 0;
#X obj 398 159 t b f;
#X floatatom 425 192 5 0 0 0 - - - 0;
#X obj 209 139 t f f;
#X obj 398 102 r parameters-s;
#X obj 176 288 outlet;
#X connect 0 0 1 0;
#X connect 1 0 2 0;
#X connect 2 0 15 0;
#X connect 3 0 13 0;
#X connect 4 0 2 0;
#X connect 5 0 4 0;
#X connect 6 0 1 1;
#X connect 7 0 11 0;
#X connect 7 1 8 0;
#X connect 8 0 10 0;
#X connect 9 0 6 0;
#X connect 10 0 1 1;
#X connect 11 0 9 0;
#X connect 11 1 12 0;
#X connect 12 0 6 1;
#X connect 13 0 6 0;
#X connect 13 1 9 1;
#X connect 14 0 7 0;
#X restore 576 692 pd morph-parameters;
#N canvas 0 22 1916 1001 morph-attenuators 0;
#X obj 176 94 inlet;
#X obj 176 236 pack f f;
#X obj 176 261 line;
#X obj 209 117 r preset-manager-morph-s;
#X msg 72 244 stop;
#X obj 72 214 r STOP-MORPH!;
#X obj 209 206 spigot;
#X obj 398 137 t f f;
#X obj 455 154 == 0;
#X obj 221 176 f;
#X floatatom 455 222 5 0 0 0 - - - 0;
#X obj 398 159 t b f;
#X floatatom 425 192 5 0 0 0 - - - 0;
#X obj 209 139 t f f;
#X obj 398 102 r attenuators-s;
#X obj 176 288 outlet;
#X connect 0 0 1 0;
#X connect 1 0 2 0;
#X connect 2 0 15 0;
#X connect 3 0 13 0;
#X connect 4 0 2 0;
#X connect 5 0 4 0;
#X connect 6 0 1 1;
#X connect 7 0 11 0;
#X connect 7 1 8 0;
#X connect 8 0 10 0;
#X connect 9 0 6 0;
#X connect 10 0 1 1;
#X connect 11 0 9 0;
#X connect 11 1 12 0;
#X connect 12 0 6 1;
#X connect 13 0 6 0;
#X connect 13 1 9 1;
#X connect 14 0 7 0;
#X restore 584 642 pd morph-attenuators;
#X obj 584 666 s \$0-achordion-wavetable-att-r;
#X obj 598 616 s \$0-achordion-bank-r;
#X obj 609 589 s \$0-achordion-detune-r;
#N canvas 0 22 1916 1001 morph-parameters 0;
#X obj 176 94 inlet;
#X obj 176 236 pack f f;
#X obj 176 261 line;
#X obj 209 117 r preset-manager-morph-s;
#X msg 72 244 stop;
#X obj 72 214 r STOP-MORPH!;
#X obj 209 206 spigot;
#X obj 398 137 t f f;
#X obj 455 154 == 0;
#X obj 221 176 f;
#X floatatom 455 222 5 0 0 0 - - - 0;
#X obj 398 159 t b f;
#X floatatom 425 192 5 0 0 0 - - - 0;
#X obj 209 139 t f f;
#X obj 398 102 r parameters-s;
#X obj 176 288 outlet;
#X connect 0 0 1 0;
#X connect 1 0 2 0;
#X connect 2 0 15 0;
#X connect 3 0 13 0;
#X connect 4 0 2 0;
#X connect 5 0 4 0;
#X connect 6 0 1 1;
#X connect 7 0 11 0;
#X connect 7 1 8 0;
#X connect 8 0 10 0;
#X connect 9 0 6 0;
#X connect 10 0 1 1;
#X connect 11 0 9 0;
#X connect 11 1 12 0;
#X connect 12 0 6 1;
#X connect 13 0 6 0;
#X connect 13 1 9 1;
#X connect 14 0 7 0;
#X restore 609 566 pd morph-parameters;
#X obj 619 541 s \$0-achordion-detune-att-r;
#N canvas 0 22 1916 1001 morph-attenuators 0;
#X obj 176 94 inlet;
#X obj 176 236 pack f f;
#X obj 176 261 line;
#X obj 209 117 r preset-manager-morph-s;
#X msg 72 244 stop;
#X obj 72 214 r STOP-MORPH!;
#X obj 209 206 spigot;
#X obj 398 137 t f f;
#X obj 455 154 == 0;
#X obj 221 176 f;
#X floatatom 455 222 5 0 0 0 - - - 0;
#X obj 398 159 t b f;
#X floatatom 425 192 5 0 0 0 - - - 0;
#X obj 209 139 t f f;
#X obj 398 102 r attenuators-s;
#X obj 176 288 outlet;
#X connect 0 0 1 0;
#X connect 1 0 2 0;
#X connect 2 0 15 0;
#X connect 3 0 13 0;
#X connect 4 0 2 0;
#X connect 5 0 4 0;
#X connect 6 0 1 1;
#X connect 7 0 11 0;
#X connect 7 1 8 0;
#X connect 8 0 10 0;
#X connect 9 0 6 0;
#X connect 10 0 1 1;
#X connect 11 0 9 0;
#X connect 11 1 12 0;
#X connect 12 0 6 1;
#X connect 13 0 6 0;
#X connect 13 1 9 1;
#X connect 14 0 7 0;
#X restore 619 517 pd morph-attenuators;
#X obj 628 491 s \$0-achordion-chord-r;
#N canvas 0 22 1916 1001 morph-parameters 0;
#X obj 176 94 inlet;
#X obj 176 236 pack f f;
#X obj 176 261 line;
#X obj 209 117 r preset-manager-morph-s;
#X msg 72 244 stop;
#X obj 72 214 r STOP-MORPH!;
#X obj 209 206 spigot;
#X obj 398 137 t f f;
#X obj 455 154 == 0;
#X obj 221 176 f;
#X floatatom 455 222 5 0 0 0 - - - 0;
#X obj 398 159 t b f;
#X floatatom 425 192 5 0 0 0 - - - 0;
#X obj 209 139 t f f;
#X obj 398 102 r parameters-s;
#X obj 176 288 outlet;
#X connect 0 0 1 0;
#X connect 1 0 2 0;
#X connect 2 0 15 0;
#X connect 3 0 13 0;
#X connect 4 0 2 0;
#X connect 5 0 4 0;
#X connect 6 0 1 1;
#X connect 7 0 11 0;
#X connect 7 1 8 0;
#X connect 8 0 10 0;
#X connect 9 0 6 0;
#X connect 10 0 1 1;
#X connect 11 0 9 0;
#X connect 11 1 12 0;
#X connect 12 0 6 1;
#X connect 13 0 6 0;
#X connect 13 1 9 1;
#X connect 14 0 7 0;
#X restore 628 468 pd morph-parameters;
#X obj 637 444 s \$0-achordion-chord-att-r;
#N canvas 0 22 1916 1001 morph-attenuators 0;
#X obj 176 94 inlet;
#X obj 176 236 pack f f;
#X obj 176 261 line;
#X obj 209 117 r preset-manager-morph-s;
#X msg 72 244 stop;
#X obj 72 214 r STOP-MORPH!;
#X obj 209 206 spigot;
#X obj 398 137 t f f;
#X obj 455 154 == 0;
#X obj 221 176 f;
#X floatatom 455 222 5 0 0 0 - - - 0;
#X obj 398 159 t b f;
#X floatatom 425 192 5 0 0 0 - - - 0;
#X obj 209 139 t f f;
#X obj 398 102 r attenuators-s;
#X obj 176 288 outlet;
#X connect 0 0 1 0;
#X connect 1 0 2 0;
#X connect 2 0 15 0;
#X connect 3 0 13 0;
#X connect 4 0 2 0;
#X connect 5 0 4 0;
#X connect 6 0 1 1;
#X connect 7 0 11 0;
#X connect 7 1 8 0;
#X connect 8 0 10 0;
#X connect 9 0 6 0;
#X connect 10 0 1 1;
#X connect 11 0 9 0;
#X connect 11 1 12 0;
#X connect 12 0 6 1;
#X connect 13 0 6 0;
#X connect 13 1 9 1;
#X connect 14 0 7 0;
#X restore 637 421 pd morph-attenuators;
#X obj 648 397 s \$0-achordion-style-r;
#N canvas 0 22 1916 1001 morph-parameters 0;
#X obj 176 94 inlet;
#X obj 176 236 pack f f;
#X obj 176 261 line;
#X obj 209 117 r preset-manager-morph-s;
#X msg 72 244 stop;
#X obj 72 214 r STOP-MORPH!;
#X obj 209 206 spigot;
#X obj 398 137 t f f;
#X obj 455 154 == 0;
#X obj 221 176 f;
#X floatatom 455 222 5 0 0 0 - - - 0;
#X obj 398 159 t b f;
#X floatatom 425 192 5 0 0 0 - - - 0;
#X obj 209 139 t f f;
#X obj 398 102 r parameters-s;
#X obj 176 288 outlet;
#X connect 0 0 1 0;
#X connect 1 0 2 0;
#X connect 2 0 15 0;
#X connect 3 0 13 0;
#X connect 4 0 2 0;
#X connect 5 0 4 0;
#X connect 6 0 1 1;
#X connect 7 0 11 0;
#X connect 7 1 8 0;
#X connect 8 0 10 0;
#X connect 9 0 6 0;
#X connect 10 0 1 1;
#X connect 11 0 9 0;
#X connect 11 1 12 0;
#X connect 12 0 6 1;
#X connect 13 0 6 0;
#X connect 13 1 9 1;
#X connect 14 0 7 0;
#X restore 657 350 pd morph-parameters;
#N canvas 0 22 1916 1001 morph-parameters 0;
#X obj 176 94 inlet;
#X obj 176 236 pack f f;
#X obj 176 261 line;
#X obj 209 117 r preset-manager-morph-s;
#X msg 72 244 stop;
#X obj 72 214 r STOP-MORPH!;
#X obj 209 206 spigot;
#X obj 398 137 t f f;
#X obj 455 154 == 0;
#X obj 221 176 f;
#X floatatom 455 222 5 0 0 0 - - - 0;
#X obj 398 159 t b f;
#X floatatom 425 192 5 0 0 0 - - - 0;
#X obj 209 139 t f f;
#X obj 398 102 r parameters-s;
#X obj 176 288 outlet;
#X connect 0 0 1 0;
#X connect 1 0 2 0;
#X connect 2 0 15 0;
#X connect 3 0 13 0;
#X connect 4 0 2 0;
#X connect 5 0 4 0;
#X connect 6 0 1 1;
#X connect 7 0 11 0;
#X connect 7 1 8 0;
#X connect 8 0 10 0;
#X connect 9 0 6 0;
#X connect 10 0 1 1;
#X connect 11 0 9 0;
#X connect 11 1 12 0;
#X connect 12 0 6 1;
#X connect 13 0 6 0;
#X connect 13 1 9 1;
#X connect 14 0 7 0;
#X restore 668 301 pd morph-parameters;
#X obj 668 324 s \$0-achordion-mode-r;
#X obj 107 421 pack f f f f f f f f f f f f f;
#X obj 301 394 r \$0-achordion-tone-i-on-s;
#X obj 481 250 unpack f f f f f f f f f f f f f;
#X obj 685 276 s \$0-achordion-tone-i-on-r;
#X msg 107 481 set \$1 \$2 \$3 \$4 \$5 \$6 \$7 \$8 \$9 \$10 \$11 \$12
\$13;
#X obj 273 344 r \$0-achordion-tonic-s;
#X obj 657 372 s \$0-achordion-tonic-r;
#X connect 0 0 60 0;
#X connect 1 0 0 0;
#X connect 2 0 0 0;
#X connect 4 0 2 0;
#X connect 4 1 1 0;
#X connect 5 0 58 0;
#X connect 6 0 19 0;
#X connect 7 0 10 0;
#X connect 7 1 9 0;
#X connect 7 2 8 0;
#X connect 8 0 3 0;
#X connect 9 0 5 0;
#X connect 10 0 6 0;
#X connect 11 0 7 0;
#X connect 12 0 11 0;
#X connect 13 0 17 0;
#X connect 14 0 4 0;
#X connect 14 1 13 0;
#X connect 15 0 14 0;
#X connect 15 1 13 1;
#X connect 16 0 17 1;
#X connect 17 0 25 0;
#X connect 18 0 16 0;
#X connect 19 0 24 0;
#X connect 20 0 21 0;
#X connect 21 0 19 1;
#X connect 22 0 15 0;
#X connect 23 0 6 1;
#X connect 24 0 3 0;
#X connect 25 0 0 0;
#X connect 26 0 5 1;
#X connect 27 0 58 1;
#X connect 28 0 58 2;
#X connect 29 0 58 3;
#X connect 30 0 58 4;
#X connect 31 0 58 5;
#X connect 32 0 58 6;
#X connect 33 0 58 7;
#X connect 34 0 58 8;
#X connect 35 0 58 9;
#X connect 36 0 58 11;
#X connect 37 0 38 0;
#X connect 39 0 40 0;
#X connect 42 0 41 0;
#X connect 43 0 44 0;
#X connect 47 0 46 0;
#X connect 49 0 48 0;
#X connect 51 0 50 0;
#X connect 53 0 52 0;
#X connect 55 0 64 0;
#X connect 56 0 57 0;
#X connect 58 0 62 0;
#X connect 59 0 58 12;
#X connect 60 0 37 0;
#X connect 60 1 39 0;
#X connect 60 2 42 0;
#X connect 60 3 43 0;
#X connect 60 4 45 0;
#X connect 60 5 47 0;
#X connect 60 6 49 0;
#X connect 60 7 51 0;
#X connect 60 8 53 0;
#X connect 60 9 54 0;
#X connect 60 10 55 0;
#X connect 60 11 56 0;
#X connect 60 12 61 0;
#X connect 62 0 3 0;
#X connect 63 0 58 10;
#X restore 547 94 pd state-saving-via-preset-manager-module;
#N canvas 396 31 1916 1001 parameter-nudging-system 0;
#X obj 32 67 clip 0 127;
#X obj 540 67 clip 0 127;
#N canvas 0 22 1916 1001 nudge-attenuators 0;
#X obj 124 234 random;
#X obj 232 335 f;
#X obj 232 368 +;
#X obj 257 166 random 2;
#X obj 124 275 t f f;
#X obj 124 351 t b f;
#X obj 124 297 *;
#X obj 257 188 sel 0 1;
#X msg 257 280 -1;
#X msg 335 280 1;
#X obj 124 149 t b b b;
#X obj 124 71 r NUDGE!;
#X obj 157 193 r NUDGE-RANGE;
#X obj 247 308 inlet;
#X obj 232 397 outlet;
#X obj 124 93 spigot;
#X obj 201 76 r attenuators2-s;
#X connect 0 0 4 0;
#X connect 1 0 2 0;
#X connect 2 0 14 0;
#X connect 3 0 7 0;
#X connect 4 0 6 0;
#X connect 5 0 2 0;
#X connect 5 1 2 1;
#X connect 6 0 5 0;
#X connect 7 0 8 0;
#X connect 7 1 9 0;
#X connect 8 0 6 1;
#X connect 9 0 6 1;
#X connect 10 0 0 0;
#X connect 10 1 1 0;
#X connect 10 2 3 0;
#X connect 11 0 15 0;
#X connect 12 0 0 1;
#X connect 13 0 1 1;
#X connect 15 0 10 0;
#X connect 16 0 15 1;
#X restore 540 45 pd nudge-attenuators;
#X obj 32 22 r \$0-achordion-tone-s;
#X obj 32 99 s \$0-achordion-tone-r;
#X obj 192 67 clip 0 127;
#X obj 192 22 r \$0-achordion-tone-i-s;
#X obj 192 99 s \$0-achordion-tone-i-r;
#X obj 362 67 clip 0 127;
#N canvas 0 22 1916 1001 nudge-parameters 0;
#X obj 124 234 random;
#X obj 232 335 f;
#X obj 232 368 +;
#X obj 257 166 random 2;
#X obj 124 275 t f f;
#X obj 124 351 t b f;
#X obj 124 297 *;
#X obj 257 188 sel 0 1;
#X msg 257 280 -1;
#X msg 335 280 1;
#X obj 124 149 t b b b;
#X obj 124 74 r NUDGE!;
#X obj 157 193 r NUDGE-RANGE;
#X obj 247 308 inlet;
#X obj 232 397 outlet;
#X obj 124 96 spigot;
#X obj 185 79 r parameters2-s;
#X connect 0 0 4 0;
#X connect 1 0 2 0;
#X connect 2 0 14 0;
#X connect 3 0 7 0;
#X connect 4 0 6 0;
#X connect 5 0 2 0;
#X connect 5 1 2 1;
#X connect 6 0 5 0;
#X connect 7 0 8 0;
#X connect 7 1 9 0;
#X connect 8 0 6 1;
#X connect 9 0 6 1;
#X connect 10 0 0 0;
#X connect 10 1 1 0;
#X connect 10 2 3 0;
#X connect 11 0 15 0;
#X connect 12 0 0 1;
#X connect 13 0 1 1;
#X connect 15 0 10 0;
#X connect 16 0 15 1;
#X restore 362 45 pd nudge-parameters;
#X obj 362 22 r \$0-achordion-wavetable-s;
#X obj 362 99 s \$0-achordion-wavetable-r;
#X obj 540 22 r \$0-achordion-wavetable-att-s;
#X obj 540 99 s \$0-achordion-wavetable-att-r;
#X obj 209 190 clip 0 127;
#N canvas 0 22 1916 1001 nudge-attenuators 0;
#X obj 124 234 random;
#X obj 232 335 f;
#X obj 232 368 +;
#X obj 257 166 random 2;
#X obj 124 275 t f f;
#X obj 124 351 t b f;
#X obj 124 297 *;
#X obj 257 188 sel 0 1;
#X msg 257 280 -1;
#X msg 335 280 1;
#X obj 124 149 t b b b;
#X obj 124 71 r NUDGE!;
#X obj 157 193 r NUDGE-RANGE;
#X obj 247 308 inlet;
#X obj 232 397 outlet;
#X obj 124 93 spigot;
#X obj 201 76 r attenuators2-s;
#X connect 0 0 4 0;
#X connect 1 0 2 0;
#X connect 2 0 14 0;
#X connect 3 0 7 0;
#X connect 4 0 6 0;
#X connect 5 0 2 0;
#X connect 5 1 2 1;
#X connect 6 0 5 0;
#X connect 7 0 8 0;
#X connect 7 1 9 0;
#X connect 8 0 6 1;
#X connect 9 0 6 1;
#X connect 10 0 0 0;
#X connect 10 1 1 0;
#X connect 10 2 3 0;
#X connect 11 0 15 0;
#X connect 12 0 0 1;
#X connect 13 0 1 1;
#X connect 15 0 10 0;
#X connect 16 0 15 1;
#X restore 209 168 pd nudge-attenuators;
#X obj 31 190 clip 0 127;
#N canvas 0 22 1916 1001 nudge-parameters 0;
#X obj 124 234 random;
#X obj 232 335 f;
#X obj 232 368 +;
#X obj 257 166 random 2;
#X obj 124 275 t f f;
#X obj 124 351 t b f;
#X obj 124 297 *;
#X obj 257 188 sel 0 1;
#X msg 257 280 -1;
#X msg 335 280 1;
#X obj 124 149 t b b b;
#X obj 124 74 r NUDGE!;
#X obj 157 193 r NUDGE-RANGE;
#X obj 247 308 inlet;
#X obj 232 397 outlet;
#X obj 124 96 spigot;
#X obj 185 79 r parameters2-s;
#X connect 0 0 4 0;
#X connect 1 0 2 0;
#X connect 2 0 14 0;
#X connect 3 0 7 0;
#X connect 4 0 6 0;
#X connect 5 0 2 0;
#X connect 5 1 2 1;
#X connect 6 0 5 0;
#X connect 7 0 8 0;
#X connect 7 1 9 0;
#X connect 8 0 6 1;
#X connect 9 0 6 1;
#X connect 10 0 0 0;
#X connect 10 1 1 0;
#X connect 10 2 3 0;
#X connect 11 0 15 0;
#X connect 12 0 0 1;
#X connect 13 0 1 1;
#X connect 15 0 10 0;
#X connect 16 0 15 1;
#X restore 31 168 pd nudge-parameters;
#X obj 31 145 r \$0-achordion-detune-s;
#X obj 31 222 s \$0-achordion-detune-r;
#X obj 209 145 r \$0-achordion-detune-att-s;
#X obj 209 222 s \$0-achordion-detune-att-r;
#X obj 578 189 clip 0 127;
#N canvas 0 22 1916 1001 nudge-attenuators 0;
#X obj 124 234 random;
#X obj 232 335 f;
#X obj 232 368 +;
#X obj 257 166 random 2;
#X obj 124 275 t f f;
#X obj 124 351 t b f;
#X obj 124 297 *;
#X obj 257 188 sel 0 1;
#X msg 257 280 -1;
#X msg 335 280 1;
#X obj 124 149 t b b b;
#X obj 124 71 r NUDGE!;
#X obj 157 193 r NUDGE-RANGE;
#X obj 247 308 inlet;
#X obj 232 397 outlet;
#X obj 124 93 spigot;
#X obj 201 76 r attenuators2-s;
#X connect 0 0 4 0;
#X connect 1 0 2 0;
#X connect 2 0 14 0;
#X connect 3 0 7 0;
#X connect 4 0 6 0;
#X connect 5 0 2 0;
#X connect 5 1 2 1;
#X connect 6 0 5 0;
#X connect 7 0 8 0;
#X connect 7 1 9 0;
#X connect 8 0 6 1;
#X connect 9 0 6 1;
#X connect 10 0 0 0;
#X connect 10 1 1 0;
#X connect 10 2 3 0;
#X connect 11 0 15 0;
#X connect 12 0 0 1;
#X connect 13 0 1 1;
#X connect 15 0 10 0;
#X connect 16 0 15 1;
#X restore 578 167 pd nudge-attenuators;
#X obj 400 189 clip 0 127;
#N canvas 0 22 1916 1001 nudge-parameters 0;
#X obj 124 234 random;
#X obj 232 335 f;
#X obj 232 368 +;
#X obj 257 166 random 2;
#X obj 124 275 t f f;
#X obj 124 351 t b f;
#X obj 124 297 *;
#X obj 257 188 sel 0 1;
#X msg 257 280 -1;
#X msg 335 280 1;
#X obj 124 149 t b b b;
#X obj 124 74 r NUDGE!;
#X obj 157 193 r NUDGE-RANGE;
#X obj 247 308 inlet;
#X obj 232 397 outlet;
#X obj 124 96 spigot;
#X obj 185 79 r parameters2-s;
#X connect 0 0 4 0;
#X connect 1 0 2 0;
#X connect 2 0 14 0;
#X connect 3 0 7 0;
#X connect 4 0 6 0;
#X connect 5 0 2 0;
#X connect 5 1 2 1;
#X connect 6 0 5 0;
#X connect 7 0 8 0;
#X connect 7 1 9 0;
#X connect 8 0 6 1;
#X connect 9 0 6 1;
#X connect 10 0 0 0;
#X connect 10 1 1 0;
#X connect 10 2 3 0;
#X connect 11 0 15 0;
#X connect 12 0 0 1;
#X connect 13 0 1 1;
#X connect 15 0 10 0;
#X connect 16 0 15 1;
#X restore 400 167 pd nudge-parameters;
#X obj 400 144 r \$0-achordion-chord-s;
#X obj 400 221 s \$0-achordion-chord-r;
#X obj 578 144 r \$0-achordion-chord-att-s;
#X obj 578 221 s \$0-achordion-chord-att-r;
#X obj 32 313 clip 0 127;
#N canvas 0 22 1916 1001 nudge-parameters 0;
#X obj 124 234 random;
#X obj 232 335 f;
#X obj 232 368 +;
#X obj 257 166 random 2;
#X obj 124 275 t f f;
#X obj 124 351 t b f;
#X obj 124 297 *;
#X obj 257 188 sel 0 1;
#X msg 257 280 -1;
#X msg 335 280 1;
#X obj 124 149 t b b b;
#X obj 124 74 r NUDGE!;
#X obj 157 193 r NUDGE-RANGE;
#X obj 247 308 inlet;
#X obj 232 397 outlet;
#X obj 124 96 spigot;
#X obj 185 79 r parameters2-s;
#X connect 0 0 4 0;
#X connect 1 0 2 0;
#X connect 2 0 14 0;
#X connect 3 0 7 0;
#X connect 4 0 6 0;
#X connect 5 0 2 0;
#X connect 5 1 2 1;
#X connect 6 0 5 0;
#X connect 7 0 8 0;
#X connect 7 1 9 0;
#X connect 8 0 6 1;
#X connect 9 0 6 1;
#X connect 10 0 0 0;
#X connect 10 1 1 0;
#X connect 10 2 3 0;
#X connect 11 0 15 0;
#X connect 12 0 0 1;
#X connect 13 0 1 1;
#X connect 15 0 10 0;
#X connect 16 0 15 1;
#X restore 32 291 pd nudge-parameters;
#X obj 192 313 clip 0 127;
#N canvas 0 22 1916 1001 nudge-parameters 0;
#X obj 124 234 random;
#X obj 232 335 f;
#X obj 232 368 +;
#X obj 257 166 random 2;
#X obj 124 275 t f f;
#X obj 124 351 t b f;
#X obj 124 297 *;
#X obj 257 188 sel 0 1;
#X msg 257 280 -1;
#X msg 335 280 1;
#X obj 124 149 t b b b;
#X obj 124 74 r NUDGE!;
#X obj 157 193 r NUDGE-RANGE;
#X obj 247 308 inlet;
#X obj 232 397 outlet;
#X obj 124 96 spigot;
#X obj 185 79 r parameters2-s;
#X connect 0 0 4 0;
#X connect 1 0 2 0;
#X connect 2 0 14 0;
#X connect 3 0 7 0;
#X connect 4 0 6 0;
#X connect 5 0 2 0;
#X connect 5 1 2 1;
#X connect 6 0 5 0;
#X connect 7 0 8 0;
#X connect 7 1 9 0;
#X connect 8 0 6 1;
#X connect 9 0 6 1;
#X connect 10 0 0 0;
#X connect 10 1 1 0;
#X connect 10 2 3 0;
#X connect 11 0 15 0;
#X connect 12 0 0 1;
#X connect 13 0 1 1;
#X connect 15 0 10 0;
#X connect 16 0 15 1;
#X restore 192 291 pd nudge-parameters;
#X obj 32 268 r \$0-achordion-tonic-s;
#X obj 32 345 s \$0-achordion-tonic-r;
#X obj 192 268 r \$0-achordion-mode-s;
#X obj 192 345 s \$0-achordion-mode-r;
#N canvas 0 22 484 497 nudge-freq 0;
#X obj 124 234 random;
#X obj 232 335 f;
#X obj 232 368 +;
#X obj 257 166 random 2;
#X obj 124 275 t f f;
#X obj 124 351 t b f;
#X obj 124 297 *;
#X obj 257 188 sel 0 1;
#X msg 257 280 -1;
#X msg 335 280 1;
#X obj 124 149 t b b b;
#X obj 124 51 r NUDGE!;
#X obj 157 193 r NUDGE-RANGE;
#X obj 247 308 inlet;
#X obj 232 397 outlet;
#X obj 124 73 spigot;
#X obj 185 56 r frequencies2-s;
#X connect 0 0 4 0;
#X connect 1 0 2 0;
#X connect 2 0 14 0;
#X connect 3 0 7 0;
#X connect 4 0 6 0;
#X connect 5 0 2 0;
#X connect 5 1 2 1;
#X connect 6 0 5 0;
#X connect 7 0 8 0;
#X connect 7 1 9 0;
#X connect 8 0 6 1;
#X connect 9 0 6 1;
#X connect 10 0 0 0;
#X connect 10 1 1 0;
#X connect 10 2 3 0;
#X connect 11 0 15 0;
#X connect 12 0 0 1;
#X connect 13 0 1 1;
#X connect 15 0 10 0;
#X connect 16 0 15 1;
#X restore 32 45 pd nudge-freq;
#N canvas 0 22 484 497 nudge-freq 0;
#X obj 124 234 random;
#X obj 232 335 f;
#X obj 232 368 +;
#X obj 257 166 random 2;
#X obj 124 275 t f f;
#X obj 124 351 t b f;
#X obj 124 297 *;
#X obj 257 188 sel 0 1;
#X msg 257 280 -1;
#X msg 335 280 1;
#X obj 124 149 t b b b;
#X obj 124 51 r NUDGE!;
#X obj 157 193 r NUDGE-RANGE;
#X obj 247 308 inlet;
#X obj 232 397 outlet;
#X obj 124 73 spigot;
#X obj 185 56 r frequencies2-s;
#X connect 0 0 4 0;
#X connect 1 0 2 0;
#X connect 2 0 14 0;
#X connect 3 0 7 0;
#X connect 4 0 6 0;
#X connect 5 0 2 0;
#X connect 5 1 2 1;
#X connect 6 0 5 0;
#X connect 7 0 8 0;
#X connect 7 1 9 0;
#X connect 8 0 6 1;
#X connect 9 0 6 1;
#X connect 10 0 0 0;
#X connect 10 1 1 0;
#X connect 10 2 3 0;
#X connect 11 0 15 0;
#X connect 12 0 0 1;
#X connect 13 0 1 1;
#X connect 15 0 10 0;
#X connect 16 0 15 1;
#X restore 192 45 pd nudge-freq;
#X connect 0 0 4 0;
#X connect 1 0 13 0;
#X connect 2 0 1 0;
#X connect 3 0 38 0;
#X connect 5 0 7 0;
#X connect 6 0 39 0;
#X connect 8 0 11 0;
#X connect 9 0 8 0;
#X connect 10 0 9 0;
#X connect 12 0 2 0;
#X connect 14 0 21 0;
#X connect 15 0 14 0;
#X connect 16 0 19 0;
#X connect 17 0 16 0;
#X connect 18 0 17 0;
#X connect 20 0 15 0;
#X connect 22 0 29 0;
#X connect 23 0 22 0;
#X connect 24 0 27 0;
#X connect 25 0 24 0;
#X connect 26 0 25 0;
#X connect 28 0 23 0;
#X connect 30 0 35 0;
#X connect 31 0 30 0;
#X connect 32 0 37 0;
#X connect 33 0 32 0;
#X connect 34 0 31 0;
#X connect 36 0 33 0;
#X connect 38 0 0 0;
#X connect 39 0 5 0;
#X restore 548 66 pd parameter-nudging-system;
#X obj 105 111 cnv 5 5 5 empty empty TONE 0 0 0 8 #fcfcfc #404040 0
;
#N canvas 474 23 1916 1001 external-messages 0;
#X floatatom 109 625 5 0 0 0 - - - 0;
#X obj 185 328 spigot;
#X obj 218 288 tgl 15 0 empty empty empty 17 7 0 10 #fcfcfc #000000
#000000 0 1;
#X obj 254 272 ==;
#X obj 269 248 f \$1;
#X obj 269 224 loadbang;
#X msg 185 202 \$1 \$2;
#X msg 185 156 symbol \$1;
#X obj 185 180 pack s f;
#X obj 109 604 f;
#X obj 109 552 t b f;
#X obj 109 575 spigot;
#X obj 185 62 unpack s f f;
#X symbolatom 185 94 10 0 0 0 - - - 0;
#X obj 218 308 t f f;
#X obj 245 332 s \$0-msg-spigot;
#X obj 157 559 r \$0-msg-spigot;
#X floatatom 186 490 5 0 0 0 - - - 0;
#X obj 186 469 f;
#X obj 186 417 t b f;
#X obj 186 440 spigot;
#X obj 234 424 r \$0-msg-spigot;
#X floatatom 279 626 5 0 0 0 - - - 0;
#X obj 279 605 f;
#X obj 279 553 t b f;
#X obj 279 576 spigot;
#X obj 327 560 r \$0-msg-spigot;
#X floatatom 377 492 5 0 0 0 - - - 0;
#X obj 377 471 f;
#X obj 377 419 t b f;
#X obj 377 442 spigot;
#X obj 425 426 r \$0-msg-spigot;
#X obj 185 14 r achordion;
#X obj 185 380 route TONE TONE_I WAVETABLE DETUNE CHORD;
#X floatatom 468 627 5 0 0 0 - - - 0;
#X obj 468 606 f;
#X obj 468 554 t b f;
#X obj 468 577 spigot;
#X obj 516 561 r \$0-msg-spigot;
#X obj 109 645 s \$0-achordion-tone-r;
#X obj 186 510 s \$0-achordion-tone-i-r;
#X obj 279 646 s \$0-achordion-wavetable-r;
#X obj 377 512 s \$0-achordinon-detune-r;
#X obj 468 647 s \$0-achordion-chord-r;
#X connect 0 0 39 0;
#X connect 1 0 33 0;
#X connect 2 0 14 0;
#X connect 3 0 2 0;
#X connect 4 0 3 1;
#X connect 5 0 4 0;
#X connect 6 0 1 0;
#X connect 7 0 8 0;
#X connect 8 0 6 0;
#X connect 9 0 0 0;
#X connect 10 0 11 0;
#X connect 10 1 9 1;
#X connect 11 0 9 0;
#X connect 12 0 13 0;
#X connect 12 1 8 1;
#X connect 12 2 3 0;
#X connect 13 0 7 0;
#X connect 14 0 1 1;
#X connect 14 1 15 0;
#X connect 16 0 11 1;
#X connect 17 0 40 0;
#X connect 18 0 17 0;
#X connect 19 0 20 0;
#X connect 19 1 18 1;
#X connect 20 0 18 0;
#X connect 21 0 20 1;
#X connect 22 0 41 0;
#X connect 23 0 22 0;
#X connect 24 0 25 0;
#X connect 24 1 23 1;
#X connect 25 0 23 0;
#X connect 26 0 25 1;
#X connect 27 0 42 0;
#X connect 28 0 27 0;
#X connect 29 0 30 0;
#X connect 29 1 28 1;
#X connect 30 0 28 0;
#X connect 31 0 30 1;
#X connect 32 0 12 0;
#X connect 33 0 10 0;
#X connect 33 1 19 0;
#X connect 33 2 24 0;
#X connect 33 3 29 0;
#X connect 33 4 36 0;
#X connect 34 0 43 0;
#X connect 35 0 34 0;
#X connect 36 0 37 0;
#X connect 36 1 35 1;
#X connect 37 0 35 0;
#X connect 38 0 37 1;
#X restore 549 40 pd external-messages;
#X obj 233 330 cnv 5 5 5 empty empty OUT 0 0 0 8 #fcfcfc #404040 0
;
#X obj 356 331 cnv 5 5 5 empty empty OUT' 0 0 0 8 #fcfcfc #404040 0
;
#X obj 142 111 cnv 5 5 5 empty empty TONE' 0 0 0 8 #fcfcfc #404040
0;
#X obj 858 29 inlet~ TONE;
#X obj 179 273 hradio 15 1 1 4 \$0-achordion-style-s \$0-achordion-style-r
STYLE 63 7 0 10 #fcfcfc #000000 #000000 2;
#X obj 109 153 hsl 113 15 0 127 0 1 \$0-achordion-tone-i-s \$0-achordion-tone-i-r
TONE' 133 7 0 10 #fcfcfc #000000 #000000 10100 1;
#X obj 109 168 hsl 128 15 0 127 0 1 \$0-achordion-wavetable-s \$0-achordion-wavetable-r
WAVETABLE 133 7 0 10 #fcfcfc #000000 #000000 5900 1;
#X obj 109 213 hsl 128 15 0 127 0 1 \$0-achordion-detune-s \$0-achordion-detune-r
DETUNE 133 7 0 10 #fcfcfc #000000 #000000 4700 1;
#X obj 109 243 hsl 128 15 0 127 0 1 \$0-achordion-chord-s \$0-achordion-chord-r
CHORD 133 7 0 10 #fcfcfc #000000 #000000 7800 1;
#X obj 109 288 hsl 128 15 0 127 0 1 \$0-achordion-tonic-s \$0-achordion-tonic-r
empty 133 7 0 10 #fcfcfc #000000 #000000 6900 1;
#X obj 109 303 hsl 128 15 0 127 0 1 \$0-achordion-mode-s \$0-achordion-mode-r
empty 133 7 0 10 #fcfcfc #000000 #000000 5700 1;
#X obj 1495 580 r \$0-achordion-style-s;
#X obj 1495 603 / 4;
#X obj 1495 626 + 0.125;
#X obj 1640 603 / 4;
#X obj 1640 626 + 0.125;
#X obj 1640 580 r \$0-achordion-bank-s;
#X obj 955 746 outlet~ MIX;
#X obj 1082 746 outlet~ OUT;
#X obj 1211 746 outlet~ OUT_I;
#X obj 859 93 snapshot~;
#X obj 873 51 loadbang;
#X obj 873 72 metro;
#X obj 920 199 +;
#X obj 886 380 snapshot~;
#X obj 900 338 loadbang;
#X obj 900 359 metro;
#X obj 959 406 +;
#X obj 885 316 inlet~ TONE_I;
#X obj 974 316 r \$0-achordion-note-i-s;
#X obj 922 575 snapshot~;
#X obj 936 533 loadbang;
#X obj 936 554 metro;
#X obj 921 511 inlet~ WAVETABLE;
#X obj 1094 93 snapshot~;
#X obj 1108 51 loadbang;
#X obj 1108 72 metro;
#X obj 1162 154 +;
#X obj 1093 29 inlet~ DETUNE;
#X obj 1196 126 r \$0-achordion-detune-s;
#X obj 1138 380 snapshot~;
#X obj 1152 338 loadbang;
#X obj 1152 359 metro;
#X obj 1137 316 inlet~ CHORD;
#X obj 955 724 r~ \$0-achordion-mix;
#X obj 1082 724 r~ \$0-achordion-out;
#X obj 1211 724 r~ \$0-achordion-out-i;
#X obj 109 183 hsl 128 15 0 127 0 1 \$0-achordion-wavetable-att-s \$0-achordion-wavetable-att-r
ATT 133 7 0 10 #9898dc #000000 #000000 6300 1;
#X obj 109 228 hsl 128 15 0 127 0 1 \$0-achordion-detune-att-s \$0-achordion-detune-att-r
ATT 133 7 0 10 #9898dc #000000 #000000 4800 1;
#X obj 109 258 hsl 128 15 0 127 0 1 \$0-achordion-chord-att-s \$0-achordion-chord-att-r
ATT 133 7 0 10 #9898dc #000000 #000000 0 1;
#X obj 175 111 cnv 5 5 5 empty empty WAVETABLE 0 0 0 8 #fcfcfc #7474a4
0;
#X obj 227 111 cnv 5 5 5 empty empty DETUNE 0 0 0 8 #fcfcfc #7474a4
0;
#X obj 273 111 cnv 5 5 5 empty empty CHORD 0 0 0 8 #fcfcfc #7474a4
0;
#X obj 242 310 cnv 5 5 5 empty \$0-achordion-mode-gui-r Lydian 0 0
0 10 #fcfcfc #404040 0;
#X obj 242 295 cnv 5 5 5 empty \$0-achordion-tonic-gui-r G# 0 0 0 10
#fcfcfc #404040 0;
#X obj 57 654 makefilename %s;
#X msg 57 678 label \$1;
#X obj 57 701 s \$0-achordion-tonic-gui-r;
#X msg 57 402 symbol C;
#X msg 67 424 symbol C#;
#X msg 77 446 symbol D;
#X msg 87 468 symbol D#;
#X msg 97 490 symbol E;
#X msg 107 512 symbol F;
#X msg 117 535 symbol G;
#X msg 127 557 symbol G#;
#X msg 137 579 symbol A;
#X msg 147 601 symbol A#;
#X msg 157 623 symbol B;
#X obj 278 581 makefilename %s;
#X msg 278 605 label \$1;
#X obj 278 628 s \$0-achordion-mode-gui-r;
#X msg 278 399 symbol Ionian;
#X msg 288 421 symbol Dorian;
#X msg 298 443 symbol Phrigian;
#X msg 308 465 symbol Lydian;
#X msg 318 487 symbol Mixolydian;
#X msg 328 509 symbol Aelonian;
#X msg 338 532 symbol Locrian;
#X msg 348 554 symbol H. Minor;
#X obj 1366 172 snapshot~;
#X obj 1380 130 loadbang;
#X obj 1380 151 metro;
#X obj 1437 198 +;
#X obj 1425 331 snapshot~;
#X obj 1439 289 loadbang;
#X obj 1439 310 metro;
#X obj 1490 357 +;
#X obj 1365 108 inlet~ TONIC;
#X obj 1452 108 r \$0-achordion-tonic-s;
#X obj 1424 267 inlet~ MODE;
#X obj 1505 266 r \$0-achordion-mode-s;
#X obj 935 29 r \$0-achordion-tone-s;
#X obj 920 222 s \$0-achordion-tone;
#X obj 1177 69 r \$0-achordion-detune-att-s;
#X obj 1177 92 / 127;
#X obj 1162 126 *;
#X obj 1162 179 s \$0-achordion-detune;
#X obj 1437 223 s \$0-achordion-tonic;
#X obj 1490 381 s \$0-achordion-mode;
#X obj 959 430 s \$0-achordion-tone-i;
#X obj 1495 650 s \$0-achordion-style;
#X obj 1640 650 s \$0-achordion-bank;
#X obj 1202 443 +;
#X obj 1217 381 / 127;
#X obj 1202 415 *;
#X obj 1217 358 r \$0-achordion-chord-att-s;
#X obj 1236 415 r \$0-achordion-chord-s;
#X obj 1202 468 s \$0-achordion-chord;
#X obj 989 641 +;
#X obj 1004 579 / 127;
#X obj 989 613 *;
#X obj 1004 556 r \$0-achordion-wavetable-att-s;
#X obj 1023 613 r \$0-achordion-wavetable-s;
#X obj 989 666 s \$0-achordion-wavetable;
#X obj 314 111 cnv 5 5 5 empty empty TONIC 0 0 0 8 #fcfcfc #404040
0;
#X obj 353 111 cnv 5 5 5 empty empty MODE 0 0 0 8 #fcfcfc #404040 0
;
#X obj 224 153 tgl 15 1 \$0-achordion-tone-i-on-s \$0-achordion-tone-i-on-r
empty 17 7 0 10 #fcfcfc #000000 #000000 1 1;
#X obj 539 819 achordion~;
#X obj 566 875 s~ \$0-achoridon-out;
#X obj 597 851 s~ \$0-achordion-out-i;
#X obj 538 362 r \$0-achordion-tone;
#X obj 538 900 s~ \$0-achordion-mix;
#X obj 935 52 / 127;
#X obj 935 75 * 10;
#X obj 859 116 * 10;
#X obj 974 100 t f f;
#X obj 989 152 spigot;
#X obj 1022 128 == 0;
#X obj 944 152 spigot;
#X obj 935 99 t f f;
#X obj 944 174 int;
#X connect 5 0 7 0;
#X connect 7 0 8 0;
#X connect 8 0 6 0;
#X connect 16 0 33 0;
#X connect 24 0 25 0;
#X connect 25 0 26 0;
#X connect 26 0 114 0;
#X connect 27 0 28 0;
#X connect 28 0 115 0;
#X connect 29 0 27 0;
#X connect 33 0 138 0;
#X connect 34 0 35 0;
#X connect 35 0 33 0;
#X connect 36 0 106 0;
#X connect 37 0 40 0;
#X connect 38 0 39 0;
#X connect 39 0 37 0;
#X connect 40 0 113 0;
#X connect 41 0 37 0;
#X connect 42 0 40 1;
#X connect 43 0 124 0;
#X connect 44 0 45 0;
#X connect 45 0 43 0;
#X connect 46 0 43 0;
#X connect 47 0 109 0;
#X connect 48 0 49 0;
#X connect 49 0 47 0;
#X connect 50 0 110 0;
#X connect 51 0 47 0;
#X connect 52 0 50 1;
#X connect 53 0 118 0;
#X connect 54 0 55 0;
#X connect 55 0 53 0;
#X connect 56 0 53 0;
#X connect 57 0 30 0;
#X connect 58 0 31 0;
#X connect 59 0 32 0;
#X connect 68 0 69 0;
#X connect 69 0 70 0;
#X connect 71 0 68 0;
#X connect 72 0 68 0;
#X connect 73 0 68 0;
#X connect 74 0 68 0;
#X connect 75 0 68 0;
#X connect 76 0 68 0;
#X connect 77 0 68 0;
#X connect 78 0 68 0;
#X connect 79 0 68 0;
#X connect 80 0 68 0;
#X connect 81 0 68 0;
#X connect 82 0 83 0;
#X connect 83 0 84 0;
#X connect 85 0 82 0;
#X connect 86 0 82 0;
#X connect 87 0 82 0;
#X connect 88 0 82 0;
#X connect 89 0 82 0;
#X connect 90 0 82 0;
#X connect 91 0 82 0;
#X connect 92 0 82 0;
#X connect 93 0 96 0;
#X connect 94 0 95 0;
#X connect 95 0 93 0;
#X connect 96 0 111 0;
#X connect 97 0 100 0;
#X connect 98 0 99 0;
#X connect 99 0 97 0;
#X connect 100 0 112 0;
#X connect 101 0 93 0;
#X connect 102 0 96 1;
#X connect 103 0 97 0;
#X connect 104 0 100 1;
#X connect 105 0 136 0;
#X connect 107 0 108 0;
#X connect 108 0 109 1;
#X connect 109 0 50 0;
#X connect 116 0 121 0;
#X connect 117 0 118 1;
#X connect 118 0 116 0;
#X connect 119 0 117 0;
#X connect 120 0 116 1;
#X connect 122 0 127 0;
#X connect 123 0 124 1;
#X connect 124 0 122 0;
#X connect 125 0 123 0;
#X connect 126 0 122 1;
#X connect 131 0 135 0;
#X connect 131 1 132 0;
#X connect 131 2 133 0;
#X connect 134 0 131 0;
#X connect 136 0 137 0;
#X connect 137 0 143 0;
#X connect 138 0 36 0;
#X connect 138 0 139 0;
#X connect 139 0 142 1;
#X connect 139 1 141 0;
#X connect 140 0 36 1;
#X connect 141 0 140 1;
#X connect 142 0 144 0;
#X connect 143 0 142 0;
#X connect 143 1 140 0;
#X connect 144 0 36 1;
#X coords 0 -1 1 1 280 240 2 100 100;
