#N canvas 0 45 1916 1001 10;
#X obj 105 387 cnv 5 5 5 empty empty OUT 0 0 0 8 #fcfcfc #404040 0
;
#N canvas 0 45 1916 1001 state-saving-multiple-instances 0;
#X obj 1066 31 loadbang;
#X obj 1044 291 textfile;
#X msg 1326 274 rewind;
#X msg 1283 274 bang;
#X obj 95 916 textfile;
#X obj 1283 235 t b b;
#X obj 92 680 f;
#X obj 102 822 f;
#X obj 33 724 t b b b;
#X msg 165 822 clear;
#X obj 1132 219 outlet;
#X text 1175 220 INSTANCE NUMBER;
#X obj 1093 155 f \$1;
#X obj 1093 191 t f f f;
#X obj 1066 64 t b b;
#X obj 33 701 bng 15 250 50 0 empty empty empty 17 7 0 10 #fcfcfc #000000
#000000;
#X obj 28 24 r SAVE-S;
#X obj 1150 39 r \$0-reload!;
#X text 1232 40 RETURN TO PREVIOUS VALUE AFTER USING MORPH-SEQ module
;
#X obj 1183 925 s \$0-kaseta-pre-amp-r;
#X obj 1189 903 s \$0-kaseta-drive-r;
#X obj 1234 815 s \$0-kaseta-bias-r;
#X msg 1044 266 read statesave/\$1-kaseta-ss.txt;
#X msg 108 876 write statesave/\$1-kaseta-ss.txt;
#X obj 115 59 r \$0-kaseta-pre-amp-s;
#X obj 127 86 r \$0-kaseta-drive-s;
#X obj 188 187 r \$0-kaseta-bias-s;
#X obj 214 236 r \$0-kaseta-wow-frequency-s;
#X obj 237 284 r \$0-kaseta-wow-depth-s;
#X obj 1257 769 s \$0-kaseta-wow-frequency-r;
#X obj 1276 722 s \$0-kaseta-wow-depth-r;
#X obj 258 335 r \$0-kaseta-delay-length-s;
#X obj 269 359 r \$0-kaseta-delay-head-1-position-s;
#X obj 273 383 r \$0-kaseta-delay-head-2-position-s;
#X obj 282 407 r \$0-kaseta-delay-head-3-position-s;
#X obj 290 433 r \$0-kaseta-delay-head-4-position-s;
#X obj 1296 676 s \$0-kaseta-delay-length-r;
#X obj 1302 652 s \$0-kaseta-delay-head-1-position-r;
#X obj 1310 629 s \$0-kaseta-delay-head-2-position-r;
#X obj 1316 605 s \$0-kaseta-delay-head-3-position-r;
#X obj 1325 581 s \$0-kaseta-delay-head-4-position-r;
#X obj 301 458 r \$0-kaseta-delay-quantization-8-s;
#X obj 1335 557 s \$0-kaseta-delay-quantization-8-r;
#X obj 314 483 r \$0-kaseta-delay-quantization-6-s;
#X obj 1343 534 s \$0-kaseta-delay-quantization-6-r;
#X obj 383 607 r \$0-kaseta-delay-head-1-feedback-s;
#X obj 394 632 r \$0-kaseta-delay-head-2-feedback-s;
#X obj 407 657 r \$0-kaseta-delay-head-3-feedback-s;
#X obj 421 680 r \$0-kaseta-delay-head-4-feedback-s;
#X obj 1403 353 s \$0-kaseta-delay-head-4-feedback-r;
#X obj 1397 374 s \$0-kaseta-delay-head-3-feedback-r;
#X obj 1389 397 s \$0-kaseta-delay-head-2-feedback-r;
#X obj 1383 420 s \$0-kaseta-delay-head-1-feedback-r;
#X obj 330 508 r \$0-kaseta-delay-head-1-play-s;
#X obj 341 533 r \$0-kaseta-delay-head-2-play-s;
#X obj 354 558 r \$0-kaseta-delay-head-3-play-s;
#X obj 367 581 r \$0-kaseta-delay-head-4-play-s;
#X obj 1375 443 s \$0-kaseta-delay-head-4-play-r;
#X obj 1369 464 s \$0-kaseta-delay-head-3-play-r;
#X obj 1361 487 s \$0-kaseta-delay-head-2-play-r;
#X obj 1355 510 s \$0-kaseta-delay-head-1-play-r;
#X obj 1425 862 s \$0-kaseta-delay-head-4-feedback-amp-r;
#X obj 1419 883 s \$0-kaseta-delay-head-3-feedback-amp-r;
#X obj 1411 906 s \$0-kaseta-delay-head-2-feedback-amp-r;
#X obj 1404 929 s \$0-kaseta-delay-head-1-feedback-amp-r;
#X obj 359 59 r \$0-kaseta-delay-head-1-feedback-amp-s;
#X obj 372 84 r \$0-kaseta-delay-head-2-feedback-amp-s;
#X obj 383 109 r \$0-kaseta-delay-head-3-feedback-amp-s;
#X obj 397 131 r \$0-kaseta-delay-head-4-feedback-amp-s;
#X obj 411 154 r \$0-kaseta-delay-head-1-volume-s;
#X obj 424 179 r \$0-kaseta-delay-head-2-volume-s;
#X obj 435 204 r \$0-kaseta-delay-head-3-volume-s;
#X obj 449 226 r \$0-kaseta-delay-head-4-volume-s;
#X obj 1454 772 s \$0-kaseta-delay-head-4-volume-r;
#X obj 1448 793 s \$0-kaseta-delay-head-3-volume-r;
#X obj 1440 816 s \$0-kaseta-delay-head-2-volume-r;
#X obj 1433 839 s \$0-kaseta-delay-head-1-volume-r;
#X msg 92 761 set \$1 \$2 \$3 \$4 \$5 \$6 \$7 \$8 \$9 \$10 \$11 \$12
\$13 \$14 \$15 \$16 \$17 \$18 \$19 \$20 \$21 \$22 \$23 \$24 \$25 \$26
\$27 \$28 \$29 \$30 \$31 \$32 \$33 \$32 \$33 \$34 \$35 \$36 \$37 \$38
, f 67;
#X obj 247 311 r \$0-kaseta-wow-amp-noise-s;
#X obj 495 253 r \$0-kaseta-wow-amp-spring-s;
#X obj 512 277 r \$0-kaseta-wow-amp-filter-s;
#X obj 531 299 r \$0-kaseta-wow-phs-noise-s;
#X obj 549 323 r \$0-kaseta-wow-phs-spring-s;
#X obj 575 370 r \$0-kaseta-wow-phs-drift-s;
#X obj 92 723 pack f f f f f f f f f f f f f f f f f f f f f f f f
f f f f f f f f f f f f f f f f, f 85;
#X obj 1287 698 s \$0-kaseta-wow-amp-noise-r;
#X obj 1044 313 unpack f f f f f f f f f f f f f f f f f f f f f f
f f f f f f f f f f f f f f f f f f, f 88;
#X obj 1509 748 s \$0-kaseta-delay-wow-amp-spring-r;
#X obj 1516 726 s \$0-kaseta-delay-wow-amp-filter-r;
#X obj 1526 704 s \$0-kaseta-delay-wow-phs-noise-r;
#X obj 1533 682 s \$0-kaseta-delay-wow-phs-spring-r;
#X obj 1554 638 s \$0-kaseta-delay-wow-phs-drift-r;
#X connect 0 0 14 0;
#X connect 1 0 86 0;
#X connect 2 0 1 0;
#X connect 3 0 1 0;
#X connect 5 0 3 0;
#X connect 5 1 2 0;
#X connect 6 0 84 0;
#X connect 7 0 23 0;
#X connect 8 0 7 0;
#X connect 8 1 6 0;
#X connect 8 2 9 0;
#X connect 9 0 4 0;
#X connect 12 0 13 0;
#X connect 13 0 7 1;
#X connect 13 1 22 0;
#X connect 13 2 10 0;
#X connect 14 0 5 0;
#X connect 14 1 12 0;
#X connect 15 0 8 0;
#X connect 16 0 15 0;
#X connect 17 0 14 0;
#X connect 22 0 1 0;
#X connect 23 0 4 0;
#X connect 24 0 6 1;
#X connect 25 0 84 1;
#X connect 26 0 84 5;
#X connect 27 0 84 7;
#X connect 28 0 84 9;
#X connect 31 0 84 11;
#X connect 32 0 84 12;
#X connect 33 0 84 13;
#X connect 34 0 84 14;
#X connect 35 0 84 15;
#X connect 41 0 84 16;
#X connect 43 0 84 17;
#X connect 45 0 84 22;
#X connect 46 0 84 23;
#X connect 47 0 84 24;
#X connect 48 0 84 25;
#X connect 53 0 84 18;
#X connect 54 0 84 19;
#X connect 55 0 84 20;
#X connect 56 0 84 21;
#X connect 65 0 84 26;
#X connect 66 0 84 27;
#X connect 67 0 84 28;
#X connect 68 0 84 29;
#X connect 69 0 84 30;
#X connect 70 0 84 31;
#X connect 71 0 84 32;
#X connect 72 0 84 33;
#X connect 77 0 4 0;
#X connect 78 0 84 10;
#X connect 79 0 84 34;
#X connect 80 0 84 35;
#X connect 81 0 84 36;
#X connect 82 0 84 37;
#X connect 83 0 84 39;
#X connect 84 0 77 0;
#X connect 86 0 19 0;
#X connect 86 1 20 0;
#X connect 86 5 21 0;
#X connect 86 7 29 0;
#X connect 86 9 30 0;
#X connect 86 10 85 0;
#X connect 86 11 36 0;
#X connect 86 12 37 0;
#X connect 86 13 38 0;
#X connect 86 14 39 0;
#X connect 86 15 40 0;
#X connect 86 16 42 0;
#X connect 86 17 44 0;
#X connect 86 18 60 0;
#X connect 86 19 59 0;
#X connect 86 20 58 0;
#X connect 86 21 57 0;
#X connect 86 22 52 0;
#X connect 86 23 51 0;
#X connect 86 24 50 0;
#X connect 86 25 49 0;
#X connect 86 26 64 0;
#X connect 86 27 63 0;
#X connect 86 28 62 0;
#X connect 86 29 61 0;
#X connect 86 30 76 0;
#X connect 86 31 75 0;
#X connect 86 32 74 0;
#X connect 86 33 73 0;
#X connect 86 34 87 0;
#X connect 86 35 88 0;
#X connect 86 36 89 0;
#X connect 86 37 90 0;
#X connect 86 39 91 0;
#X restore 93 599 pd state-saving-multiple-instances;
#X obj 93 674 s \$0-instance-num;
#X obj 93 626 makefilename %d;
#X msg 93 651 label \$1;
#N canvas 81 22 1916 1001 state-saving-via-preset-manager-module 0
;
#X obj 1017 241 textfile;
#X msg 1396 224 rewind;
#X msg 1353 224 bang;
#X obj 109 856 textfile;
#X obj 1353 185 t b b;
#X obj 107 414 f;
#X obj 120 747 f;
#X obj 53 642 t b b b;
#X msg 189 797 clear;
#X obj 107 56 delay 5;
#X obj 53 697 delay 10;
#X msg 53 372 bang;
#X obj 53 26 r STORE-S!;
#X obj 1017 142 f;
#X obj 990 106 t b b;
#X obj 1005 63 t b f;
#X obj 1062 160 f \$1;
#X obj 1017 187 pack f f;
#X obj 1062 110 loadbang;
#X obj 120 777 pack f f;
#X obj 165 730 loadbang;
#X obj 165 752 f \$1;
#X obj 1005 40 r preset-manager-scan;
#X obj 135 708 r preset-manager-store-slot;
#N canvas 0 22 1916 1001 morph-parameters 0;
#X obj 176 94 inlet;
#X obj 176 236 pack f f;
#X obj 176 261 line;
#X obj 209 117 r preset-manager-morph-s;
#X msg 72 244 stop;
#X obj 72 214 r STOP-MORPH!;
#X obj 209 206 spigot;
#X obj 398 137 t f f;
#X obj 455 154 == 0;
#X obj 221 176 f;
#X floatatom 455 222 5 0 0 0 - - - 0;
#X obj 398 159 t b f;
#X floatatom 425 192 5 0 0 0 - - - 0;
#X obj 209 139 t f f;
#X obj 398 102 r parameters-s;
#X obj 176 288 outlet;
#X connect 0 0 1 0;
#X connect 1 0 2 0;
#X connect 2 0 15 0;
#X connect 3 0 13 0;
#X connect 4 0 2 0;
#X connect 5 0 4 0;
#X connect 6 0 1 1;
#X connect 7 0 11 0;
#X connect 7 1 8 0;
#X connect 8 0 10 0;
#X connect 9 0 6 0;
#X connect 10 0 1 1;
#X connect 11 0 9 0;
#X connect 11 1 12 0;
#X connect 12 0 6 1;
#X connect 13 0 6 0;
#X connect 13 1 9 1;
#X connect 14 0 7 0;
#X restore 1069 753 pd morph-parameters;
#X msg 1017 216 read statesave/\$1-\$2-kaseta-ss.txt;
#X msg 188 824 write statesave/\$1-\$2-kaseta-ss.txt;
#X obj 122 99 r \$0-kaseta-pre-amp-s;
#X obj 134 126 r \$0-kaseta-drive-s;
#X obj 198 231 r \$0-kaseta-bias-s;
#N canvas 0 22 1916 1001 morph-parameters 0;
#X obj 176 94 inlet;
#X obj 176 236 pack f f;
#X obj 176 261 line;
#X obj 209 117 r preset-manager-morph-s;
#X msg 72 244 stop;
#X obj 72 214 r STOP-MORPH!;
#X obj 209 206 spigot;
#X obj 398 137 t f f;
#X obj 455 154 == 0;
#X obj 221 176 f;
#X floatatom 455 222 5 0 0 0 - - - 0;
#X obj 398 159 t b f;
#X floatatom 425 192 5 0 0 0 - - - 0;
#X obj 209 139 t f f;
#X obj 398 102 r parameters-s;
#X obj 176 288 outlet;
#X connect 0 0 1 0;
#X connect 1 0 2 0;
#X connect 2 0 15 0;
#X connect 3 0 13 0;
#X connect 4 0 2 0;
#X connect 5 0 4 0;
#X connect 6 0 1 1;
#X connect 7 0 11 0;
#X connect 7 1 8 0;
#X connect 8 0 10 0;
#X connect 9 0 6 0;
#X connect 10 0 1 1;
#X connect 11 0 9 0;
#X connect 11 1 12 0;
#X connect 12 0 6 1;
#X connect 13 0 6 0;
#X connect 13 1 9 1;
#X connect 14 0 7 0;
#X restore 1063 803 pd morph-parameters;
#N canvas 0 22 1916 1001 morph-parameters 0;
#X obj 176 94 inlet;
#X obj 176 236 pack f f;
#X obj 176 261 line;
#X obj 209 117 r preset-manager-morph-s;
#X msg 72 244 stop;
#X obj 72 214 r STOP-MORPH!;
#X obj 209 206 spigot;
#X obj 398 137 t f f;
#X obj 455 154 == 0;
#X obj 221 176 f;
#X floatatom 455 222 5 0 0 0 - - - 0;
#X obj 398 159 t b f;
#X floatatom 425 192 5 0 0 0 - - - 0;
#X obj 209 139 t f f;
#X obj 398 102 r parameters-s;
#X obj 176 288 outlet;
#X connect 0 0 1 0;
#X connect 1 0 2 0;
#X connect 2 0 15 0;
#X connect 3 0 13 0;
#X connect 4 0 2 0;
#X connect 5 0 4 0;
#X connect 6 0 1 1;
#X connect 7 0 11 0;
#X connect 7 1 8 0;
#X connect 8 0 10 0;
#X connect 9 0 6 0;
#X connect 10 0 1 1;
#X connect 11 0 9 0;
#X connect 11 1 12 0;
#X connect 12 0 6 1;
#X connect 13 0 6 0;
#X connect 13 1 9 1;
#X connect 14 0 7 0;
#X restore 1114 558 pd morph-parameters;
#X obj 1063 826 s \$0-kaseta-pre-amp-r;
#X obj 1069 776 s \$0-kaseta-drive-r;
#X obj 1114 581 s \$0-kaseta-bias-r;
#X obj 228 284 r \$0-kaseta-wow-frequency-s;
#X obj 254 334 r \$0-kaseta-wow-depth-s;
#N canvas 0 22 1916 1001 morph-parameters 0;
#X obj 176 94 inlet;
#X obj 176 236 pack f f;
#X obj 176 261 line;
#X obj 209 117 r preset-manager-morph-s;
#X msg 72 244 stop;
#X obj 72 214 r STOP-MORPH!;
#X obj 209 206 spigot;
#X obj 398 137 t f f;
#X obj 455 154 == 0;
#X obj 221 176 f;
#X floatatom 455 222 5 0 0 0 - - - 0;
#X obj 398 159 t b f;
#X floatatom 425 192 5 0 0 0 - - - 0;
#X obj 209 139 t f f;
#X obj 398 102 r parameters-s;
#X obj 176 288 outlet;
#X connect 0 0 1 0;
#X connect 1 0 2 0;
#X connect 2 0 15 0;
#X connect 3 0 13 0;
#X connect 4 0 2 0;
#X connect 5 0 4 0;
#X connect 6 0 1 1;
#X connect 7 0 11 0;
#X connect 7 1 8 0;
#X connect 8 0 10 0;
#X connect 9 0 6 0;
#X connect 10 0 1 1;
#X connect 11 0 9 0;
#X connect 11 1 12 0;
#X connect 12 0 6 1;
#X connect 13 0 6 0;
#X connect 13 1 9 1;
#X connect 14 0 7 0;
#X restore 1136 461 pd morph-parameters;
#X obj 1136 484 s \$0-kaseta-wow-frequency-r;
#N canvas 0 22 1916 1001 morph-parameters 0;
#X obj 176 94 inlet;
#X obj 176 236 pack f f;
#X obj 176 261 line;
#X obj 209 117 r preset-manager-morph-s;
#X msg 72 244 stop;
#X obj 72 214 r STOP-MORPH!;
#X obj 209 206 spigot;
#X obj 398 137 t f f;
#X obj 455 154 == 0;
#X obj 221 176 f;
#X floatatom 455 222 5 0 0 0 - - - 0;
#X obj 398 159 t b f;
#X floatatom 425 192 5 0 0 0 - - - 0;
#X obj 209 139 t f f;
#X obj 398 102 r parameters-s;
#X obj 176 288 outlet;
#X connect 0 0 1 0;
#X connect 1 0 2 0;
#X connect 2 0 15 0;
#X connect 3 0 13 0;
#X connect 4 0 2 0;
#X connect 5 0 4 0;
#X connect 6 0 1 1;
#X connect 7 0 11 0;
#X connect 7 1 8 0;
#X connect 8 0 10 0;
#X connect 9 0 6 0;
#X connect 10 0 1 1;
#X connect 11 0 9 0;
#X connect 11 1 12 0;
#X connect 12 0 6 1;
#X connect 13 0 6 0;
#X connect 13 1 9 1;
#X connect 14 0 7 0;
#X restore 1161 363 pd morph-parameters;
#X obj 1161 386 s \$0-kaseta-wow-depth-r;
#X obj 279 387 r \$0-kaseta-delay-length-s;
#X obj 288 414 r \$0-kaseta-delay-head-1-position-s;
#X obj 293 437 r \$0-kaseta-delay-head-2-position-s;
#X obj 305 464 r \$0-kaseta-delay-head-3-position-s;
#X obj 319 490 r \$0-kaseta-delay-head-4-position-s;
#N canvas 0 22 1916 1001 morph-parameters 0;
#X obj 176 94 inlet;
#X obj 176 236 pack f f;
#X obj 176 261 line;
#X obj 209 117 r preset-manager-morph-s;
#X msg 72 244 stop;
#X obj 72 214 r STOP-MORPH!;
#X obj 209 206 spigot;
#X obj 398 137 t f f;
#X obj 455 154 == 0;
#X obj 221 176 f;
#X floatatom 455 222 5 0 0 0 - - - 0;
#X obj 398 159 t b f;
#X floatatom 425 192 5 0 0 0 - - - 0;
#X obj 209 139 t f f;
#X obj 398 102 r parameters-s;
#X obj 176 288 outlet;
#X connect 0 0 1 0;
#X connect 1 0 2 0;
#X connect 2 0 15 0;
#X connect 3 0 13 0;
#X connect 4 0 2 0;
#X connect 5 0 4 0;
#X connect 6 0 1 1;
#X connect 7 0 11 0;
#X connect 7 1 8 0;
#X connect 8 0 10 0;
#X connect 9 0 6 0;
#X connect 10 0 1 1;
#X connect 11 0 9 0;
#X connect 11 1 12 0;
#X connect 12 0 6 1;
#X connect 13 0 6 0;
#X connect 13 1 9 1;
#X connect 14 0 7 0;
#X restore 1269 902 pd morph-parameters;
#X obj 1269 925 s \$0-kaseta-delay-length-r;
#N canvas 0 22 1916 1001 morph-parameters 0;
#X obj 176 94 inlet;
#X obj 176 236 pack f f;
#X obj 176 261 line;
#X obj 209 117 r preset-manager-morph-s;
#X msg 72 244 stop;
#X obj 72 214 r STOP-MORPH!;
#X obj 209 206 spigot;
#X obj 398 137 t f f;
#X obj 455 154 == 0;
#X obj 221 176 f;
#X floatatom 455 222 5 0 0 0 - - - 0;
#X obj 398 159 t b f;
#X floatatom 425 192 5 0 0 0 - - - 0;
#X obj 209 139 t f f;
#X obj 398 102 r parameters-s;
#X obj 176 288 outlet;
#X connect 0 0 1 0;
#X connect 1 0 2 0;
#X connect 2 0 15 0;
#X connect 3 0 13 0;
#X connect 4 0 2 0;
#X connect 5 0 4 0;
#X connect 6 0 1 1;
#X connect 7 0 11 0;
#X connect 7 1 8 0;
#X connect 8 0 10 0;
#X connect 9 0 6 0;
#X connect 10 0 1 1;
#X connect 11 0 9 0;
#X connect 11 1 12 0;
#X connect 12 0 6 1;
#X connect 13 0 6 0;
#X connect 13 1 9 1;
#X connect 14 0 7 0;
#X restore 1280 854 pd morph-parameters;
#X obj 1280 877 s \$0-kaseta-delay-head-1-position-r;
#N canvas 0 22 1916 1001 morph-parameters 0;
#X obj 176 94 inlet;
#X obj 176 236 pack f f;
#X obj 176 261 line;
#X obj 209 117 r preset-manager-morph-s;
#X msg 72 244 stop;
#X obj 72 214 r STOP-MORPH!;
#X obj 209 206 spigot;
#X obj 398 137 t f f;
#X obj 455 154 == 0;
#X obj 221 176 f;
#X floatatom 455 222 5 0 0 0 - - - 0;
#X obj 398 159 t b f;
#X floatatom 425 192 5 0 0 0 - - - 0;
#X obj 209 139 t f f;
#X obj 398 102 r parameters-s;
#X obj 176 288 outlet;
#X connect 0 0 1 0;
#X connect 1 0 2 0;
#X connect 2 0 15 0;
#X connect 3 0 13 0;
#X connect 4 0 2 0;
#X connect 5 0 4 0;
#X connect 6 0 1 1;
#X connect 7 0 11 0;
#X connect 7 1 8 0;
#X connect 8 0 10 0;
#X connect 9 0 6 0;
#X connect 10 0 1 1;
#X connect 11 0 9 0;
#X connect 11 1 12 0;
#X connect 12 0 6 1;
#X connect 13 0 6 0;
#X connect 13 1 9 1;
#X connect 14 0 7 0;
#X restore 1289 806 pd morph-parameters;
#N canvas 0 22 1916 1001 morph-parameters 0;
#X obj 176 94 inlet;
#X obj 176 236 pack f f;
#X obj 176 261 line;
#X obj 209 117 r preset-manager-morph-s;
#X msg 72 244 stop;
#X obj 72 214 r STOP-MORPH!;
#X obj 209 206 spigot;
#X obj 398 137 t f f;
#X obj 455 154 == 0;
#X obj 221 176 f;
#X floatatom 455 222 5 0 0 0 - - - 0;
#X obj 398 159 t b f;
#X floatatom 425 192 5 0 0 0 - - - 0;
#X obj 209 139 t f f;
#X obj 398 102 r parameters-s;
#X obj 176 288 outlet;
#X connect 0 0 1 0;
#X connect 1 0 2 0;
#X connect 2 0 15 0;
#X connect 3 0 13 0;
#X connect 4 0 2 0;
#X connect 5 0 4 0;
#X connect 6 0 1 1;
#X connect 7 0 11 0;
#X connect 7 1 8 0;
#X connect 8 0 10 0;
#X connect 9 0 6 0;
#X connect 10 0 1 1;
#X connect 11 0 9 0;
#X connect 11 1 12 0;
#X connect 12 0 6 1;
#X connect 13 0 6 0;
#X connect 13 1 9 1;
#X connect 14 0 7 0;
#X restore 1301 758 pd morph-parameters;
#N canvas 0 22 1916 1001 morph-parameters 0;
#X obj 176 94 inlet;
#X obj 176 236 pack f f;
#X obj 176 261 line;
#X obj 209 117 r preset-manager-morph-s;
#X msg 72 244 stop;
#X obj 72 214 r STOP-MORPH!;
#X obj 209 206 spigot;
#X obj 398 137 t f f;
#X obj 455 154 == 0;
#X obj 221 176 f;
#X floatatom 455 222 5 0 0 0 - - - 0;
#X obj 398 159 t b f;
#X floatatom 425 192 5 0 0 0 - - - 0;
#X obj 209 139 t f f;
#X obj 398 102 r parameters-s;
#X obj 176 288 outlet;
#X connect 0 0 1 0;
#X connect 1 0 2 0;
#X connect 2 0 15 0;
#X connect 3 0 13 0;
#X connect 4 0 2 0;
#X connect 5 0 4 0;
#X connect 6 0 1 1;
#X connect 7 0 11 0;
#X connect 7 1 8 0;
#X connect 8 0 10 0;
#X connect 9 0 6 0;
#X connect 10 0 1 1;
#X connect 11 0 9 0;
#X connect 11 1 12 0;
#X connect 12 0 6 1;
#X connect 13 0 6 0;
#X connect 13 1 9 1;
#X connect 14 0 7 0;
#X restore 1311 711 pd morph-parameters;
#X obj 1289 829 s \$0-kaseta-delay-head-2-position-r;
#X obj 1301 781 s \$0-kaseta-delay-head-3-position-r;
#X obj 1311 734 s \$0-kaseta-delay-head-4-position-r;
#X obj 330 514 r \$0-kaseta-delay-quantization-8-s;
#X obj 1321 687 s \$0-kaseta-delay-quantization-8-r;
#X obj 339 539 r \$0-kaseta-delay-quantization-6-s;
#X obj 1329 662 s \$0-kaseta-delay-quantization-6-r;
#X obj 412 150 r \$0-kaseta-delay-head-1-feedback-s;
#X obj 423 175 r \$0-kaseta-delay-head-2-feedback-s;
#X obj 436 200 r \$0-kaseta-delay-head-3-feedback-s;
#X obj 450 223 r \$0-kaseta-delay-head-4-feedback-s;
#X obj 1387 481 s \$0-kaseta-delay-head-4-feedback-r;
#X obj 1381 502 s \$0-kaseta-delay-head-3-feedback-r;
#X obj 1373 525 s \$0-kaseta-delay-head-2-feedback-r;
#X obj 1367 548 s \$0-kaseta-delay-head-1-feedback-r;
#X obj 359 51 r \$0-kaseta-delay-head-1-play-s;
#X obj 370 76 r \$0-kaseta-delay-head-2-play-s;
#X obj 383 101 r \$0-kaseta-delay-head-3-play-s;
#X obj 396 124 r \$0-kaseta-delay-head-4-play-s;
#X obj 1359 571 s \$0-kaseta-delay-head-4-play-r;
#X obj 1353 592 s \$0-kaseta-delay-head-3-play-r;
#X obj 1345 615 s \$0-kaseta-delay-head-2-play-r;
#X obj 1339 638 s \$0-kaseta-delay-head-1-play-r;
#X obj 462 248 r \$0-kaseta-delay-head-1-feedback-amp-s;
#X obj 473 273 r \$0-kaseta-delay-head-2-feedback-amp-s;
#X obj 486 298 r \$0-kaseta-delay-head-3-feedback-amp-s;
#X obj 500 321 r \$0-kaseta-delay-head-4-feedback-amp-s;
#N canvas 0 22 1916 1001 morph-parameters 0;
#X obj 176 94 inlet;
#X obj 176 236 pack f f;
#X obj 176 261 line;
#X obj 209 117 r preset-manager-morph-s;
#X msg 72 244 stop;
#X obj 72 214 r STOP-MORPH!;
#X obj 209 206 spigot;
#X obj 398 137 t f f;
#X obj 455 154 == 0;
#X obj 221 176 f;
#X floatatom 455 222 5 0 0 0 - - - 0;
#X obj 398 159 t b f;
#X floatatom 425 192 5 0 0 0 - - - 0;
#X obj 209 139 t f f;
#X obj 398 102 r parameters-s;
#X obj 176 288 outlet;
#X connect 0 0 1 0;
#X connect 1 0 2 0;
#X connect 2 0 15 0;
#X connect 3 0 13 0;
#X connect 4 0 2 0;
#X connect 5 0 4 0;
#X connect 6 0 1 1;
#X connect 7 0 11 0;
#X connect 7 1 8 0;
#X connect 8 0 10 0;
#X connect 9 0 6 0;
#X connect 10 0 1 1;
#X connect 11 0 9 0;
#X connect 11 1 12 0;
#X connect 12 0 6 1;
#X connect 13 0 6 0;
#X connect 13 1 9 1;
#X connect 14 0 7 0;
#X restore 1416 307 pd morph-parameters;
#N canvas 0 22 1916 1001 morph-parameters 0;
#X obj 176 94 inlet;
#X obj 176 236 pack f f;
#X obj 176 261 line;
#X obj 209 117 r preset-manager-morph-s;
#X msg 72 244 stop;
#X obj 72 214 r STOP-MORPH!;
#X obj 209 206 spigot;
#X obj 398 137 t f f;
#X obj 455 154 == 0;
#X obj 221 176 f;
#X floatatom 455 222 5 0 0 0 - - - 0;
#X obj 398 159 t b f;
#X floatatom 425 192 5 0 0 0 - - - 0;
#X obj 209 139 t f f;
#X obj 398 102 r parameters-s;
#X obj 176 288 outlet;
#X connect 0 0 1 0;
#X connect 1 0 2 0;
#X connect 2 0 15 0;
#X connect 3 0 13 0;
#X connect 4 0 2 0;
#X connect 5 0 4 0;
#X connect 6 0 1 1;
#X connect 7 0 11 0;
#X connect 7 1 8 0;
#X connect 8 0 10 0;
#X connect 9 0 6 0;
#X connect 10 0 1 1;
#X connect 11 0 9 0;
#X connect 11 1 12 0;
#X connect 12 0 6 1;
#X connect 13 0 6 0;
#X connect 13 1 9 1;
#X connect 14 0 7 0;
#X restore 1410 351 pd morph-parameters;
#N canvas 0 22 1916 1001 morph-parameters 0;
#X obj 176 94 inlet;
#X obj 176 236 pack f f;
#X obj 176 261 line;
#X obj 209 117 r preset-manager-morph-s;
#X msg 72 244 stop;
#X obj 72 214 r STOP-MORPH!;
#X obj 209 206 spigot;
#X obj 398 137 t f f;
#X obj 455 154 == 0;
#X obj 221 176 f;
#X floatatom 455 222 5 0 0 0 - - - 0;
#X obj 398 159 t b f;
#X floatatom 425 192 5 0 0 0 - - - 0;
#X obj 209 139 t f f;
#X obj 398 102 r parameters-s;
#X obj 176 288 outlet;
#X connect 0 0 1 0;
#X connect 1 0 2 0;
#X connect 2 0 15 0;
#X connect 3 0 13 0;
#X connect 4 0 2 0;
#X connect 5 0 4 0;
#X connect 6 0 1 1;
#X connect 7 0 11 0;
#X connect 7 1 8 0;
#X connect 8 0 10 0;
#X connect 9 0 6 0;
#X connect 10 0 1 1;
#X connect 11 0 9 0;
#X connect 11 1 12 0;
#X connect 12 0 6 1;
#X connect 13 0 6 0;
#X connect 13 1 9 1;
#X connect 14 0 7 0;
#X restore 1401 395 pd morph-parameters;
#N canvas 0 22 1916 1001 morph-parameters 0;
#X obj 176 94 inlet;
#X obj 176 236 pack f f;
#X obj 176 261 line;
#X obj 209 117 r preset-manager-morph-s;
#X msg 72 244 stop;
#X obj 72 214 r STOP-MORPH!;
#X obj 209 206 spigot;
#X obj 398 137 t f f;
#X obj 455 154 == 0;
#X obj 221 176 f;
#X floatatom 455 222 5 0 0 0 - - - 0;
#X obj 398 159 t b f;
#X floatatom 425 192 5 0 0 0 - - - 0;
#X obj 209 139 t f f;
#X obj 398 102 r parameters-s;
#X obj 176 288 outlet;
#X connect 0 0 1 0;
#X connect 1 0 2 0;
#X connect 2 0 15 0;
#X connect 3 0 13 0;
#X connect 4 0 2 0;
#X connect 5 0 4 0;
#X connect 6 0 1 1;
#X connect 7 0 11 0;
#X connect 7 1 8 0;
#X connect 8 0 10 0;
#X connect 9 0 6 0;
#X connect 10 0 1 1;
#X connect 11 0 9 0;
#X connect 11 1 12 0;
#X connect 12 0 6 1;
#X connect 13 0 6 0;
#X connect 13 1 9 1;
#X connect 14 0 7 0;
#X restore 1397 437 pd morph-parameters;
#X obj 512 345 r \$0-kaseta-delay-head-1-volume-s;
#X obj 523 370 r \$0-kaseta-delay-head-2-volume-s;
#X obj 536 395 r \$0-kaseta-delay-head-3-volume-s;
#X obj 550 418 r \$0-kaseta-delay-head-4-volume-s;
#N canvas 0 22 1916 1001 morph-parameters 0;
#X obj 176 94 inlet;
#X obj 176 236 pack f f;
#X obj 176 261 line;
#X obj 209 117 r preset-manager-morph-s;
#X msg 72 244 stop;
#X obj 72 214 r STOP-MORPH!;
#X obj 209 206 spigot;
#X obj 398 137 t f f;
#X obj 455 154 == 0;
#X obj 221 176 f;
#X floatatom 455 222 5 0 0 0 - - - 0;
#X obj 398 159 t b f;
#X floatatom 425 192 5 0 0 0 - - - 0;
#X obj 209 139 t f f;
#X obj 398 102 r parameters-s;
#X obj 176 288 outlet;
#X connect 0 0 1 0;
#X connect 1 0 2 0;
#X connect 2 0 15 0;
#X connect 3 0 13 0;
#X connect 4 0 2 0;
#X connect 5 0 4 0;
#X connect 6 0 1 1;
#X connect 7 0 11 0;
#X connect 7 1 8 0;
#X connect 8 0 10 0;
#X connect 9 0 6 0;
#X connect 10 0 1 1;
#X connect 11 0 9 0;
#X connect 11 1 12 0;
#X connect 12 0 6 1;
#X connect 13 0 6 0;
#X connect 13 1 9 1;
#X connect 14 0 7 0;
#X restore 1563 778 pd morph-parameters;
#N canvas 0 22 1916 1001 morph-parameters 0;
#X obj 176 94 inlet;
#X obj 176 236 pack f f;
#X obj 176 261 line;
#X obj 209 117 r preset-manager-morph-s;
#X msg 72 244 stop;
#X obj 72 214 r STOP-MORPH!;
#X obj 209 206 spigot;
#X obj 398 137 t f f;
#X obj 455 154 == 0;
#X obj 221 176 f;
#X floatatom 455 222 5 0 0 0 - - - 0;
#X obj 398 159 t b f;
#X floatatom 425 192 5 0 0 0 - - - 0;
#X obj 209 139 t f f;
#X obj 398 102 r parameters-s;
#X obj 176 288 outlet;
#X connect 0 0 1 0;
#X connect 1 0 2 0;
#X connect 2 0 15 0;
#X connect 3 0 13 0;
#X connect 4 0 2 0;
#X connect 5 0 4 0;
#X connect 6 0 1 1;
#X connect 7 0 11 0;
#X connect 7 1 8 0;
#X connect 8 0 10 0;
#X connect 9 0 6 0;
#X connect 10 0 1 1;
#X connect 11 0 9 0;
#X connect 11 1 12 0;
#X connect 12 0 6 1;
#X connect 13 0 6 0;
#X connect 13 1 9 1;
#X connect 14 0 7 0;
#X restore 1557 822 pd morph-parameters;
#N canvas 0 22 1916 1001 morph-parameters 0;
#X obj 176 94 inlet;
#X obj 176 236 pack f f;
#X obj 176 261 line;
#X obj 209 117 r preset-manager-morph-s;
#X msg 72 244 stop;
#X obj 72 214 r STOP-MORPH!;
#X obj 209 206 spigot;
#X obj 398 137 t f f;
#X obj 455 154 == 0;
#X obj 221 176 f;
#X floatatom 455 222 5 0 0 0 - - - 0;
#X obj 398 159 t b f;
#X floatatom 425 192 5 0 0 0 - - - 0;
#X obj 209 139 t f f;
#X obj 398 102 r parameters-s;
#X obj 176 288 outlet;
#X connect 0 0 1 0;
#X connect 1 0 2 0;
#X connect 2 0 15 0;
#X connect 3 0 13 0;
#X connect 4 0 2 0;
#X connect 5 0 4 0;
#X connect 6 0 1 1;
#X connect 7 0 11 0;
#X connect 7 1 8 0;
#X connect 8 0 10 0;
#X connect 9 0 6 0;
#X connect 10 0 1 1;
#X connect 11 0 9 0;
#X connect 11 1 12 0;
#X connect 12 0 6 1;
#X connect 13 0 6 0;
#X connect 13 1 9 1;
#X connect 14 0 7 0;
#X restore 1548 866 pd morph-parameters;
#N canvas 0 22 1916 1001 morph-parameters 0;
#X obj 176 94 inlet;
#X obj 176 236 pack f f;
#X obj 176 261 line;
#X obj 209 117 r preset-manager-morph-s;
#X msg 72 244 stop;
#X obj 72 214 r STOP-MORPH!;
#X obj 209 206 spigot;
#X obj 398 137 t f f;
#X obj 455 154 == 0;
#X obj 221 176 f;
#X floatatom 455 222 5 0 0 0 - - - 0;
#X obj 398 159 t b f;
#X floatatom 425 192 5 0 0 0 - - - 0;
#X obj 209 139 t f f;
#X obj 398 102 r parameters-s;
#X obj 176 288 outlet;
#X connect 0 0 1 0;
#X connect 1 0 2 0;
#X connect 2 0 15 0;
#X connect 3 0 13 0;
#X connect 4 0 2 0;
#X connect 5 0 4 0;
#X connect 6 0 1 1;
#X connect 7 0 11 0;
#X connect 7 1 8 0;
#X connect 8 0 10 0;
#X connect 9 0 6 0;
#X connect 10 0 1 1;
#X connect 11 0 9 0;
#X connect 11 1 12 0;
#X connect 12 0 6 1;
#X connect 13 0 6 0;
#X connect 13 1 9 1;
#X connect 14 0 7 0;
#X restore 1544 908 pd morph-parameters;
#X obj 1543 930 s \$0-kaseta-delay-head-1-volume-r;
#X obj 1548 886 s \$0-kaseta-delay-head-2-volume-r;
#X obj 1557 842 s \$0-kaseta-delay-head-3-volume-r;
#X obj 1563 801 s \$0-kaseta-delay-head-4-volume-r;
#X obj 1396 459 s \$0-kaseta-delay-head-1-feedback-amp-r;
#X obj 1401 415 s \$0-kaseta-delay-head-2-feedback-amp-r;
#X obj 1410 371 s \$0-kaseta-delay-head-3-feedback-amp-r;
#X obj 1416 330 s \$0-kaseta-delay-head-4-feedback-amp-r;
#X obj 265 362 r \$0-kaseta-wow-amp-noise-s;
#N canvas 0 22 1916 1001 morph-parameters 0;
#X obj 176 94 inlet;
#X obj 176 236 pack f f;
#X obj 176 261 line;
#X obj 209 117 r preset-manager-morph-s;
#X msg 72 244 stop;
#X obj 72 214 r STOP-MORPH!;
#X obj 209 206 spigot;
#X obj 398 137 t f f;
#X obj 455 154 == 0;
#X obj 221 176 f;
#X floatatom 455 222 5 0 0 0 - - - 0;
#X obj 398 159 t b f;
#X floatatom 425 192 5 0 0 0 - - - 0;
#X obj 209 139 t f f;
#X obj 398 102 r parameters-s;
#X obj 176 288 outlet;
#X connect 0 0 1 0;
#X connect 1 0 2 0;
#X connect 2 0 15 0;
#X connect 3 0 13 0;
#X connect 4 0 2 0;
#X connect 5 0 4 0;
#X connect 6 0 1 1;
#X connect 7 0 11 0;
#X connect 7 1 8 0;
#X connect 8 0 10 0;
#X connect 9 0 6 0;
#X connect 10 0 1 1;
#X connect 11 0 9 0;
#X connect 11 1 12 0;
#X connect 12 0 6 1;
#X connect 13 0 6 0;
#X connect 13 1 9 1;
#X connect 14 0 7 0;
#X restore 1169 316 pd morph-parameters;
#X obj 1169 339 s \$0-kaseta-wow-amp-noise-r;
#X obj 107 591 pack f f f f f f f f f f f f f f f f f f f f f f f f
f f f f f f f f f f f f f f f f, f 85;
#X msg 107 651 set \$1 \$2 \$3 \$4 \$5 \$6 \$7 \$8 \$9 \$10 \$11 \$12
\$13 \$14 \$15 \$16 \$17 \$18 \$19 \$20 \$21 \$22 \$23 \$24 \$25 \$26
\$27 \$28 \$29 \$30 \$31 \$32 \$33 \$32 \$33 \$34 \$35 \$36 \$37 \$38
, f 67;
#X obj 1017 263 unpack f f f f f f f f f f f f f f f f f f f f f f
f f f f f f f f f f f f f f f f f f, f 89;
#X obj 559 440 r \$0-kaseta-wow-amp-spring-s;
#X obj 566 464 r \$0-kaseta-wow-amp-filter-s;
#X obj 575 486 r \$0-kaseta-wow-phs-noise-s;
#X obj 583 510 r \$0-kaseta-wow-phs-spring-s;
#X obj 607 557 r \$0-kaseta-wow-phs-drift-s;
#N canvas 0 22 1916 1001 morph-parameters 0;
#X obj 176 94 inlet;
#X obj 176 236 pack f f;
#X obj 176 261 line;
#X obj 209 117 r preset-manager-morph-s;
#X msg 72 244 stop;
#X obj 72 214 r STOP-MORPH!;
#X obj 209 206 spigot;
#X obj 398 137 t f f;
#X obj 455 154 == 0;
#X obj 221 176 f;
#X floatatom 455 222 5 0 0 0 - - - 0;
#X obj 398 159 t b f;
#X floatatom 425 192 5 0 0 0 - - - 0;
#X obj 209 139 t f f;
#X obj 398 102 r parameters-s;
#X obj 176 288 outlet;
#X connect 0 0 1 0;
#X connect 1 0 2 0;
#X connect 2 0 15 0;
#X connect 3 0 13 0;
#X connect 4 0 2 0;
#X connect 5 0 4 0;
#X connect 6 0 1 1;
#X connect 7 0 11 0;
#X connect 7 1 8 0;
#X connect 8 0 10 0;
#X connect 9 0 6 0;
#X connect 10 0 1 1;
#X connect 11 0 9 0;
#X connect 11 1 12 0;
#X connect 12 0 6 1;
#X connect 13 0 6 0;
#X connect 13 1 9 1;
#X connect 14 0 7 0;
#X restore 1570 732 pd morph-parameters;
#X obj 1570 755 s \$0-kaseta-delay-wow-amp-spring-r;
#N canvas 0 22 1916 1001 morph-parameters 0;
#X obj 176 94 inlet;
#X obj 176 236 pack f f;
#X obj 176 261 line;
#X obj 209 117 r preset-manager-morph-s;
#X msg 72 244 stop;
#X obj 72 214 r STOP-MORPH!;
#X obj 209 206 spigot;
#X obj 398 137 t f f;
#X obj 455 154 == 0;
#X obj 221 176 f;
#X floatatom 455 222 5 0 0 0 - - - 0;
#X obj 398 159 t b f;
#X floatatom 425 192 5 0 0 0 - - - 0;
#X obj 209 139 t f f;
#X obj 398 102 r parameters-s;
#X obj 176 288 outlet;
#X connect 0 0 1 0;
#X connect 1 0 2 0;
#X connect 2 0 15 0;
#X connect 3 0 13 0;
#X connect 4 0 2 0;
#X connect 5 0 4 0;
#X connect 6 0 1 1;
#X connect 7 0 11 0;
#X connect 7 1 8 0;
#X connect 8 0 10 0;
#X connect 9 0 6 0;
#X connect 10 0 1 1;
#X connect 11 0 9 0;
#X connect 11 1 12 0;
#X connect 12 0 6 1;
#X connect 13 0 6 0;
#X connect 13 1 9 1;
#X connect 14 0 7 0;
#X restore 1577 686 pd morph-parameters;
#N canvas 0 22 1916 1001 morph-parameters 0;
#X obj 176 94 inlet;
#X obj 176 236 pack f f;
#X obj 176 261 line;
#X obj 209 117 r preset-manager-morph-s;
#X msg 72 244 stop;
#X obj 72 214 r STOP-MORPH!;
#X obj 209 206 spigot;
#X obj 398 137 t f f;
#X obj 455 154 == 0;
#X obj 221 176 f;
#X floatatom 455 222 5 0 0 0 - - - 0;
#X obj 398 159 t b f;
#X floatatom 425 192 5 0 0 0 - - - 0;
#X obj 209 139 t f f;
#X obj 398 102 r parameters-s;
#X obj 176 288 outlet;
#X connect 0 0 1 0;
#X connect 1 0 2 0;
#X connect 2 0 15 0;
#X connect 3 0 13 0;
#X connect 4 0 2 0;
#X connect 5 0 4 0;
#X connect 6 0 1 1;
#X connect 7 0 11 0;
#X connect 7 1 8 0;
#X connect 8 0 10 0;
#X connect 9 0 6 0;
#X connect 10 0 1 1;
#X connect 11 0 9 0;
#X connect 11 1 12 0;
#X connect 12 0 6 1;
#X connect 13 0 6 0;
#X connect 13 1 9 1;
#X connect 14 0 7 0;
#X restore 1587 640 pd morph-parameters;
#N canvas 0 22 1916 1001 morph-parameters 0;
#X obj 176 94 inlet;
#X obj 176 236 pack f f;
#X obj 176 261 line;
#X obj 209 117 r preset-manager-morph-s;
#X msg 72 244 stop;
#X obj 72 214 r STOP-MORPH!;
#X obj 209 206 spigot;
#X obj 398 137 t f f;
#X obj 455 154 == 0;
#X obj 221 176 f;
#X floatatom 455 222 5 0 0 0 - - - 0;
#X obj 398 159 t b f;
#X floatatom 425 192 5 0 0 0 - - - 0;
#X obj 209 139 t f f;
#X obj 398 102 r parameters-s;
#X obj 176 288 outlet;
#X connect 0 0 1 0;
#X connect 1 0 2 0;
#X connect 2 0 15 0;
#X connect 3 0 13 0;
#X connect 4 0 2 0;
#X connect 5 0 4 0;
#X connect 6 0 1 1;
#X connect 7 0 11 0;
#X connect 7 1 8 0;
#X connect 8 0 10 0;
#X connect 9 0 6 0;
#X connect 10 0 1 1;
#X connect 11 0 9 0;
#X connect 11 1 12 0;
#X connect 12 0 6 1;
#X connect 13 0 6 0;
#X connect 13 1 9 1;
#X connect 14 0 7 0;
#X restore 1594 594 pd morph-parameters;
#N canvas 0 22 1916 1001 morph-parameters 0;
#X obj 176 94 inlet;
#X obj 176 236 pack f f;
#X obj 176 261 line;
#X obj 209 117 r preset-manager-morph-s;
#X msg 72 244 stop;
#X obj 72 214 r STOP-MORPH!;
#X obj 209 206 spigot;
#X obj 398 137 t f f;
#X obj 455 154 == 0;
#X obj 221 176 f;
#X floatatom 455 222 5 0 0 0 - - - 0;
#X obj 398 159 t b f;
#X floatatom 425 192 5 0 0 0 - - - 0;
#X obj 209 139 t f f;
#X obj 398 102 r parameters-s;
#X obj 176 288 outlet;
#X connect 0 0 1 0;
#X connect 1 0 2 0;
#X connect 2 0 15 0;
#X connect 3 0 13 0;
#X connect 4 0 2 0;
#X connect 5 0 4 0;
#X connect 6 0 1 1;
#X connect 7 0 11 0;
#X connect 7 1 8 0;
#X connect 8 0 10 0;
#X connect 9 0 6 0;
#X connect 10 0 1 1;
#X connect 11 0 9 0;
#X connect 11 1 12 0;
#X connect 12 0 6 1;
#X connect 13 0 6 0;
#X connect 13 1 9 1;
#X connect 14 0 7 0;
#X restore 1615 499 pd morph-parameters;
#X obj 1577 709 s \$0-kaseta-delay-wow-amp-filter-r;
#X obj 1587 663 s \$0-kaseta-delay-wow-phs-noise-r;
#X obj 1594 617 s \$0-kaseta-delay-wow-phs-spring-r;
#X obj 1615 522 s \$0-kaseta-delay-wow-phs-drift-r;
#X connect 0 0 105 0;
#X connect 1 0 0 0;
#X connect 2 0 0 0;
#X connect 4 0 2 0;
#X connect 4 1 1 0;
#X connect 5 0 103 0;
#X connect 6 0 19 0;
#X connect 7 0 10 0;
#X connect 7 1 9 0;
#X connect 7 2 8 0;
#X connect 8 0 3 0;
#X connect 9 0 5 0;
#X connect 10 0 6 0;
#X connect 11 0 7 0;
#X connect 12 0 11 0;
#X connect 13 0 17 0;
#X connect 14 0 4 0;
#X connect 14 1 13 0;
#X connect 15 0 14 0;
#X connect 15 1 13 1;
#X connect 16 0 17 1;
#X connect 17 0 25 0;
#X connect 18 0 16 0;
#X connect 19 0 26 0;
#X connect 20 0 21 0;
#X connect 21 0 19 1;
#X connect 22 0 15 0;
#X connect 23 0 6 1;
#X connect 24 0 33 0;
#X connect 25 0 0 0;
#X connect 26 0 3 0;
#X connect 27 0 5 1;
#X connect 28 0 103 1;
#X connect 29 0 103 5;
#X connect 30 0 32 0;
#X connect 31 0 34 0;
#X connect 35 0 103 7;
#X connect 36 0 103 9;
#X connect 37 0 38 0;
#X connect 39 0 40 0;
#X connect 41 0 103 11;
#X connect 42 0 103 12;
#X connect 43 0 103 13;
#X connect 44 0 103 14;
#X connect 45 0 103 15;
#X connect 46 0 47 0;
#X connect 48 0 49 0;
#X connect 50 0 53 0;
#X connect 51 0 54 0;
#X connect 52 0 55 0;
#X connect 56 0 103 16;
#X connect 58 0 103 17;
#X connect 60 0 103 22;
#X connect 61 0 103 23;
#X connect 62 0 103 24;
#X connect 63 0 103 25;
#X connect 68 0 103 18;
#X connect 69 0 103 19;
#X connect 70 0 103 20;
#X connect 71 0 103 21;
#X connect 76 0 103 26;
#X connect 77 0 103 27;
#X connect 78 0 103 28;
#X connect 79 0 103 29;
#X connect 80 0 99 0;
#X connect 81 0 98 0;
#X connect 82 0 97 0;
#X connect 83 0 96 0;
#X connect 84 0 103 30;
#X connect 85 0 103 31;
#X connect 86 0 103 32;
#X connect 87 0 103 33;
#X connect 88 0 95 0;
#X connect 89 0 94 0;
#X connect 90 0 93 0;
#X connect 91 0 92 0;
#X connect 100 0 103 10;
#X connect 101 0 102 0;
#X connect 103 0 104 0;
#X connect 104 0 3 0;
#X connect 105 0 30 0;
#X connect 105 1 24 0;
#X connect 105 5 31 0;
#X connect 105 7 37 0;
#X connect 105 9 39 0;
#X connect 105 10 101 0;
#X connect 105 11 46 0;
#X connect 105 12 48 0;
#X connect 105 13 50 0;
#X connect 105 14 51 0;
#X connect 105 15 52 0;
#X connect 105 16 57 0;
#X connect 105 17 59 0;
#X connect 105 18 75 0;
#X connect 105 19 74 0;
#X connect 105 20 73 0;
#X connect 105 21 72 0;
#X connect 105 22 67 0;
#X connect 105 23 66 0;
#X connect 105 24 65 0;
#X connect 105 25 64 0;
#X connect 105 26 83 0;
#X connect 105 27 82 0;
#X connect 105 28 81 0;
#X connect 105 29 80 0;
#X connect 105 30 91 0;
#X connect 105 31 90 0;
#X connect 105 32 89 0;
#X connect 105 33 88 0;
#X connect 105 34 111 0;
#X connect 105 35 113 0;
#X connect 105 36 114 0;
#X connect 105 37 115 0;
#X connect 105 39 116 0;
#X connect 106 0 103 34;
#X connect 107 0 103 35;
#X connect 108 0 103 36;
#X connect 109 0 103 37;
#X connect 110 0 103 39;
#X connect 111 0 112 0;
#X connect 113 0 117 0;
#X connect 114 0 118 0;
#X connect 115 0 119 0;
#X connect 116 0 120 0;
#X restore 94 571 pd state-saving-via-preset-manager-module;
#N canvas 396 31 1916 1001 parameter-nudging-system 0;
#X obj 362 67 clip 0 127;
#N canvas 0 22 1916 1001 nudge-parameters 0;
#X obj 124 234 random;
#X obj 232 335 f;
#X obj 232 368 +;
#X obj 257 166 random 2;
#X obj 124 275 t f f;
#X obj 124 351 t b f;
#X obj 124 297 *;
#X obj 257 188 sel 0 1;
#X msg 257 280 -1;
#X msg 335 280 1;
#X obj 124 149 t b b b;
#X obj 124 74 r NUDGE!;
#X obj 157 193 r NUDGE-RANGE;
#X obj 247 308 inlet;
#X obj 232 397 outlet;
#X obj 124 96 spigot;
#X obj 185 79 r parameters2-s;
#X connect 0 0 4 0;
#X connect 1 0 2 0;
#X connect 2 0 14 0;
#X connect 3 0 7 0;
#X connect 4 0 6 0;
#X connect 5 0 2 0;
#X connect 5 1 2 1;
#X connect 6 0 5 0;
#X connect 7 0 8 0;
#X connect 7 1 9 0;
#X connect 8 0 6 1;
#X connect 9 0 6 1;
#X connect 10 0 0 0;
#X connect 10 1 1 0;
#X connect 10 2 3 0;
#X connect 11 0 15 0;
#X connect 12 0 0 1;
#X connect 13 0 1 1;
#X connect 15 0 10 0;
#X connect 16 0 15 1;
#X restore 362 45 pd nudge-parameters;
#X obj 428 225 clip 0 127;
#N canvas 0 22 1916 1001 nudge-parameters 0;
#X obj 124 234 random;
#X obj 232 335 f;
#X obj 232 368 +;
#X obj 257 166 random 2;
#X obj 124 275 t f f;
#X obj 124 351 t b f;
#X obj 124 297 *;
#X obj 257 188 sel 0 1;
#X msg 257 280 -1;
#X msg 335 280 1;
#X obj 124 149 t b b b;
#X obj 124 74 r NUDGE!;
#X obj 157 193 r NUDGE-RANGE;
#X obj 247 308 inlet;
#X obj 232 397 outlet;
#X obj 124 96 spigot;
#X obj 185 79 r parameters2-s;
#X connect 0 0 4 0;
#X connect 1 0 2 0;
#X connect 2 0 14 0;
#X connect 3 0 7 0;
#X connect 4 0 6 0;
#X connect 5 0 2 0;
#X connect 5 1 2 1;
#X connect 6 0 5 0;
#X connect 7 0 8 0;
#X connect 7 1 9 0;
#X connect 8 0 6 1;
#X connect 9 0 6 1;
#X connect 10 0 0 0;
#X connect 10 1 1 0;
#X connect 10 2 3 0;
#X connect 11 0 15 0;
#X connect 12 0 0 1;
#X connect 13 0 1 1;
#X connect 15 0 10 0;
#X connect 16 0 15 1;
#X restore 428 203 pd nudge-parameters;
#X obj 69 70 clip 0 127;
#N canvas 0 22 1916 1001 nudge-parameters 0;
#X obj 124 234 random;
#X obj 232 335 f;
#X obj 232 368 +;
#X obj 257 166 random 2;
#X obj 124 275 t f f;
#X obj 124 351 t b f;
#X obj 124 297 *;
#X obj 257 188 sel 0 1;
#X msg 257 280 -1;
#X msg 335 280 1;
#X obj 124 149 t b b b;
#X obj 124 74 r NUDGE!;
#X obj 157 193 r NUDGE-RANGE;
#X obj 247 308 inlet;
#X obj 232 397 outlet;
#X obj 124 96 spigot;
#X obj 185 79 r parameters2-s;
#X connect 0 0 4 0;
#X connect 1 0 2 0;
#X connect 2 0 14 0;
#X connect 3 0 7 0;
#X connect 4 0 6 0;
#X connect 5 0 2 0;
#X connect 5 1 2 1;
#X connect 6 0 5 0;
#X connect 7 0 8 0;
#X connect 7 1 9 0;
#X connect 8 0 6 1;
#X connect 9 0 6 1;
#X connect 10 0 0 0;
#X connect 10 1 1 0;
#X connect 10 2 3 0;
#X connect 11 0 15 0;
#X connect 12 0 0 1;
#X connect 13 0 1 1;
#X connect 15 0 10 0;
#X connect 16 0 15 1;
#X restore 69 48 pd nudge-parameters;
#X obj 69 25 r \$0-kaseta-pre-amp-s;
#X obj 69 102 s \$0-kaseta-pre-amp-r;
#X obj 362 22 r \$0-kaseta-drive-s;
#X obj 362 99 s \$0-kaseta-drive-r;
#X obj 428 180 r \$0-kaseta-bias-s;
#X obj 27 350 clip 0 127;
#N canvas 0 22 1916 1001 nudge-parameters 0;
#X obj 124 234 random;
#X obj 232 335 f;
#X obj 232 368 +;
#X obj 257 166 random 2;
#X obj 124 275 t f f;
#X obj 124 351 t b f;
#X obj 124 297 *;
#X obj 257 188 sel 0 1;
#X msg 257 280 -1;
#X msg 335 280 1;
#X obj 124 149 t b b b;
#X obj 124 74 r NUDGE!;
#X obj 157 193 r NUDGE-RANGE;
#X obj 247 308 inlet;
#X obj 232 397 outlet;
#X obj 124 96 spigot;
#X obj 185 79 r parameters2-s;
#X connect 0 0 4 0;
#X connect 1 0 2 0;
#X connect 2 0 14 0;
#X connect 3 0 7 0;
#X connect 4 0 6 0;
#X connect 5 0 2 0;
#X connect 5 1 2 1;
#X connect 6 0 5 0;
#X connect 7 0 8 0;
#X connect 7 1 9 0;
#X connect 8 0 6 1;
#X connect 9 0 6 1;
#X connect 10 0 0 0;
#X connect 10 1 1 0;
#X connect 10 2 3 0;
#X connect 11 0 15 0;
#X connect 12 0 0 1;
#X connect 13 0 1 1;
#X connect 15 0 10 0;
#X connect 16 0 15 1;
#X restore 27 328 pd nudge-parameters;
#X obj 27 305 r \$0-kaseta-wow-frequency-s;
#X obj 27 382 s \$0-kaseta-wow-frequency-r;
#X obj 428 257 s \$0-kaseta-bias-r;
#X obj 424 349 clip 0 127;
#N canvas 0 22 1916 1001 nudge-parameters 0;
#X obj 124 234 random;
#X obj 232 335 f;
#X obj 232 368 +;
#X obj 257 166 random 2;
#X obj 124 275 t f f;
#X obj 124 351 t b f;
#X obj 124 297 *;
#X obj 257 188 sel 0 1;
#X msg 257 280 -1;
#X msg 335 280 1;
#X obj 124 149 t b b b;
#X obj 124 74 r NUDGE!;
#X obj 157 193 r NUDGE-RANGE;
#X obj 247 308 inlet;
#X obj 232 397 outlet;
#X obj 124 96 spigot;
#X obj 185 79 r parameters2-s;
#X connect 0 0 4 0;
#X connect 1 0 2 0;
#X connect 2 0 14 0;
#X connect 3 0 7 0;
#X connect 4 0 6 0;
#X connect 5 0 2 0;
#X connect 5 1 2 1;
#X connect 6 0 5 0;
#X connect 7 0 8 0;
#X connect 7 1 9 0;
#X connect 8 0 6 1;
#X connect 9 0 6 1;
#X connect 10 0 0 0;
#X connect 10 1 1 0;
#X connect 10 2 3 0;
#X connect 11 0 15 0;
#X connect 12 0 0 1;
#X connect 13 0 1 1;
#X connect 15 0 10 0;
#X connect 16 0 15 1;
#X restore 424 327 pd nudge-parameters;
#X obj 424 303 r \$0-kaseta-wow-depth-s;
#X obj 423 381 s \$0-kaseta-wow-depth-r;
#X obj 28 460 clip 0 127;
#N canvas 0 22 1916 1001 nudge-parameters 0;
#X obj 124 234 random;
#X obj 232 335 f;
#X obj 232 368 +;
#X obj 257 166 random 2;
#X obj 124 275 t f f;
#X obj 124 351 t b f;
#X obj 124 297 *;
#X obj 257 188 sel 0 1;
#X msg 257 280 -1;
#X msg 335 280 1;
#X obj 124 149 t b b b;
#X obj 124 74 r NUDGE!;
#X obj 157 193 r NUDGE-RANGE;
#X obj 247 308 inlet;
#X obj 232 397 outlet;
#X obj 124 96 spigot;
#X obj 185 79 r parameters2-s;
#X connect 0 0 4 0;
#X connect 1 0 2 0;
#X connect 2 0 14 0;
#X connect 3 0 7 0;
#X connect 4 0 6 0;
#X connect 5 0 2 0;
#X connect 5 1 2 1;
#X connect 6 0 5 0;
#X connect 7 0 8 0;
#X connect 7 1 9 0;
#X connect 8 0 6 1;
#X connect 9 0 6 1;
#X connect 10 0 0 0;
#X connect 10 1 1 0;
#X connect 10 2 3 0;
#X connect 11 0 15 0;
#X connect 12 0 0 1;
#X connect 13 0 1 1;
#X connect 15 0 10 0;
#X connect 16 0 15 1;
#X restore 28 438 pd nudge-parameters;
#X obj 28 415 r \$0-kaseta-delay-length-s;
#X obj 28 492 s \$0-kaseta-delay-length-r;
#X obj 29 564 clip 0 127;
#N canvas 0 22 1916 1001 nudge-parameters 0;
#X obj 124 234 random;
#X obj 232 335 f;
#X obj 232 368 +;
#X obj 257 166 random 2;
#X obj 124 275 t f f;
#X obj 124 351 t b f;
#X obj 124 297 *;
#X obj 257 188 sel 0 1;
#X msg 257 280 -1;
#X msg 335 280 1;
#X obj 124 149 t b b b;
#X obj 124 74 r NUDGE!;
#X obj 157 193 r NUDGE-RANGE;
#X obj 247 308 inlet;
#X obj 232 397 outlet;
#X obj 124 96 spigot;
#X obj 185 79 r parameters2-s;
#X connect 0 0 4 0;
#X connect 1 0 2 0;
#X connect 2 0 14 0;
#X connect 3 0 7 0;
#X connect 4 0 6 0;
#X connect 5 0 2 0;
#X connect 5 1 2 1;
#X connect 6 0 5 0;
#X connect 7 0 8 0;
#X connect 7 1 9 0;
#X connect 8 0 6 1;
#X connect 9 0 6 1;
#X connect 10 0 0 0;
#X connect 10 1 1 0;
#X connect 10 2 3 0;
#X connect 11 0 15 0;
#X connect 12 0 0 1;
#X connect 13 0 1 1;
#X connect 15 0 10 0;
#X connect 16 0 15 1;
#X restore 29 542 pd nudge-parameters;
#X obj 29 518 r \$0-kaseta-delay-head-1-position-s;
#X obj 29 596 s \$0-kaseta-delay-head-1-position-r;
#X obj 258 563 clip 0 127;
#N canvas 0 22 1916 1001 nudge-parameters 0;
#X obj 124 234 random;
#X obj 232 335 f;
#X obj 232 368 +;
#X obj 257 166 random 2;
#X obj 124 275 t f f;
#X obj 124 351 t b f;
#X obj 124 297 *;
#X obj 257 188 sel 0 1;
#X msg 257 280 -1;
#X msg 335 280 1;
#X obj 124 149 t b b b;
#X obj 124 74 r NUDGE!;
#X obj 157 193 r NUDGE-RANGE;
#X obj 247 308 inlet;
#X obj 232 397 outlet;
#X obj 124 96 spigot;
#X obj 185 79 r parameters2-s;
#X connect 0 0 4 0;
#X connect 1 0 2 0;
#X connect 2 0 14 0;
#X connect 3 0 7 0;
#X connect 4 0 6 0;
#X connect 5 0 2 0;
#X connect 5 1 2 1;
#X connect 6 0 5 0;
#X connect 7 0 8 0;
#X connect 7 1 9 0;
#X connect 8 0 6 1;
#X connect 9 0 6 1;
#X connect 10 0 0 0;
#X connect 10 1 1 0;
#X connect 10 2 3 0;
#X connect 11 0 15 0;
#X connect 12 0 0 1;
#X connect 13 0 1 1;
#X connect 15 0 10 0;
#X connect 16 0 15 1;
#X restore 258 541 pd nudge-parameters;
#X obj 481 563 clip 0 127;
#N canvas 0 22 1916 1001 nudge-parameters 0;
#X obj 124 234 random;
#X obj 232 335 f;
#X obj 232 368 +;
#X obj 257 166 random 2;
#X obj 124 275 t f f;
#X obj 124 351 t b f;
#X obj 124 297 *;
#X obj 257 188 sel 0 1;
#X msg 257 280 -1;
#X msg 335 280 1;
#X obj 124 149 t b b b;
#X obj 124 74 r NUDGE!;
#X obj 157 193 r NUDGE-RANGE;
#X obj 247 308 inlet;
#X obj 232 397 outlet;
#X obj 124 96 spigot;
#X obj 185 79 r parameters2-s;
#X connect 0 0 4 0;
#X connect 1 0 2 0;
#X connect 2 0 14 0;
#X connect 3 0 7 0;
#X connect 4 0 6 0;
#X connect 5 0 2 0;
#X connect 5 1 2 1;
#X connect 6 0 5 0;
#X connect 7 0 8 0;
#X connect 7 1 9 0;
#X connect 8 0 6 1;
#X connect 9 0 6 1;
#X connect 10 0 0 0;
#X connect 10 1 1 0;
#X connect 10 2 3 0;
#X connect 11 0 15 0;
#X connect 12 0 0 1;
#X connect 13 0 1 1;
#X connect 15 0 10 0;
#X connect 16 0 15 1;
#X restore 481 541 pd nudge-parameters;
#X obj 258 517 r \$0-kaseta-delay-head-2-position-s;
#X obj 258 595 s \$0-kaseta-delay-head-2-position-r;
#X obj 481 517 r \$0-kaseta-delay-head-3-position-s;
#X obj 481 595 s \$0-kaseta-delay-head-3-position-r;
#X obj 711 563 clip 0 127;
#N canvas 0 22 1916 1001 nudge-parameters 0;
#X obj 124 234 random;
#X obj 232 335 f;
#X obj 232 368 +;
#X obj 257 166 random 2;
#X obj 124 275 t f f;
#X obj 124 351 t b f;
#X obj 124 297 *;
#X obj 257 188 sel 0 1;
#X msg 257 280 -1;
#X msg 335 280 1;
#X obj 124 149 t b b b;
#X obj 124 74 r NUDGE!;
#X obj 157 193 r NUDGE-RANGE;
#X obj 247 308 inlet;
#X obj 232 397 outlet;
#X obj 124 96 spigot;
#X obj 185 79 r parameters2-s;
#X connect 0 0 4 0;
#X connect 1 0 2 0;
#X connect 2 0 14 0;
#X connect 3 0 7 0;
#X connect 4 0 6 0;
#X connect 5 0 2 0;
#X connect 5 1 2 1;
#X connect 6 0 5 0;
#X connect 7 0 8 0;
#X connect 7 1 9 0;
#X connect 8 0 6 1;
#X connect 9 0 6 1;
#X connect 10 0 0 0;
#X connect 10 1 1 0;
#X connect 10 2 3 0;
#X connect 11 0 15 0;
#X connect 12 0 0 1;
#X connect 13 0 1 1;
#X connect 15 0 10 0;
#X connect 16 0 15 1;
#X restore 711 541 pd nudge-parameters;
#X obj 711 517 r \$0-kaseta-delay-head-4-position-s;
#X obj 711 595 s \$0-kaseta-delay-head-4-position-r;
#X obj 29 668 clip 0 127;
#N canvas 0 22 1916 1001 nudge-parameters 0;
#X obj 124 234 random;
#X obj 232 335 f;
#X obj 232 368 +;
#X obj 257 166 random 2;
#X obj 124 275 t f f;
#X obj 124 351 t b f;
#X obj 124 297 *;
#X obj 257 188 sel 0 1;
#X msg 257 280 -1;
#X msg 335 280 1;
#X obj 124 149 t b b b;
#X obj 124 74 r NUDGE!;
#X obj 157 193 r NUDGE-RANGE;
#X obj 247 308 inlet;
#X obj 232 397 outlet;
#X obj 124 96 spigot;
#X obj 185 79 r parameters2-s;
#X connect 0 0 4 0;
#X connect 1 0 2 0;
#X connect 2 0 14 0;
#X connect 3 0 7 0;
#X connect 4 0 6 0;
#X connect 5 0 2 0;
#X connect 5 1 2 1;
#X connect 6 0 5 0;
#X connect 7 0 8 0;
#X connect 7 1 9 0;
#X connect 8 0 6 1;
#X connect 9 0 6 1;
#X connect 10 0 0 0;
#X connect 10 1 1 0;
#X connect 10 2 3 0;
#X connect 11 0 15 0;
#X connect 12 0 0 1;
#X connect 13 0 1 1;
#X connect 15 0 10 0;
#X connect 16 0 15 1;
#X restore 29 646 pd nudge-parameters;
#X obj 288 667 clip 0 127;
#N canvas 0 22 1916 1001 nudge-parameters 0;
#X obj 124 234 random;
#X obj 232 335 f;
#X obj 232 368 +;
#X obj 257 166 random 2;
#X obj 124 275 t f f;
#X obj 124 351 t b f;
#X obj 124 297 *;
#X obj 257 188 sel 0 1;
#X msg 257 280 -1;
#X msg 335 280 1;
#X obj 124 149 t b b b;
#X obj 124 74 r NUDGE!;
#X obj 157 193 r NUDGE-RANGE;
#X obj 247 308 inlet;
#X obj 232 397 outlet;
#X obj 124 96 spigot;
#X obj 185 79 r parameters2-s;
#X connect 0 0 4 0;
#X connect 1 0 2 0;
#X connect 2 0 14 0;
#X connect 3 0 7 0;
#X connect 4 0 6 0;
#X connect 5 0 2 0;
#X connect 5 1 2 1;
#X connect 6 0 5 0;
#X connect 7 0 8 0;
#X connect 7 1 9 0;
#X connect 8 0 6 1;
#X connect 9 0 6 1;
#X connect 10 0 0 0;
#X connect 10 1 1 0;
#X connect 10 2 3 0;
#X connect 11 0 15 0;
#X connect 12 0 0 1;
#X connect 13 0 1 1;
#X connect 15 0 10 0;
#X connect 16 0 15 1;
#X restore 288 645 pd nudge-parameters;
#X obj 541 667 clip 0 127;
#N canvas 0 22 1916 1001 nudge-parameters 0;
#X obj 124 234 random;
#X obj 232 335 f;
#X obj 232 368 +;
#X obj 257 166 random 2;
#X obj 124 275 t f f;
#X obj 124 351 t b f;
#X obj 124 297 *;
#X obj 257 188 sel 0 1;
#X msg 257 280 -1;
#X msg 335 280 1;
#X obj 124 149 t b b b;
#X obj 124 74 r NUDGE!;
#X obj 157 193 r NUDGE-RANGE;
#X obj 247 308 inlet;
#X obj 232 397 outlet;
#X obj 124 96 spigot;
#X obj 185 79 r parameters2-s;
#X connect 0 0 4 0;
#X connect 1 0 2 0;
#X connect 2 0 14 0;
#X connect 3 0 7 0;
#X connect 4 0 6 0;
#X connect 5 0 2 0;
#X connect 5 1 2 1;
#X connect 6 0 5 0;
#X connect 7 0 8 0;
#X connect 7 1 9 0;
#X connect 8 0 6 1;
#X connect 9 0 6 1;
#X connect 10 0 0 0;
#X connect 10 1 1 0;
#X connect 10 2 3 0;
#X connect 11 0 15 0;
#X connect 12 0 0 1;
#X connect 13 0 1 1;
#X connect 15 0 10 0;
#X connect 16 0 15 1;
#X restore 541 645 pd nudge-parameters;
#X obj 801 667 clip 0 127;
#N canvas 0 22 1916 1001 nudge-parameters 0;
#X obj 124 234 random;
#X obj 232 335 f;
#X obj 232 368 +;
#X obj 257 166 random 2;
#X obj 124 275 t f f;
#X obj 124 351 t b f;
#X obj 124 297 *;
#X obj 257 188 sel 0 1;
#X msg 257 280 -1;
#X msg 335 280 1;
#X obj 124 149 t b b b;
#X obj 124 74 r NUDGE!;
#X obj 157 193 r NUDGE-RANGE;
#X obj 247 308 inlet;
#X obj 232 397 outlet;
#X obj 124 96 spigot;
#X obj 185 79 r parameters2-s;
#X connect 0 0 4 0;
#X connect 1 0 2 0;
#X connect 2 0 14 0;
#X connect 3 0 7 0;
#X connect 4 0 6 0;
#X connect 5 0 2 0;
#X connect 5 1 2 1;
#X connect 6 0 5 0;
#X connect 7 0 8 0;
#X connect 7 1 9 0;
#X connect 8 0 6 1;
#X connect 9 0 6 1;
#X connect 10 0 0 0;
#X connect 10 1 1 0;
#X connect 10 2 3 0;
#X connect 11 0 15 0;
#X connect 12 0 0 1;
#X connect 13 0 1 1;
#X connect 15 0 10 0;
#X connect 16 0 15 1;
#X restore 801 645 pd nudge-parameters;
#X obj 29 622 r \$0-kaseta-delay-head-1-feedback-amp-s;
#X obj 29 700 s \$0-kaseta-delay-head-1-feedback-amp-r;
#X obj 288 621 r \$0-kaseta-delay-head-2-feedback-amp-s;
#X obj 288 699 s \$0-kaseta-delay-head-2-feedback-amp-r;
#X obj 541 621 r \$0-kaseta-delay-head-3-feedback-amp-s;
#X obj 541 699 s \$0-kaseta-delay-head-3-feedback-amp-r;
#X obj 801 621 r \$0-kaseta-delay-head-4-feedback-amp-s;
#X obj 801 699 s \$0-kaseta-delay-head-4-feedback-amp-r;
#X obj 29 771 clip 0 127;
#N canvas 0 22 1916 1001 nudge-parameters 0;
#X obj 124 234 random;
#X obj 232 335 f;
#X obj 232 368 +;
#X obj 257 166 random 2;
#X obj 124 275 t f f;
#X obj 124 351 t b f;
#X obj 124 297 *;
#X obj 257 188 sel 0 1;
#X msg 257 280 -1;
#X msg 335 280 1;
#X obj 124 149 t b b b;
#X obj 124 74 r NUDGE!;
#X obj 157 193 r NUDGE-RANGE;
#X obj 247 308 inlet;
#X obj 232 397 outlet;
#X obj 124 96 spigot;
#X obj 185 79 r parameters2-s;
#X connect 0 0 4 0;
#X connect 1 0 2 0;
#X connect 2 0 14 0;
#X connect 3 0 7 0;
#X connect 4 0 6 0;
#X connect 5 0 2 0;
#X connect 5 1 2 1;
#X connect 6 0 5 0;
#X connect 7 0 8 0;
#X connect 7 1 9 0;
#X connect 8 0 6 1;
#X connect 9 0 6 1;
#X connect 10 0 0 0;
#X connect 10 1 1 0;
#X connect 10 2 3 0;
#X connect 11 0 15 0;
#X connect 12 0 0 1;
#X connect 13 0 1 1;
#X connect 15 0 10 0;
#X connect 16 0 15 1;
#X restore 29 749 pd nudge-parameters;
#X obj 288 770 clip 0 127;
#N canvas 0 22 1916 1001 nudge-parameters 0;
#X obj 124 234 random;
#X obj 232 335 f;
#X obj 232 368 +;
#X obj 257 166 random 2;
#X obj 124 275 t f f;
#X obj 124 351 t b f;
#X obj 124 297 *;
#X obj 257 188 sel 0 1;
#X msg 257 280 -1;
#X msg 335 280 1;
#X obj 124 149 t b b b;
#X obj 124 74 r NUDGE!;
#X obj 157 193 r NUDGE-RANGE;
#X obj 247 308 inlet;
#X obj 232 397 outlet;
#X obj 124 96 spigot;
#X obj 185 79 r parameters2-s;
#X connect 0 0 4 0;
#X connect 1 0 2 0;
#X connect 2 0 14 0;
#X connect 3 0 7 0;
#X connect 4 0 6 0;
#X connect 5 0 2 0;
#X connect 5 1 2 1;
#X connect 6 0 5 0;
#X connect 7 0 8 0;
#X connect 7 1 9 0;
#X connect 8 0 6 1;
#X connect 9 0 6 1;
#X connect 10 0 0 0;
#X connect 10 1 1 0;
#X connect 10 2 3 0;
#X connect 11 0 15 0;
#X connect 12 0 0 1;
#X connect 13 0 1 1;
#X connect 15 0 10 0;
#X connect 16 0 15 1;
#X restore 288 748 pd nudge-parameters;
#X obj 541 770 clip 0 127;
#N canvas 0 22 1916 1001 nudge-parameters 0;
#X obj 124 234 random;
#X obj 232 335 f;
#X obj 232 368 +;
#X obj 257 166 random 2;
#X obj 124 275 t f f;
#X obj 124 351 t b f;
#X obj 124 297 *;
#X obj 257 188 sel 0 1;
#X msg 257 280 -1;
#X msg 335 280 1;
#X obj 124 149 t b b b;
#X obj 124 74 r NUDGE!;
#X obj 157 193 r NUDGE-RANGE;
#X obj 247 308 inlet;
#X obj 232 397 outlet;
#X obj 124 96 spigot;
#X obj 185 79 r parameters2-s;
#X connect 0 0 4 0;
#X connect 1 0 2 0;
#X connect 2 0 14 0;
#X connect 3 0 7 0;
#X connect 4 0 6 0;
#X connect 5 0 2 0;
#X connect 5 1 2 1;
#X connect 6 0 5 0;
#X connect 7 0 8 0;
#X connect 7 1 9 0;
#X connect 8 0 6 1;
#X connect 9 0 6 1;
#X connect 10 0 0 0;
#X connect 10 1 1 0;
#X connect 10 2 3 0;
#X connect 11 0 15 0;
#X connect 12 0 0 1;
#X connect 13 0 1 1;
#X connect 15 0 10 0;
#X connect 16 0 15 1;
#X restore 541 748 pd nudge-parameters;
#X obj 801 770 clip 0 127;
#N canvas 0 22 1916 1001 nudge-parameters 0;
#X obj 124 234 random;
#X obj 232 335 f;
#X obj 232 368 +;
#X obj 257 166 random 2;
#X obj 124 275 t f f;
#X obj 124 351 t b f;
#X obj 124 297 *;
#X obj 257 188 sel 0 1;
#X msg 257 280 -1;
#X msg 335 280 1;
#X obj 124 149 t b b b;
#X obj 124 74 r NUDGE!;
#X obj 157 193 r NUDGE-RANGE;
#X obj 247 308 inlet;
#X obj 232 397 outlet;
#X obj 124 96 spigot;
#X obj 185 79 r parameters2-s;
#X connect 0 0 4 0;
#X connect 1 0 2 0;
#X connect 2 0 14 0;
#X connect 3 0 7 0;
#X connect 4 0 6 0;
#X connect 5 0 2 0;
#X connect 5 1 2 1;
#X connect 6 0 5 0;
#X connect 7 0 8 0;
#X connect 7 1 9 0;
#X connect 8 0 6 1;
#X connect 9 0 6 1;
#X connect 10 0 0 0;
#X connect 10 1 1 0;
#X connect 10 2 3 0;
#X connect 11 0 15 0;
#X connect 12 0 0 1;
#X connect 13 0 1 1;
#X connect 15 0 10 0;
#X connect 16 0 15 1;
#X restore 801 748 pd nudge-parameters;
#X obj 29 725 r \$0-kaseta-delay-head-1-volume-s;
#X obj 29 803 s \$0-kaseta-delay-head-1-volume-r;
#X obj 288 724 r \$0-kaseta-delay-head-2-volume-s;
#X obj 288 802 s \$0-kaseta-delay-head-2-volume-r;
#X obj 541 724 r \$0-kaseta-delay-head-3-volume-s;
#X obj 541 802 s \$0-kaseta-delay-head-3-volume-r;
#X obj 801 724 r \$0-kaseta-delay-head-4-volume-s;
#X obj 801 802 s \$0-kaseta-delay-head-4-volume-r;
#X obj 224 878 clip 0 127;
#N canvas 0 22 1916 1001 nudge-parameters 0;
#X obj 124 234 random;
#X obj 232 335 f;
#X obj 232 368 +;
#X obj 257 166 random 2;
#X obj 124 275 t f f;
#X obj 124 351 t b f;
#X obj 124 297 *;
#X obj 257 188 sel 0 1;
#X msg 257 280 -1;
#X msg 335 280 1;
#X obj 124 149 t b b b;
#X obj 124 74 r NUDGE!;
#X obj 157 193 r NUDGE-RANGE;
#X obj 247 308 inlet;
#X obj 232 397 outlet;
#X obj 124 96 spigot;
#X obj 185 79 r parameters2-s;
#X connect 0 0 4 0;
#X connect 1 0 2 0;
#X connect 2 0 14 0;
#X connect 3 0 7 0;
#X connect 4 0 6 0;
#X connect 5 0 2 0;
#X connect 5 1 2 1;
#X connect 6 0 5 0;
#X connect 7 0 8 0;
#X connect 7 1 9 0;
#X connect 8 0 6 1;
#X connect 9 0 6 1;
#X connect 10 0 0 0;
#X connect 10 1 1 0;
#X connect 10 2 3 0;
#X connect 11 0 15 0;
#X connect 12 0 0 1;
#X connect 13 0 1 1;
#X connect 15 0 10 0;
#X connect 16 0 15 1;
#X restore 224 856 pd nudge-parameters;
#X obj 224 832 r \$0-kaseta-delay-wow-amp-noise-s;
#X obj 224 910 s \$0-kaseta-delay-wow-amp-noise-r;
#X obj 436 878 clip 0 127;
#N canvas 0 22 1916 1001 nudge-parameters 0;
#X obj 124 234 random;
#X obj 232 335 f;
#X obj 232 368 +;
#X obj 257 166 random 2;
#X obj 124 275 t f f;
#X obj 124 351 t b f;
#X obj 124 297 *;
#X obj 257 188 sel 0 1;
#X msg 257 280 -1;
#X msg 335 280 1;
#X obj 124 149 t b b b;
#X obj 124 74 r NUDGE!;
#X obj 157 193 r NUDGE-RANGE;
#X obj 247 308 inlet;
#X obj 232 397 outlet;
#X obj 124 96 spigot;
#X obj 185 79 r parameters2-s;
#X connect 0 0 4 0;
#X connect 1 0 2 0;
#X connect 2 0 14 0;
#X connect 3 0 7 0;
#X connect 4 0 6 0;
#X connect 5 0 2 0;
#X connect 5 1 2 1;
#X connect 6 0 5 0;
#X connect 7 0 8 0;
#X connect 7 1 9 0;
#X connect 8 0 6 1;
#X connect 9 0 6 1;
#X connect 10 0 0 0;
#X connect 10 1 1 0;
#X connect 10 2 3 0;
#X connect 11 0 15 0;
#X connect 12 0 0 1;
#X connect 13 0 1 1;
#X connect 15 0 10 0;
#X connect 16 0 15 1;
#X restore 436 856 pd nudge-parameters;
#X obj 436 832 r \$0-kaseta-delay-wow-amp-spring-s;
#X obj 436 910 s \$0-kaseta-delay-wow-amp-spring-r;
#X obj 653 879 clip 0 127;
#N canvas 0 22 1916 1001 nudge-parameters 0;
#X obj 124 234 random;
#X obj 232 335 f;
#X obj 232 368 +;
#X obj 257 166 random 2;
#X obj 124 275 t f f;
#X obj 124 351 t b f;
#X obj 124 297 *;
#X obj 257 188 sel 0 1;
#X msg 257 280 -1;
#X msg 335 280 1;
#X obj 124 149 t b b b;
#X obj 124 74 r NUDGE!;
#X obj 157 193 r NUDGE-RANGE;
#X obj 247 308 inlet;
#X obj 232 397 outlet;
#X obj 124 96 spigot;
#X obj 185 79 r parameters2-s;
#X connect 0 0 4 0;
#X connect 1 0 2 0;
#X connect 2 0 14 0;
#X connect 3 0 7 0;
#X connect 4 0 6 0;
#X connect 5 0 2 0;
#X connect 5 1 2 1;
#X connect 6 0 5 0;
#X connect 7 0 8 0;
#X connect 7 1 9 0;
#X connect 8 0 6 1;
#X connect 9 0 6 1;
#X connect 10 0 0 0;
#X connect 10 1 1 0;
#X connect 10 2 3 0;
#X connect 11 0 15 0;
#X connect 12 0 0 1;
#X connect 13 0 1 1;
#X connect 15 0 10 0;
#X connect 16 0 15 1;
#X restore 653 857 pd nudge-parameters;
#X obj 653 833 r \$0-kaseta-delay-wow-amp-filter-s;
#X obj 653 911 s \$0-kaseta-delay-wow-amp-filter-r;
#X obj 869 879 clip 0 127;
#N canvas 0 22 1916 1001 nudge-parameters 0;
#X obj 124 234 random;
#X obj 232 335 f;
#X obj 232 368 +;
#X obj 257 166 random 2;
#X obj 124 275 t f f;
#X obj 124 351 t b f;
#X obj 124 297 *;
#X obj 257 188 sel 0 1;
#X msg 257 280 -1;
#X msg 335 280 1;
#X obj 124 149 t b b b;
#X obj 124 74 r NUDGE!;
#X obj 157 193 r NUDGE-RANGE;
#X obj 247 308 inlet;
#X obj 232 397 outlet;
#X obj 124 96 spigot;
#X obj 185 79 r parameters2-s;
#X connect 0 0 4 0;
#X connect 1 0 2 0;
#X connect 2 0 14 0;
#X connect 3 0 7 0;
#X connect 4 0 6 0;
#X connect 5 0 2 0;
#X connect 5 1 2 1;
#X connect 6 0 5 0;
#X connect 7 0 8 0;
#X connect 7 1 9 0;
#X connect 8 0 6 1;
#X connect 9 0 6 1;
#X connect 10 0 0 0;
#X connect 10 1 1 0;
#X connect 10 2 3 0;
#X connect 11 0 15 0;
#X connect 12 0 0 1;
#X connect 13 0 1 1;
#X connect 15 0 10 0;
#X connect 16 0 15 1;
#X restore 869 857 pd nudge-parameters;
#X obj 869 833 r \$0-kaseta-delay-wow-phs-noise-s;
#X obj 869 911 s \$0-kaseta-delay-wow-phs-noise-r;
#X obj 29 984 clip 0 127;
#N canvas 0 22 1916 1001 nudge-parameters 0;
#X obj 124 234 random;
#X obj 232 335 f;
#X obj 232 368 +;
#X obj 257 166 random 2;
#X obj 124 275 t f f;
#X obj 124 351 t b f;
#X obj 124 297 *;
#X obj 257 188 sel 0 1;
#X msg 257 280 -1;
#X msg 335 280 1;
#X obj 124 149 t b b b;
#X obj 124 74 r NUDGE!;
#X obj 157 193 r NUDGE-RANGE;
#X obj 247 308 inlet;
#X obj 232 397 outlet;
#X obj 124 96 spigot;
#X obj 185 79 r parameters2-s;
#X connect 0 0 4 0;
#X connect 1 0 2 0;
#X connect 2 0 14 0;
#X connect 3 0 7 0;
#X connect 4 0 6 0;
#X connect 5 0 2 0;
#X connect 5 1 2 1;
#X connect 6 0 5 0;
#X connect 7 0 8 0;
#X connect 7 1 9 0;
#X connect 8 0 6 1;
#X connect 9 0 6 1;
#X connect 10 0 0 0;
#X connect 10 1 1 0;
#X connect 10 2 3 0;
#X connect 11 0 15 0;
#X connect 12 0 0 1;
#X connect 13 0 1 1;
#X connect 15 0 10 0;
#X connect 16 0 15 1;
#X restore 29 962 pd nudge-parameters;
#X obj 29 938 r \$0-kaseta-delay-wow-phs-spring-s;
#X obj 29 1016 s \$0-kaseta-delay-wow-phs-spring-r;
#X obj 462 985 clip 0 127;
#N canvas 0 22 1916 1001 nudge-parameters 0;
#X obj 124 234 random;
#X obj 232 335 f;
#X obj 232 368 +;
#X obj 257 166 random 2;
#X obj 124 275 t f f;
#X obj 124 351 t b f;
#X obj 124 297 *;
#X obj 257 188 sel 0 1;
#X msg 257 280 -1;
#X msg 335 280 1;
#X obj 124 149 t b b b;
#X obj 124 74 r NUDGE!;
#X obj 157 193 r NUDGE-RANGE;
#X obj 247 308 inlet;
#X obj 232 397 outlet;
#X obj 124 96 spigot;
#X obj 185 79 r parameters2-s;
#X connect 0 0 4 0;
#X connect 1 0 2 0;
#X connect 2 0 14 0;
#X connect 3 0 7 0;
#X connect 4 0 6 0;
#X connect 5 0 2 0;
#X connect 5 1 2 1;
#X connect 6 0 5 0;
#X connect 7 0 8 0;
#X connect 7 1 9 0;
#X connect 8 0 6 1;
#X connect 9 0 6 1;
#X connect 10 0 0 0;
#X connect 10 1 1 0;
#X connect 10 2 3 0;
#X connect 11 0 15 0;
#X connect 12 0 0 1;
#X connect 13 0 1 1;
#X connect 15 0 10 0;
#X connect 16 0 15 1;
#X restore 462 963 pd nudge-parameters;
#X obj 462 939 r \$0-kaseta-delay-wow-phs-drift-s;
#X obj 462 1017 s \$0-kaseta-delay-wow-phs-drift-r;
#X connect 0 0 9 0;
#X connect 1 0 0 0;
#X connect 2 0 15 0;
#X connect 3 0 2 0;
#X connect 4 0 7 0;
#X connect 5 0 4 0;
#X connect 6 0 5 0;
#X connect 8 0 1 0;
#X connect 10 0 3 0;
#X connect 11 0 14 0;
#X connect 12 0 11 0;
#X connect 13 0 12 0;
#X connect 16 0 19 0;
#X connect 17 0 16 0;
#X connect 18 0 17 0;
#X connect 20 0 23 0;
#X connect 21 0 20 0;
#X connect 22 0 21 0;
#X connect 24 0 27 0;
#X connect 25 0 24 0;
#X connect 26 0 25 0;
#X connect 28 0 33 0;
#X connect 29 0 28 0;
#X connect 30 0 35 0;
#X connect 31 0 30 0;
#X connect 32 0 29 0;
#X connect 34 0 31 0;
#X connect 36 0 39 0;
#X connect 37 0 36 0;
#X connect 38 0 37 0;
#X connect 40 0 49 0;
#X connect 41 0 40 0;
#X connect 42 0 51 0;
#X connect 43 0 42 0;
#X connect 44 0 53 0;
#X connect 45 0 44 0;
#X connect 46 0 55 0;
#X connect 47 0 46 0;
#X connect 48 0 41 0;
#X connect 50 0 43 0;
#X connect 52 0 45 0;
#X connect 54 0 47 0;
#X connect 56 0 65 0;
#X connect 57 0 56 0;
#X connect 58 0 67 0;
#X connect 59 0 58 0;
#X connect 60 0 69 0;
#X connect 61 0 60 0;
#X connect 62 0 71 0;
#X connect 63 0 62 0;
#X connect 64 0 57 0;
#X connect 66 0 59 0;
#X connect 68 0 61 0;
#X connect 70 0 63 0;
#X connect 72 0 75 0;
#X connect 73 0 72 0;
#X connect 74 0 73 0;
#X connect 76 0 79 0;
#X connect 77 0 76 0;
#X connect 78 0 77 0;
#X connect 80 0 83 0;
#X connect 81 0 80 0;
#X connect 82 0 81 0;
#X connect 84 0 87 0;
#X connect 85 0 84 0;
#X connect 86 0 85 0;
#X connect 88 0 91 0;
#X connect 89 0 88 0;
#X connect 90 0 89 0;
#X connect 92 0 95 0;
#X connect 93 0 92 0;
#X connect 94 0 93 0;
#X restore 95 543 pd parameter-nudging-system;
#N canvas 474 23 1916 1001 external-messages 0;
#X floatatom 148 651 5 0 0 0 - - - 0;
#X obj 185 328 spigot;
#X obj 218 288 tgl 15 0 empty empty empty 17 7 0 10 #fcfcfc #000000
#000000 0 1;
#X obj 254 272 ==;
#X obj 269 248 f \$1;
#X obj 269 224 loadbang;
#X msg 185 202 \$1 \$2;
#X msg 185 156 symbol \$1;
#X obj 185 180 pack s f;
#X obj 148 630 f;
#X obj 148 578 t b f;
#X obj 148 601 spigot;
#X obj 185 62 unpack s f f;
#X symbolatom 185 94 10 0 0 0 - - - 0;
#X obj 218 308 t f f;
#X obj 245 332 s \$0-msg-spigot;
#X obj 196 585 r \$0-msg-spigot;
#X floatatom 225 516 5 0 0 0 - - - 0;
#X obj 225 495 f;
#X obj 225 443 t b f;
#X obj 225 466 spigot;
#X obj 273 450 r \$0-msg-spigot;
#X floatatom 416 518 5 0 0 0 - - - 0;
#X obj 416 497 f;
#X obj 416 445 t b f;
#X obj 416 468 spigot;
#X obj 464 452 r \$0-msg-spigot;
#X obj 185 14 r kaseta;
#X floatatom 501 652 5 0 0 0 - - - 0;
#X obj 501 631 f;
#X obj 501 579 t b f;
#X obj 501 602 spigot;
#X obj 549 586 r \$0-msg-spigot;
#X floatatom 599 518 5 0 0 0 - - - 0;
#X obj 599 497 f;
#X obj 599 445 t b f;
#X obj 599 468 spigot;
#X obj 647 452 r \$0-msg-spigot;
#X floatatom 686 653 5 0 0 0 - - - 0;
#X obj 686 632 f;
#X obj 686 580 t b f;
#X obj 686 603 spigot;
#X obj 734 587 r \$0-msg-spigot;
#X floatatom 784 519 5 0 0 0 - - - 0;
#X obj 784 498 f;
#X obj 784 446 t b f;
#X obj 784 469 spigot;
#X obj 832 453 r \$0-msg-spigot;
#X floatatom 857 653 5 0 0 0 - - - 0;
#X obj 857 632 f;
#X obj 857 580 t b f;
#X obj 857 603 spigot;
#X obj 905 587 r \$0-msg-spigot;
#X floatatom 1013 517 5 0 0 0 - - - 0;
#X obj 1013 496 f;
#X obj 1013 444 t b f;
#X obj 1013 467 spigot;
#X obj 1061 451 r \$0-msg-spigot;
#X floatatom 1089 652 5 0 0 0 - - - 0;
#X obj 1089 631 f;
#X obj 1089 579 t b f;
#X obj 1089 602 spigot;
#X obj 1137 586 r \$0-msg-spigot;
#X floatatom 1227 517 5 0 0 0 - - - 0;
#X obj 1227 496 f;
#X obj 1227 444 t b f;
#X obj 1227 467 spigot;
#X obj 1275 451 r \$0-msg-spigot;
#X floatatom 1302 651 5 0 0 0 - - - 0;
#X obj 1302 630 f;
#X obj 1302 578 t b f;
#X obj 1302 601 spigot;
#X obj 1350 585 r \$0-msg-spigot;
#X floatatom 167 776 5 0 0 0 - - - 0;
#X obj 167 755 f;
#X obj 167 703 t b f;
#X obj 167 726 spigot;
#X obj 215 710 r \$0-msg-spigot;
#X floatatom 365 777 5 0 0 0 - - - 0;
#X obj 365 756 f;
#X obj 365 704 t b f;
#X obj 365 727 spigot;
#X obj 413 711 r \$0-msg-spigot;
#X floatatom 558 777 5 0 0 0 - - - 0;
#X obj 558 756 f;
#X obj 558 704 t b f;
#X obj 558 727 spigot;
#X obj 606 711 r \$0-msg-spigot;
#X floatatom 750 777 5 0 0 0 - - - 0;
#X obj 750 756 f;
#X obj 750 704 t b f;
#X obj 750 727 spigot;
#X obj 798 711 r \$0-msg-spigot;
#X floatatom 130 899 5 0 0 0 - - - 0;
#X obj 130 878 f;
#X obj 130 826 t b f;
#X obj 130 849 spigot;
#X obj 178 833 r \$0-msg-spigot;
#X floatatom 348 899 5 0 0 0 - - - 0;
#X obj 348 878 f;
#X obj 348 826 t b f;
#X obj 348 849 spigot;
#X obj 396 833 r \$0-msg-spigot;
#X floatatom 563 900 5 0 0 0 - - - 0;
#X obj 563 879 f;
#X obj 563 827 t b f;
#X obj 563 850 spigot;
#X obj 611 834 r \$0-msg-spigot;
#X floatatom 773 902 5 0 0 0 - - - 0;
#X obj 773 881 f;
#X obj 773 829 t b f;
#X obj 773 852 spigot;
#X obj 821 836 r \$0-msg-spigot;
#X floatatom 130 1016 5 0 0 0 - - - 0;
#X obj 130 995 f;
#X obj 130 943 t b f;
#X obj 130 966 spigot;
#X obj 178 950 r \$0-msg-spigot;
#X floatatom 378 1016 5 0 0 0 - - - 0;
#X obj 378 995 f;
#X obj 378 943 t b f;
#X obj 378 966 spigot;
#X obj 426 950 r \$0-msg-spigot;
#X floatatom 623 1017 5 0 0 0 - - - 0;
#X obj 623 996 f;
#X obj 623 944 t b f;
#X obj 623 967 spigot;
#X obj 671 951 r \$0-msg-spigot;
#X floatatom 863 1019 5 0 0 0 - - - 0;
#X obj 863 998 f;
#X obj 863 946 t b f;
#X obj 863 969 spigot;
#X obj 911 953 r \$0-msg-spigot;
#X floatatom 132 1140 5 0 0 0 - - - 0;
#X obj 132 1119 f;
#X obj 132 1067 t b f;
#X obj 132 1090 spigot;
#X obj 180 1074 r \$0-msg-spigot;
#X floatatom 380 1140 5 0 0 0 - - - 0;
#X obj 380 1119 f;
#X obj 380 1067 t b f;
#X obj 380 1090 spigot;
#X obj 428 1074 r \$0-msg-spigot;
#X floatatom 625 1141 5 0 0 0 - - - 0;
#X obj 625 1120 f;
#X obj 625 1068 t b f;
#X obj 625 1091 spigot;
#X obj 673 1075 r \$0-msg-spigot;
#X floatatom 865 1143 5 0 0 0 - - - 0;
#X obj 865 1122 f;
#X obj 865 1070 t b f;
#X obj 865 1093 spigot;
#X obj 913 1077 r \$0-msg-spigot;
#X obj 185 358 route PRE-AMP DRIVE SATURATION BIAS WOW_FREQ WOW_DEPTH
DELAY_LENGTH DELAY_HEAD_1_POSITION DELAY_HEAD_2_POSITION DELAY_HEAD_3_POSITION
DELAY_HEAD_4_POSITION DELAY_QUANTIZATION_8 DELAY_QUANTIZATION_6 DELAY_HEAD_1_PLAY
DELAY_HEAD_2_PLAY DELAY_HEAD_3_PLAY DELAY_HEAD_4_PLAY DELAY_HEAD_1_FEEDBACK
DELAY_HEAD_2_FEEDBACK DELAY_HEAD_3_FEEDBACK DELAY_HEAD_4_FEEDBACK DELAY_HEAD_1_FEEDBACK_AMP
DELAY_HEAD_2_FEEDBACK_AMP DELAY_HEAD_3_FEEDBACK_AMP DELAY_HEAD_4_FEEDBACK_AMP
DELAY_HEAD_1_VOLUME DELAY_HEAD_2_VOLUME DELAY_HEAD_3_VOLUME DELAY_HEAD_4_VOLUME
WOW_AP_MIX WOW_AMP_NOISE WOW_AMP_SPRING WOW_AMP_FILTER WOW_PHS_NOISE
WOW_PHS_SPRING WOW_PHS_FILTER WOW_PHS_DRIFT, f 198;
#X obj 225 536 s \$0-kaseta-drive-r;
#X obj 416 538 s \$0-kaseta-bias-r;
#X obj 599 538 s \$0-kaseta-wow-depth-r;
#X obj 784 539 s \$0-kaseta-delay-head-1-position-r;
#X obj 1013 537 s \$0-kaseta-delay-head-3-position-r;
#X obj 1227 537 s \$0-kaseta-delay-quantization-8-r;
#X obj 1302 671 s \$0-kaseta-delay-quantization-6-r;
#X obj 1089 672 s \$0-kaseta-delay-head-4-position-r;
#X obj 857 673 s \$0-kaseta-delay-head-2-position-r;
#X obj 686 674 s \$0-kaseta-delay-length-r;
#X obj 501 672 s \$0-kaseta-wow-frequency-r;
#X obj 148 671 s \$0-kaseta-pre-amp-r;
#X obj 167 795 s \$0-kaseta-delay-head-1-play-r;
#X obj 365 797 s \$0-kaseta-delay-head-2-play-r;
#X obj 558 798 s \$0-kaseta-delay-head-3-play-r;
#X obj 750 797 s \$0-kaseta-delay-head-4-play-r;
#X obj 773 922 s \$0-kaseta-delay-head-4-feedback-r;
#X obj 563 921 s \$0-kaseta-delay-head-3-feedback-r;
#X obj 348 919 s \$0-kaseta-delay-head-2-feedback-r;
#X obj 130 919 s \$0-kaseta-delay-head-1-feedback-r;
#X obj 130 1036 s \$0-kaseta-delay-head-1-feedback-amp-r;
#X obj 378 1035 s \$0-kaseta-delay-head-2-feedback-amp-r;
#X obj 623 1037 s \$0-kaseta-delay-head-3-feedback-amp-r;
#X obj 863 1039 s \$0-kaseta-delay-head-4-feedback-amp-r;
#X obj 865 1163 s \$0-kaseta-delay-head-4-volume-r;
#X obj 625 1161 s \$0-kaseta-delay-head-3-volume-r;
#X obj 380 1159 s \$0-kaseta-delay-head-2-volume-r;
#X obj 132 1160 s \$0-kaseta-delay-head-1-volume-r;
#X floatatom 1221 792 5 0 0 0 - - - 0;
#X obj 1221 771 f;
#X obj 1221 719 t b f;
#X obj 1221 742 spigot;
#X obj 1269 726 r \$0-msg-spigot;
#X obj 1221 812 s \$0-kaseta-wow-amp-noise-r;
#X floatatom 1395 792 5 0 0 0 - - - 0;
#X obj 1395 771 f;
#X obj 1395 719 t b f;
#X obj 1395 742 spigot;
#X obj 1443 726 r \$0-msg-spigot;
#X obj 1395 812 s \$0-kaseta-wow-amp-spring-r;
#X floatatom 1066 911 5 0 0 0 - - - 0;
#X obj 1066 890 f;
#X obj 1066 838 t b f;
#X obj 1066 861 spigot;
#X obj 1114 845 r \$0-msg-spigot;
#X obj 1066 931 s \$0-kaseta-wow-amp-filter-r;
#X floatatom 1246 911 5 0 0 0 - - - 0;
#X obj 1246 890 f;
#X obj 1246 838 t b f;
#X obj 1246 861 spigot;
#X obj 1294 845 r \$0-msg-spigot;
#X obj 1246 931 s \$0-kaseta-wow-phs-noise-r;
#X floatatom 1419 911 5 0 0 0 - - - 0;
#X obj 1419 890 f;
#X obj 1419 838 t b f;
#X obj 1419 861 spigot;
#X obj 1467 845 r \$0-msg-spigot;
#X obj 1419 931 s \$0-kaseta-wow-phs-spring-r;
#X floatatom 1319 1032 5 0 0 0 - - - 0;
#X obj 1319 1011 f;
#X obj 1319 959 t b f;
#X obj 1319 982 spigot;
#X obj 1367 966 r \$0-msg-spigot;
#X obj 1319 1052 s \$0-kaseta-wow-phs-drift-r;
#X connect 0 0 165 0;
#X connect 1 0 153 0;
#X connect 2 0 14 0;
#X connect 3 0 2 0;
#X connect 4 0 3 1;
#X connect 5 0 4 0;
#X connect 6 0 1 0;
#X connect 7 0 8 0;
#X connect 8 0 6 0;
#X connect 9 0 0 0;
#X connect 10 0 11 0;
#X connect 10 1 9 1;
#X connect 11 0 9 0;
#X connect 12 0 13 0;
#X connect 12 1 8 1;
#X connect 12 2 3 0;
#X connect 13 0 7 0;
#X connect 14 0 1 1;
#X connect 14 1 15 0;
#X connect 16 0 11 1;
#X connect 17 0 154 0;
#X connect 18 0 17 0;
#X connect 19 0 20 0;
#X connect 19 1 18 1;
#X connect 20 0 18 0;
#X connect 21 0 20 1;
#X connect 22 0 155 0;
#X connect 23 0 22 0;
#X connect 24 0 25 0;
#X connect 24 1 23 1;
#X connect 25 0 23 0;
#X connect 26 0 25 1;
#X connect 27 0 12 0;
#X connect 28 0 164 0;
#X connect 29 0 28 0;
#X connect 30 0 31 0;
#X connect 30 1 29 1;
#X connect 31 0 29 0;
#X connect 32 0 31 1;
#X connect 33 0 156 0;
#X connect 34 0 33 0;
#X connect 35 0 36 0;
#X connect 35 1 34 1;
#X connect 36 0 34 0;
#X connect 37 0 36 1;
#X connect 38 0 163 0;
#X connect 39 0 38 0;
#X connect 40 0 41 0;
#X connect 40 1 39 1;
#X connect 41 0 39 0;
#X connect 42 0 41 1;
#X connect 43 0 157 0;
#X connect 44 0 43 0;
#X connect 45 0 46 0;
#X connect 45 1 44 1;
#X connect 46 0 44 0;
#X connect 47 0 46 1;
#X connect 48 0 162 0;
#X connect 49 0 48 0;
#X connect 50 0 51 0;
#X connect 50 1 49 1;
#X connect 51 0 49 0;
#X connect 52 0 51 1;
#X connect 53 0 158 0;
#X connect 54 0 53 0;
#X connect 55 0 56 0;
#X connect 55 1 54 1;
#X connect 56 0 54 0;
#X connect 57 0 56 1;
#X connect 58 0 161 0;
#X connect 59 0 58 0;
#X connect 60 0 61 0;
#X connect 60 1 59 1;
#X connect 61 0 59 0;
#X connect 62 0 61 1;
#X connect 63 0 159 0;
#X connect 64 0 63 0;
#X connect 65 0 66 0;
#X connect 65 1 64 1;
#X connect 66 0 64 0;
#X connect 67 0 66 1;
#X connect 68 0 160 0;
#X connect 69 0 68 0;
#X connect 70 0 71 0;
#X connect 70 1 69 1;
#X connect 71 0 69 0;
#X connect 72 0 71 1;
#X connect 73 0 166 0;
#X connect 74 0 73 0;
#X connect 75 0 76 0;
#X connect 75 1 74 1;
#X connect 76 0 74 0;
#X connect 77 0 76 1;
#X connect 78 0 167 0;
#X connect 79 0 78 0;
#X connect 80 0 81 0;
#X connect 80 1 79 1;
#X connect 81 0 79 0;
#X connect 82 0 81 1;
#X connect 83 0 168 0;
#X connect 84 0 83 0;
#X connect 85 0 86 0;
#X connect 85 1 84 1;
#X connect 86 0 84 0;
#X connect 87 0 86 1;
#X connect 88 0 169 0;
#X connect 89 0 88 0;
#X connect 90 0 91 0;
#X connect 90 1 89 1;
#X connect 91 0 89 0;
#X connect 92 0 91 1;
#X connect 93 0 173 0;
#X connect 94 0 93 0;
#X connect 95 0 96 0;
#X connect 95 1 94 1;
#X connect 96 0 94 0;
#X connect 97 0 96 1;
#X connect 98 0 172 0;
#X connect 99 0 98 0;
#X connect 100 0 101 0;
#X connect 100 1 99 1;
#X connect 101 0 99 0;
#X connect 102 0 101 1;
#X connect 103 0 171 0;
#X connect 104 0 103 0;
#X connect 105 0 106 0;
#X connect 105 1 104 1;
#X connect 106 0 104 0;
#X connect 107 0 106 1;
#X connect 108 0 170 0;
#X connect 109 0 108 0;
#X connect 110 0 111 0;
#X connect 110 1 109 1;
#X connect 111 0 109 0;
#X connect 112 0 111 1;
#X connect 113 0 174 0;
#X connect 114 0 113 0;
#X connect 115 0 116 0;
#X connect 115 1 114 1;
#X connect 116 0 114 0;
#X connect 117 0 116 1;
#X connect 118 0 175 0;
#X connect 119 0 118 0;
#X connect 120 0 121 0;
#X connect 120 1 119 1;
#X connect 121 0 119 0;
#X connect 122 0 121 1;
#X connect 123 0 176 0;
#X connect 124 0 123 0;
#X connect 125 0 126 0;
#X connect 125 1 124 1;
#X connect 126 0 124 0;
#X connect 127 0 126 1;
#X connect 128 0 177 0;
#X connect 129 0 128 0;
#X connect 130 0 131 0;
#X connect 130 1 129 1;
#X connect 131 0 129 0;
#X connect 132 0 131 1;
#X connect 133 0 181 0;
#X connect 134 0 133 0;
#X connect 135 0 136 0;
#X connect 135 1 134 1;
#X connect 136 0 134 0;
#X connect 137 0 136 1;
#X connect 138 0 180 0;
#X connect 139 0 138 0;
#X connect 140 0 141 0;
#X connect 140 1 139 1;
#X connect 141 0 139 0;
#X connect 142 0 141 1;
#X connect 143 0 179 0;
#X connect 144 0 143 0;
#X connect 145 0 146 0;
#X connect 145 1 144 1;
#X connect 146 0 144 0;
#X connect 147 0 146 1;
#X connect 148 0 178 0;
#X connect 149 0 148 0;
#X connect 150 0 151 0;
#X connect 150 1 149 1;
#X connect 151 0 149 0;
#X connect 152 0 151 1;
#X connect 153 0 10 0;
#X connect 153 1 19 0;
#X connect 153 3 24 0;
#X connect 153 4 30 0;
#X connect 153 5 35 0;
#X connect 153 6 40 0;
#X connect 153 7 45 0;
#X connect 153 8 50 0;
#X connect 153 9 55 0;
#X connect 153 10 60 0;
#X connect 153 11 65 0;
#X connect 153 12 70 0;
#X connect 153 13 75 0;
#X connect 153 14 80 0;
#X connect 153 15 85 0;
#X connect 153 16 90 0;
#X connect 153 17 95 0;
#X connect 153 18 100 0;
#X connect 153 19 105 0;
#X connect 153 20 110 0;
#X connect 153 21 115 0;
#X connect 153 22 120 0;
#X connect 153 23 125 0;
#X connect 153 24 130 0;
#X connect 153 25 135 0;
#X connect 153 26 140 0;
#X connect 153 27 145 0;
#X connect 153 28 150 0;
#X connect 153 30 184 0;
#X connect 153 31 190 0;
#X connect 153 32 196 0;
#X connect 153 33 202 0;
#X connect 153 34 208 0;
#X connect 153 36 214 0;
#X connect 182 0 187 0;
#X connect 183 0 182 0;
#X connect 184 0 185 0;
#X connect 184 1 183 1;
#X connect 185 0 183 0;
#X connect 186 0 185 1;
#X connect 188 0 193 0;
#X connect 189 0 188 0;
#X connect 190 0 191 0;
#X connect 190 1 189 1;
#X connect 191 0 189 0;
#X connect 192 0 191 1;
#X connect 194 0 199 0;
#X connect 195 0 194 0;
#X connect 196 0 197 0;
#X connect 196 1 195 1;
#X connect 197 0 195 0;
#X connect 198 0 197 1;
#X connect 200 0 205 0;
#X connect 201 0 200 0;
#X connect 202 0 203 0;
#X connect 202 1 201 1;
#X connect 203 0 201 0;
#X connect 204 0 203 1;
#X connect 206 0 211 0;
#X connect 207 0 206 0;
#X connect 208 0 209 0;
#X connect 208 1 207 1;
#X connect 209 0 207 0;
#X connect 210 0 209 1;
#X connect 212 0 217 0;
#X connect 213 0 212 0;
#X connect 214 0 215 0;
#X connect 214 1 213 1;
#X connect 215 0 213 0;
#X connect 216 0 215 1;
#X restore 96 517 pd external-messages;
#X obj 597 835 / 127;
#X obj 105 110 cnv 5 5 5 empty empty IN 0 0 0 8 #fcfcfc #404040 0;
#X obj 155 109 cnv 5 5 5 empty empty DRIVE 0 0 0 8 #fcfcfc #7474a4
0;
#X obj 243 109 cnv 5 5 5 empty empty BIAS 0 0 0 8 #fcfcfc #7474a4 0
;
#X obj 107 128 cnv 5 5 5 empty empty KASETA 0 0 0 12 #fcfcfc #404040
0;
#X obj 154 128 cnv 5 5 5 empty \$0-instance-num 2 0 0 0 12 #fcfcfc
#404040 0;
#X obj 110 145 hsl 128 15 1.27 127 1 1 \$0-kaseta-pre-amp-s \$0-kaseta-pre-amp-r
PRE-AMP 133 7 0 10 #fcfcfc #000000 #000000 8300 1;
#X obj 110 160 hsl 128 15 0 127 0 1 \$0-kaseta-drive-s \$0-kaseta-drive-r
DRIVE 133 7 0 10 #fcfcfc #000000 #000000 12700 1;
#X obj 110 175 hsl 128 15 0 127 0 1 \$0-kaseta-bias-s \$0-kaseta-bias-r
BIAS 133 7 0 10 #fcfcfc #000000 #000000 0 1;
#X obj 94 836 r~ \$0-kaseta-out;
#X obj 94 858 outlet~ OUT;
#X obj 1786 1039 s~ \$0-kaseta-out;
#X obj 1786 997 kaseta~;
#X obj 840 108 inlet~ IN;
#X obj 1773 131 r~ \$0-kaseta-in;
#X obj 1789 155 r \$0-kaseta-pre-amp;
#X obj 597 812 r \$0-kaseta-pre-amp-s;
#X obj 597 858 s \$0-kaseta-pre-amp;
#X obj 863 231 snapshot~;
#X obj 877 189 loadbang;
#X obj 877 210 metro;
#X obj 597 913 / 127;
#X obj 862 167 inlet~ DRIVE;
#X obj 597 890 r \$0-kaseta-drive-s;
#X obj 911 389 snapshot~;
#X obj 925 347 loadbang;
#X obj 925 368 metro;
#X obj 597 1066 / 127;
#X obj 910 325 inlet~ BIAS;
#X obj 597 1043 r \$0-kaseta-bias-s;
#X obj 839 132 s~ \$0-kaseta-in;
#X msg 1808 227 drive_pot \$1;
#X obj 1808 205 r \$0-kaseta-drive-pot;
#X obj 1820 250 r \$0-kaseta-drive-cv;
#X msg 1820 272 drive_cv \$1;
#X obj 1844 390 r \$0-kaseta-bias-pot;
#X obj 1853 437 r \$0-kaseta-bias-cv;
#X msg 1853 461 bias_cv \$1;
#X obj 597 935 s \$0-kaseta-drive-pot;
#X obj 597 1088 s \$0-kaseta-bias-pot;
#X obj 911 413 s \$0-kaseta-bias-cv;
#X obj 863 256 s \$0-kaseta-drive-cv;
#X msg 1844 414 bias_pot \$1;
#X msg 1789 177 pre_amp_pot \$1;
#X obj 1861 488 r \$0-kaseta-wow-frequency-pot;
#X msg 1861 512 wow_frequency_pot \$1;
#X obj 1870 535 r \$0-kaseta-wow-frequency-cv;
#X msg 1870 559 wow_frequency_cv \$1;
#X obj 1881 588 r \$0-kaseta-wow-depth-pot;
#X msg 1881 612 wow_depth_pot \$1;
#X obj 1890 635 r \$0-kaseta-wow-depth-cv;
#X msg 1890 659 wow_depth_cv \$1;
#X obj 330 145 hsl 128 15 0 127 0 1 \$0-kaseta-wow-frequency-s \$0-kaseta-wow-frequency-r
FREQ 133 7 0 10 #fcfcfc #000000 #000000 0 1;
#X obj 330 160 hsl 128 15 0 127 0 1 \$0-kaseta-wow-depth-s \$0-kaseta-wow-depth-r
DEPTH 133 7 0 10 #fcfcfc #000000 #000000 100 1;
#X obj 785 830 / 127;
#X obj 785 807 r \$0-kaseta-wow-frequency-s;
#X obj 785 852 s \$0-kaseta-wow-frequency-pot;
#X obj 785 899 / 127;
#X obj 785 876 r \$0-kaseta-wow-depth-s;
#X obj 785 921 s \$0-kaseta-wow-depth-pot;
#X obj 1122 166 snapshot~;
#X obj 1136 124 loadbang;
#X obj 1136 145 metro;
#X obj 1121 102 inlet~ WOW_FREQ;
#X obj 1122 190 s \$0-kaseta-wow-frequency-cv;
#X obj 1188 326 snapshot~;
#X obj 1202 284 loadbang;
#X obj 1202 305 metro;
#X obj 1187 262 inlet~ WOW_DEPTH;
#X obj 1188 351 s \$0-kaseta-wow-depth-cv;
#X obj 329 109 cnv 5 5 5 empty empty WOW\\\ F. 0 0 0 8 #fcfcfc #7474a4
0;
#X obj 397 109 cnv 5 5 5 empty empty WOW\\\ D. 0 0 0 8 #fcfcfc #7474a4
0;
#X obj 542 145 hsl 128 15 0 127 0 1 \$0-kaseta-delay-length-s \$0-kaseta-delay-length-r
DELAY 133 7 0 10 #fcfcfc #000000 #000000 6500 1;
#X obj 542 164 hsl 128 15 0 127 0 1 \$0-kaseta-delay-head-1-position-s
\$0-kaseta-delay-head-1-position-r H1 133 7 0 10 #fcfcfc #000000 #000000
0 1;
#X obj 542 179 hsl 128 15 0 127 0 1 \$0-kaseta-delay-head-2-position-s
\$0-kaseta-delay-head-2-position-r H2 133 7 0 10 #fcfcfc #000000 #000000
3900 1;
#X obj 542 194 hsl 128 15 0 127 0 1 \$0-kaseta-delay-head-3-position-s
\$0-kaseta-delay-head-3-position-r H3 133 7 0 10 #fcfcfc #000000 #000000
8400 1;
#X obj 542 209 hsl 128 15 0 127 0 1 \$0-kaseta-delay-head-4-position-s
\$0-kaseta-delay-head-4-position-r H4 133 7 0 10 #fcfcfc #000000 #000000
12700 1;
#X obj 785 969 / 127;
#X obj 785 946 r \$0-kaseta-delay-length-s;
#X obj 785 991 s \$0-kaseta-delay-length-pot;
#X obj 786 1039 / 127;
#X obj 786 1016 r \$0-kaseta-delay-head-1-position-s;
#X obj 786 1061 s \$0-kaseta-delay-head-1-position-pot;
#X obj 786 1107 / 127;
#X obj 786 1084 r \$0-kaseta-delay-head-2-position-s;
#X obj 786 1129 s \$0-kaseta-delay-head-2-position-pot;
#X obj 785 1173 / 127;
#X obj 785 1150 r \$0-kaseta-delay-head-3-position-s;
#X obj 785 1195 s \$0-kaseta-delay-head-3-position-pot;
#X obj 785 1241 / 127;
#X obj 785 1218 r \$0-kaseta-delay-head-4-position-s;
#X obj 785 1263 s \$0-kaseta-delay-head-4-position-pot;
#X obj 1899 685 r \$0-kaseta-delay-length-pot;
#X msg 1899 709 delay_length_pot \$1;
#X obj 1908 732 r \$0-kaseta-delay-length-cv;
#X msg 1908 756 delay_length_cv \$1;
#X obj 1917 781 r \$0-kaseta-delay-head-1-position-pot;
#X msg 1917 805 delay_head_1_position_pot \$1;
#X obj 1926 828 r \$0-kaseta-delay-head-1-position-cv;
#X obj 1935 879 r \$0-kaseta-delay-head-2-position-pot;
#X msg 1935 903 delay_head_2_position_pot \$1;
#X obj 2027 131 r \$0-kaseta-delay-head-3-position-pot;
#X obj 1944 926 r \$0-kaseta-delay-head-2-position-cv;
#X msg 2027 155 delay_head_3_position_pot \$1;
#X obj 2036 178 r \$0-kaseta-delay-head-3-position-cv;
#X obj 2048 228 r \$0-kaseta-delay-head-4-position-pot;
#X msg 2048 253 delay_head_4_position_pot \$1;
#X obj 2057 276 r \$0-kaseta-delay-head-4-position-cv;
#X obj 1214 492 snapshot~;
#X obj 1228 450 loadbang;
#X obj 1228 471 metro;
#X obj 1213 428 inlet~ DELAY_LENGTH;
#X obj 1214 516 s \$0-kaseta-delay-length-cv;
#X obj 1441 166 snapshot~;
#X obj 1455 124 loadbang;
#X obj 1455 145 metro;
#X obj 1440 102 inlet~ DELAY_HEAD_1_POSITION;
#X obj 1441 190 s \$0-kaseta-delay-head-1-position-cv;
#X obj 1456 288 snapshot~;
#X obj 1470 246 loadbang;
#X obj 1470 267 metro;
#X obj 1455 225 inlet~ DELAY_HEAD_2_POSITION;
#X obj 1456 311 s \$0-kaseta-delay-head-2-position-cv;
#X obj 1470 408 snapshot~;
#X obj 1484 366 loadbang;
#X obj 1484 387 metro;
#X obj 1469 344 inlet~ DELAY_HEAD_3_POSITION;
#X obj 1470 432 s \$0-kaseta-delay-head-3-position-cv;
#X obj 1482 526 snapshot~;
#X obj 1496 484 loadbang;
#X obj 1496 505 metro;
#X obj 1481 462 inlet~ DELAY_HEAD_4_POSITION;
#X obj 1482 550 s \$0-kaseta-delay-head-4-position-cv;
#X obj 469 109 cnv 5 5 5 empty empty DELAY 0 0 0 8 #fcfcfc #7474a4
0;
#X obj 547 109 cnv 5 5 5 empty empty POS.1 0 0 0 8 #fcfcfc #7474a4
0;
#X obj 608 109 cnv 5 5 5 empty empty POS.2 0 0 0 8 #fcfcfc #7474a4
0;
#X obj 701 109 cnv 5 5 5 empty empty POS.3 0 0 0 8 #fcfcfc #7474a4
0;
#X obj 762 109 cnv 5 5 5 empty empty POS.4 0 0 0 8 #fcfcfc #7474a4
0;
#X msg 1926 852 delay_head_1_position_cv \$1;
#X msg 1944 950 delay_head_2_position_cv \$1;
#X msg 2036 202 delay_head_3_position_cv \$1;
#X msg 2057 300 delay_head_4_position_cv \$1;
#X text 693 169 P;
#X text 693 184 O;
#X text 693 199 S;
#X obj 1034 804 r \$0-kaseta-delay-quantization-8-s;
#X obj 1034 825 s \$0-kaseta-delay-quantization-8-switch;
#X obj 2067 326 r \$0-kaseta-delay-quantization-8-switch;
#X msg 2067 350 delay_quantization_8 \$1;
#X obj 1034 848 r \$0-kaseta-delay-quantization-6-s;
#X obj 1034 869 s \$0-kaseta-delay-quantization-6-switch;
#X obj 2079 376 r \$0-kaseta-delay-quantization-6-switch;
#X msg 2079 400 delay_quantization_6 \$1;
#X obj 737 222 tgl 15 0 \$0-kaseta-delay-head-4-feedback-s \$0-kaseta-delay-head-4-feedback-r
H4 17 7 0 10 #fcfcfc #000000 #000000 0 1;
#X obj 737 202 tgl 15 0 \$0-kaseta-delay-head-3-feedback-s \$0-kaseta-delay-head-3-feedback-r
H3 17 7 0 10 #fcfcfc #000000 #000000 0 1;
#X obj 737 182 tgl 15 0 \$0-kaseta-delay-head-2-feedback-s \$0-kaseta-delay-head-2-feedback-r
H2 17 7 0 10 #fcfcfc #000000 #000000 0 1;
#X obj 737 162 tgl 15 0 \$0-kaseta-delay-head-1-feedback-s \$0-kaseta-delay-head-1-feedback-r
H1 17 7 0 10 #fcfcfc #000000 #000000 0 1;
#X text 737 143 FB;
#X obj 717 222 tgl 15 0 \$0-kaseta-delay-head-4-play-s \$0-kaseta-delay-head-4-play-r
empty 17 7 0 10 #fcfcfc #000000 #000000 0 1;
#X obj 717 202 tgl 15 0 \$0-kaseta-delay-head-3-play-s \$0-kaseta-delay-head-3-play-r
empty 17 7 0 10 #fcfcfc #000000 #000000 0 1;
#X obj 717 182 tgl 15 0 \$0-kaseta-delay-head-2-play-s \$0-kaseta-delay-head-2-play-r
empty 17 7 0 10 #fcfcfc #000000 #000000 0 1;
#X obj 717 162 tgl 15 0 \$0-kaseta-delay-head-1-play-s \$0-kaseta-delay-head-1-play-r
empty 17 7 0 10 #fcfcfc #000000 #000000 0 1;
#X obj 1034 1062 r \$0-kaseta-delay-head-1-feedback-s;
#X obj 1034 1083 s \$0-kaseta-delay-head-1-feedback-switch;
#X obj 1034 1105 r \$0-kaseta-delay-head-2-feedback-s;
#X obj 1034 1126 s \$0-kaseta-delay-head-2-feedback-switch;
#X obj 1034 1147 r \$0-kaseta-delay-head-3-feedback-s;
#X obj 1034 1169 s \$0-kaseta-delay-head-3-feedback-switch;
#X obj 1034 1190 r \$0-kaseta-delay-head-4-feedback-s;
#X obj 1034 1211 s \$0-kaseta-delay-head-4-feedback-switch;
#X obj 2133 617 r \$0-kaseta-delay-head-1-feedback-switch;
#X msg 2133 641 delay_head_1_feedback \$1;
#X obj 2142 664 r \$0-kaseta-delay-head-2-feedback-switch;
#X msg 2142 688 delay_head_2_feedback \$1;
#X obj 2151 711 r \$0-kaseta-delay-head-3-feedback-switch;
#X msg 2151 735 delay_head_3_feedback \$1;
#X obj 2161 760 r \$0-kaseta-delay-head-4-feedback-switch;
#X msg 2161 784 delay_head_4_feedback \$1;
#X text 715 143 PLY;
#X obj 1034 891 r \$0-kaseta-delay-head-1-play-s;
#X obj 1034 912 s \$0-kaseta-delay-head-1-play-switch;
#X obj 1034 934 r \$0-kaseta-delay-head-2-play-s;
#X obj 1034 955 s \$0-kaseta-delay-head-2-play-switch;
#X obj 1034 978 r \$0-kaseta-delay-head-3-play-s;
#X obj 1034 998 s \$0-kaseta-delay-head-3-play-switch;
#X obj 1034 1020 r \$0-kaseta-delay-head-4-play-s;
#X obj 1034 1040 s \$0-kaseta-delay-head-4-play-switch;
#X obj 2090 425 r \$0-kaseta-delay-head-1-play-switch;
#X msg 2090 449 delay_head_1_play \$1;
#X obj 2099 472 r \$0-kaseta-delay-head-2-play-switch;
#X msg 2099 496 delay_head_2_play \$1;
#X obj 2108 519 r \$0-kaseta-delay-head-3-play-switch;
#X msg 2108 543 delay_head_3_play \$1;
#X obj 2119 568 r \$0-kaseta-delay-head-4-play-switch;
#X msg 2119 592 delay_head_4_play \$1;
#X obj 542 294 hsl 128 15 0 127 0 1 \$0-kaseta-delay-head-1-feedback-amp-s
\$0-kaseta-delay-head-1-feedback-amp-r H1 133 7 0 10 #fcfcfc #000000
#000000 11600 1;
#X obj 542 309 hsl 128 15 0 127 0 1 \$0-kaseta-delay-head-2-feedback-amp-s
\$0-kaseta-delay-head-2-feedback-amp-r H2 133 7 0 10 #fcfcfc #000000
#000000 3600 1;
#X obj 542 324 hsl 128 15 0 127 0 1 \$0-kaseta-delay-head-3-feedback-amp-s
\$0-kaseta-delay-head-3-feedback-amp-r H3 133 7 0 10 #fcfcfc #000000
#000000 4000 1;
#X obj 542 339 hsl 128 15 0 127 0 1 \$0-kaseta-delay-head-4-feedback-amp-s
\$0-kaseta-delay-head-4-feedback-amp-r H4 133 7 0 10 #fcfcfc #000000
#000000 6900 1;
#X text 693 299 F;
#X text 693 314 B;
#X text 693 329 K;
#X obj 1311 828 / 127;
#X obj 1311 896 / 127;
#X obj 1310 962 / 127;
#X obj 1310 1030 / 127;
#X obj 1311 805 r \$0-kaseta-delay-head-1-feedback-amp-s;
#X obj 1311 850 s \$0-kaseta-delay-head-1-feedback-amp-pot;
#X obj 1311 873 r \$0-kaseta-delay-head-2-feedback-amp-s;
#X obj 1311 918 s \$0-kaseta-delay-head-2-feedback-amp-pot;
#X obj 1310 939 r \$0-kaseta-delay-head-3-feedback-amp-s;
#X obj 1310 984 s \$0-kaseta-delay-head-3-feedback-amp-pot;
#X obj 1310 1007 r \$0-kaseta-delay-head-4-feedback-amp-s;
#X obj 1310 1052 s \$0-kaseta-delay-head-4-feedback-amp-pot;
#X obj 2171 812 r \$0-kaseta-delay-head-1-feedback-amp-pot;
#X msg 2171 836 delay_head_1_feedback_amp \$1;
#X obj 2180 859 r \$0-kaseta-delay-head-2-feedback-amp-pot;
#X msg 2180 883 delay_head_2_feedback_amp \$1;
#X obj 2189 906 r \$0-kaseta-delay-head-3-feedback-amp-pot;
#X msg 2189 930 delay_head_3_feedback_amp \$1;
#X obj 2199 955 r \$0-kaseta-delay-head-4-feedback-amp-pot;
#X msg 2199 979 delay_head_4_feedback_amp \$1;
#X obj 542 229 hsl 128 15 0 127 0 1 \$0-kaseta-delay-head-1-volume-s
\$0-kaseta-delay-head-1-volume-r H1 133 7 0 10 #fcfcfc #000000 #000000
12700 1;
#X obj 542 244 hsl 128 15 0 127 0 1 \$0-kaseta-delay-head-2-volume-s
\$0-kaseta-delay-head-2-volume-r H2 133 7 0 10 #fcfcfc #000000 #000000
12700 1;
#X obj 542 259 hsl 128 15 0 127 0 1 \$0-kaseta-delay-head-3-volume-s
\$0-kaseta-delay-head-3-volume-r H3 133 7 0 10 #fcfcfc #000000 #000000
12700 1;
#X obj 542 274 hsl 128 15 0 127 0 1 \$0-kaseta-delay-head-4-volume-s
\$0-kaseta-delay-head-4-volume-r H4 133 7 0 10 #fcfcfc #000000 #000000
12700 1;
#X text 693 234 V;
#X text 693 249 O;
#X text 693 264 L;
#X obj 1310 1100 / 127;
#X obj 1310 1168 / 127;
#X obj 1309 1234 / 127;
#X obj 1309 1302 / 127;
#X obj 1310 1077 r \$0-kaseta-delay-head-1-volume-s;
#X obj 1310 1122 s \$0-kaseta-delay-head-1-volume-pot;
#X obj 1310 1146 r \$0-kaseta-delay-head-2-volume-s;
#X obj 1310 1190 s \$0-kaseta-delay-head-2-volume-pot;
#X obj 1309 1211 r \$0-kaseta-delay-head-3-volume-s;
#X obj 1309 1256 s \$0-kaseta-delay-head-3-volume-pot;
#X obj 1309 1279 r \$0-kaseta-delay-head-4-volume-s;
#X obj 1309 1324 s \$0-kaseta-delay-head-4-volume-pot;
#X obj 2302 132 r \$0-kaseta-delay-head-1-volume-pot;
#X obj 2311 179 r \$0-kaseta-delay-head-2-volume-pot;
#X msg 2302 156 delay_head_1_volume \$1;
#X msg 2311 203 delay_head_2_volume \$1;
#X obj 2320 226 r \$0-kaseta-delay-head-3-volume-pot;
#X msg 2320 250 delay_head_3_volume \$1;
#X obj 2329 275 r \$0-kaseta-delay-head-4-volume-pot;
#X msg 2329 300 delay_head_4_volume \$1;
#X obj 330 209 hsl 128 15 0 127 0 1 \$0-kaseta-wow-amp-noise-s \$0-kaseta-wow-amp-noise-r
NOISE 133 7 0 10 #fcfcfc #000000 #000000 12700 1;
#X obj 330 224 hsl 128 15 0 127 0 1 \$0-kaseta-wow-amp-spring-s \$0-kaseta-wow-amp-spring-r
SPRING 133 7 0 10 #fcfcfc #000000 #000000 12700 1;
#X obj 330 175 hsl 128 15 0 127 0 1 \$0-kaseta-wow-amp-filter-s \$0-kaseta-wow-amp-filter-r
FILTER 133 7 0 10 #fcfcfc #000000 #000000 12700 1;
#X obj 330 261 hsl 128 15 0 127 0 1 \$0-kaseta-wow-phs-noise-s \$0-kaseta-wow-phs-noise-r
NOISE 133 7 0 10 #fcfcfc #000000 #000000 12700 1;
#X obj 330 276 hsl 128 15 0 127 0 1 \$0-kaseta-wow-phs-spring-s \$0-kaseta-wow-phs-spring-r
SPRING 133 7 0 10 #fcfcfc #000000 #000000 12700 1;
#X obj 330 291 hsl 128 15 0 127 0 1 \$0-kaseta-wow-phs-drift-s \$0-kaseta-wow-phs-drift-r
DRIFT 133 7 0 10 #fcfcfc #000000 #000000 12700 1;
#X text 437 124 WOW;
#X text 638 126 DELAY;
#X text 175 124 HYSTERESIS;
#X text 505 197 A;
#X text 505 212 M;
#X text 505 227 P;
#X text 505 259 P;
#X text 505 274 H;
#X text 505 289 S;
#X obj 1189 66 cnv 5 20 20 empty empty INPUT\\\ BINDINGS 0 0 0 20 #ffffff
#2f004d 0;
#X obj 1007 770 cnv 5 20 20 empty empty SLIDER\\\ BINDINGS 0 0 0 20
#ffffff #2f004d 0;
#X obj 2064 97 cnv 5 20 20 empty empty SIGNALS\\\ TO\\\ EXTERNAL 0
0 0 20 #ffffff #2f004d 0;
#X obj 396 72 cnv 5 20 20 empty empty INTERFACE 0 0 0 20 #ffffff #2f004d
0;
#X obj 70 806 cnv 5 20 20 empty empty OUTPUT\\\ BINDINGS 0 0 0 20 #ffffff
#2f004d 0;
#X obj 75 493 cnv 5 20 20 empty empty AUTOMATONISM\\\ INTEGRATION 0
0 0 20 #ffffff #2f004d 0;
#X obj 785 1376 / 127;
#X obj 785 1353 r \$0-kaseta-wow-amp-noise-s;
#X obj 785 1398 s \$0-kaseta-wow-amp-noise-pot;
#X obj 785 1442 / 127;
#X obj 785 1508 / 127;
#X obj 785 1419 r \$0-kaseta-wow-amp-spring-s;
#X obj 785 1464 s \$0-kaseta-wow-amp-spring-pot;
#X obj 785 1485 r \$0-kaseta-wow-amp-filter-s;
#X obj 785 1530 s \$0-kaseta-wow-amp-filter-pot;
#X obj 1034 1256 / 127;
#X obj 1034 1322 / 127;
#X obj 1034 1232 r \$0-kaseta-wow-phs-noise-s;
#X obj 1034 1278 s \$0-kaseta-wow-phs-noise-pot;
#X obj 1034 1299 r \$0-kaseta-wow-phs-spring-s;
#X obj 1034 1344 s \$0-kaseta-wow-phs-spring-pot;
#X obj 1034 1453 / 127;
#X obj 1034 1430 r \$0-kaseta-wow-phs-drift-s;
#X obj 1034 1475 s \$0-kaseta-wow-phs-drift-pot;
#X obj 2464 2961;
#X obj 2346 374 r \$0-kaseta-wow-amp-noise-pot;
#X msg 2346 399 wow_amp_noise \$1;
#X obj 2353 419 r \$0-kaseta-wow-amp-spring-pot;
#X msg 2353 444 wow_amp_spring \$1;
#X obj 2359 466 r \$0-kaseta-wow-amp-filter-pot;
#X msg 2359 491 wow_amp_filter \$1;
#X obj 2367 512 r \$0-kaseta-wow-phs-noise-pot;
#X msg 2367 537 wow_phs_noise \$1;
#X obj 2382 559 r \$0-kaseta-wow-phs-spring-pot;
#X msg 2382 584 wow_phs_spring \$1;
#X obj 2403 653 r \$0-kaseta-wow-phs-drift-pot;
#X msg 2403 678 wow_phs_drift \$1;
#X obj 112 212 hradio 15 1 0 2 empty empty ORDER 33 7 0 10 #fcfcfc
#000000 #000000 0;
#X obj 112 227 hradio 15 1 0 2 empty empty DELAY 33 7 0 10 #fcfcfc
#000000 #000000 0;
#X obj 112 242 hradio 15 1 0 2 empty empty DANGER 33 7 0 10 #fcfcfc
#000000 #000000 0;
#X obj 112 257 hradio 15 1 0 2 \$0-kaseta-delay-quantization-6-s \$0-kaseta-delay-quantization-6-r
QUANT6 33 7 0 10 #fcfcfc #000000 #000000 0;
#X obj 112 272 hradio 15 1 0 2 \$0-kaseta-delay-quantization-8-s \$0-kaseta-delay-quantization-8-r
QUANT8 33 7 0 10 #fcfcfc #000000 #000000 0;
#X obj 112 287 hradio 15 1 0 2 empty empty TAP 33 7 0 10 #fcfcfc #000000
#000000 0;
#X obj 112 302 hradio 15 1 0 2 empty empty SYNC\\\ W/F 33 7 0 10 #fcfcfc
#000000 #000000 0;
#X obj 112 317 hradio 15 1 0 2 empty empty CYCLE\\\ W/F 33 7 0 10 #fcfcfc
#000000 #000000 0;
#X obj 112 332 hradio 15 1 0 2 empty empty CRACKLING 33 7 0 10 #fcfcfc
#000000 #000000 0;
#X obj 112 347 hradio 15 1 0 2 empty empty RESERVED 33 7 0 10 #fcfcfc
#000000 #000000 0;
#X connect 1 0 3 0;
#X connect 3 0 4 0;
#X connect 4 0 2 0;
#X connect 8 0 25 0;
#X connect 17 0 18 0;
#X connect 20 0 19 0;
#X connect 21 0 38 0;
#X connect 22 0 20 0;
#X connect 23 0 51 0;
#X connect 24 0 8 0;
#X connect 26 0 49 0;
#X connect 27 0 28 0;
#X connect 28 0 26 0;
#X connect 29 0 46 0;
#X connect 30 0 26 0;
#X connect 31 0 29 0;
#X connect 32 0 48 0;
#X connect 33 0 34 0;
#X connect 34 0 32 0;
#X connect 35 0 47 0;
#X connect 36 0 32 0;
#X connect 37 0 35 0;
#X connect 39 0 20 0;
#X connect 40 0 39 0;
#X connect 41 0 42 0;
#X connect 42 0 20 0;
#X connect 43 0 50 0;
#X connect 44 0 45 0;
#X connect 45 0 20 0;
#X connect 50 0 20 0;
#X connect 51 0 20 0;
#X connect 52 0 53 0;
#X connect 53 0 20 0;
#X connect 54 0 55 0;
#X connect 55 0 20 0;
#X connect 56 0 57 0;
#X connect 57 0 20 0;
#X connect 58 0 59 0;
#X connect 59 0 20 0;
#X connect 62 0 64 0;
#X connect 63 0 62 0;
#X connect 65 0 67 0;
#X connect 66 0 65 0;
#X connect 68 0 72 0;
#X connect 69 0 70 0;
#X connect 70 0 68 0;
#X connect 71 0 68 0;
#X connect 73 0 77 0;
#X connect 74 0 75 0;
#X connect 75 0 73 0;
#X connect 76 0 73 0;
#X connect 85 0 87 0;
#X connect 86 0 85 0;
#X connect 88 0 90 0;
#X connect 89 0 88 0;
#X connect 91 0 93 0;
#X connect 92 0 91 0;
#X connect 94 0 96 0;
#X connect 95 0 94 0;
#X connect 97 0 99 0;
#X connect 98 0 97 0;
#X connect 100 0 101 0;
#X connect 101 0 20 0;
#X connect 102 0 103 0;
#X connect 103 0 20 0;
#X connect 104 0 105 0;
#X connect 105 0 20 0;
#X connect 106 0 146 0;
#X connect 107 0 108 0;
#X connect 108 0 20 0;
#X connect 109 0 111 0;
#X connect 110 0 147 0;
#X connect 111 0 20 0;
#X connect 112 0 148 0;
#X connect 113 0 114 0;
#X connect 114 0 20 0;
#X connect 115 0 149 0;
#X connect 116 0 120 0;
#X connect 117 0 118 0;
#X connect 118 0 116 0;
#X connect 119 0 116 0;
#X connect 121 0 125 0;
#X connect 122 0 123 0;
#X connect 123 0 121 0;
#X connect 124 0 121 0;
#X connect 126 0 130 0;
#X connect 127 0 128 0;
#X connect 128 0 126 0;
#X connect 129 0 126 0;
#X connect 131 0 135 0;
#X connect 132 0 133 0;
#X connect 133 0 131 0;
#X connect 134 0 131 0;
#X connect 136 0 140 0;
#X connect 137 0 138 0;
#X connect 138 0 136 0;
#X connect 139 0 136 0;
#X connect 146 0 20 0;
#X connect 147 0 20 0;
#X connect 148 0 20 0;
#X connect 149 0 20 0;
#X connect 153 0 154 0;
#X connect 155 0 156 0;
#X connect 156 0 20 0;
#X connect 157 0 158 0;
#X connect 159 0 160 0;
#X connect 160 0 20 0;
#X connect 170 0 171 0;
#X connect 172 0 173 0;
#X connect 174 0 175 0;
#X connect 176 0 177 0;
#X connect 178 0 179 0;
#X connect 179 0 20 0;
#X connect 180 0 181 0;
#X connect 181 0 20 0;
#X connect 182 0 183 0;
#X connect 183 0 20 0;
#X connect 184 0 185 0;
#X connect 185 0 20 0;
#X connect 187 0 188 0;
#X connect 189 0 190 0;
#X connect 191 0 192 0;
#X connect 193 0 194 0;
#X connect 195 0 196 0;
#X connect 196 0 20 0;
#X connect 197 0 198 0;
#X connect 198 0 20 0;
#X connect 199 0 200 0;
#X connect 200 0 20 0;
#X connect 201 0 202 0;
#X connect 202 0 20 0;
#X connect 210 0 215 0;
#X connect 211 0 217 0;
#X connect 212 0 219 0;
#X connect 213 0 221 0;
#X connect 214 0 210 0;
#X connect 216 0 211 0;
#X connect 218 0 212 0;
#X connect 220 0 213 0;
#X connect 222 0 223 0;
#X connect 223 0 20 0;
#X connect 224 0 225 0;
#X connect 225 0 20 0;
#X connect 226 0 227 0;
#X connect 227 0 20 0;
#X connect 228 0 229 0;
#X connect 229 0 20 0;
#X connect 237 0 242 0;
#X connect 238 0 244 0;
#X connect 239 0 246 0;
#X connect 240 0 248 0;
#X connect 241 0 237 0;
#X connect 243 0 238 0;
#X connect 245 0 239 0;
#X connect 247 0 240 0;
#X connect 249 0 251 0;
#X connect 250 0 252 0;
#X connect 251 0 20 0;
#X connect 252 0 20 0;
#X connect 253 0 254 0;
#X connect 254 0 20 0;
#X connect 255 0 256 0;
#X connect 256 0 20 0;
#X connect 278 0 280 0;
#X connect 279 0 278 0;
#X connect 281 0 284 0;
#X connect 282 0 286 0;
#X connect 283 0 281 0;
#X connect 285 0 282 0;
#X connect 287 0 290 0;
#X connect 288 0 292 0;
#X connect 289 0 287 0;
#X connect 291 0 288 0;
#X connect 293 0 295 0;
#X connect 294 0 293 0;
#X connect 297 0 298 0;
#X connect 298 0 20 0;
#X connect 299 0 300 0;
#X connect 300 0 20 0;
#X connect 301 0 302 0;
#X connect 302 0 20 0;
#X connect 303 0 304 0;
#X connect 304 0 20 0;
#X connect 305 0 306 0;
#X connect 306 0 20 0;
#X connect 307 0 308 0;
#X connect 308 0 20 0;
#X coords 0 -1 1 1 690 300 2 100 100;
