#N canvas 0 45 1916 1001 10;
#X obj 107 440 cnv 5 5 5 empty empty LEFT 0 0 0 8 #fcfcfc #404040 0
;
#N canvas 0 45 1916 1001 state-saving-multiple-instances 0;
#X obj 1066 31 loadbang;
#X obj 1044 291 textfile;
#X msg 1326 274 rewind;
#X msg 1283 274 bang;
#X obj 95 916 textfile;
#X obj 1283 235 t b b;
#X obj 92 680 f;
#X obj 102 822 f;
#X obj 33 724 t b b b;
#X msg 165 822 clear;
#X obj 1132 219 outlet;
#X text 1175 220 INSTANCE NUMBER;
#X obj 1093 155 f \$1;
#X obj 1093 191 t f f f;
#X obj 1066 64 t b b;
#X obj 33 701 bng 15 250 50 0 empty empty empty 17 7 0 10 #fcfcfc #000000
#000000;
#X obj 28 24 r SAVE-S;
#X obj 1150 39 r \$0-reload!;
#X text 1232 40 RETURN TO PREVIOUS VALUE AFTER USING MORPH-SEQ module
;
#X obj 1183 925 s \$0-kaseta-pre-amp-r;
#X obj 1189 903 s \$0-kaseta-drive-r;
#X obj 1232 799 s \$0-kaseta-bias-r;
#X msg 1044 266 read statesave/\$1-kaseta-ss.txt;
#X msg 108 876 write statesave/\$1-kaseta-ss.txt;
#X obj 115 59 r \$0-kaseta-pre-amp-s;
#X obj 127 86 r \$0-kaseta-drive-s;
#X obj 188 187 r \$0-kaseta-bias-s;
#X obj 237 284 r \$0-kaseta-wow-depth-s;
#X obj 1296 702 s \$0-kaseta-wow-depth-r;
#X obj 258 335 r \$0-kaseta-delay-length-s;
#X obj 269 359 r \$0-kaseta-delay-head-1-position-s;
#X obj 273 383 r \$0-kaseta-delay-head-2-position-s;
#X obj 282 407 r \$0-kaseta-delay-head-3-position-s;
#X obj 290 433 r \$0-kaseta-delay-head-4-position-s;
#X obj 1316 656 s \$0-kaseta-delay-length-r;
#X obj 1322 632 s \$0-kaseta-delay-head-1-position-r;
#X obj 1330 609 s \$0-kaseta-delay-head-2-position-r;
#X obj 1336 585 s \$0-kaseta-delay-head-3-position-r;
#X obj 1345 561 s \$0-kaseta-delay-head-4-position-r;
#X obj 1425 862 s \$0-kaseta-delay-head-4-feedback-amp-r;
#X obj 1419 883 s \$0-kaseta-delay-head-3-feedback-amp-r;
#X obj 1411 906 s \$0-kaseta-delay-head-2-feedback-amp-r;
#X obj 1404 929 s \$0-kaseta-delay-head-1-feedback-amp-r;
#X obj 359 59 r \$0-kaseta-delay-head-1-feedback-amp-s;
#X obj 372 84 r \$0-kaseta-delay-head-2-feedback-amp-s;
#X obj 383 109 r \$0-kaseta-delay-head-3-feedback-amp-s;
#X obj 397 131 r \$0-kaseta-delay-head-4-feedback-amp-s;
#X obj 411 154 r \$0-kaseta-delay-head-1-volume-s;
#X obj 424 179 r \$0-kaseta-delay-head-2-volume-s;
#X obj 435 204 r \$0-kaseta-delay-head-3-volume-s;
#X obj 449 226 r \$0-kaseta-delay-head-4-volume-s;
#X obj 1454 772 s \$0-kaseta-delay-head-4-volume-r;
#X obj 1448 793 s \$0-kaseta-delay-head-3-volume-r;
#X obj 1440 816 s \$0-kaseta-delay-head-2-volume-r;
#X obj 1433 839 s \$0-kaseta-delay-head-1-volume-r;
#X msg 92 761 set \$1 \$2 \$3 \$4 \$5 \$6 \$7 \$8 \$9 \$10 \$11 \$12
\$13 \$14 \$15 \$16 \$17 \$18 \$19 \$20 \$21 \$22 \$23 \$24 \$25 \$26
\$27 \$28 \$29 \$30 \$31 \$32 \$33 \$32 \$33 \$34 \$35 \$36 \$37 \$38
, f 67;
#X obj 92 723 pack f f f f f f f f f f f f f f f f f f f f f f f f
f f f f f f f f f f f f f f f f, f 85;
#X obj 1044 313 unpack f f f f f f f f f f f f f f f f f f f f f f
f f f f f f f f f f f f f f f f f f, f 88;
#X obj 140 109 r \$0-kaseta-dry-wet-s;
#X obj 1198 878 s \$0-kaseta-dry-wet-r;
#X obj 236 260 r \$0-kaseta-tone-s;
#X obj 1285 731 s \$0-kaseta-tone-r;
#X obj 470 252 r \$0-kaseta-delay-head-1-pan-s;
#X obj 483 277 r \$0-kaseta-delay-head-2-pan-s;
#X obj 494 302 r \$0-kaseta-delay-head-3-pan-s;
#X obj 508 324 r \$0-kaseta-delay-head-4-pan-s;
#X obj 1553 673 s \$0-kaseta-delay-head-4-pan-r;
#X obj 1547 694 s \$0-kaseta-delay-head-3-pan-r;
#X obj 1539 717 s \$0-kaseta-delay-head-2-pan-r;
#X obj 1532 740 s \$0-kaseta-delay-head-1-pan-r;
#X obj 152 135 r \$0-kaseta-switch-1-s;
#X obj 167 160 r \$0-kaseta-switch-2-s;
#X obj 206 212 r \$0-kaseta-switch-3-s;
#X obj 219 235 r \$0-kaseta-switch-4-s;
#X obj 254 310 r \$0-kaseta-switch-5-s;
#X obj 330 508 r \$0-kaseta-switch-6-s;
#X obj 340 532 r \$0-kaseta-switch-7-s;
#X obj 347 559 r \$0-kaseta-switch-8-s;
#X obj 363 586 r \$0-kaseta-switch-9-s;
#X obj 377 613 r \$0-kaseta-switch-10-s;
#X obj 1209 850 s \$0-kaseta-switch-1-r;
#X obj 1229 828 s \$0-kaseta-switch-2-r;
#X obj 1245 778 s \$0-kaseta-switch-3-r;
#X obj 1261 752 s \$0-kaseta-switch-4-r;
#X obj 1307 681 s \$0-kaseta-switch-5-r;
#X obj 1376 487 s \$0-kaseta-switch-6-r;
#X obj 1383 459 s \$0-kaseta-switch-7-r;
#X obj 1393 433 s \$0-kaseta-switch-8-r;
#X obj 1399 404 s \$0-kaseta-switch-9-r;
#X obj 1408 378 s \$0-kaseta-switch-10-r;
#X connect 0 0 14 0;
#X connect 1 0 57 0;
#X connect 2 0 1 0;
#X connect 3 0 1 0;
#X connect 5 0 3 0;
#X connect 5 1 2 0;
#X connect 6 0 56 0;
#X connect 7 0 23 0;
#X connect 8 0 7 0;
#X connect 8 1 6 0;
#X connect 8 2 9 0;
#X connect 9 0 4 0;
#X connect 12 0 13 0;
#X connect 13 0 7 1;
#X connect 13 1 22 0;
#X connect 13 2 10 0;
#X connect 14 0 5 0;
#X connect 14 1 12 0;
#X connect 15 0 8 0;
#X connect 16 0 15 0;
#X connect 17 0 14 0;
#X connect 22 0 1 0;
#X connect 23 0 4 0;
#X connect 24 0 6 1;
#X connect 25 0 56 1;
#X connect 26 0 56 5;
#X connect 27 0 56 9;
#X connect 29 0 56 11;
#X connect 30 0 56 12;
#X connect 31 0 56 13;
#X connect 32 0 56 14;
#X connect 33 0 56 15;
#X connect 43 0 56 26;
#X connect 44 0 56 27;
#X connect 45 0 56 28;
#X connect 46 0 56 29;
#X connect 47 0 56 30;
#X connect 48 0 56 31;
#X connect 49 0 56 32;
#X connect 50 0 56 33;
#X connect 55 0 4 0;
#X connect 56 0 55 0;
#X connect 57 0 19 0;
#X connect 57 1 20 0;
#X connect 57 2 59 0;
#X connect 57 3 80 0;
#X connect 57 4 81 0;
#X connect 57 5 21 0;
#X connect 57 6 82 0;
#X connect 57 7 83 0;
#X connect 57 8 61 0;
#X connect 57 9 28 0;
#X connect 57 10 84 0;
#X connect 57 11 34 0;
#X connect 57 12 35 0;
#X connect 57 13 36 0;
#X connect 57 14 37 0;
#X connect 57 15 38 0;
#X connect 57 18 85 0;
#X connect 57 19 86 0;
#X connect 57 20 87 0;
#X connect 57 21 88 0;
#X connect 57 22 89 0;
#X connect 57 26 42 0;
#X connect 57 27 41 0;
#X connect 57 28 40 0;
#X connect 57 29 39 0;
#X connect 57 30 54 0;
#X connect 57 31 53 0;
#X connect 57 32 52 0;
#X connect 57 33 51 0;
#X connect 57 34 69 0;
#X connect 57 35 68 0;
#X connect 57 36 67 0;
#X connect 57 37 66 0;
#X connect 58 0 56 2;
#X connect 60 0 56 8;
#X connect 62 0 56 34;
#X connect 63 0 56 35;
#X connect 64 0 56 36;
#X connect 65 0 56 37;
#X connect 70 0 56 3;
#X connect 71 0 56 4;
#X connect 72 0 56 6;
#X connect 73 0 56 7;
#X connect 74 0 56 10;
#X connect 75 0 56 18;
#X connect 76 0 56 19;
#X connect 77 0 56 20;
#X connect 78 0 56 21;
#X connect 79 0 56 22;
#X restore 92 647 pd state-saving-multiple-instances;
#X obj 92 722 s \$0-instance-num;
#X obj 92 674 makefilename %d;
#X msg 92 699 label \$1;
#N canvas 81 22 1916 1001 state-saving-via-preset-manager-module 0
;
#X obj 1017 241 textfile;
#X msg 1396 224 rewind;
#X msg 1353 224 bang;
#X obj 109 856 textfile;
#X obj 1353 185 t b b;
#X obj 107 414 f;
#X obj 120 747 f;
#X obj 53 642 t b b b;
#X msg 189 797 clear;
#X obj 107 56 delay 5;
#X obj 53 697 delay 10;
#X msg 53 372 bang;
#X obj 53 26 r STORE-S!;
#X obj 1017 142 f;
#X obj 990 106 t b b;
#X obj 1005 63 t b f;
#X obj 1062 160 f \$1;
#X obj 1017 187 pack f f;
#X obj 1062 110 loadbang;
#X obj 120 777 pack f f;
#X obj 165 730 loadbang;
#X obj 165 752 f \$1;
#X obj 1005 40 r preset-manager-scan;
#X obj 135 708 r preset-manager-store-slot;
#N canvas 0 22 1916 1001 morph-parameters 0;
#X obj 176 94 inlet;
#X obj 176 236 pack f f;
#X obj 176 261 line;
#X obj 209 117 r preset-manager-morph-s;
#X msg 72 244 stop;
#X obj 72 214 r STOP-MORPH!;
#X obj 209 206 spigot;
#X obj 398 137 t f f;
#X obj 455 154 == 0;
#X obj 221 176 f;
#X floatatom 455 222 5 0 0 0 - - - 0;
#X obj 398 159 t b f;
#X floatatom 425 192 5 0 0 0 - - - 0;
#X obj 209 139 t f f;
#X obj 398 102 r parameters-s;
#X obj 176 288 outlet;
#X connect 0 0 1 0;
#X connect 1 0 2 0;
#X connect 2 0 15 0;
#X connect 3 0 13 0;
#X connect 4 0 2 0;
#X connect 5 0 4 0;
#X connect 6 0 1 1;
#X connect 7 0 11 0;
#X connect 7 1 8 0;
#X connect 8 0 10 0;
#X connect 9 0 6 0;
#X connect 10 0 1 1;
#X connect 11 0 9 0;
#X connect 11 1 12 0;
#X connect 12 0 6 1;
#X connect 13 0 6 0;
#X connect 13 1 9 1;
#X connect 14 0 7 0;
#X restore 1069 753 pd morph-parameters;
#X msg 1017 216 read statesave/\$1-\$2-kaseta-ss.txt;
#X msg 188 824 write statesave/\$1-\$2-kaseta-ss.txt;
#X obj 122 99 r \$0-kaseta-pre-amp-s;
#X obj 138 125 r \$0-kaseta-drive-s;
#X obj 183 222 r \$0-kaseta-bias-s;
#N canvas 0 22 1916 1001 morph-parameters 0;
#X obj 176 94 inlet;
#X obj 176 236 pack f f;
#X obj 176 261 line;
#X obj 209 117 r preset-manager-morph-s;
#X msg 72 244 stop;
#X obj 72 214 r STOP-MORPH!;
#X obj 209 206 spigot;
#X obj 398 137 t f f;
#X obj 455 154 == 0;
#X obj 221 176 f;
#X floatatom 455 222 5 0 0 0 - - - 0;
#X obj 398 159 t b f;
#X floatatom 425 192 5 0 0 0 - - - 0;
#X obj 209 139 t f f;
#X obj 398 102 r parameters-s;
#X obj 176 288 outlet;
#X connect 0 0 1 0;
#X connect 1 0 2 0;
#X connect 2 0 15 0;
#X connect 3 0 13 0;
#X connect 4 0 2 0;
#X connect 5 0 4 0;
#X connect 6 0 1 1;
#X connect 7 0 11 0;
#X connect 7 1 8 0;
#X connect 8 0 10 0;
#X connect 9 0 6 0;
#X connect 10 0 1 1;
#X connect 11 0 9 0;
#X connect 11 1 12 0;
#X connect 12 0 6 1;
#X connect 13 0 6 0;
#X connect 13 1 9 1;
#X connect 14 0 7 0;
#X restore 1063 803 pd morph-parameters;
#N canvas 0 22 1916 1001 morph-parameters 0;
#X obj 176 94 inlet;
#X obj 176 236 pack f f;
#X obj 176 261 line;
#X obj 209 117 r preset-manager-morph-s;
#X msg 72 244 stop;
#X obj 72 214 r STOP-MORPH!;
#X obj 209 206 spigot;
#X obj 398 137 t f f;
#X obj 455 154 == 0;
#X obj 221 176 f;
#X floatatom 455 222 5 0 0 0 - - - 0;
#X obj 398 159 t b f;
#X floatatom 425 192 5 0 0 0 - - - 0;
#X obj 209 139 t f f;
#X obj 398 102 r parameters-s;
#X obj 176 288 outlet;
#X connect 0 0 1 0;
#X connect 1 0 2 0;
#X connect 2 0 15 0;
#X connect 3 0 13 0;
#X connect 4 0 2 0;
#X connect 5 0 4 0;
#X connect 6 0 1 1;
#X connect 7 0 11 0;
#X connect 7 1 8 0;
#X connect 8 0 10 0;
#X connect 9 0 6 0;
#X connect 10 0 1 1;
#X connect 11 0 9 0;
#X connect 11 1 12 0;
#X connect 12 0 6 1;
#X connect 13 0 6 0;
#X connect 13 1 9 1;
#X connect 14 0 7 0;
#X restore 1114 558 pd morph-parameters;
#X obj 1063 826 s \$0-kaseta-pre-amp-r;
#X obj 1069 776 s \$0-kaseta-drive-r;
#X obj 1114 581 s \$0-kaseta-bias-r;
#X obj 254 334 r \$0-kaseta-wow-depth-s;
#N canvas 0 22 1916 1001 morph-parameters 0;
#X obj 176 94 inlet;
#X obj 176 236 pack f f;
#X obj 176 261 line;
#X obj 209 117 r preset-manager-morph-s;
#X msg 72 244 stop;
#X obj 72 214 r STOP-MORPH!;
#X obj 209 206 spigot;
#X obj 398 137 t f f;
#X obj 455 154 == 0;
#X obj 221 176 f;
#X floatatom 455 222 5 0 0 0 - - - 0;
#X obj 398 159 t b f;
#X floatatom 425 192 5 0 0 0 - - - 0;
#X obj 209 139 t f f;
#X obj 398 102 r parameters-s;
#X obj 176 288 outlet;
#X connect 0 0 1 0;
#X connect 1 0 2 0;
#X connect 2 0 15 0;
#X connect 3 0 13 0;
#X connect 4 0 2 0;
#X connect 5 0 4 0;
#X connect 6 0 1 1;
#X connect 7 0 11 0;
#X connect 7 1 8 0;
#X connect 8 0 10 0;
#X connect 9 0 6 0;
#X connect 10 0 1 1;
#X connect 11 0 9 0;
#X connect 11 1 12 0;
#X connect 12 0 6 1;
#X connect 13 0 6 0;
#X connect 13 1 9 1;
#X connect 14 0 7 0;
#X restore 1161 363 pd morph-parameters;
#X obj 1161 386 s \$0-kaseta-wow-depth-r;
#X obj 279 387 r \$0-kaseta-delay-length-s;
#X obj 288 414 r \$0-kaseta-delay-head-1-position-s;
#X obj 293 437 r \$0-kaseta-delay-head-2-position-s;
#X obj 305 464 r \$0-kaseta-delay-head-3-position-s;
#X obj 319 490 r \$0-kaseta-delay-head-4-position-s;
#N canvas 0 22 1916 1001 morph-parameters 0;
#X obj 176 94 inlet;
#X obj 176 236 pack f f;
#X obj 176 261 line;
#X obj 209 117 r preset-manager-morph-s;
#X msg 72 244 stop;
#X obj 72 214 r STOP-MORPH!;
#X obj 209 206 spigot;
#X obj 398 137 t f f;
#X obj 455 154 == 0;
#X obj 221 176 f;
#X floatatom 455 222 5 0 0 0 - - - 0;
#X obj 398 159 t b f;
#X floatatom 425 192 5 0 0 0 - - - 0;
#X obj 209 139 t f f;
#X obj 398 102 r parameters-s;
#X obj 176 288 outlet;
#X connect 0 0 1 0;
#X connect 1 0 2 0;
#X connect 2 0 15 0;
#X connect 3 0 13 0;
#X connect 4 0 2 0;
#X connect 5 0 4 0;
#X connect 6 0 1 1;
#X connect 7 0 11 0;
#X connect 7 1 8 0;
#X connect 8 0 10 0;
#X connect 9 0 6 0;
#X connect 10 0 1 1;
#X connect 11 0 9 0;
#X connect 11 1 12 0;
#X connect 12 0 6 1;
#X connect 13 0 6 0;
#X connect 13 1 9 1;
#X connect 14 0 7 0;
#X restore 1269 902 pd morph-parameters;
#X obj 1269 925 s \$0-kaseta-delay-length-r;
#N canvas 0 22 1916 1001 morph-parameters 0;
#X obj 176 94 inlet;
#X obj 176 236 pack f f;
#X obj 176 261 line;
#X obj 209 117 r preset-manager-morph-s;
#X msg 72 244 stop;
#X obj 72 214 r STOP-MORPH!;
#X obj 209 206 spigot;
#X obj 398 137 t f f;
#X obj 455 154 == 0;
#X obj 221 176 f;
#X floatatom 455 222 5 0 0 0 - - - 0;
#X obj 398 159 t b f;
#X floatatom 425 192 5 0 0 0 - - - 0;
#X obj 209 139 t f f;
#X obj 398 102 r parameters-s;
#X obj 176 288 outlet;
#X connect 0 0 1 0;
#X connect 1 0 2 0;
#X connect 2 0 15 0;
#X connect 3 0 13 0;
#X connect 4 0 2 0;
#X connect 5 0 4 0;
#X connect 6 0 1 1;
#X connect 7 0 11 0;
#X connect 7 1 8 0;
#X connect 8 0 10 0;
#X connect 9 0 6 0;
#X connect 10 0 1 1;
#X connect 11 0 9 0;
#X connect 11 1 12 0;
#X connect 12 0 6 1;
#X connect 13 0 6 0;
#X connect 13 1 9 1;
#X connect 14 0 7 0;
#X restore 1280 854 pd morph-parameters;
#X obj 1280 877 s \$0-kaseta-delay-head-1-position-r;
#N canvas 0 22 1916 1001 morph-parameters 0;
#X obj 176 94 inlet;
#X obj 176 236 pack f f;
#X obj 176 261 line;
#X obj 209 117 r preset-manager-morph-s;
#X msg 72 244 stop;
#X obj 72 214 r STOP-MORPH!;
#X obj 209 206 spigot;
#X obj 398 137 t f f;
#X obj 455 154 == 0;
#X obj 221 176 f;
#X floatatom 455 222 5 0 0 0 - - - 0;
#X obj 398 159 t b f;
#X floatatom 425 192 5 0 0 0 - - - 0;
#X obj 209 139 t f f;
#X obj 398 102 r parameters-s;
#X obj 176 288 outlet;
#X connect 0 0 1 0;
#X connect 1 0 2 0;
#X connect 2 0 15 0;
#X connect 3 0 13 0;
#X connect 4 0 2 0;
#X connect 5 0 4 0;
#X connect 6 0 1 1;
#X connect 7 0 11 0;
#X connect 7 1 8 0;
#X connect 8 0 10 0;
#X connect 9 0 6 0;
#X connect 10 0 1 1;
#X connect 11 0 9 0;
#X connect 11 1 12 0;
#X connect 12 0 6 1;
#X connect 13 0 6 0;
#X connect 13 1 9 1;
#X connect 14 0 7 0;
#X restore 1289 806 pd morph-parameters;
#N canvas 0 22 1916 1001 morph-parameters 0;
#X obj 176 94 inlet;
#X obj 176 236 pack f f;
#X obj 176 261 line;
#X obj 209 117 r preset-manager-morph-s;
#X msg 72 244 stop;
#X obj 72 214 r STOP-MORPH!;
#X obj 209 206 spigot;
#X obj 398 137 t f f;
#X obj 455 154 == 0;
#X obj 221 176 f;
#X floatatom 455 222 5 0 0 0 - - - 0;
#X obj 398 159 t b f;
#X floatatom 425 192 5 0 0 0 - - - 0;
#X obj 209 139 t f f;
#X obj 398 102 r parameters-s;
#X obj 176 288 outlet;
#X connect 0 0 1 0;
#X connect 1 0 2 0;
#X connect 2 0 15 0;
#X connect 3 0 13 0;
#X connect 4 0 2 0;
#X connect 5 0 4 0;
#X connect 6 0 1 1;
#X connect 7 0 11 0;
#X connect 7 1 8 0;
#X connect 8 0 10 0;
#X connect 9 0 6 0;
#X connect 10 0 1 1;
#X connect 11 0 9 0;
#X connect 11 1 12 0;
#X connect 12 0 6 1;
#X connect 13 0 6 0;
#X connect 13 1 9 1;
#X connect 14 0 7 0;
#X restore 1301 758 pd morph-parameters;
#N canvas 0 22 1916 1001 morph-parameters 0;
#X obj 176 94 inlet;
#X obj 176 236 pack f f;
#X obj 176 261 line;
#X obj 209 117 r preset-manager-morph-s;
#X msg 72 244 stop;
#X obj 72 214 r STOP-MORPH!;
#X obj 209 206 spigot;
#X obj 398 137 t f f;
#X obj 455 154 == 0;
#X obj 221 176 f;
#X floatatom 455 222 5 0 0 0 - - - 0;
#X obj 398 159 t b f;
#X floatatom 425 192 5 0 0 0 - - - 0;
#X obj 209 139 t f f;
#X obj 398 102 r parameters-s;
#X obj 176 288 outlet;
#X connect 0 0 1 0;
#X connect 1 0 2 0;
#X connect 2 0 15 0;
#X connect 3 0 13 0;
#X connect 4 0 2 0;
#X connect 5 0 4 0;
#X connect 6 0 1 1;
#X connect 7 0 11 0;
#X connect 7 1 8 0;
#X connect 8 0 10 0;
#X connect 9 0 6 0;
#X connect 10 0 1 1;
#X connect 11 0 9 0;
#X connect 11 1 12 0;
#X connect 12 0 6 1;
#X connect 13 0 6 0;
#X connect 13 1 9 1;
#X connect 14 0 7 0;
#X restore 1311 711 pd morph-parameters;
#X obj 1289 829 s \$0-kaseta-delay-head-2-position-r;
#X obj 1301 781 s \$0-kaseta-delay-head-3-position-r;
#X obj 1311 734 s \$0-kaseta-delay-head-4-position-r;
#X obj 462 248 r \$0-kaseta-delay-head-1-feedback-amp-s;
#X obj 473 273 r \$0-kaseta-delay-head-2-feedback-amp-s;
#X obj 486 298 r \$0-kaseta-delay-head-3-feedback-amp-s;
#X obj 500 321 r \$0-kaseta-delay-head-4-feedback-amp-s;
#N canvas 0 22 1916 1001 morph-parameters 0;
#X obj 176 94 inlet;
#X obj 176 236 pack f f;
#X obj 176 261 line;
#X obj 209 117 r preset-manager-morph-s;
#X msg 72 244 stop;
#X obj 72 214 r STOP-MORPH!;
#X obj 209 206 spigot;
#X obj 398 137 t f f;
#X obj 455 154 == 0;
#X obj 221 176 f;
#X floatatom 455 222 5 0 0 0 - - - 0;
#X obj 398 159 t b f;
#X floatatom 425 192 5 0 0 0 - - - 0;
#X obj 209 139 t f f;
#X obj 398 102 r parameters-s;
#X obj 176 288 outlet;
#X connect 0 0 1 0;
#X connect 1 0 2 0;
#X connect 2 0 15 0;
#X connect 3 0 13 0;
#X connect 4 0 2 0;
#X connect 5 0 4 0;
#X connect 6 0 1 1;
#X connect 7 0 11 0;
#X connect 7 1 8 0;
#X connect 8 0 10 0;
#X connect 9 0 6 0;
#X connect 10 0 1 1;
#X connect 11 0 9 0;
#X connect 11 1 12 0;
#X connect 12 0 6 1;
#X connect 13 0 6 0;
#X connect 13 1 9 1;
#X connect 14 0 7 0;
#X restore 1416 307 pd morph-parameters;
#N canvas 0 22 1916 1001 morph-parameters 0;
#X obj 176 94 inlet;
#X obj 176 236 pack f f;
#X obj 176 261 line;
#X obj 209 117 r preset-manager-morph-s;
#X msg 72 244 stop;
#X obj 72 214 r STOP-MORPH!;
#X obj 209 206 spigot;
#X obj 398 137 t f f;
#X obj 455 154 == 0;
#X obj 221 176 f;
#X floatatom 455 222 5 0 0 0 - - - 0;
#X obj 398 159 t b f;
#X floatatom 425 192 5 0 0 0 - - - 0;
#X obj 209 139 t f f;
#X obj 398 102 r parameters-s;
#X obj 176 288 outlet;
#X connect 0 0 1 0;
#X connect 1 0 2 0;
#X connect 2 0 15 0;
#X connect 3 0 13 0;
#X connect 4 0 2 0;
#X connect 5 0 4 0;
#X connect 6 0 1 1;
#X connect 7 0 11 0;
#X connect 7 1 8 0;
#X connect 8 0 10 0;
#X connect 9 0 6 0;
#X connect 10 0 1 1;
#X connect 11 0 9 0;
#X connect 11 1 12 0;
#X connect 12 0 6 1;
#X connect 13 0 6 0;
#X connect 13 1 9 1;
#X connect 14 0 7 0;
#X restore 1410 351 pd morph-parameters;
#N canvas 0 22 1916 1001 morph-parameters 0;
#X obj 176 94 inlet;
#X obj 176 236 pack f f;
#X obj 176 261 line;
#X obj 209 117 r preset-manager-morph-s;
#X msg 72 244 stop;
#X obj 72 214 r STOP-MORPH!;
#X obj 209 206 spigot;
#X obj 398 137 t f f;
#X obj 455 154 == 0;
#X obj 221 176 f;
#X floatatom 455 222 5 0 0 0 - - - 0;
#X obj 398 159 t b f;
#X floatatom 425 192 5 0 0 0 - - - 0;
#X obj 209 139 t f f;
#X obj 398 102 r parameters-s;
#X obj 176 288 outlet;
#X connect 0 0 1 0;
#X connect 1 0 2 0;
#X connect 2 0 15 0;
#X connect 3 0 13 0;
#X connect 4 0 2 0;
#X connect 5 0 4 0;
#X connect 6 0 1 1;
#X connect 7 0 11 0;
#X connect 7 1 8 0;
#X connect 8 0 10 0;
#X connect 9 0 6 0;
#X connect 10 0 1 1;
#X connect 11 0 9 0;
#X connect 11 1 12 0;
#X connect 12 0 6 1;
#X connect 13 0 6 0;
#X connect 13 1 9 1;
#X connect 14 0 7 0;
#X restore 1401 395 pd morph-parameters;
#N canvas 0 22 1916 1001 morph-parameters 0;
#X obj 176 94 inlet;
#X obj 176 236 pack f f;
#X obj 176 261 line;
#X obj 209 117 r preset-manager-morph-s;
#X msg 72 244 stop;
#X obj 72 214 r STOP-MORPH!;
#X obj 209 206 spigot;
#X obj 398 137 t f f;
#X obj 455 154 == 0;
#X obj 221 176 f;
#X floatatom 455 222 5 0 0 0 - - - 0;
#X obj 398 159 t b f;
#X floatatom 425 192 5 0 0 0 - - - 0;
#X obj 209 139 t f f;
#X obj 398 102 r parameters-s;
#X obj 176 288 outlet;
#X connect 0 0 1 0;
#X connect 1 0 2 0;
#X connect 2 0 15 0;
#X connect 3 0 13 0;
#X connect 4 0 2 0;
#X connect 5 0 4 0;
#X connect 6 0 1 1;
#X connect 7 0 11 0;
#X connect 7 1 8 0;
#X connect 8 0 10 0;
#X connect 9 0 6 0;
#X connect 10 0 1 1;
#X connect 11 0 9 0;
#X connect 11 1 12 0;
#X connect 12 0 6 1;
#X connect 13 0 6 0;
#X connect 13 1 9 1;
#X connect 14 0 7 0;
#X restore 1397 437 pd morph-parameters;
#X obj 512 345 r \$0-kaseta-delay-head-1-volume-s;
#X obj 523 370 r \$0-kaseta-delay-head-2-volume-s;
#X obj 536 395 r \$0-kaseta-delay-head-3-volume-s;
#X obj 550 418 r \$0-kaseta-delay-head-4-volume-s;
#N canvas 0 22 1916 1001 morph-parameters 0;
#X obj 176 94 inlet;
#X obj 176 236 pack f f;
#X obj 176 261 line;
#X obj 209 117 r preset-manager-morph-s;
#X msg 72 244 stop;
#X obj 72 214 r STOP-MORPH!;
#X obj 209 206 spigot;
#X obj 398 137 t f f;
#X obj 455 154 == 0;
#X obj 221 176 f;
#X floatatom 455 222 5 0 0 0 - - - 0;
#X obj 398 159 t b f;
#X floatatom 425 192 5 0 0 0 - - - 0;
#X obj 209 139 t f f;
#X obj 398 102 r parameters-s;
#X obj 176 288 outlet;
#X connect 0 0 1 0;
#X connect 1 0 2 0;
#X connect 2 0 15 0;
#X connect 3 0 13 0;
#X connect 4 0 2 0;
#X connect 5 0 4 0;
#X connect 6 0 1 1;
#X connect 7 0 11 0;
#X connect 7 1 8 0;
#X connect 8 0 10 0;
#X connect 9 0 6 0;
#X connect 10 0 1 1;
#X connect 11 0 9 0;
#X connect 11 1 12 0;
#X connect 12 0 6 1;
#X connect 13 0 6 0;
#X connect 13 1 9 1;
#X connect 14 0 7 0;
#X restore 1563 778 pd morph-parameters;
#N canvas 0 22 1916 1001 morph-parameters 0;
#X obj 176 94 inlet;
#X obj 176 236 pack f f;
#X obj 176 261 line;
#X obj 209 117 r preset-manager-morph-s;
#X msg 72 244 stop;
#X obj 72 214 r STOP-MORPH!;
#X obj 209 206 spigot;
#X obj 398 137 t f f;
#X obj 455 154 == 0;
#X obj 221 176 f;
#X floatatom 455 222 5 0 0 0 - - - 0;
#X obj 398 159 t b f;
#X floatatom 425 192 5 0 0 0 - - - 0;
#X obj 209 139 t f f;
#X obj 398 102 r parameters-s;
#X obj 176 288 outlet;
#X connect 0 0 1 0;
#X connect 1 0 2 0;
#X connect 2 0 15 0;
#X connect 3 0 13 0;
#X connect 4 0 2 0;
#X connect 5 0 4 0;
#X connect 6 0 1 1;
#X connect 7 0 11 0;
#X connect 7 1 8 0;
#X connect 8 0 10 0;
#X connect 9 0 6 0;
#X connect 10 0 1 1;
#X connect 11 0 9 0;
#X connect 11 1 12 0;
#X connect 12 0 6 1;
#X connect 13 0 6 0;
#X connect 13 1 9 1;
#X connect 14 0 7 0;
#X restore 1557 822 pd morph-parameters;
#N canvas 0 22 1916 1001 morph-parameters 0;
#X obj 176 94 inlet;
#X obj 176 236 pack f f;
#X obj 176 261 line;
#X obj 209 117 r preset-manager-morph-s;
#X msg 72 244 stop;
#X obj 72 214 r STOP-MORPH!;
#X obj 209 206 spigot;
#X obj 398 137 t f f;
#X obj 455 154 == 0;
#X obj 221 176 f;
#X floatatom 455 222 5 0 0 0 - - - 0;
#X obj 398 159 t b f;
#X floatatom 425 192 5 0 0 0 - - - 0;
#X obj 209 139 t f f;
#X obj 398 102 r parameters-s;
#X obj 176 288 outlet;
#X connect 0 0 1 0;
#X connect 1 0 2 0;
#X connect 2 0 15 0;
#X connect 3 0 13 0;
#X connect 4 0 2 0;
#X connect 5 0 4 0;
#X connect 6 0 1 1;
#X connect 7 0 11 0;
#X connect 7 1 8 0;
#X connect 8 0 10 0;
#X connect 9 0 6 0;
#X connect 10 0 1 1;
#X connect 11 0 9 0;
#X connect 11 1 12 0;
#X connect 12 0 6 1;
#X connect 13 0 6 0;
#X connect 13 1 9 1;
#X connect 14 0 7 0;
#X restore 1548 866 pd morph-parameters;
#N canvas 0 22 1916 1001 morph-parameters 0;
#X obj 176 94 inlet;
#X obj 176 236 pack f f;
#X obj 176 261 line;
#X obj 209 117 r preset-manager-morph-s;
#X msg 72 244 stop;
#X obj 72 214 r STOP-MORPH!;
#X obj 209 206 spigot;
#X obj 398 137 t f f;
#X obj 455 154 == 0;
#X obj 221 176 f;
#X floatatom 455 222 5 0 0 0 - - - 0;
#X obj 398 159 t b f;
#X floatatom 425 192 5 0 0 0 - - - 0;
#X obj 209 139 t f f;
#X obj 398 102 r parameters-s;
#X obj 176 288 outlet;
#X connect 0 0 1 0;
#X connect 1 0 2 0;
#X connect 2 0 15 0;
#X connect 3 0 13 0;
#X connect 4 0 2 0;
#X connect 5 0 4 0;
#X connect 6 0 1 1;
#X connect 7 0 11 0;
#X connect 7 1 8 0;
#X connect 8 0 10 0;
#X connect 9 0 6 0;
#X connect 10 0 1 1;
#X connect 11 0 9 0;
#X connect 11 1 12 0;
#X connect 12 0 6 1;
#X connect 13 0 6 0;
#X connect 13 1 9 1;
#X connect 14 0 7 0;
#X restore 1544 908 pd morph-parameters;
#X obj 1543 930 s \$0-kaseta-delay-head-1-volume-r;
#X obj 1548 886 s \$0-kaseta-delay-head-2-volume-r;
#X obj 1557 842 s \$0-kaseta-delay-head-3-volume-r;
#X obj 1563 801 s \$0-kaseta-delay-head-4-volume-r;
#X obj 1396 459 s \$0-kaseta-delay-head-1-feedback-amp-r;
#X obj 1401 415 s \$0-kaseta-delay-head-2-feedback-amp-r;
#X obj 1410 371 s \$0-kaseta-delay-head-3-feedback-amp-r;
#X obj 1416 330 s \$0-kaseta-delay-head-4-feedback-amp-r;
#X obj 107 591 pack f f f f f f f f f f f f f f f f f f f f f f f f
f f f f f f f f f f f f f f f f, f 85;
#X msg 107 651 set \$1 \$2 \$3 \$4 \$5 \$6 \$7 \$8 \$9 \$10 \$11 \$12
\$13 \$14 \$15 \$16 \$17 \$18 \$19 \$20 \$21 \$22 \$23 \$24 \$25 \$26
\$27 \$28 \$29 \$30 \$31 \$32 \$33 \$32 \$33 \$34 \$35 \$36 \$37 \$38
, f 67;
#X obj 1017 263 unpack f f f f f f f f f f f f f f f f f f f f f f
f f f f f f f f f f f f f f f f f f, f 89;
#X obj 149 150 r \$0-kaseta-dry-wet-s;
#N canvas 0 22 1916 1001 morph-parameters 0;
#X obj 176 94 inlet;
#X obj 176 236 pack f f;
#X obj 176 261 line;
#X obj 209 117 r preset-manager-morph-s;
#X msg 72 244 stop;
#X obj 72 214 r STOP-MORPH!;
#X obj 209 206 spigot;
#X obj 398 137 t f f;
#X obj 455 154 == 0;
#X obj 221 176 f;
#X floatatom 455 222 5 0 0 0 - - - 0;
#X obj 398 159 t b f;
#X floatatom 425 192 5 0 0 0 - - - 0;
#X obj 209 139 t f f;
#X obj 398 102 r parameters-s;
#X obj 176 288 outlet;
#X connect 0 0 1 0;
#X connect 1 0 2 0;
#X connect 2 0 15 0;
#X connect 3 0 13 0;
#X connect 4 0 2 0;
#X connect 5 0 4 0;
#X connect 6 0 1 1;
#X connect 7 0 11 0;
#X connect 7 1 8 0;
#X connect 8 0 10 0;
#X connect 9 0 6 0;
#X connect 10 0 1 1;
#X connect 11 0 9 0;
#X connect 11 1 12 0;
#X connect 12 0 6 1;
#X connect 13 0 6 0;
#X connect 13 1 9 1;
#X connect 14 0 7 0;
#X restore 1077 705 pd morph-parameters;
#X obj 1077 728 s \$0-kaseta-dry-wet-r;
#X obj 243 308 r \$0-kaseta-tone-s;
#N canvas 0 22 1916 1001 morph-parameters 0;
#X obj 176 94 inlet;
#X obj 176 236 pack f f;
#X obj 176 261 line;
#X obj 209 117 r preset-manager-morph-s;
#X msg 72 244 stop;
#X obj 72 214 r STOP-MORPH!;
#X obj 209 206 spigot;
#X obj 398 137 t f f;
#X obj 455 154 == 0;
#X obj 221 176 f;
#X floatatom 455 222 5 0 0 0 - - - 0;
#X obj 398 159 t b f;
#X floatatom 425 192 5 0 0 0 - - - 0;
#X obj 209 139 t f f;
#X obj 398 102 r parameters-s;
#X obj 176 288 outlet;
#X connect 0 0 1 0;
#X connect 1 0 2 0;
#X connect 2 0 15 0;
#X connect 3 0 13 0;
#X connect 4 0 2 0;
#X connect 5 0 4 0;
#X connect 6 0 1 1;
#X connect 7 0 11 0;
#X connect 7 1 8 0;
#X connect 8 0 10 0;
#X connect 9 0 6 0;
#X connect 10 0 1 1;
#X connect 11 0 9 0;
#X connect 11 1 12 0;
#X connect 12 0 6 1;
#X connect 13 0 6 0;
#X connect 13 1 9 1;
#X connect 14 0 7 0;
#X restore 1151 415 pd morph-parameters;
#X obj 1151 438 s \$0-kaseta-tone-r;
#X obj 561 444 r \$0-kaseta-delay-head-1-pan-s;
#X obj 572 469 r \$0-kaseta-delay-head-2-pan-s;
#X obj 585 494 r \$0-kaseta-delay-head-3-pan-s;
#X obj 599 517 r \$0-kaseta-delay-head-4-pan-s;
#N canvas 0 22 1916 1001 morph-parameters 0;
#X obj 176 94 inlet;
#X obj 176 236 pack f f;
#X obj 176 261 line;
#X obj 209 117 r preset-manager-morph-s;
#X msg 72 244 stop;
#X obj 72 214 r STOP-MORPH!;
#X obj 209 206 spigot;
#X obj 398 137 t f f;
#X obj 455 154 == 0;
#X obj 221 176 f;
#X floatatom 455 222 5 0 0 0 - - - 0;
#X obj 398 159 t b f;
#X floatatom 425 192 5 0 0 0 - - - 0;
#X obj 209 139 t f f;
#X obj 398 102 r parameters-s;
#X obj 176 288 outlet;
#X connect 0 0 1 0;
#X connect 1 0 2 0;
#X connect 2 0 15 0;
#X connect 3 0 13 0;
#X connect 4 0 2 0;
#X connect 5 0 4 0;
#X connect 6 0 1 1;
#X connect 7 0 11 0;
#X connect 7 1 8 0;
#X connect 8 0 10 0;
#X connect 9 0 6 0;
#X connect 10 0 1 1;
#X connect 11 0 9 0;
#X connect 11 1 12 0;
#X connect 12 0 6 1;
#X connect 13 0 6 0;
#X connect 13 1 9 1;
#X connect 14 0 7 0;
#X restore 1594 599 pd morph-parameters;
#N canvas 0 22 1916 1001 morph-parameters 0;
#X obj 176 94 inlet;
#X obj 176 236 pack f f;
#X obj 176 261 line;
#X obj 209 117 r preset-manager-morph-s;
#X msg 72 244 stop;
#X obj 72 214 r STOP-MORPH!;
#X obj 209 206 spigot;
#X obj 398 137 t f f;
#X obj 455 154 == 0;
#X obj 221 176 f;
#X floatatom 455 222 5 0 0 0 - - - 0;
#X obj 398 159 t b f;
#X floatatom 425 192 5 0 0 0 - - - 0;
#X obj 209 139 t f f;
#X obj 398 102 r parameters-s;
#X obj 176 288 outlet;
#X connect 0 0 1 0;
#X connect 1 0 2 0;
#X connect 2 0 15 0;
#X connect 3 0 13 0;
#X connect 4 0 2 0;
#X connect 5 0 4 0;
#X connect 6 0 1 1;
#X connect 7 0 11 0;
#X connect 7 1 8 0;
#X connect 8 0 10 0;
#X connect 9 0 6 0;
#X connect 10 0 1 1;
#X connect 11 0 9 0;
#X connect 11 1 12 0;
#X connect 12 0 6 1;
#X connect 13 0 6 0;
#X connect 13 1 9 1;
#X connect 14 0 7 0;
#X restore 1588 643 pd morph-parameters;
#N canvas 0 22 1916 1001 morph-parameters 0;
#X obj 176 94 inlet;
#X obj 176 236 pack f f;
#X obj 176 261 line;
#X obj 209 117 r preset-manager-morph-s;
#X msg 72 244 stop;
#X obj 72 214 r STOP-MORPH!;
#X obj 209 206 spigot;
#X obj 398 137 t f f;
#X obj 455 154 == 0;
#X obj 221 176 f;
#X floatatom 455 222 5 0 0 0 - - - 0;
#X obj 398 159 t b f;
#X floatatom 425 192 5 0 0 0 - - - 0;
#X obj 209 139 t f f;
#X obj 398 102 r parameters-s;
#X obj 176 288 outlet;
#X connect 0 0 1 0;
#X connect 1 0 2 0;
#X connect 2 0 15 0;
#X connect 3 0 13 0;
#X connect 4 0 2 0;
#X connect 5 0 4 0;
#X connect 6 0 1 1;
#X connect 7 0 11 0;
#X connect 7 1 8 0;
#X connect 8 0 10 0;
#X connect 9 0 6 0;
#X connect 10 0 1 1;
#X connect 11 0 9 0;
#X connect 11 1 12 0;
#X connect 12 0 6 1;
#X connect 13 0 6 0;
#X connect 13 1 9 1;
#X connect 14 0 7 0;
#X restore 1579 687 pd morph-parameters;
#N canvas 0 22 1916 1001 morph-parameters 0;
#X obj 176 94 inlet;
#X obj 176 236 pack f f;
#X obj 176 261 line;
#X obj 209 117 r preset-manager-morph-s;
#X msg 72 244 stop;
#X obj 72 214 r STOP-MORPH!;
#X obj 209 206 spigot;
#X obj 398 137 t f f;
#X obj 455 154 == 0;
#X obj 221 176 f;
#X floatatom 455 222 5 0 0 0 - - - 0;
#X obj 398 159 t b f;
#X floatatom 425 192 5 0 0 0 - - - 0;
#X obj 209 139 t f f;
#X obj 398 102 r parameters-s;
#X obj 176 288 outlet;
#X connect 0 0 1 0;
#X connect 1 0 2 0;
#X connect 2 0 15 0;
#X connect 3 0 13 0;
#X connect 4 0 2 0;
#X connect 5 0 4 0;
#X connect 6 0 1 1;
#X connect 7 0 11 0;
#X connect 7 1 8 0;
#X connect 8 0 10 0;
#X connect 9 0 6 0;
#X connect 10 0 1 1;
#X connect 11 0 9 0;
#X connect 11 1 12 0;
#X connect 12 0 6 1;
#X connect 13 0 6 0;
#X connect 13 1 9 1;
#X connect 14 0 7 0;
#X restore 1575 729 pd morph-parameters;
#X obj 1594 622 s \$0-kaseta-delay-head-4-pan-r;
#X obj 1588 663 s \$0-kaseta-delay-head-3-pan-r;
#X obj 1579 707 s \$0-kaseta-delay-head-2-pan-r;
#X obj 1574 751 s \$0-kaseta-delay-head-1-pan-r;
#X obj 158 173 r \$0-kaseta-switch-1-s;
#X obj 168 196 r \$0-kaseta-switch-2-s;
#X obj 1088 681 s \$0-kaseta-switch-1-r;
#X obj 1097 657 s \$0-kaseta-switch-2-r;
#X obj 1137 498 s \$0-kaseta-switch-4-r;
#X obj 1130 527 s \$0-kaseta-switch-3-r;
#X obj 205 250 r \$0-kaseta-switch-3-s;
#X obj 216 278 r \$0-kaseta-switch-4-s;
#X obj 274 358 r \$0-kaseta-switch-5-s;
#X obj 1171 334 s \$0-kaseta-switch-5-r;
#X obj 318 30 r \$0-kaseta-switch-6-s;
#X obj 330 57 r \$0-kaseta-switch-7-s;
#X obj 352 83 r \$0-kaseta-switch-8-s;
#X obj 369 110 r \$0-kaseta-switch-9-s;
#X obj 382 137 r \$0-kaseta-switch-10-s;
#X obj 1342 637 s \$0-kaseta-switch-6-r;
#X obj 1347 610 s \$0-kaseta-switch-7-r;
#X obj 1358 585 s \$0-kaseta-switch-8-r;
#X obj 1363 558 s \$0-kaseta-switch-9-r;
#X obj 1368 532 s \$0-kaseta-switch-10-r;
#X connect 0 0 79 0;
#X connect 1 0 0 0;
#X connect 2 0 0 0;
#X connect 4 0 2 0;
#X connect 4 1 1 0;
#X connect 5 0 77 0;
#X connect 6 0 19 0;
#X connect 7 0 10 0;
#X connect 7 1 9 0;
#X connect 7 2 8 0;
#X connect 8 0 3 0;
#X connect 9 0 5 0;
#X connect 10 0 6 0;
#X connect 11 0 7 0;
#X connect 12 0 11 0;
#X connect 13 0 17 0;
#X connect 14 0 4 0;
#X connect 14 1 13 0;
#X connect 15 0 14 0;
#X connect 15 1 13 1;
#X connect 16 0 17 1;
#X connect 17 0 25 0;
#X connect 18 0 16 0;
#X connect 19 0 26 0;
#X connect 20 0 21 0;
#X connect 21 0 19 1;
#X connect 22 0 15 0;
#X connect 23 0 6 1;
#X connect 24 0 33 0;
#X connect 25 0 0 0;
#X connect 26 0 3 0;
#X connect 27 0 5 1;
#X connect 28 0 77 1;
#X connect 29 0 77 5;
#X connect 30 0 32 0;
#X connect 31 0 34 0;
#X connect 35 0 77 9;
#X connect 36 0 37 0;
#X connect 38 0 77 11;
#X connect 39 0 77 12;
#X connect 40 0 77 13;
#X connect 41 0 77 14;
#X connect 42 0 77 15;
#X connect 43 0 44 0;
#X connect 45 0 46 0;
#X connect 47 0 50 0;
#X connect 48 0 51 0;
#X connect 49 0 52 0;
#X connect 53 0 77 26;
#X connect 54 0 77 27;
#X connect 55 0 77 28;
#X connect 56 0 77 29;
#X connect 57 0 76 0;
#X connect 58 0 75 0;
#X connect 59 0 74 0;
#X connect 60 0 73 0;
#X connect 61 0 77 30;
#X connect 62 0 77 31;
#X connect 63 0 77 32;
#X connect 64 0 77 33;
#X connect 65 0 72 0;
#X connect 66 0 71 0;
#X connect 67 0 70 0;
#X connect 68 0 69 0;
#X connect 77 0 78 0;
#X connect 78 0 3 0;
#X connect 79 0 30 0;
#X connect 79 1 24 0;
#X connect 79 2 81 0;
#X connect 79 3 100 0;
#X connect 79 4 101 0;
#X connect 79 5 31 0;
#X connect 79 6 103 0;
#X connect 79 7 102 0;
#X connect 79 8 84 0;
#X connect 79 9 36 0;
#X connect 79 10 107 0;
#X connect 79 11 43 0;
#X connect 79 12 45 0;
#X connect 79 13 47 0;
#X connect 79 14 48 0;
#X connect 79 15 49 0;
#X connect 79 18 113 0;
#X connect 79 19 114 0;
#X connect 79 20 115 0;
#X connect 79 21 116 0;
#X connect 79 22 117 0;
#X connect 79 26 60 0;
#X connect 79 27 59 0;
#X connect 79 28 58 0;
#X connect 79 29 57 0;
#X connect 79 30 68 0;
#X connect 79 31 67 0;
#X connect 79 32 66 0;
#X connect 79 33 65 0;
#X connect 79 34 93 0;
#X connect 79 35 92 0;
#X connect 79 36 91 0;
#X connect 79 37 90 0;
#X connect 80 0 77 2;
#X connect 81 0 82 0;
#X connect 83 0 77 8;
#X connect 84 0 85 0;
#X connect 86 0 77 34;
#X connect 87 0 77 35;
#X connect 88 0 77 36;
#X connect 89 0 77 37;
#X connect 90 0 94 0;
#X connect 91 0 95 0;
#X connect 92 0 96 0;
#X connect 93 0 97 0;
#X connect 98 0 77 3;
#X connect 99 0 77 4;
#X connect 104 0 77 6;
#X connect 105 0 77 7;
#X connect 106 0 77 10;
#X connect 108 0 77 18;
#X connect 109 0 77 19;
#X connect 110 0 77 20;
#X connect 111 0 77 21;
#X connect 112 0 77 22;
#X restore 93 619 pd state-saving-via-preset-manager-module;
#N canvas 396 31 1916 1001 parameter-nudging-system 0;
#X obj 401 67 clip 0 127;
#N canvas 0 22 1916 1001 nudge-parameters 0;
#X obj 124 234 random;
#X obj 232 335 f;
#X obj 232 368 +;
#X obj 257 166 random 2;
#X obj 124 275 t f f;
#X obj 124 351 t b f;
#X obj 124 297 *;
#X obj 257 188 sel 0 1;
#X msg 257 280 -1;
#X msg 335 280 1;
#X obj 124 149 t b b b;
#X obj 124 74 r NUDGE!;
#X obj 157 193 r NUDGE-RANGE;
#X obj 247 308 inlet;
#X obj 232 397 outlet;
#X obj 124 96 spigot;
#X obj 185 79 r parameters2-s;
#X connect 0 0 4 0;
#X connect 1 0 2 0;
#X connect 2 0 14 0;
#X connect 3 0 7 0;
#X connect 4 0 6 0;
#X connect 5 0 2 0;
#X connect 5 1 2 1;
#X connect 6 0 5 0;
#X connect 7 0 8 0;
#X connect 7 1 9 0;
#X connect 8 0 6 1;
#X connect 9 0 6 1;
#X connect 10 0 0 0;
#X connect 10 1 1 0;
#X connect 10 2 3 0;
#X connect 11 0 15 0;
#X connect 12 0 0 1;
#X connect 13 0 1 1;
#X connect 15 0 10 0;
#X connect 16 0 15 1;
#X restore 401 45 pd nudge-parameters;
#X obj 543 63 clip 0 127;
#N canvas 0 22 1916 1001 nudge-parameters 0;
#X obj 124 234 random;
#X obj 232 335 f;
#X obj 232 368 +;
#X obj 257 166 random 2;
#X obj 124 275 t f f;
#X obj 124 351 t b f;
#X obj 124 297 *;
#X obj 257 188 sel 0 1;
#X msg 257 280 -1;
#X msg 335 280 1;
#X obj 124 149 t b b b;
#X obj 124 74 r NUDGE!;
#X obj 157 193 r NUDGE-RANGE;
#X obj 247 308 inlet;
#X obj 232 397 outlet;
#X obj 124 96 spigot;
#X obj 185 79 r parameters2-s;
#X connect 0 0 4 0;
#X connect 1 0 2 0;
#X connect 2 0 14 0;
#X connect 3 0 7 0;
#X connect 4 0 6 0;
#X connect 5 0 2 0;
#X connect 5 1 2 1;
#X connect 6 0 5 0;
#X connect 7 0 8 0;
#X connect 7 1 9 0;
#X connect 8 0 6 1;
#X connect 9 0 6 1;
#X connect 10 0 0 0;
#X connect 10 1 1 0;
#X connect 10 2 3 0;
#X connect 11 0 15 0;
#X connect 12 0 0 1;
#X connect 13 0 1 1;
#X connect 15 0 10 0;
#X connect 16 0 15 1;
#X restore 543 41 pd nudge-parameters;
#X obj 69 70 clip 0 127;
#N canvas 0 22 1916 1001 nudge-parameters 0;
#X obj 124 234 random;
#X obj 232 335 f;
#X obj 232 368 +;
#X obj 257 166 random 2;
#X obj 124 275 t f f;
#X obj 124 351 t b f;
#X obj 124 297 *;
#X obj 257 188 sel 0 1;
#X msg 257 280 -1;
#X msg 335 280 1;
#X obj 124 149 t b b b;
#X obj 124 74 r NUDGE!;
#X obj 157 193 r NUDGE-RANGE;
#X obj 247 308 inlet;
#X obj 232 397 outlet;
#X obj 124 96 spigot;
#X obj 185 79 r parameters2-s;
#X connect 0 0 4 0;
#X connect 1 0 2 0;
#X connect 2 0 14 0;
#X connect 3 0 7 0;
#X connect 4 0 6 0;
#X connect 5 0 2 0;
#X connect 5 1 2 1;
#X connect 6 0 5 0;
#X connect 7 0 8 0;
#X connect 7 1 9 0;
#X connect 8 0 6 1;
#X connect 9 0 6 1;
#X connect 10 0 0 0;
#X connect 10 1 1 0;
#X connect 10 2 3 0;
#X connect 11 0 15 0;
#X connect 12 0 0 1;
#X connect 13 0 1 1;
#X connect 15 0 10 0;
#X connect 16 0 15 1;
#X restore 69 48 pd nudge-parameters;
#X obj 69 25 r \$0-kaseta-pre-amp-s;
#X obj 69 102 s \$0-kaseta-pre-amp-r;
#X obj 401 22 r \$0-kaseta-drive-s;
#X obj 401 99 s \$0-kaseta-drive-r;
#X obj 543 18 r \$0-kaseta-bias-s;
#X obj 543 95 s \$0-kaseta-bias-r;
#X obj 452 195 clip 0 127;
#N canvas 0 22 1916 1001 nudge-parameters 0;
#X obj 124 234 random;
#X obj 232 335 f;
#X obj 232 368 +;
#X obj 257 166 random 2;
#X obj 124 275 t f f;
#X obj 124 351 t b f;
#X obj 124 297 *;
#X obj 257 188 sel 0 1;
#X msg 257 280 -1;
#X msg 335 280 1;
#X obj 124 149 t b b b;
#X obj 124 74 r NUDGE!;
#X obj 157 193 r NUDGE-RANGE;
#X obj 247 308 inlet;
#X obj 232 397 outlet;
#X obj 124 96 spigot;
#X obj 185 79 r parameters2-s;
#X connect 0 0 4 0;
#X connect 1 0 2 0;
#X connect 2 0 14 0;
#X connect 3 0 7 0;
#X connect 4 0 6 0;
#X connect 5 0 2 0;
#X connect 5 1 2 1;
#X connect 6 0 5 0;
#X connect 7 0 8 0;
#X connect 7 1 9 0;
#X connect 8 0 6 1;
#X connect 9 0 6 1;
#X connect 10 0 0 0;
#X connect 10 1 1 0;
#X connect 10 2 3 0;
#X connect 11 0 15 0;
#X connect 12 0 0 1;
#X connect 13 0 1 1;
#X connect 15 0 10 0;
#X connect 16 0 15 1;
#X restore 452 173 pd nudge-parameters;
#X obj 452 149 r \$0-kaseta-wow-depth-s;
#X obj 451 227 s \$0-kaseta-wow-depth-r;
#X obj 56 306 clip 0 127;
#N canvas 0 22 1916 1001 nudge-parameters 0;
#X obj 124 234 random;
#X obj 232 335 f;
#X obj 232 368 +;
#X obj 257 166 random 2;
#X obj 124 275 t f f;
#X obj 124 351 t b f;
#X obj 124 297 *;
#X obj 257 188 sel 0 1;
#X msg 257 280 -1;
#X msg 335 280 1;
#X obj 124 149 t b b b;
#X obj 124 74 r NUDGE!;
#X obj 157 193 r NUDGE-RANGE;
#X obj 247 308 inlet;
#X obj 232 397 outlet;
#X obj 124 96 spigot;
#X obj 185 79 r parameters2-s;
#X connect 0 0 4 0;
#X connect 1 0 2 0;
#X connect 2 0 14 0;
#X connect 3 0 7 0;
#X connect 4 0 6 0;
#X connect 5 0 2 0;
#X connect 5 1 2 1;
#X connect 6 0 5 0;
#X connect 7 0 8 0;
#X connect 7 1 9 0;
#X connect 8 0 6 1;
#X connect 9 0 6 1;
#X connect 10 0 0 0;
#X connect 10 1 1 0;
#X connect 10 2 3 0;
#X connect 11 0 15 0;
#X connect 12 0 0 1;
#X connect 13 0 1 1;
#X connect 15 0 10 0;
#X connect 16 0 15 1;
#X restore 56 284 pd nudge-parameters;
#X obj 56 261 r \$0-kaseta-delay-length-s;
#X obj 56 338 s \$0-kaseta-delay-length-r;
#X obj 57 410 clip 0 127;
#N canvas 0 22 1916 1001 nudge-parameters 0;
#X obj 124 234 random;
#X obj 232 335 f;
#X obj 232 368 +;
#X obj 257 166 random 2;
#X obj 124 275 t f f;
#X obj 124 351 t b f;
#X obj 124 297 *;
#X obj 257 188 sel 0 1;
#X msg 257 280 -1;
#X msg 335 280 1;
#X obj 124 149 t b b b;
#X obj 124 74 r NUDGE!;
#X obj 157 193 r NUDGE-RANGE;
#X obj 247 308 inlet;
#X obj 232 397 outlet;
#X obj 124 96 spigot;
#X obj 185 79 r parameters2-s;
#X connect 0 0 4 0;
#X connect 1 0 2 0;
#X connect 2 0 14 0;
#X connect 3 0 7 0;
#X connect 4 0 6 0;
#X connect 5 0 2 0;
#X connect 5 1 2 1;
#X connect 6 0 5 0;
#X connect 7 0 8 0;
#X connect 7 1 9 0;
#X connect 8 0 6 1;
#X connect 9 0 6 1;
#X connect 10 0 0 0;
#X connect 10 1 1 0;
#X connect 10 2 3 0;
#X connect 11 0 15 0;
#X connect 12 0 0 1;
#X connect 13 0 1 1;
#X connect 15 0 10 0;
#X connect 16 0 15 1;
#X restore 57 388 pd nudge-parameters;
#X obj 57 364 r \$0-kaseta-delay-head-1-position-s;
#X obj 57 442 s \$0-kaseta-delay-head-1-position-r;
#X obj 286 409 clip 0 127;
#N canvas 0 22 1916 1001 nudge-parameters 0;
#X obj 124 234 random;
#X obj 232 335 f;
#X obj 232 368 +;
#X obj 257 166 random 2;
#X obj 124 275 t f f;
#X obj 124 351 t b f;
#X obj 124 297 *;
#X obj 257 188 sel 0 1;
#X msg 257 280 -1;
#X msg 335 280 1;
#X obj 124 149 t b b b;
#X obj 124 74 r NUDGE!;
#X obj 157 193 r NUDGE-RANGE;
#X obj 247 308 inlet;
#X obj 232 397 outlet;
#X obj 124 96 spigot;
#X obj 185 79 r parameters2-s;
#X connect 0 0 4 0;
#X connect 1 0 2 0;
#X connect 2 0 14 0;
#X connect 3 0 7 0;
#X connect 4 0 6 0;
#X connect 5 0 2 0;
#X connect 5 1 2 1;
#X connect 6 0 5 0;
#X connect 7 0 8 0;
#X connect 7 1 9 0;
#X connect 8 0 6 1;
#X connect 9 0 6 1;
#X connect 10 0 0 0;
#X connect 10 1 1 0;
#X connect 10 2 3 0;
#X connect 11 0 15 0;
#X connect 12 0 0 1;
#X connect 13 0 1 1;
#X connect 15 0 10 0;
#X connect 16 0 15 1;
#X restore 286 387 pd nudge-parameters;
#X obj 509 409 clip 0 127;
#N canvas 0 22 1916 1001 nudge-parameters 0;
#X obj 124 234 random;
#X obj 232 335 f;
#X obj 232 368 +;
#X obj 257 166 random 2;
#X obj 124 275 t f f;
#X obj 124 351 t b f;
#X obj 124 297 *;
#X obj 257 188 sel 0 1;
#X msg 257 280 -1;
#X msg 335 280 1;
#X obj 124 149 t b b b;
#X obj 124 74 r NUDGE!;
#X obj 157 193 r NUDGE-RANGE;
#X obj 247 308 inlet;
#X obj 232 397 outlet;
#X obj 124 96 spigot;
#X obj 185 79 r parameters2-s;
#X connect 0 0 4 0;
#X connect 1 0 2 0;
#X connect 2 0 14 0;
#X connect 3 0 7 0;
#X connect 4 0 6 0;
#X connect 5 0 2 0;
#X connect 5 1 2 1;
#X connect 6 0 5 0;
#X connect 7 0 8 0;
#X connect 7 1 9 0;
#X connect 8 0 6 1;
#X connect 9 0 6 1;
#X connect 10 0 0 0;
#X connect 10 1 1 0;
#X connect 10 2 3 0;
#X connect 11 0 15 0;
#X connect 12 0 0 1;
#X connect 13 0 1 1;
#X connect 15 0 10 0;
#X connect 16 0 15 1;
#X restore 509 387 pd nudge-parameters;
#X obj 286 363 r \$0-kaseta-delay-head-2-position-s;
#X obj 286 441 s \$0-kaseta-delay-head-2-position-r;
#X obj 509 363 r \$0-kaseta-delay-head-3-position-s;
#X obj 509 441 s \$0-kaseta-delay-head-3-position-r;
#X obj 739 409 clip 0 127;
#N canvas 0 22 1916 1001 nudge-parameters 0;
#X obj 124 234 random;
#X obj 232 335 f;
#X obj 232 368 +;
#X obj 257 166 random 2;
#X obj 124 275 t f f;
#X obj 124 351 t b f;
#X obj 124 297 *;
#X obj 257 188 sel 0 1;
#X msg 257 280 -1;
#X msg 335 280 1;
#X obj 124 149 t b b b;
#X obj 124 74 r NUDGE!;
#X obj 157 193 r NUDGE-RANGE;
#X obj 247 308 inlet;
#X obj 232 397 outlet;
#X obj 124 96 spigot;
#X obj 185 79 r parameters2-s;
#X connect 0 0 4 0;
#X connect 1 0 2 0;
#X connect 2 0 14 0;
#X connect 3 0 7 0;
#X connect 4 0 6 0;
#X connect 5 0 2 0;
#X connect 5 1 2 1;
#X connect 6 0 5 0;
#X connect 7 0 8 0;
#X connect 7 1 9 0;
#X connect 8 0 6 1;
#X connect 9 0 6 1;
#X connect 10 0 0 0;
#X connect 10 1 1 0;
#X connect 10 2 3 0;
#X connect 11 0 15 0;
#X connect 12 0 0 1;
#X connect 13 0 1 1;
#X connect 15 0 10 0;
#X connect 16 0 15 1;
#X restore 739 387 pd nudge-parameters;
#X obj 739 363 r \$0-kaseta-delay-head-4-position-s;
#X obj 739 441 s \$0-kaseta-delay-head-4-position-r;
#X obj 57 514 clip 0 127;
#N canvas 0 22 1916 1001 nudge-parameters 0;
#X obj 124 234 random;
#X obj 232 335 f;
#X obj 232 368 +;
#X obj 257 166 random 2;
#X obj 124 275 t f f;
#X obj 124 351 t b f;
#X obj 124 297 *;
#X obj 257 188 sel 0 1;
#X msg 257 280 -1;
#X msg 335 280 1;
#X obj 124 149 t b b b;
#X obj 124 74 r NUDGE!;
#X obj 157 193 r NUDGE-RANGE;
#X obj 247 308 inlet;
#X obj 232 397 outlet;
#X obj 124 96 spigot;
#X obj 185 79 r parameters2-s;
#X connect 0 0 4 0;
#X connect 1 0 2 0;
#X connect 2 0 14 0;
#X connect 3 0 7 0;
#X connect 4 0 6 0;
#X connect 5 0 2 0;
#X connect 5 1 2 1;
#X connect 6 0 5 0;
#X connect 7 0 8 0;
#X connect 7 1 9 0;
#X connect 8 0 6 1;
#X connect 9 0 6 1;
#X connect 10 0 0 0;
#X connect 10 1 1 0;
#X connect 10 2 3 0;
#X connect 11 0 15 0;
#X connect 12 0 0 1;
#X connect 13 0 1 1;
#X connect 15 0 10 0;
#X connect 16 0 15 1;
#X restore 57 492 pd nudge-parameters;
#X obj 316 513 clip 0 127;
#N canvas 0 22 1916 1001 nudge-parameters 0;
#X obj 124 234 random;
#X obj 232 335 f;
#X obj 232 368 +;
#X obj 257 166 random 2;
#X obj 124 275 t f f;
#X obj 124 351 t b f;
#X obj 124 297 *;
#X obj 257 188 sel 0 1;
#X msg 257 280 -1;
#X msg 335 280 1;
#X obj 124 149 t b b b;
#X obj 124 74 r NUDGE!;
#X obj 157 193 r NUDGE-RANGE;
#X obj 247 308 inlet;
#X obj 232 397 outlet;
#X obj 124 96 spigot;
#X obj 185 79 r parameters2-s;
#X connect 0 0 4 0;
#X connect 1 0 2 0;
#X connect 2 0 14 0;
#X connect 3 0 7 0;
#X connect 4 0 6 0;
#X connect 5 0 2 0;
#X connect 5 1 2 1;
#X connect 6 0 5 0;
#X connect 7 0 8 0;
#X connect 7 1 9 0;
#X connect 8 0 6 1;
#X connect 9 0 6 1;
#X connect 10 0 0 0;
#X connect 10 1 1 0;
#X connect 10 2 3 0;
#X connect 11 0 15 0;
#X connect 12 0 0 1;
#X connect 13 0 1 1;
#X connect 15 0 10 0;
#X connect 16 0 15 1;
#X restore 316 491 pd nudge-parameters;
#X obj 569 513 clip 0 127;
#N canvas 0 22 1916 1001 nudge-parameters 0;
#X obj 124 234 random;
#X obj 232 335 f;
#X obj 232 368 +;
#X obj 257 166 random 2;
#X obj 124 275 t f f;
#X obj 124 351 t b f;
#X obj 124 297 *;
#X obj 257 188 sel 0 1;
#X msg 257 280 -1;
#X msg 335 280 1;
#X obj 124 149 t b b b;
#X obj 124 74 r NUDGE!;
#X obj 157 193 r NUDGE-RANGE;
#X obj 247 308 inlet;
#X obj 232 397 outlet;
#X obj 124 96 spigot;
#X obj 185 79 r parameters2-s;
#X connect 0 0 4 0;
#X connect 1 0 2 0;
#X connect 2 0 14 0;
#X connect 3 0 7 0;
#X connect 4 0 6 0;
#X connect 5 0 2 0;
#X connect 5 1 2 1;
#X connect 6 0 5 0;
#X connect 7 0 8 0;
#X connect 7 1 9 0;
#X connect 8 0 6 1;
#X connect 9 0 6 1;
#X connect 10 0 0 0;
#X connect 10 1 1 0;
#X connect 10 2 3 0;
#X connect 11 0 15 0;
#X connect 12 0 0 1;
#X connect 13 0 1 1;
#X connect 15 0 10 0;
#X connect 16 0 15 1;
#X restore 569 491 pd nudge-parameters;
#X obj 829 513 clip 0 127;
#N canvas 0 22 1916 1001 nudge-parameters 0;
#X obj 124 234 random;
#X obj 232 335 f;
#X obj 232 368 +;
#X obj 257 166 random 2;
#X obj 124 275 t f f;
#X obj 124 351 t b f;
#X obj 124 297 *;
#X obj 257 188 sel 0 1;
#X msg 257 280 -1;
#X msg 335 280 1;
#X obj 124 149 t b b b;
#X obj 124 74 r NUDGE!;
#X obj 157 193 r NUDGE-RANGE;
#X obj 247 308 inlet;
#X obj 232 397 outlet;
#X obj 124 96 spigot;
#X obj 185 79 r parameters2-s;
#X connect 0 0 4 0;
#X connect 1 0 2 0;
#X connect 2 0 14 0;
#X connect 3 0 7 0;
#X connect 4 0 6 0;
#X connect 5 0 2 0;
#X connect 5 1 2 1;
#X connect 6 0 5 0;
#X connect 7 0 8 0;
#X connect 7 1 9 0;
#X connect 8 0 6 1;
#X connect 9 0 6 1;
#X connect 10 0 0 0;
#X connect 10 1 1 0;
#X connect 10 2 3 0;
#X connect 11 0 15 0;
#X connect 12 0 0 1;
#X connect 13 0 1 1;
#X connect 15 0 10 0;
#X connect 16 0 15 1;
#X restore 829 491 pd nudge-parameters;
#X obj 57 468 r \$0-kaseta-delay-head-1-feedback-amp-s;
#X obj 57 546 s \$0-kaseta-delay-head-1-feedback-amp-r;
#X obj 316 467 r \$0-kaseta-delay-head-2-feedback-amp-s;
#X obj 316 545 s \$0-kaseta-delay-head-2-feedback-amp-r;
#X obj 569 467 r \$0-kaseta-delay-head-3-feedback-amp-s;
#X obj 569 545 s \$0-kaseta-delay-head-3-feedback-amp-r;
#X obj 829 467 r \$0-kaseta-delay-head-4-feedback-amp-s;
#X obj 829 545 s \$0-kaseta-delay-head-4-feedback-amp-r;
#X obj 57 617 clip 0 127;
#N canvas 0 22 1916 1001 nudge-parameters 0;
#X obj 124 234 random;
#X obj 232 335 f;
#X obj 232 368 +;
#X obj 257 166 random 2;
#X obj 124 275 t f f;
#X obj 124 351 t b f;
#X obj 124 297 *;
#X obj 257 188 sel 0 1;
#X msg 257 280 -1;
#X msg 335 280 1;
#X obj 124 149 t b b b;
#X obj 124 74 r NUDGE!;
#X obj 157 193 r NUDGE-RANGE;
#X obj 247 308 inlet;
#X obj 232 397 outlet;
#X obj 124 96 spigot;
#X obj 185 79 r parameters2-s;
#X connect 0 0 4 0;
#X connect 1 0 2 0;
#X connect 2 0 14 0;
#X connect 3 0 7 0;
#X connect 4 0 6 0;
#X connect 5 0 2 0;
#X connect 5 1 2 1;
#X connect 6 0 5 0;
#X connect 7 0 8 0;
#X connect 7 1 9 0;
#X connect 8 0 6 1;
#X connect 9 0 6 1;
#X connect 10 0 0 0;
#X connect 10 1 1 0;
#X connect 10 2 3 0;
#X connect 11 0 15 0;
#X connect 12 0 0 1;
#X connect 13 0 1 1;
#X connect 15 0 10 0;
#X connect 16 0 15 1;
#X restore 57 595 pd nudge-parameters;
#X obj 316 616 clip 0 127;
#N canvas 0 22 1916 1001 nudge-parameters 0;
#X obj 124 234 random;
#X obj 232 335 f;
#X obj 232 368 +;
#X obj 257 166 random 2;
#X obj 124 275 t f f;
#X obj 124 351 t b f;
#X obj 124 297 *;
#X obj 257 188 sel 0 1;
#X msg 257 280 -1;
#X msg 335 280 1;
#X obj 124 149 t b b b;
#X obj 124 74 r NUDGE!;
#X obj 157 193 r NUDGE-RANGE;
#X obj 247 308 inlet;
#X obj 232 397 outlet;
#X obj 124 96 spigot;
#X obj 185 79 r parameters2-s;
#X connect 0 0 4 0;
#X connect 1 0 2 0;
#X connect 2 0 14 0;
#X connect 3 0 7 0;
#X connect 4 0 6 0;
#X connect 5 0 2 0;
#X connect 5 1 2 1;
#X connect 6 0 5 0;
#X connect 7 0 8 0;
#X connect 7 1 9 0;
#X connect 8 0 6 1;
#X connect 9 0 6 1;
#X connect 10 0 0 0;
#X connect 10 1 1 0;
#X connect 10 2 3 0;
#X connect 11 0 15 0;
#X connect 12 0 0 1;
#X connect 13 0 1 1;
#X connect 15 0 10 0;
#X connect 16 0 15 1;
#X restore 316 594 pd nudge-parameters;
#X obj 569 616 clip 0 127;
#N canvas 0 22 1916 1001 nudge-parameters 0;
#X obj 124 234 random;
#X obj 232 335 f;
#X obj 232 368 +;
#X obj 257 166 random 2;
#X obj 124 275 t f f;
#X obj 124 351 t b f;
#X obj 124 297 *;
#X obj 257 188 sel 0 1;
#X msg 257 280 -1;
#X msg 335 280 1;
#X obj 124 149 t b b b;
#X obj 124 74 r NUDGE!;
#X obj 157 193 r NUDGE-RANGE;
#X obj 247 308 inlet;
#X obj 232 397 outlet;
#X obj 124 96 spigot;
#X obj 185 79 r parameters2-s;
#X connect 0 0 4 0;
#X connect 1 0 2 0;
#X connect 2 0 14 0;
#X connect 3 0 7 0;
#X connect 4 0 6 0;
#X connect 5 0 2 0;
#X connect 5 1 2 1;
#X connect 6 0 5 0;
#X connect 7 0 8 0;
#X connect 7 1 9 0;
#X connect 8 0 6 1;
#X connect 9 0 6 1;
#X connect 10 0 0 0;
#X connect 10 1 1 0;
#X connect 10 2 3 0;
#X connect 11 0 15 0;
#X connect 12 0 0 1;
#X connect 13 0 1 1;
#X connect 15 0 10 0;
#X connect 16 0 15 1;
#X restore 569 594 pd nudge-parameters;
#X obj 829 616 clip 0 127;
#N canvas 0 22 1916 1001 nudge-parameters 0;
#X obj 124 234 random;
#X obj 232 335 f;
#X obj 232 368 +;
#X obj 257 166 random 2;
#X obj 124 275 t f f;
#X obj 124 351 t b f;
#X obj 124 297 *;
#X obj 257 188 sel 0 1;
#X msg 257 280 -1;
#X msg 335 280 1;
#X obj 124 149 t b b b;
#X obj 124 74 r NUDGE!;
#X obj 157 193 r NUDGE-RANGE;
#X obj 247 308 inlet;
#X obj 232 397 outlet;
#X obj 124 96 spigot;
#X obj 185 79 r parameters2-s;
#X connect 0 0 4 0;
#X connect 1 0 2 0;
#X connect 2 0 14 0;
#X connect 3 0 7 0;
#X connect 4 0 6 0;
#X connect 5 0 2 0;
#X connect 5 1 2 1;
#X connect 6 0 5 0;
#X connect 7 0 8 0;
#X connect 7 1 9 0;
#X connect 8 0 6 1;
#X connect 9 0 6 1;
#X connect 10 0 0 0;
#X connect 10 1 1 0;
#X connect 10 2 3 0;
#X connect 11 0 15 0;
#X connect 12 0 0 1;
#X connect 13 0 1 1;
#X connect 15 0 10 0;
#X connect 16 0 15 1;
#X restore 829 594 pd nudge-parameters;
#X obj 57 571 r \$0-kaseta-delay-head-1-volume-s;
#X obj 57 649 s \$0-kaseta-delay-head-1-volume-r;
#X obj 316 570 r \$0-kaseta-delay-head-2-volume-s;
#X obj 316 648 s \$0-kaseta-delay-head-2-volume-r;
#X obj 569 570 r \$0-kaseta-delay-head-3-volume-s;
#X obj 569 648 s \$0-kaseta-delay-head-3-volume-r;
#X obj 829 570 r \$0-kaseta-delay-head-4-volume-s;
#X obj 829 648 s \$0-kaseta-delay-head-4-volume-r;
#X obj 229 66 clip 0 127;
#N canvas 0 22 1916 1001 nudge-parameters 0;
#X obj 124 234 random;
#X obj 232 335 f;
#X obj 232 368 +;
#X obj 257 166 random 2;
#X obj 124 275 t f f;
#X obj 124 351 t b f;
#X obj 124 297 *;
#X obj 257 188 sel 0 1;
#X msg 257 280 -1;
#X msg 335 280 1;
#X obj 124 149 t b b b;
#X obj 124 74 r NUDGE!;
#X obj 157 193 r NUDGE-RANGE;
#X obj 247 308 inlet;
#X obj 232 397 outlet;
#X obj 124 96 spigot;
#X obj 185 79 r parameters2-s;
#X connect 0 0 4 0;
#X connect 1 0 2 0;
#X connect 2 0 14 0;
#X connect 3 0 7 0;
#X connect 4 0 6 0;
#X connect 5 0 2 0;
#X connect 5 1 2 1;
#X connect 6 0 5 0;
#X connect 7 0 8 0;
#X connect 7 1 9 0;
#X connect 8 0 6 1;
#X connect 9 0 6 1;
#X connect 10 0 0 0;
#X connect 10 1 1 0;
#X connect 10 2 3 0;
#X connect 11 0 15 0;
#X connect 12 0 0 1;
#X connect 13 0 1 1;
#X connect 15 0 10 0;
#X connect 16 0 15 1;
#X restore 229 44 pd nudge-parameters;
#X obj 229 21 r \$0-kaseta-dry-wet-s;
#X obj 229 98 s \$0-kaseta-dry-wet-r;
#X obj 621 193 clip 0 127;
#N canvas 0 22 1916 1001 nudge-parameters 0;
#X obj 124 234 random;
#X obj 232 335 f;
#X obj 232 368 +;
#X obj 257 166 random 2;
#X obj 124 275 t f f;
#X obj 124 351 t b f;
#X obj 124 297 *;
#X obj 257 188 sel 0 1;
#X msg 257 280 -1;
#X msg 335 280 1;
#X obj 124 149 t b b b;
#X obj 124 74 r NUDGE!;
#X obj 157 193 r NUDGE-RANGE;
#X obj 247 308 inlet;
#X obj 232 397 outlet;
#X obj 124 96 spigot;
#X obj 185 79 r parameters2-s;
#X connect 0 0 4 0;
#X connect 1 0 2 0;
#X connect 2 0 14 0;
#X connect 3 0 7 0;
#X connect 4 0 6 0;
#X connect 5 0 2 0;
#X connect 5 1 2 1;
#X connect 6 0 5 0;
#X connect 7 0 8 0;
#X connect 7 1 9 0;
#X connect 8 0 6 1;
#X connect 9 0 6 1;
#X connect 10 0 0 0;
#X connect 10 1 1 0;
#X connect 10 2 3 0;
#X connect 11 0 15 0;
#X connect 12 0 0 1;
#X connect 13 0 1 1;
#X connect 15 0 10 0;
#X connect 16 0 15 1;
#X restore 621 171 pd nudge-parameters;
#X obj 621 147 r \$0-kaseta-tone-s;
#X obj 620 225 s \$0-kaseta-tone-r;
#X obj 60 736 clip 0 127;
#N canvas 0 22 1916 1001 nudge-parameters 0;
#X obj 124 234 random;
#X obj 232 335 f;
#X obj 232 368 +;
#X obj 257 166 random 2;
#X obj 124 275 t f f;
#X obj 124 351 t b f;
#X obj 124 297 *;
#X obj 257 188 sel 0 1;
#X msg 257 280 -1;
#X msg 335 280 1;
#X obj 124 149 t b b b;
#X obj 124 74 r NUDGE!;
#X obj 157 193 r NUDGE-RANGE;
#X obj 247 308 inlet;
#X obj 232 397 outlet;
#X obj 124 96 spigot;
#X obj 185 79 r parameters2-s;
#X connect 0 0 4 0;
#X connect 1 0 2 0;
#X connect 2 0 14 0;
#X connect 3 0 7 0;
#X connect 4 0 6 0;
#X connect 5 0 2 0;
#X connect 5 1 2 1;
#X connect 6 0 5 0;
#X connect 7 0 8 0;
#X connect 7 1 9 0;
#X connect 8 0 6 1;
#X connect 9 0 6 1;
#X connect 10 0 0 0;
#X connect 10 1 1 0;
#X connect 10 2 3 0;
#X connect 11 0 15 0;
#X connect 12 0 0 1;
#X connect 13 0 1 1;
#X connect 15 0 10 0;
#X connect 16 0 15 1;
#X restore 60 714 pd nudge-parameters;
#X obj 319 735 clip 0 127;
#N canvas 0 22 1916 1001 nudge-parameters 0;
#X obj 124 234 random;
#X obj 232 335 f;
#X obj 232 368 +;
#X obj 257 166 random 2;
#X obj 124 275 t f f;
#X obj 124 351 t b f;
#X obj 124 297 *;
#X obj 257 188 sel 0 1;
#X msg 257 280 -1;
#X msg 335 280 1;
#X obj 124 149 t b b b;
#X obj 124 74 r NUDGE!;
#X obj 157 193 r NUDGE-RANGE;
#X obj 247 308 inlet;
#X obj 232 397 outlet;
#X obj 124 96 spigot;
#X obj 185 79 r parameters2-s;
#X connect 0 0 4 0;
#X connect 1 0 2 0;
#X connect 2 0 14 0;
#X connect 3 0 7 0;
#X connect 4 0 6 0;
#X connect 5 0 2 0;
#X connect 5 1 2 1;
#X connect 6 0 5 0;
#X connect 7 0 8 0;
#X connect 7 1 9 0;
#X connect 8 0 6 1;
#X connect 9 0 6 1;
#X connect 10 0 0 0;
#X connect 10 1 1 0;
#X connect 10 2 3 0;
#X connect 11 0 15 0;
#X connect 12 0 0 1;
#X connect 13 0 1 1;
#X connect 15 0 10 0;
#X connect 16 0 15 1;
#X restore 319 713 pd nudge-parameters;
#X obj 572 735 clip 0 127;
#N canvas 0 22 1916 1001 nudge-parameters 0;
#X obj 124 234 random;
#X obj 232 335 f;
#X obj 232 368 +;
#X obj 257 166 random 2;
#X obj 124 275 t f f;
#X obj 124 351 t b f;
#X obj 124 297 *;
#X obj 257 188 sel 0 1;
#X msg 257 280 -1;
#X msg 335 280 1;
#X obj 124 149 t b b b;
#X obj 124 74 r NUDGE!;
#X obj 157 193 r NUDGE-RANGE;
#X obj 247 308 inlet;
#X obj 232 397 outlet;
#X obj 124 96 spigot;
#X obj 185 79 r parameters2-s;
#X connect 0 0 4 0;
#X connect 1 0 2 0;
#X connect 2 0 14 0;
#X connect 3 0 7 0;
#X connect 4 0 6 0;
#X connect 5 0 2 0;
#X connect 5 1 2 1;
#X connect 6 0 5 0;
#X connect 7 0 8 0;
#X connect 7 1 9 0;
#X connect 8 0 6 1;
#X connect 9 0 6 1;
#X connect 10 0 0 0;
#X connect 10 1 1 0;
#X connect 10 2 3 0;
#X connect 11 0 15 0;
#X connect 12 0 0 1;
#X connect 13 0 1 1;
#X connect 15 0 10 0;
#X connect 16 0 15 1;
#X restore 572 713 pd nudge-parameters;
#X obj 832 735 clip 0 127;
#N canvas 0 22 1916 1001 nudge-parameters 0;
#X obj 124 234 random;
#X obj 232 335 f;
#X obj 232 368 +;
#X obj 257 166 random 2;
#X obj 124 275 t f f;
#X obj 124 351 t b f;
#X obj 124 297 *;
#X obj 257 188 sel 0 1;
#X msg 257 280 -1;
#X msg 335 280 1;
#X obj 124 149 t b b b;
#X obj 124 74 r NUDGE!;
#X obj 157 193 r NUDGE-RANGE;
#X obj 247 308 inlet;
#X obj 232 397 outlet;
#X obj 124 96 spigot;
#X obj 185 79 r parameters2-s;
#X connect 0 0 4 0;
#X connect 1 0 2 0;
#X connect 2 0 14 0;
#X connect 3 0 7 0;
#X connect 4 0 6 0;
#X connect 5 0 2 0;
#X connect 5 1 2 1;
#X connect 6 0 5 0;
#X connect 7 0 8 0;
#X connect 7 1 9 0;
#X connect 8 0 6 1;
#X connect 9 0 6 1;
#X connect 10 0 0 0;
#X connect 10 1 1 0;
#X connect 10 2 3 0;
#X connect 11 0 15 0;
#X connect 12 0 0 1;
#X connect 13 0 1 1;
#X connect 15 0 10 0;
#X connect 16 0 15 1;
#X restore 832 713 pd nudge-parameters;
#X obj 60 690 r \$0-kaseta-delay-head-1-pan-s;
#X obj 60 768 s \$0-kaseta-delay-head-1-pan-r;
#X obj 319 690 r \$0-kaseta-delay-head-2-pan-s;
#X obj 319 767 s \$0-kaseta-delay-head-2-pan-r;
#X obj 572 689 r \$0-kaseta-delay-head-3-pan-s;
#X obj 572 767 s \$0-kaseta-delay-head-3-pan-r;
#X obj 832 689 r \$0-kaseta-delay-head-4-pan-s;
#X obj 832 767 s \$0-kaseta-delay-head-4-pan-r;
#X connect 0 0 9 0;
#X connect 1 0 0 0;
#X connect 2 0 11 0;
#X connect 3 0 2 0;
#X connect 4 0 7 0;
#X connect 5 0 4 0;
#X connect 6 0 5 0;
#X connect 8 0 1 0;
#X connect 10 0 3 0;
#X connect 12 0 15 0;
#X connect 13 0 12 0;
#X connect 14 0 13 0;
#X connect 16 0 19 0;
#X connect 17 0 16 0;
#X connect 18 0 17 0;
#X connect 20 0 23 0;
#X connect 21 0 20 0;
#X connect 22 0 21 0;
#X connect 24 0 29 0;
#X connect 25 0 24 0;
#X connect 26 0 31 0;
#X connect 27 0 26 0;
#X connect 28 0 25 0;
#X connect 30 0 27 0;
#X connect 32 0 35 0;
#X connect 33 0 32 0;
#X connect 34 0 33 0;
#X connect 36 0 45 0;
#X connect 37 0 36 0;
#X connect 38 0 47 0;
#X connect 39 0 38 0;
#X connect 40 0 49 0;
#X connect 41 0 40 0;
#X connect 42 0 51 0;
#X connect 43 0 42 0;
#X connect 44 0 37 0;
#X connect 46 0 39 0;
#X connect 48 0 41 0;
#X connect 50 0 43 0;
#X connect 52 0 61 0;
#X connect 53 0 52 0;
#X connect 54 0 63 0;
#X connect 55 0 54 0;
#X connect 56 0 65 0;
#X connect 57 0 56 0;
#X connect 58 0 67 0;
#X connect 59 0 58 0;
#X connect 60 0 53 0;
#X connect 62 0 55 0;
#X connect 64 0 57 0;
#X connect 66 0 59 0;
#X connect 68 0 71 0;
#X connect 69 0 68 0;
#X connect 70 0 69 0;
#X connect 72 0 75 0;
#X connect 73 0 72 0;
#X connect 74 0 73 0;
#X connect 76 0 85 0;
#X connect 77 0 76 0;
#X connect 78 0 87 0;
#X connect 79 0 78 0;
#X connect 80 0 89 0;
#X connect 81 0 80 0;
#X connect 82 0 91 0;
#X connect 83 0 82 0;
#X connect 84 0 77 0;
#X connect 86 0 79 0;
#X connect 88 0 81 0;
#X connect 90 0 83 0;
#X restore 94 591 pd parameter-nudging-system;
#X obj 553 548 / 127;
#X obj 105 103 cnv 5 5 5 empty empty IN 0 0 0 8 #fcfcfc #404040 0;
#X obj 237 102 cnv 5 5 5 empty empty CONTROL\\\ 1 0 0 0 8 #fcfcfc #7474a4
0;
#X obj 107 128 cnv 5 5 5 empty empty KASETA 0 0 0 12 #fcfcfc #404040
0;
#X obj 154 128 cnv 5 5 5 empty \$0-instance-num 2 0 0 0 12 #fcfcfc
#404040 0;
#X obj 110 145 hsl 128 15 1.27 127 1 1 \$0-kaseta-pre-amp-s \$0-kaseta-pre-amp-r
PRE-AMP 133 7 0 10 #fcfcfc #000000 #000000 8200 1;
#X obj 110 175 hsl 128 15 0 127 0 1 \$0-kaseta-drive-s \$0-kaseta-drive-r
DRIVE 133 7 0 10 #fcfcfc #000000 #000000 4800 1;
#X obj 110 190 hsl 128 15 0 127 0 1 \$0-kaseta-bias-s \$0-kaseta-bias-r
BIAS 133 7 0 10 #fcfcfc #000000 #000000 0 1;
#X obj 1628 972 kaseta~, f 34;
#X obj 840 108 inlet~ IN;
#X obj 1615 106 r~ \$0-kaseta-in;
#X obj 1631 130 r \$0-kaseta-pre-amp;
#X obj 553 525 r \$0-kaseta-pre-amp-s;
#X obj 553 571 s \$0-kaseta-pre-amp;
#X obj 961 169 snapshot~;
#X obj 975 127 loadbang;
#X obj 975 148 metro;
#X obj 553 706 / 127;
#X obj 553 683 r \$0-kaseta-drive-s;
#X obj 553 779 / 127;
#X obj 553 756 r \$0-kaseta-bias-s;
#X obj 839 132 s~ \$0-kaseta-in;
#X obj 1650 240 r \$0-kaseta-drive-pot;
#X obj 1661 294 r \$0-kaseta-bias-pot;
#X obj 553 728 s \$0-kaseta-drive-pot;
#X obj 553 801 s \$0-kaseta-bias-pot;
#X obj 1673 345 r \$0-kaseta-wow-depth-pot;
#X obj 330 144 hsl 128 15 0 127 0 1 \$0-kaseta-wow-depth-s \$0-kaseta-wow-depth-r
DEPTH 133 7 0 10 #fcfcfc #000000 #000000 400 1;
#X obj 741 612 / 127;
#X obj 741 589 r \$0-kaseta-wow-depth-s;
#X obj 741 634 s \$0-kaseta-wow-depth-pot;
#X obj 542 145 hsl 128 15 0 127 0 1 \$0-kaseta-delay-length-s \$0-kaseta-delay-length-r
DELAY 133 7 0 10 #fcfcfc #000000 #000000 9600 1;
#X obj 542 184 hsl 128 15 0 127 0 1 \$0-kaseta-delay-head-1-position-s
\$0-kaseta-delay-head-1-position-r H1 133 7 0 10 #fcfcfc #000000 #000000
0 1;
#X obj 542 199 hsl 128 15 0 127 0 1 \$0-kaseta-delay-head-2-position-s
\$0-kaseta-delay-head-2-position-r H2 133 7 0 10 #fcfcfc #000000 #000000
0 1;
#X obj 542 214 hsl 128 15 0 127 0 1 \$0-kaseta-delay-head-3-position-s
\$0-kaseta-delay-head-3-position-r H3 133 7 0 10 #fcfcfc #000000 #000000
0 1;
#X obj 542 229 hsl 128 15 0 127 0 1 \$0-kaseta-delay-head-4-position-s
\$0-kaseta-delay-head-4-position-r H4 133 7 0 10 #fcfcfc #000000 #000000
0 1;
#X obj 741 682 / 127;
#X obj 741 659 r \$0-kaseta-delay-length-s;
#X obj 741 704 s \$0-kaseta-delay-length-pot;
#X obj 742 752 / 127;
#X obj 742 729 r \$0-kaseta-delay-head-1-position-s;
#X obj 742 774 s \$0-kaseta-delay-head-1-position-pot;
#X obj 742 820 / 127;
#X obj 742 797 r \$0-kaseta-delay-head-2-position-s;
#X obj 742 842 s \$0-kaseta-delay-head-2-position-pot;
#X obj 741 886 / 127;
#X obj 741 863 r \$0-kaseta-delay-head-3-position-s;
#X obj 741 908 s \$0-kaseta-delay-head-3-position-pot;
#X obj 741 954 / 127;
#X obj 741 931 r \$0-kaseta-delay-head-4-position-s;
#X obj 741 976 s \$0-kaseta-delay-head-4-position-pot;
#X obj 1685 402 r \$0-kaseta-delay-length-pot;
#X obj 1701 507 r \$0-kaseta-delay-head-1-position-pot;
#X obj 1709 557 r \$0-kaseta-delay-head-2-position-pot;
#X obj 1717 609 r \$0-kaseta-delay-head-3-position-pot;
#X obj 1725 659 r \$0-kaseta-delay-head-4-position-pot;
#X text 693 189 P;
#X text 693 204 O;
#X text 693 219 S;
#X obj 542 314 hsl 128 15 0 127 0 1 \$0-kaseta-delay-head-1-feedback-amp-s
\$0-kaseta-delay-head-1-feedback-amp-r H1 133 7 0 10 #fcfcfc #000000
#000000 4300 1;
#X obj 542 329 hsl 128 15 0 127 0 1 \$0-kaseta-delay-head-2-feedback-amp-s
\$0-kaseta-delay-head-2-feedback-amp-r H2 133 7 0 10 #fcfcfc #000000
#000000 0 1;
#X obj 542 344 hsl 128 15 0 127 0 1 \$0-kaseta-delay-head-3-feedback-amp-s
\$0-kaseta-delay-head-3-feedback-amp-r H3 133 7 0 10 #fcfcfc #000000
#000000 0 1;
#X obj 542 359 hsl 128 15 0 127 0 1 \$0-kaseta-delay-head-4-feedback-amp-s
\$0-kaseta-delay-head-4-feedback-amp-r H4 133 7 0 10 #fcfcfc #000000
#000000 0 1;
#X text 693 319 F;
#X text 693 334 B;
#X text 693 349 K;
#X obj 1267 541 / 127;
#X obj 1267 609 / 127;
#X obj 1266 675 / 127;
#X obj 1266 743 / 127;
#X obj 1267 518 r \$0-kaseta-delay-head-1-feedback-amp-s;
#X obj 1267 563 s \$0-kaseta-delay-head-1-feedback-amp-pot;
#X obj 1267 586 r \$0-kaseta-delay-head-2-feedback-amp-s;
#X obj 1267 631 s \$0-kaseta-delay-head-2-feedback-amp-pot;
#X obj 1266 652 r \$0-kaseta-delay-head-3-feedback-amp-s;
#X obj 1266 697 s \$0-kaseta-delay-head-3-feedback-amp-pot;
#X obj 1266 720 r \$0-kaseta-delay-head-4-feedback-amp-s;
#X obj 1266 765 s \$0-kaseta-delay-head-4-feedback-amp-pot;
#X obj 1735 714 r \$0-kaseta-delay-head-1-feedback-amp-pot;
#X obj 1744 761 r \$0-kaseta-delay-head-2-feedback-amp-pot;
#X obj 1753 808 r \$0-kaseta-delay-head-3-feedback-amp-pot;
#X obj 1763 857 r \$0-kaseta-delay-head-4-feedback-amp-pot;
#X obj 542 249 hsl 128 15 0 127 0 1 \$0-kaseta-delay-head-1-volume-s
\$0-kaseta-delay-head-1-volume-r H1 133 7 0 10 #fcfcfc #000000 #000000
2700 1;
#X obj 542 264 hsl 128 15 0 127 0 1 \$0-kaseta-delay-head-2-volume-s
\$0-kaseta-delay-head-2-volume-r H2 133 7 0 10 #fcfcfc #000000 #000000
0 1;
#X obj 542 279 hsl 128 15 0 127 0 1 \$0-kaseta-delay-head-3-volume-s
\$0-kaseta-delay-head-3-volume-r H3 133 7 0 10 #fcfcfc #000000 #000000
0 1;
#X obj 542 294 hsl 128 15 0 127 0 1 \$0-kaseta-delay-head-4-volume-s
\$0-kaseta-delay-head-4-volume-r H4 133 7 0 10 #fcfcfc #000000 #000000
0 1;
#X text 693 254 V;
#X text 693 269 O;
#X text 693 284 L;
#X obj 1266 813 / 127;
#X obj 1266 881 / 127;
#X obj 1265 947 / 127;
#X obj 1265 1015 / 127;
#X obj 1266 790 r \$0-kaseta-delay-head-1-volume-s;
#X obj 1266 835 s \$0-kaseta-delay-head-1-volume-pot;
#X obj 1266 859 r \$0-kaseta-delay-head-2-volume-s;
#X obj 1266 903 s \$0-kaseta-delay-head-2-volume-pot;
#X obj 1265 924 r \$0-kaseta-delay-head-3-volume-s;
#X obj 1265 969 s \$0-kaseta-delay-head-3-volume-pot;
#X obj 1265 992 r \$0-kaseta-delay-head-4-volume-s;
#X obj 1265 1037 s \$0-kaseta-delay-head-4-volume-pot;
#X obj 1850 99 r \$0-kaseta-delay-head-1-volume-pot;
#X obj 1859 146 r \$0-kaseta-delay-head-2-volume-pot;
#X obj 1868 193 r \$0-kaseta-delay-head-3-volume-pot;
#X obj 1877 242 r \$0-kaseta-delay-head-4-volume-pot;
#X text 638 126 DELAY;
#X text 176 125 HYSTERESIS;
#X obj 1189 66 cnv 5 20 20 empty empty INPUT\\\ BINDINGS 0 0 0 20 #ffffff
#2f004d 0;
#X obj 963 483 cnv 5 20 20 empty empty SLIDER\\\ BINDINGS 0 0 0 20
#ffffff #2f004d 0;
#X obj 1906 72 cnv 5 20 20 empty empty SIGNALS\\\ TO\\\ EXTERNAL 0
0 0 20 #ffffff #2f004d 0;
#X obj 396 45 cnv 5 20 20 empty empty INTERFACE 0 0 0 20 #ffffff #2f004d
0;
#X obj 66 779 cnv 5 20 20 empty empty OUTPUT\\\ BINDINGS 0 0 0 20 #ffffff
#2f004d 0;
#X obj 75 565 cnv 5 20 20 empty empty AUTOMATONISM\\\ INTEGRATION 0
0 0 20 #ffffff #2f004d 0;
#X obj 2464 2961;
#X obj 112 217 hradio 15 1 0 2 \$0-kaseta-switch-1-s \$0-kaseta-switch-1-r
SW1 33 7 0 10 #fcfcfc #000000 #000000 0;
#X obj 112 232 hradio 15 1 0 2 \$0-kaseta-switch-2-s \$0-kaseta-switch-2-r
SW2 33 7 0 10 #fcfcfc #000000 #000000 0;
#X obj 112 247 hradio 15 1 0 2 \$0-kaseta-switch-3-s \$0-kaseta-switch-3-r
SW3 33 7 0 10 #fcfcfc #000000 #000000 0;
#X obj 112 262 hradio 15 1 0 2 \$0-kaseta-switch-4-s \$0-kaseta-switch-4-r
SW4 33 7 0 10 #fcfcfc #000000 #000000 0;
#X obj 112 277 hradio 15 1 0 2 \$0-kaseta-switch-5-s \$0-kaseta-switch-5-r
SW5 33 7 0 10 #fcfcfc #000000 #000000 0;
#X obj 112 337 hradio 15 1 0 2 \$0-kaseta-switch-9-s \$0-kaseta-switch-9-r
SW9 33 7 0 10 #fcfcfc #000000 #000000 0;
#X obj 112 292 hradio 15 1 0 2 \$0-kaseta-switch-6-s \$0-kaseta-switch-6-r
SW6 33 7 0 10 #fcfcfc #000000 #000000 0;
#X obj 112 307 hradio 15 1 0 2 \$0-kaseta-switch-7-s \$0-kaseta-switch-7-r
SW7 33 7 0 10 #fcfcfc #000000 #000000 0;
#X obj 112 322 hradio 15 1 0 2 \$0-kaseta-switch-8-s \$0-kaseta-switch-8-r
SW8 33 7 0 10 #fcfcfc #000000 #000000 0;
#X obj 112 352 hradio 15 1 0 2 \$0-kaseta-switch-10-s \$0-kaseta-switch-10-r
SW10 33 7 0 10 #fcfcfc #000000 #000000 0;
#X obj 110 160 hsl 128 15 0 127 0 1 \$0-kaseta-dry-wet-s \$0-kaseta-dry-wet-r
DRY/WET 133 7 0 10 #fcfcfc #000000 #000000 12700 1;
#X obj 553 630 / 127;
#X obj 553 607 r \$0-kaseta-dry-wet-s;
#X obj 553 652 s \$0-kaseta-dry-wet-pot;
#X obj 1642 188 r \$0-kaseta-dry-wet-pot;
#X obj 257 259 tgl 15 0 \$0-kaseta-led-1-s \$0-kaseta-led-1-r empty
17 7 0 10 #fcfcfc #000000 #000000 0 1;
#X obj 272 259 tgl 15 0 \$0-kaseta-led-2-s \$0-kaseta-led-2-r empty
17 7 0 10 #fcfcfc #000000 #000000 0 1;
#X obj 287 259 tgl 15 0 \$0-kaseta-led-3-s \$0-kaseta-led-3-r empty
17 7 0 10 #fcfcfc #000000 #000000 0 1;
#X obj 302 259 tgl 15 0 \$0-kaseta-led-4-s \$0-kaseta-led-4-r empty
17 7 0 10 #fcfcfc #000000 #000000 0 1;
#X obj 257 274 tgl 15 0 \$0-kaseta-led-5-s \$0-kaseta-led-5-r empty
17 7 0 10 #fcfcfc #000000 #000000 0 1;
#X obj 272 274 tgl 15 0 \$0-kaseta-led-6-s \$0-kaseta-led-6-r empty
17 7 0 10 #fcfcfc #000000 #000000 0 1;
#X obj 287 274 tgl 15 0 \$0-kaseta-led-7-s \$0-kaseta-led-7-r empty
17 7 0 10 #fcfcfc #000000 #000000 0 1;
#X obj 302 274 tgl 15 0 \$0-kaseta-led-8-s \$0-kaseta-led-8-r empty
17 7 0 10 #fcfcfc #000000 #000000 0 1;
#X text 269 238 DISPLAY;
#X obj 1693 1397 s \$0-kaseta-led-1-r;
#X obj 1693 1376 snapshot~;
#X obj 1565 915 loadbang;
#X obj 1565 936 metro;
#X obj 1717 1331 snapshot~;
#X obj 1717 1352 s \$0-kaseta-led-2-r;
#X obj 1742 1284 snapshot~;
#X obj 1768 1239 snapshot~;
#X obj 1794 1197 snapshot~;
#X obj 1819 1152 snapshot~;
#X obj 1843 1105 snapshot~;
#X obj 1868 1060 snapshot~;
#X obj 1742 1305 s \$0-kaseta-led-3-r;
#X obj 1768 1260 s \$0-kaseta-led-4-r;
#X obj 1794 1218 s \$0-kaseta-led-5-r;
#X obj 1819 1173 s \$0-kaseta-led-6-r;
#X obj 1843 1126 s \$0-kaseta-led-7-r;
#X obj 1868 1080 s \$0-kaseta-led-8-r;
#X obj 1881 1015 snapshot~;
#X obj 1881 1035 s \$0-kaseta-impulse-r;
#X obj 317 259 tgl 30 0 \$0-kaseta-impulse-s \$0-kaseta-impulse-r empty
17 7 0 10 #fcfcfc #000000 #000000 0 1;
#X obj 91 936 outlet~ IMPULSE;
#X obj 91 914 r~ \$0-kaseta-impulse;
#X obj 2015 1035 s~ \$0-kaseta-impulse;
#X obj 542 165 hsl 128 15 0 127 0 1 \$0-kaseta-tone-s \$0-kaseta-tone-r
TONE 133 7 0 10 #fcfcfc #000000 #000000 6300 1;
#X msg 1697 476 tone \$1;
#X obj 1697 451 r \$0-kaseta-tone-pot;
#X obj 553 851 / 127;
#X obj 553 828 r \$0-kaseta-tone-s;
#X obj 553 873 s \$0-kaseta-tone-pot;
#X text 390 124 WOW/FLUTTER;
#X text 392 162 ^;
#X obj 542 379 hsl 128 15 0 127 0 1 \$0-kaseta-delay-head-1-pan-s \$0-kaseta-delay-head-1-pan-r
H1 133 7 0 10 #fcfcfc #000000 #000000 0 1;
#X obj 542 394 hsl 128 15 0 127 0 1 \$0-kaseta-delay-head-2-pan-s \$0-kaseta-delay-head-2-pan-r
H2 133 7 0 10 #fcfcfc #000000 #000000 0 1;
#X obj 542 409 hsl 128 15 0 127 0 1 \$0-kaseta-delay-head-3-pan-s \$0-kaseta-delay-head-3-pan-r
H3 133 7 0 10 #fcfcfc #000000 #000000 2100 1;
#X obj 542 424 hsl 128 15 0 127 0 1 \$0-kaseta-delay-head-4-pan-s \$0-kaseta-delay-head-4-pan-r
H4 133 7 0 10 #fcfcfc #000000 #000000 2500 1;
#X text 693 384 P;
#X text 693 399 A;
#X text 693 414 N;
#X obj 1000 600 / 127;
#X obj 1000 668 / 127;
#X obj 999 734 / 127;
#X obj 999 802 / 127;
#X obj 1000 577 r \$0-kaseta-delay-head-1-pan-s;
#X obj 1000 622 s \$0-kaseta-delay-head-1-pan-pot;
#X obj 1000 646 r \$0-kaseta-delay-head-2-pan-s;
#X obj 1000 690 s \$0-kaseta-delay-head-2-pan-pot;
#X obj 999 711 r \$0-kaseta-delay-head-3-pan-s;
#X obj 999 756 s \$0-kaseta-delay-head-3-pan-pot;
#X obj 999 779 r \$0-kaseta-delay-head-4-pan-s;
#X obj 999 824 s \$0-kaseta-delay-head-4-pan-pot;
#X obj 1900 292 r \$0-kaseta-delay-head-1-pan-pot;
#X obj 1909 339 r \$0-kaseta-delay-head-2-pan-pot;
#X obj 1918 386 r \$0-kaseta-delay-head-3-pan-pot;
#X obj 1927 435 r \$0-kaseta-delay-head-4-pan-pot;
#X obj 1619 1452 s~ \$0-kaseta-out-l;
#X obj 1633 1426 s~ \$0-kaseta-out-r;
#X obj 90 809 r~ \$0-kaseta-out-l;
#X obj 90 859 r~ \$0-kaseta-out-r;
#X obj 90 831 outlet~ OUT_L;
#X obj 90 881 outlet~ OUT_R;
#X obj 393 438 cnv 5 5 5 empty empty RIGHT 0 0 0 8 #fcfcfc #404040
0;
#X obj 690 442 cnv 5 5 5 empty empty IMPULSE 0 0 0 8 #fcfcfc #404040
0;
#X msg 1661 318 bias \$1;
#X msg 1650 262 drive \$1;
#X msg 1642 210 dry_wet \$1;
#X msg 1631 153 pre_amp \$1;
#X msg 1928 459 head_4_pan \$1;
#X msg 1918 410 head_3_pan \$1;
#X msg 1909 363 head_2_pan \$1;
#X msg 1900 316 head_1_pan \$1;
#X msg 1877 267 head_4_volume \$1;
#X msg 1868 217 head_3_volume \$1;
#X msg 1859 170 head_2_volume \$1;
#X msg 1851 123 head_1_volume \$1;
#X obj 960 105 inlet~ CONTROL_1;
#X obj 961 194 s \$0-kaseta-control-1;
#X obj 1101 168 snapshot~;
#X obj 1115 126 loadbang;
#X obj 1115 147 metro;
#X obj 1100 104 inlet~ CONTROL_2;
#X obj 1101 193 s \$0-kaseta-control-2;
#X obj 1240 168 snapshot~;
#X obj 1254 126 loadbang;
#X obj 1254 147 metro;
#X obj 1239 104 inlet~ CONTROL_3;
#X obj 1240 193 s \$0-kaseta-control-3;
#X obj 1379 166 snapshot~;
#X obj 1393 124 loadbang;
#X obj 1393 145 metro;
#X obj 1378 102 inlet~ CONTROL_4;
#X obj 1379 191 s \$0-kaseta-control-4;
#X msg 1701 531 head_1_position \$1;
#X msg 1709 581 head_2_position \$1;
#X msg 1948 509 switch_1 \$1;
#X msg 1964 561 switch_2 \$1;
#X msg 1975 613 switch_3 \$1;
#X msg 1989 665 switch_4 \$1;
#X msg 2004 714 switch_5 \$1;
#X msg 2114 506 switch_6 \$1;
#X msg 2130 558 switch_7 \$1;
#X msg 2141 610 switch_8 \$1;
#X msg 2155 662 switch_9 \$1;
#X msg 2170 711 switch_10 \$1;
#X msg 1717 633 head_3_position \$1;
#X msg 1725 683 head_4_position \$1;
#X msg 1735 738 head_1_feedback \$1;
#X msg 1744 785 head_2_feedback \$1;
#X msg 1753 831 head_3_feedback \$1;
#X msg 1763 881 head_4_feedback \$1;
#X msg 1685 426 speed \$1;
#X msg 1673 369 wow_flutter \$1;
#X obj 392 105 cnv 5 5 5 empty empty CONTROL\\\ 2 0 0 0 8 #fcfcfc #7474a4
0;
#X obj 544 103 cnv 5 5 5 empty empty CONTROL\\\ 3 0 0 0 8 #fcfcfc #7474a4
0;
#X obj 679 102 cnv 5 5 5 empty empty CONTROL\\\ 4 0 0 0 8 #fcfcfc #7474a4
0;
#X obj 383 259 tgl 30 0 \$0-kaseta-button-hold-s \$0-kaseta-button-hold-r
empty 17 7 0 10 #fcfcfc #000000 #000000 0 1;
#X obj 1947 484 r \$0-kaseta-switch-1-s;
#X obj 1963 536 r \$0-kaseta-switch-2-s;
#X obj 1975 588 r \$0-kaseta-switch-3-s;
#X obj 1988 640 r \$0-kaseta-switch-4-s;
#X obj 2003 689 r \$0-kaseta-switch-5-s;
#X obj 2113 481 r \$0-kaseta-switch-6-s;
#X obj 2129 533 r \$0-kaseta-switch-7-s;
#X obj 2140 585 r \$0-kaseta-switch-8-s;
#X obj 2154 637 r \$0-kaseta-switch-9-s;
#X obj 2169 686 r \$0-kaseta-switch-10-s;
#X obj 2176 737 r \$0-kaseta-button-hold-s;
#X msg 2176 760 button \$1;
#X obj 658 95 tgl 15 0 \$0-kaseta-control-4-connected-s \$0-kaseta-control-4-connected-r
empty 17 7 0 10 #fcfcfc #000000 #000000 0 1;
#X obj 525 95 tgl 15 0 \$0-kaseta-control-3-connected-s \$0-kaseta-control-3-connected-r
empty 17 7 0 10 #fcfcfc #000000 #000000 0 1;
#X obj 372 95 tgl 15 0 \$0-kaseta-control-2-connected-s \$0-kaseta-control-2-connected-r
empty 17 7 0 10 #fcfcfc #000000 #000000 0 1;
#X obj 218 94 tgl 15 0 \$0-kaseta-control-1-connected-s \$0-kaseta-control-1-connected-r
empty 17 7 0 10 #fcfcfc #000000 #000000 0 1;
#X obj 2101 96 r \$0-kaseta-control-1;
#X msg 2101 121 control_1 \$1;
#X obj 2111 150 r \$0-kaseta-control-2;
#X msg 2111 175 control_2 \$1;
#X obj 2120 201 r \$0-kaseta-control-3;
#X msg 2120 226 control_3 \$1;
#X obj 2129 252 r \$0-kaseta-control-4;
#X msg 2129 277 control_4 \$1;
#X msg 2264 119 control_1_connected \$1;
#X msg 2272 172 control_2_connected \$1;
#X msg 2284 221 control_3_connected \$1;
#X msg 2294 274 control_4_connected \$1;
#X obj 2264 94 r \$0-kaseta-control-1-connected-s;
#X obj 2272 147 r \$0-kaseta-control-2-connected-s;
#X obj 2284 196 r \$0-kaseta-control-3-connected-s;
#X obj 2294 247 r \$0-kaseta-control-4-connected-s;
#X connect 1 0 3 0;
#X connect 3 0 4 0;
#X connect 4 0 2 0;
#X connect 7 0 20 0;
#X connect 15 0 200 0;
#X connect 15 1 201 0;
#X connect 15 2 146 0;
#X connect 15 3 149 0;
#X connect 15 4 151 0;
#X connect 15 5 152 0;
#X connect 15 6 153 0;
#X connect 15 7 154 0;
#X connect 15 8 155 0;
#X connect 15 9 156 0;
#X connect 15 10 163 0;
#X connect 15 11 168 0;
#X connect 16 0 28 0;
#X connect 17 0 15 0;
#X connect 18 0 211 0;
#X connect 19 0 7 0;
#X connect 21 0 221 0;
#X connect 22 0 23 0;
#X connect 23 0 21 0;
#X connect 24 0 31 0;
#X connect 25 0 24 0;
#X connect 26 0 32 0;
#X connect 27 0 26 0;
#X connect 29 0 209 0;
#X connect 30 0 208 0;
#X connect 33 0 256 0;
#X connect 35 0 37 0;
#X connect 36 0 35 0;
#X connect 43 0 45 0;
#X connect 44 0 43 0;
#X connect 46 0 48 0;
#X connect 47 0 46 0;
#X connect 49 0 51 0;
#X connect 50 0 49 0;
#X connect 52 0 54 0;
#X connect 53 0 52 0;
#X connect 55 0 57 0;
#X connect 56 0 55 0;
#X connect 58 0 255 0;
#X connect 59 0 237 0;
#X connect 60 0 238 0;
#X connect 61 0 249 0;
#X connect 62 0 250 0;
#X connect 73 0 78 0;
#X connect 74 0 80 0;
#X connect 75 0 82 0;
#X connect 76 0 84 0;
#X connect 77 0 73 0;
#X connect 79 0 74 0;
#X connect 81 0 75 0;
#X connect 83 0 76 0;
#X connect 85 0 251 0;
#X connect 86 0 252 0;
#X connect 87 0 253 0;
#X connect 88 0 254 0;
#X connect 96 0 101 0;
#X connect 97 0 103 0;
#X connect 98 0 105 0;
#X connect 99 0 107 0;
#X connect 100 0 96 0;
#X connect 102 0 97 0;
#X connect 104 0 98 0;
#X connect 106 0 99 0;
#X connect 108 0 219 0;
#X connect 109 0 218 0;
#X connect 110 0 217 0;
#X connect 111 0 216 0;
#X connect 132 0 134 0;
#X connect 133 0 132 0;
#X connect 135 0 210 0;
#X connect 146 0 145 0;
#X connect 147 0 148 0;
#X connect 148 0 146 0;
#X connect 148 0 149 0;
#X connect 148 0 156 0;
#X connect 148 0 155 0;
#X connect 148 0 154 0;
#X connect 148 0 153 0;
#X connect 148 0 152 0;
#X connect 148 0 151 0;
#X connect 148 0 163 0;
#X connect 148 0 15 0;
#X connect 149 0 150 0;
#X connect 151 0 157 0;
#X connect 152 0 158 0;
#X connect 153 0 159 0;
#X connect 154 0 160 0;
#X connect 155 0 161 0;
#X connect 156 0 162 0;
#X connect 163 0 164 0;
#X connect 167 0 166 0;
#X connect 170 0 15 0;
#X connect 171 0 170 0;
#X connect 172 0 174 0;
#X connect 173 0 172 0;
#X connect 184 0 189 0;
#X connect 185 0 191 0;
#X connect 186 0 193 0;
#X connect 187 0 195 0;
#X connect 188 0 184 0;
#X connect 190 0 185 0;
#X connect 192 0 186 0;
#X connect 194 0 187 0;
#X connect 196 0 215 0;
#X connect 197 0 214 0;
#X connect 198 0 213 0;
#X connect 199 0 212 0;
#X connect 202 0 204 0;
#X connect 203 0 205 0;
#X connect 208 0 15 0;
#X connect 209 0 15 0;
#X connect 210 0 15 0;
#X connect 211 0 15 0;
#X connect 212 0 15 0;
#X connect 213 0 15 0;
#X connect 214 0 15 0;
#X connect 215 0 15 0;
#X connect 216 0 15 0;
#X connect 217 0 15 0;
#X connect 218 0 15 0;
#X connect 219 0 15 0;
#X connect 220 0 21 0;
#X connect 222 0 226 0;
#X connect 223 0 224 0;
#X connect 224 0 222 0;
#X connect 225 0 222 0;
#X connect 227 0 231 0;
#X connect 228 0 229 0;
#X connect 229 0 227 0;
#X connect 230 0 227 0;
#X connect 232 0 236 0;
#X connect 233 0 234 0;
#X connect 234 0 232 0;
#X connect 235 0 232 0;
#X connect 237 0 15 0;
#X connect 238 0 15 0;
#X connect 239 0 15 0;
#X connect 240 0 15 0;
#X connect 241 0 15 0;
#X connect 242 0 15 0;
#X connect 243 0 15 0;
#X connect 244 0 15 0;
#X connect 245 0 15 0;
#X connect 246 0 15 0;
#X connect 247 0 15 0;
#X connect 248 0 15 0;
#X connect 249 0 15 0;
#X connect 250 0 15 0;
#X connect 251 0 15 0;
#X connect 252 0 15 0;
#X connect 253 0 15 0;
#X connect 254 0 15 0;
#X connect 255 0 15 0;
#X connect 256 0 15 0;
#X connect 261 0 239 0;
#X connect 262 0 240 0;
#X connect 263 0 241 0;
#X connect 264 0 242 0;
#X connect 265 0 243 0;
#X connect 266 0 244 0;
#X connect 267 0 245 0;
#X connect 268 0 246 0;
#X connect 269 0 247 0;
#X connect 270 0 248 0;
#X connect 271 0 272 0;
#X connect 272 0 15 0;
#X connect 277 0 278 0;
#X connect 278 0 15 0;
#X connect 279 0 280 0;
#X connect 280 0 15 0;
#X connect 281 0 282 0;
#X connect 282 0 15 0;
#X connect 283 0 284 0;
#X connect 284 0 15 0;
#X connect 285 0 15 0;
#X connect 286 0 15 0;
#X connect 287 0 15 0;
#X connect 288 0 15 0;
#X connect 289 0 285 0;
#X connect 290 0 286 0;
#X connect 291 0 287 0;
#X connect 292 0 288 0;
#X coords 0 -1 1 1 630 360 2 100 90;
