#N canvas 0 45 1916 1001 10;
#X obj 107 440 cnv 5 5 5 empty empty LEFT 0 0 0 8 #fcfcfc #404040 0
;
#N canvas 0 45 1916 1001 state-saving-multiple-instances 0;
#X obj 1066 31 loadbang;
#X obj 1044 291 textfile;
#X msg 1326 274 rewind;
#X msg 1283 274 bang;
#X obj 95 916 textfile;
#X obj 1283 235 t b b;
#X obj 92 680 f;
#X obj 102 822 f;
#X obj 33 724 t b b b;
#X msg 165 822 clear;
#X obj 1132 219 outlet;
#X text 1175 220 INSTANCE NUMBER;
#X obj 1093 155 f \$1;
#X obj 1093 191 t f f f;
#X obj 1066 64 t b b;
#X obj 33 701 bng 15 250 50 0 empty empty empty 17 7 0 10 #fcfcfc #000000
#000000;
#X obj 28 24 r SAVE-S;
#X obj 1150 39 r \$0-reload!;
#X text 1232 40 RETURN TO PREVIOUS VALUE AFTER USING MORPH-SEQ module
;
#X obj 1183 925 s \$0-kaseta-pre-amp-r;
#X obj 1189 903 s \$0-kaseta-drive-r;
#X obj 1232 799 s \$0-kaseta-bias-r;
#X msg 1044 266 read statesave/\$1-kaseta-ss.txt;
#X msg 108 876 write statesave/\$1-kaseta-ss.txt;
#X obj 115 59 r \$0-kaseta-pre-amp-s;
#X obj 127 86 r \$0-kaseta-drive-s;
#X obj 188 187 r \$0-kaseta-bias-s;
#X obj 237 284 r \$0-kaseta-wow-depth-s;
#X obj 1296 702 s \$0-kaseta-wow-depth-r;
#X obj 258 335 r \$0-kaseta-delay-length-s;
#X obj 269 359 r \$0-kaseta-delay-head-1-position-s;
#X obj 273 383 r \$0-kaseta-delay-head-2-position-s;
#X obj 282 407 r \$0-kaseta-delay-head-3-position-s;
#X obj 290 433 r \$0-kaseta-delay-head-4-position-s;
#X obj 1316 656 s \$0-kaseta-delay-length-r;
#X obj 1322 632 s \$0-kaseta-delay-head-1-position-r;
#X obj 1330 609 s \$0-kaseta-delay-head-2-position-r;
#X obj 1336 585 s \$0-kaseta-delay-head-3-position-r;
#X obj 1345 561 s \$0-kaseta-delay-head-4-position-r;
#X obj 301 458 r \$0-kaseta-delay-quantization-8-s;
#X obj 1355 537 s \$0-kaseta-delay-quantization-8-r;
#X obj 314 483 r \$0-kaseta-delay-quantization-6-s;
#X obj 1363 514 s \$0-kaseta-delay-quantization-6-r;
#X obj 1425 862 s \$0-kaseta-delay-head-4-feedback-amp-r;
#X obj 1419 883 s \$0-kaseta-delay-head-3-feedback-amp-r;
#X obj 1411 906 s \$0-kaseta-delay-head-2-feedback-amp-r;
#X obj 1404 929 s \$0-kaseta-delay-head-1-feedback-amp-r;
#X obj 359 59 r \$0-kaseta-delay-head-1-feedback-amp-s;
#X obj 372 84 r \$0-kaseta-delay-head-2-feedback-amp-s;
#X obj 383 109 r \$0-kaseta-delay-head-3-feedback-amp-s;
#X obj 397 131 r \$0-kaseta-delay-head-4-feedback-amp-s;
#X obj 411 154 r \$0-kaseta-delay-head-1-volume-s;
#X obj 424 179 r \$0-kaseta-delay-head-2-volume-s;
#X obj 435 204 r \$0-kaseta-delay-head-3-volume-s;
#X obj 449 226 r \$0-kaseta-delay-head-4-volume-s;
#X obj 1454 772 s \$0-kaseta-delay-head-4-volume-r;
#X obj 1448 793 s \$0-kaseta-delay-head-3-volume-r;
#X obj 1440 816 s \$0-kaseta-delay-head-2-volume-r;
#X obj 1433 839 s \$0-kaseta-delay-head-1-volume-r;
#X msg 92 761 set \$1 \$2 \$3 \$4 \$5 \$6 \$7 \$8 \$9 \$10 \$11 \$12
\$13 \$14 \$15 \$16 \$17 \$18 \$19 \$20 \$21 \$22 \$23 \$24 \$25 \$26
\$27 \$28 \$29 \$30 \$31 \$32 \$33 \$32 \$33 \$34 \$35 \$36 \$37 \$38
, f 67;
#X obj 92 723 pack f f f f f f f f f f f f f f f f f f f f f f f f
f f f f f f f f f f f f f f f f, f 85;
#X obj 1044 313 unpack f f f f f f f f f f f f f f f f f f f f f f
f f f f f f f f f f f f f f f f f f, f 88;
#X obj 140 109 r \$0-kaseta-dry-wet-s;
#X obj 1198 878 s \$0-kaseta-dry-wet-r;
#X obj 152 135 r \$0-kaseta-range-s;
#X obj 1209 850 s \$0-kaseta-range-r;
#X obj 206 212 r \$0-kaseta-rewind-backward-s;
#X obj 167 160 r \$0-kaseta-rewind-forward-s;
#X obj 1229 827 s \$0-kaseta-rewind-forward-r;
#X obj 1245 778 s \$0-kaseta-rewind-backward-r;
#X obj 236 260 r \$0-kaseta-tone-s;
#X obj 1285 731 s \$0-kaseta-tone-r;
#X obj 470 252 r \$0-kaseta-delay-head-1-pan-s;
#X obj 483 277 r \$0-kaseta-delay-head-2-pan-s;
#X obj 494 302 r \$0-kaseta-delay-head-3-pan-s;
#X obj 508 324 r \$0-kaseta-delay-head-4-pan-s;
#X obj 1553 673 s \$0-kaseta-delay-head-4-pan-r;
#X obj 1547 694 s \$0-kaseta-delay-head-3-pan-r;
#X obj 1539 717 s \$0-kaseta-delay-head-2-pan-r;
#X obj 1532 740 s \$0-kaseta-delay-head-1-pan-r;
#X connect 0 0 14 0;
#X connect 1 0 61 0;
#X connect 2 0 1 0;
#X connect 3 0 1 0;
#X connect 5 0 3 0;
#X connect 5 1 2 0;
#X connect 6 0 60 0;
#X connect 7 0 23 0;
#X connect 8 0 7 0;
#X connect 8 1 6 0;
#X connect 8 2 9 0;
#X connect 9 0 4 0;
#X connect 12 0 13 0;
#X connect 13 0 7 1;
#X connect 13 1 22 0;
#X connect 13 2 10 0;
#X connect 14 0 5 0;
#X connect 14 1 12 0;
#X connect 15 0 8 0;
#X connect 16 0 15 0;
#X connect 17 0 14 0;
#X connect 22 0 1 0;
#X connect 23 0 4 0;
#X connect 24 0 6 1;
#X connect 25 0 60 1;
#X connect 26 0 60 5;
#X connect 27 0 60 9;
#X connect 29 0 60 11;
#X connect 30 0 60 12;
#X connect 31 0 60 13;
#X connect 32 0 60 14;
#X connect 33 0 60 15;
#X connect 39 0 60 16;
#X connect 41 0 60 17;
#X connect 47 0 60 26;
#X connect 48 0 60 27;
#X connect 49 0 60 28;
#X connect 50 0 60 29;
#X connect 51 0 60 30;
#X connect 52 0 60 31;
#X connect 53 0 60 32;
#X connect 54 0 60 33;
#X connect 59 0 4 0;
#X connect 60 0 59 0;
#X connect 61 0 19 0;
#X connect 61 1 20 0;
#X connect 61 2 63 0;
#X connect 61 3 65 0;
#X connect 61 4 68 0;
#X connect 61 5 21 0;
#X connect 61 6 69 0;
#X connect 61 8 71 0;
#X connect 61 9 28 0;
#X connect 61 11 34 0;
#X connect 61 12 35 0;
#X connect 61 13 36 0;
#X connect 61 14 37 0;
#X connect 61 15 38 0;
#X connect 61 16 40 0;
#X connect 61 17 42 0;
#X connect 61 26 46 0;
#X connect 61 27 45 0;
#X connect 61 28 44 0;
#X connect 61 29 43 0;
#X connect 61 30 58 0;
#X connect 61 31 57 0;
#X connect 61 32 56 0;
#X connect 61 33 55 0;
#X connect 61 34 79 0;
#X connect 61 35 78 0;
#X connect 61 36 77 0;
#X connect 61 37 76 0;
#X connect 62 0 60 2;
#X connect 64 0 60 3;
#X connect 66 0 60 6;
#X connect 67 0 60 4;
#X connect 70 0 60 8;
#X connect 72 0 60 34;
#X connect 73 0 60 35;
#X connect 74 0 60 36;
#X connect 75 0 60 37;
#X restore 93 671 pd state-saving-multiple-instances;
#X obj 93 746 s \$0-instance-num;
#X obj 93 698 makefilename %d;
#X msg 93 723 label \$1;
#N canvas 81 22 1916 1001 state-saving-via-preset-manager-module 0
;
#X obj 1017 241 textfile;
#X msg 1396 224 rewind;
#X msg 1353 224 bang;
#X obj 109 856 textfile;
#X obj 1353 185 t b b;
#X obj 107 414 f;
#X obj 120 747 f;
#X obj 53 642 t b b b;
#X msg 189 797 clear;
#X obj 107 56 delay 5;
#X obj 53 697 delay 10;
#X msg 53 372 bang;
#X obj 53 26 r STORE-S!;
#X obj 1017 142 f;
#X obj 990 106 t b b;
#X obj 1005 63 t b f;
#X obj 1062 160 f \$1;
#X obj 1017 187 pack f f;
#X obj 1062 110 loadbang;
#X obj 120 777 pack f f;
#X obj 165 730 loadbang;
#X obj 165 752 f \$1;
#X obj 1005 40 r preset-manager-scan;
#X obj 135 708 r preset-manager-store-slot;
#N canvas 0 22 1916 1001 morph-parameters 0;
#X obj 176 94 inlet;
#X obj 176 236 pack f f;
#X obj 176 261 line;
#X obj 209 117 r preset-manager-morph-s;
#X msg 72 244 stop;
#X obj 72 214 r STOP-MORPH!;
#X obj 209 206 spigot;
#X obj 398 137 t f f;
#X obj 455 154 == 0;
#X obj 221 176 f;
#X floatatom 455 222 5 0 0 0 - - - 0;
#X obj 398 159 t b f;
#X floatatom 425 192 5 0 0 0 - - - 0;
#X obj 209 139 t f f;
#X obj 398 102 r parameters-s;
#X obj 176 288 outlet;
#X connect 0 0 1 0;
#X connect 1 0 2 0;
#X connect 2 0 15 0;
#X connect 3 0 13 0;
#X connect 4 0 2 0;
#X connect 5 0 4 0;
#X connect 6 0 1 1;
#X connect 7 0 11 0;
#X connect 7 1 8 0;
#X connect 8 0 10 0;
#X connect 9 0 6 0;
#X connect 10 0 1 1;
#X connect 11 0 9 0;
#X connect 11 1 12 0;
#X connect 12 0 6 1;
#X connect 13 0 6 0;
#X connect 13 1 9 1;
#X connect 14 0 7 0;
#X restore 1069 753 pd morph-parameters;
#X msg 1017 216 read statesave/\$1-\$2-kaseta-ss.txt;
#X msg 188 824 write statesave/\$1-\$2-kaseta-ss.txt;
#X obj 122 99 r \$0-kaseta-pre-amp-s;
#X obj 138 125 r \$0-kaseta-drive-s;
#X obj 183 222 r \$0-kaseta-bias-s;
#N canvas 0 22 1916 1001 morph-parameters 0;
#X obj 176 94 inlet;
#X obj 176 236 pack f f;
#X obj 176 261 line;
#X obj 209 117 r preset-manager-morph-s;
#X msg 72 244 stop;
#X obj 72 214 r STOP-MORPH!;
#X obj 209 206 spigot;
#X obj 398 137 t f f;
#X obj 455 154 == 0;
#X obj 221 176 f;
#X floatatom 455 222 5 0 0 0 - - - 0;
#X obj 398 159 t b f;
#X floatatom 425 192 5 0 0 0 - - - 0;
#X obj 209 139 t f f;
#X obj 398 102 r parameters-s;
#X obj 176 288 outlet;
#X connect 0 0 1 0;
#X connect 1 0 2 0;
#X connect 2 0 15 0;
#X connect 3 0 13 0;
#X connect 4 0 2 0;
#X connect 5 0 4 0;
#X connect 6 0 1 1;
#X connect 7 0 11 0;
#X connect 7 1 8 0;
#X connect 8 0 10 0;
#X connect 9 0 6 0;
#X connect 10 0 1 1;
#X connect 11 0 9 0;
#X connect 11 1 12 0;
#X connect 12 0 6 1;
#X connect 13 0 6 0;
#X connect 13 1 9 1;
#X connect 14 0 7 0;
#X restore 1063 803 pd morph-parameters;
#N canvas 0 22 1916 1001 morph-parameters 0;
#X obj 176 94 inlet;
#X obj 176 236 pack f f;
#X obj 176 261 line;
#X obj 209 117 r preset-manager-morph-s;
#X msg 72 244 stop;
#X obj 72 214 r STOP-MORPH!;
#X obj 209 206 spigot;
#X obj 398 137 t f f;
#X obj 455 154 == 0;
#X obj 221 176 f;
#X floatatom 455 222 5 0 0 0 - - - 0;
#X obj 398 159 t b f;
#X floatatom 425 192 5 0 0 0 - - - 0;
#X obj 209 139 t f f;
#X obj 398 102 r parameters-s;
#X obj 176 288 outlet;
#X connect 0 0 1 0;
#X connect 1 0 2 0;
#X connect 2 0 15 0;
#X connect 3 0 13 0;
#X connect 4 0 2 0;
#X connect 5 0 4 0;
#X connect 6 0 1 1;
#X connect 7 0 11 0;
#X connect 7 1 8 0;
#X connect 8 0 10 0;
#X connect 9 0 6 0;
#X connect 10 0 1 1;
#X connect 11 0 9 0;
#X connect 11 1 12 0;
#X connect 12 0 6 1;
#X connect 13 0 6 0;
#X connect 13 1 9 1;
#X connect 14 0 7 0;
#X restore 1114 558 pd morph-parameters;
#X obj 1063 826 s \$0-kaseta-pre-amp-r;
#X obj 1069 776 s \$0-kaseta-drive-r;
#X obj 1114 581 s \$0-kaseta-bias-r;
#X obj 254 334 r \$0-kaseta-wow-depth-s;
#N canvas 0 22 1916 1001 morph-parameters 0;
#X obj 176 94 inlet;
#X obj 176 236 pack f f;
#X obj 176 261 line;
#X obj 209 117 r preset-manager-morph-s;
#X msg 72 244 stop;
#X obj 72 214 r STOP-MORPH!;
#X obj 209 206 spigot;
#X obj 398 137 t f f;
#X obj 455 154 == 0;
#X obj 221 176 f;
#X floatatom 455 222 5 0 0 0 - - - 0;
#X obj 398 159 t b f;
#X floatatom 425 192 5 0 0 0 - - - 0;
#X obj 209 139 t f f;
#X obj 398 102 r parameters-s;
#X obj 176 288 outlet;
#X connect 0 0 1 0;
#X connect 1 0 2 0;
#X connect 2 0 15 0;
#X connect 3 0 13 0;
#X connect 4 0 2 0;
#X connect 5 0 4 0;
#X connect 6 0 1 1;
#X connect 7 0 11 0;
#X connect 7 1 8 0;
#X connect 8 0 10 0;
#X connect 9 0 6 0;
#X connect 10 0 1 1;
#X connect 11 0 9 0;
#X connect 11 1 12 0;
#X connect 12 0 6 1;
#X connect 13 0 6 0;
#X connect 13 1 9 1;
#X connect 14 0 7 0;
#X restore 1161 363 pd morph-parameters;
#X obj 1161 386 s \$0-kaseta-wow-depth-r;
#X obj 279 387 r \$0-kaseta-delay-length-s;
#X obj 288 414 r \$0-kaseta-delay-head-1-position-s;
#X obj 293 437 r \$0-kaseta-delay-head-2-position-s;
#X obj 305 464 r \$0-kaseta-delay-head-3-position-s;
#X obj 319 490 r \$0-kaseta-delay-head-4-position-s;
#N canvas 0 22 1916 1001 morph-parameters 0;
#X obj 176 94 inlet;
#X obj 176 236 pack f f;
#X obj 176 261 line;
#X obj 209 117 r preset-manager-morph-s;
#X msg 72 244 stop;
#X obj 72 214 r STOP-MORPH!;
#X obj 209 206 spigot;
#X obj 398 137 t f f;
#X obj 455 154 == 0;
#X obj 221 176 f;
#X floatatom 455 222 5 0 0 0 - - - 0;
#X obj 398 159 t b f;
#X floatatom 425 192 5 0 0 0 - - - 0;
#X obj 209 139 t f f;
#X obj 398 102 r parameters-s;
#X obj 176 288 outlet;
#X connect 0 0 1 0;
#X connect 1 0 2 0;
#X connect 2 0 15 0;
#X connect 3 0 13 0;
#X connect 4 0 2 0;
#X connect 5 0 4 0;
#X connect 6 0 1 1;
#X connect 7 0 11 0;
#X connect 7 1 8 0;
#X connect 8 0 10 0;
#X connect 9 0 6 0;
#X connect 10 0 1 1;
#X connect 11 0 9 0;
#X connect 11 1 12 0;
#X connect 12 0 6 1;
#X connect 13 0 6 0;
#X connect 13 1 9 1;
#X connect 14 0 7 0;
#X restore 1269 902 pd morph-parameters;
#X obj 1269 925 s \$0-kaseta-delay-length-r;
#N canvas 0 22 1916 1001 morph-parameters 0;
#X obj 176 94 inlet;
#X obj 176 236 pack f f;
#X obj 176 261 line;
#X obj 209 117 r preset-manager-morph-s;
#X msg 72 244 stop;
#X obj 72 214 r STOP-MORPH!;
#X obj 209 206 spigot;
#X obj 398 137 t f f;
#X obj 455 154 == 0;
#X obj 221 176 f;
#X floatatom 455 222 5 0 0 0 - - - 0;
#X obj 398 159 t b f;
#X floatatom 425 192 5 0 0 0 - - - 0;
#X obj 209 139 t f f;
#X obj 398 102 r parameters-s;
#X obj 176 288 outlet;
#X connect 0 0 1 0;
#X connect 1 0 2 0;
#X connect 2 0 15 0;
#X connect 3 0 13 0;
#X connect 4 0 2 0;
#X connect 5 0 4 0;
#X connect 6 0 1 1;
#X connect 7 0 11 0;
#X connect 7 1 8 0;
#X connect 8 0 10 0;
#X connect 9 0 6 0;
#X connect 10 0 1 1;
#X connect 11 0 9 0;
#X connect 11 1 12 0;
#X connect 12 0 6 1;
#X connect 13 0 6 0;
#X connect 13 1 9 1;
#X connect 14 0 7 0;
#X restore 1280 854 pd morph-parameters;
#X obj 1280 877 s \$0-kaseta-delay-head-1-position-r;
#N canvas 0 22 1916 1001 morph-parameters 0;
#X obj 176 94 inlet;
#X obj 176 236 pack f f;
#X obj 176 261 line;
#X obj 209 117 r preset-manager-morph-s;
#X msg 72 244 stop;
#X obj 72 214 r STOP-MORPH!;
#X obj 209 206 spigot;
#X obj 398 137 t f f;
#X obj 455 154 == 0;
#X obj 221 176 f;
#X floatatom 455 222 5 0 0 0 - - - 0;
#X obj 398 159 t b f;
#X floatatom 425 192 5 0 0 0 - - - 0;
#X obj 209 139 t f f;
#X obj 398 102 r parameters-s;
#X obj 176 288 outlet;
#X connect 0 0 1 0;
#X connect 1 0 2 0;
#X connect 2 0 15 0;
#X connect 3 0 13 0;
#X connect 4 0 2 0;
#X connect 5 0 4 0;
#X connect 6 0 1 1;
#X connect 7 0 11 0;
#X connect 7 1 8 0;
#X connect 8 0 10 0;
#X connect 9 0 6 0;
#X connect 10 0 1 1;
#X connect 11 0 9 0;
#X connect 11 1 12 0;
#X connect 12 0 6 1;
#X connect 13 0 6 0;
#X connect 13 1 9 1;
#X connect 14 0 7 0;
#X restore 1289 806 pd morph-parameters;
#N canvas 0 22 1916 1001 morph-parameters 0;
#X obj 176 94 inlet;
#X obj 176 236 pack f f;
#X obj 176 261 line;
#X obj 209 117 r preset-manager-morph-s;
#X msg 72 244 stop;
#X obj 72 214 r STOP-MORPH!;
#X obj 209 206 spigot;
#X obj 398 137 t f f;
#X obj 455 154 == 0;
#X obj 221 176 f;
#X floatatom 455 222 5 0 0 0 - - - 0;
#X obj 398 159 t b f;
#X floatatom 425 192 5 0 0 0 - - - 0;
#X obj 209 139 t f f;
#X obj 398 102 r parameters-s;
#X obj 176 288 outlet;
#X connect 0 0 1 0;
#X connect 1 0 2 0;
#X connect 2 0 15 0;
#X connect 3 0 13 0;
#X connect 4 0 2 0;
#X connect 5 0 4 0;
#X connect 6 0 1 1;
#X connect 7 0 11 0;
#X connect 7 1 8 0;
#X connect 8 0 10 0;
#X connect 9 0 6 0;
#X connect 10 0 1 1;
#X connect 11 0 9 0;
#X connect 11 1 12 0;
#X connect 12 0 6 1;
#X connect 13 0 6 0;
#X connect 13 1 9 1;
#X connect 14 0 7 0;
#X restore 1301 758 pd morph-parameters;
#N canvas 0 22 1916 1001 morph-parameters 0;
#X obj 176 94 inlet;
#X obj 176 236 pack f f;
#X obj 176 261 line;
#X obj 209 117 r preset-manager-morph-s;
#X msg 72 244 stop;
#X obj 72 214 r STOP-MORPH!;
#X obj 209 206 spigot;
#X obj 398 137 t f f;
#X obj 455 154 == 0;
#X obj 221 176 f;
#X floatatom 455 222 5 0 0 0 - - - 0;
#X obj 398 159 t b f;
#X floatatom 425 192 5 0 0 0 - - - 0;
#X obj 209 139 t f f;
#X obj 398 102 r parameters-s;
#X obj 176 288 outlet;
#X connect 0 0 1 0;
#X connect 1 0 2 0;
#X connect 2 0 15 0;
#X connect 3 0 13 0;
#X connect 4 0 2 0;
#X connect 5 0 4 0;
#X connect 6 0 1 1;
#X connect 7 0 11 0;
#X connect 7 1 8 0;
#X connect 8 0 10 0;
#X connect 9 0 6 0;
#X connect 10 0 1 1;
#X connect 11 0 9 0;
#X connect 11 1 12 0;
#X connect 12 0 6 1;
#X connect 13 0 6 0;
#X connect 13 1 9 1;
#X connect 14 0 7 0;
#X restore 1311 711 pd morph-parameters;
#X obj 1289 829 s \$0-kaseta-delay-head-2-position-r;
#X obj 1301 781 s \$0-kaseta-delay-head-3-position-r;
#X obj 1311 734 s \$0-kaseta-delay-head-4-position-r;
#X obj 330 514 r \$0-kaseta-delay-quantization-8-s;
#X obj 1321 687 s \$0-kaseta-delay-quantization-8-r;
#X obj 339 539 r \$0-kaseta-delay-quantization-6-s;
#X obj 1329 662 s \$0-kaseta-delay-quantization-6-r;
#X obj 462 248 r \$0-kaseta-delay-head-1-feedback-amp-s;
#X obj 473 273 r \$0-kaseta-delay-head-2-feedback-amp-s;
#X obj 486 298 r \$0-kaseta-delay-head-3-feedback-amp-s;
#X obj 500 321 r \$0-kaseta-delay-head-4-feedback-amp-s;
#N canvas 0 22 1916 1001 morph-parameters 0;
#X obj 176 94 inlet;
#X obj 176 236 pack f f;
#X obj 176 261 line;
#X obj 209 117 r preset-manager-morph-s;
#X msg 72 244 stop;
#X obj 72 214 r STOP-MORPH!;
#X obj 209 206 spigot;
#X obj 398 137 t f f;
#X obj 455 154 == 0;
#X obj 221 176 f;
#X floatatom 455 222 5 0 0 0 - - - 0;
#X obj 398 159 t b f;
#X floatatom 425 192 5 0 0 0 - - - 0;
#X obj 209 139 t f f;
#X obj 398 102 r parameters-s;
#X obj 176 288 outlet;
#X connect 0 0 1 0;
#X connect 1 0 2 0;
#X connect 2 0 15 0;
#X connect 3 0 13 0;
#X connect 4 0 2 0;
#X connect 5 0 4 0;
#X connect 6 0 1 1;
#X connect 7 0 11 0;
#X connect 7 1 8 0;
#X connect 8 0 10 0;
#X connect 9 0 6 0;
#X connect 10 0 1 1;
#X connect 11 0 9 0;
#X connect 11 1 12 0;
#X connect 12 0 6 1;
#X connect 13 0 6 0;
#X connect 13 1 9 1;
#X connect 14 0 7 0;
#X restore 1416 307 pd morph-parameters;
#N canvas 0 22 1916 1001 morph-parameters 0;
#X obj 176 94 inlet;
#X obj 176 236 pack f f;
#X obj 176 261 line;
#X obj 209 117 r preset-manager-morph-s;
#X msg 72 244 stop;
#X obj 72 214 r STOP-MORPH!;
#X obj 209 206 spigot;
#X obj 398 137 t f f;
#X obj 455 154 == 0;
#X obj 221 176 f;
#X floatatom 455 222 5 0 0 0 - - - 0;
#X obj 398 159 t b f;
#X floatatom 425 192 5 0 0 0 - - - 0;
#X obj 209 139 t f f;
#X obj 398 102 r parameters-s;
#X obj 176 288 outlet;
#X connect 0 0 1 0;
#X connect 1 0 2 0;
#X connect 2 0 15 0;
#X connect 3 0 13 0;
#X connect 4 0 2 0;
#X connect 5 0 4 0;
#X connect 6 0 1 1;
#X connect 7 0 11 0;
#X connect 7 1 8 0;
#X connect 8 0 10 0;
#X connect 9 0 6 0;
#X connect 10 0 1 1;
#X connect 11 0 9 0;
#X connect 11 1 12 0;
#X connect 12 0 6 1;
#X connect 13 0 6 0;
#X connect 13 1 9 1;
#X connect 14 0 7 0;
#X restore 1410 351 pd morph-parameters;
#N canvas 0 22 1916 1001 morph-parameters 0;
#X obj 176 94 inlet;
#X obj 176 236 pack f f;
#X obj 176 261 line;
#X obj 209 117 r preset-manager-morph-s;
#X msg 72 244 stop;
#X obj 72 214 r STOP-MORPH!;
#X obj 209 206 spigot;
#X obj 398 137 t f f;
#X obj 455 154 == 0;
#X obj 221 176 f;
#X floatatom 455 222 5 0 0 0 - - - 0;
#X obj 398 159 t b f;
#X floatatom 425 192 5 0 0 0 - - - 0;
#X obj 209 139 t f f;
#X obj 398 102 r parameters-s;
#X obj 176 288 outlet;
#X connect 0 0 1 0;
#X connect 1 0 2 0;
#X connect 2 0 15 0;
#X connect 3 0 13 0;
#X connect 4 0 2 0;
#X connect 5 0 4 0;
#X connect 6 0 1 1;
#X connect 7 0 11 0;
#X connect 7 1 8 0;
#X connect 8 0 10 0;
#X connect 9 0 6 0;
#X connect 10 0 1 1;
#X connect 11 0 9 0;
#X connect 11 1 12 0;
#X connect 12 0 6 1;
#X connect 13 0 6 0;
#X connect 13 1 9 1;
#X connect 14 0 7 0;
#X restore 1401 395 pd morph-parameters;
#N canvas 0 22 1916 1001 morph-parameters 0;
#X obj 176 94 inlet;
#X obj 176 236 pack f f;
#X obj 176 261 line;
#X obj 209 117 r preset-manager-morph-s;
#X msg 72 244 stop;
#X obj 72 214 r STOP-MORPH!;
#X obj 209 206 spigot;
#X obj 398 137 t f f;
#X obj 455 154 == 0;
#X obj 221 176 f;
#X floatatom 455 222 5 0 0 0 - - - 0;
#X obj 398 159 t b f;
#X floatatom 425 192 5 0 0 0 - - - 0;
#X obj 209 139 t f f;
#X obj 398 102 r parameters-s;
#X obj 176 288 outlet;
#X connect 0 0 1 0;
#X connect 1 0 2 0;
#X connect 2 0 15 0;
#X connect 3 0 13 0;
#X connect 4 0 2 0;
#X connect 5 0 4 0;
#X connect 6 0 1 1;
#X connect 7 0 11 0;
#X connect 7 1 8 0;
#X connect 8 0 10 0;
#X connect 9 0 6 0;
#X connect 10 0 1 1;
#X connect 11 0 9 0;
#X connect 11 1 12 0;
#X connect 12 0 6 1;
#X connect 13 0 6 0;
#X connect 13 1 9 1;
#X connect 14 0 7 0;
#X restore 1397 437 pd morph-parameters;
#X obj 512 345 r \$0-kaseta-delay-head-1-volume-s;
#X obj 523 370 r \$0-kaseta-delay-head-2-volume-s;
#X obj 536 395 r \$0-kaseta-delay-head-3-volume-s;
#X obj 550 418 r \$0-kaseta-delay-head-4-volume-s;
#N canvas 0 22 1916 1001 morph-parameters 0;
#X obj 176 94 inlet;
#X obj 176 236 pack f f;
#X obj 176 261 line;
#X obj 209 117 r preset-manager-morph-s;
#X msg 72 244 stop;
#X obj 72 214 r STOP-MORPH!;
#X obj 209 206 spigot;
#X obj 398 137 t f f;
#X obj 455 154 == 0;
#X obj 221 176 f;
#X floatatom 455 222 5 0 0 0 - - - 0;
#X obj 398 159 t b f;
#X floatatom 425 192 5 0 0 0 - - - 0;
#X obj 209 139 t f f;
#X obj 398 102 r parameters-s;
#X obj 176 288 outlet;
#X connect 0 0 1 0;
#X connect 1 0 2 0;
#X connect 2 0 15 0;
#X connect 3 0 13 0;
#X connect 4 0 2 0;
#X connect 5 0 4 0;
#X connect 6 0 1 1;
#X connect 7 0 11 0;
#X connect 7 1 8 0;
#X connect 8 0 10 0;
#X connect 9 0 6 0;
#X connect 10 0 1 1;
#X connect 11 0 9 0;
#X connect 11 1 12 0;
#X connect 12 0 6 1;
#X connect 13 0 6 0;
#X connect 13 1 9 1;
#X connect 14 0 7 0;
#X restore 1563 778 pd morph-parameters;
#N canvas 0 22 1916 1001 morph-parameters 0;
#X obj 176 94 inlet;
#X obj 176 236 pack f f;
#X obj 176 261 line;
#X obj 209 117 r preset-manager-morph-s;
#X msg 72 244 stop;
#X obj 72 214 r STOP-MORPH!;
#X obj 209 206 spigot;
#X obj 398 137 t f f;
#X obj 455 154 == 0;
#X obj 221 176 f;
#X floatatom 455 222 5 0 0 0 - - - 0;
#X obj 398 159 t b f;
#X floatatom 425 192 5 0 0 0 - - - 0;
#X obj 209 139 t f f;
#X obj 398 102 r parameters-s;
#X obj 176 288 outlet;
#X connect 0 0 1 0;
#X connect 1 0 2 0;
#X connect 2 0 15 0;
#X connect 3 0 13 0;
#X connect 4 0 2 0;
#X connect 5 0 4 0;
#X connect 6 0 1 1;
#X connect 7 0 11 0;
#X connect 7 1 8 0;
#X connect 8 0 10 0;
#X connect 9 0 6 0;
#X connect 10 0 1 1;
#X connect 11 0 9 0;
#X connect 11 1 12 0;
#X connect 12 0 6 1;
#X connect 13 0 6 0;
#X connect 13 1 9 1;
#X connect 14 0 7 0;
#X restore 1557 822 pd morph-parameters;
#N canvas 0 22 1916 1001 morph-parameters 0;
#X obj 176 94 inlet;
#X obj 176 236 pack f f;
#X obj 176 261 line;
#X obj 209 117 r preset-manager-morph-s;
#X msg 72 244 stop;
#X obj 72 214 r STOP-MORPH!;
#X obj 209 206 spigot;
#X obj 398 137 t f f;
#X obj 455 154 == 0;
#X obj 221 176 f;
#X floatatom 455 222 5 0 0 0 - - - 0;
#X obj 398 159 t b f;
#X floatatom 425 192 5 0 0 0 - - - 0;
#X obj 209 139 t f f;
#X obj 398 102 r parameters-s;
#X obj 176 288 outlet;
#X connect 0 0 1 0;
#X connect 1 0 2 0;
#X connect 2 0 15 0;
#X connect 3 0 13 0;
#X connect 4 0 2 0;
#X connect 5 0 4 0;
#X connect 6 0 1 1;
#X connect 7 0 11 0;
#X connect 7 1 8 0;
#X connect 8 0 10 0;
#X connect 9 0 6 0;
#X connect 10 0 1 1;
#X connect 11 0 9 0;
#X connect 11 1 12 0;
#X connect 12 0 6 1;
#X connect 13 0 6 0;
#X connect 13 1 9 1;
#X connect 14 0 7 0;
#X restore 1548 866 pd morph-parameters;
#N canvas 0 22 1916 1001 morph-parameters 0;
#X obj 176 94 inlet;
#X obj 176 236 pack f f;
#X obj 176 261 line;
#X obj 209 117 r preset-manager-morph-s;
#X msg 72 244 stop;
#X obj 72 214 r STOP-MORPH!;
#X obj 209 206 spigot;
#X obj 398 137 t f f;
#X obj 455 154 == 0;
#X obj 221 176 f;
#X floatatom 455 222 5 0 0 0 - - - 0;
#X obj 398 159 t b f;
#X floatatom 425 192 5 0 0 0 - - - 0;
#X obj 209 139 t f f;
#X obj 398 102 r parameters-s;
#X obj 176 288 outlet;
#X connect 0 0 1 0;
#X connect 1 0 2 0;
#X connect 2 0 15 0;
#X connect 3 0 13 0;
#X connect 4 0 2 0;
#X connect 5 0 4 0;
#X connect 6 0 1 1;
#X connect 7 0 11 0;
#X connect 7 1 8 0;
#X connect 8 0 10 0;
#X connect 9 0 6 0;
#X connect 10 0 1 1;
#X connect 11 0 9 0;
#X connect 11 1 12 0;
#X connect 12 0 6 1;
#X connect 13 0 6 0;
#X connect 13 1 9 1;
#X connect 14 0 7 0;
#X restore 1544 908 pd morph-parameters;
#X obj 1543 930 s \$0-kaseta-delay-head-1-volume-r;
#X obj 1548 886 s \$0-kaseta-delay-head-2-volume-r;
#X obj 1557 842 s \$0-kaseta-delay-head-3-volume-r;
#X obj 1563 801 s \$0-kaseta-delay-head-4-volume-r;
#X obj 1396 459 s \$0-kaseta-delay-head-1-feedback-amp-r;
#X obj 1401 415 s \$0-kaseta-delay-head-2-feedback-amp-r;
#X obj 1410 371 s \$0-kaseta-delay-head-3-feedback-amp-r;
#X obj 1416 330 s \$0-kaseta-delay-head-4-feedback-amp-r;
#X obj 107 591 pack f f f f f f f f f f f f f f f f f f f f f f f f
f f f f f f f f f f f f f f f f, f 85;
#X msg 107 651 set \$1 \$2 \$3 \$4 \$5 \$6 \$7 \$8 \$9 \$10 \$11 \$12
\$13 \$14 \$15 \$16 \$17 \$18 \$19 \$20 \$21 \$22 \$23 \$24 \$25 \$26
\$27 \$28 \$29 \$30 \$31 \$32 \$33 \$32 \$33 \$34 \$35 \$36 \$37 \$38
, f 67;
#X obj 1017 263 unpack f f f f f f f f f f f f f f f f f f f f f f
f f f f f f f f f f f f f f f f f f, f 89;
#X obj 149 150 r \$0-kaseta-dry-wet-s;
#N canvas 0 22 1916 1001 morph-parameters 0;
#X obj 176 94 inlet;
#X obj 176 236 pack f f;
#X obj 176 261 line;
#X obj 209 117 r preset-manager-morph-s;
#X msg 72 244 stop;
#X obj 72 214 r STOP-MORPH!;
#X obj 209 206 spigot;
#X obj 398 137 t f f;
#X obj 455 154 == 0;
#X obj 221 176 f;
#X floatatom 455 222 5 0 0 0 - - - 0;
#X obj 398 159 t b f;
#X floatatom 425 192 5 0 0 0 - - - 0;
#X obj 209 139 t f f;
#X obj 398 102 r parameters-s;
#X obj 176 288 outlet;
#X connect 0 0 1 0;
#X connect 1 0 2 0;
#X connect 2 0 15 0;
#X connect 3 0 13 0;
#X connect 4 0 2 0;
#X connect 5 0 4 0;
#X connect 6 0 1 1;
#X connect 7 0 11 0;
#X connect 7 1 8 0;
#X connect 8 0 10 0;
#X connect 9 0 6 0;
#X connect 10 0 1 1;
#X connect 11 0 9 0;
#X connect 11 1 12 0;
#X connect 12 0 6 1;
#X connect 13 0 6 0;
#X connect 13 1 9 1;
#X connect 14 0 7 0;
#X restore 1077 705 pd morph-parameters;
#X obj 1077 728 s \$0-kaseta-dry-wet-r;
#X obj 158 173 r \$0-kaseta-range-s;
#X obj 1088 681 s \$0-kaseta-range-r;
#X obj 168 196 r \$0-kaseta-rewind-forward-s;
#X obj 205 250 r \$0-kaseta-rewind-backward-s;
#X obj 1097 657 s \$0-kaseta-rewind-forward-r;
#X obj 1125 525 s \$0-kaseta-rewind-backward-r;
#X obj 243 308 r \$0-kaseta-tone-s;
#N canvas 0 22 1916 1001 morph-parameters 0;
#X obj 176 94 inlet;
#X obj 176 236 pack f f;
#X obj 176 261 line;
#X obj 209 117 r preset-manager-morph-s;
#X msg 72 244 stop;
#X obj 72 214 r STOP-MORPH!;
#X obj 209 206 spigot;
#X obj 398 137 t f f;
#X obj 455 154 == 0;
#X obj 221 176 f;
#X floatatom 455 222 5 0 0 0 - - - 0;
#X obj 398 159 t b f;
#X floatatom 425 192 5 0 0 0 - - - 0;
#X obj 209 139 t f f;
#X obj 398 102 r parameters-s;
#X obj 176 288 outlet;
#X connect 0 0 1 0;
#X connect 1 0 2 0;
#X connect 2 0 15 0;
#X connect 3 0 13 0;
#X connect 4 0 2 0;
#X connect 5 0 4 0;
#X connect 6 0 1 1;
#X connect 7 0 11 0;
#X connect 7 1 8 0;
#X connect 8 0 10 0;
#X connect 9 0 6 0;
#X connect 10 0 1 1;
#X connect 11 0 9 0;
#X connect 11 1 12 0;
#X connect 12 0 6 1;
#X connect 13 0 6 0;
#X connect 13 1 9 1;
#X connect 14 0 7 0;
#X restore 1151 415 pd morph-parameters;
#X obj 1151 438 s \$0-kaseta-tone-r;
#X obj 561 444 r \$0-kaseta-delay-head-1-pan-s;
#X obj 572 469 r \$0-kaseta-delay-head-2-pan-s;
#X obj 585 494 r \$0-kaseta-delay-head-3-pan-s;
#X obj 599 517 r \$0-kaseta-delay-head-4-pan-s;
#N canvas 0 22 1916 1001 morph-parameters 0;
#X obj 176 94 inlet;
#X obj 176 236 pack f f;
#X obj 176 261 line;
#X obj 209 117 r preset-manager-morph-s;
#X msg 72 244 stop;
#X obj 72 214 r STOP-MORPH!;
#X obj 209 206 spigot;
#X obj 398 137 t f f;
#X obj 455 154 == 0;
#X obj 221 176 f;
#X floatatom 455 222 5 0 0 0 - - - 0;
#X obj 398 159 t b f;
#X floatatom 425 192 5 0 0 0 - - - 0;
#X obj 209 139 t f f;
#X obj 398 102 r parameters-s;
#X obj 176 288 outlet;
#X connect 0 0 1 0;
#X connect 1 0 2 0;
#X connect 2 0 15 0;
#X connect 3 0 13 0;
#X connect 4 0 2 0;
#X connect 5 0 4 0;
#X connect 6 0 1 1;
#X connect 7 0 11 0;
#X connect 7 1 8 0;
#X connect 8 0 10 0;
#X connect 9 0 6 0;
#X connect 10 0 1 1;
#X connect 11 0 9 0;
#X connect 11 1 12 0;
#X connect 12 0 6 1;
#X connect 13 0 6 0;
#X connect 13 1 9 1;
#X connect 14 0 7 0;
#X restore 1594 599 pd morph-parameters;
#N canvas 0 22 1916 1001 morph-parameters 0;
#X obj 176 94 inlet;
#X obj 176 236 pack f f;
#X obj 176 261 line;
#X obj 209 117 r preset-manager-morph-s;
#X msg 72 244 stop;
#X obj 72 214 r STOP-MORPH!;
#X obj 209 206 spigot;
#X obj 398 137 t f f;
#X obj 455 154 == 0;
#X obj 221 176 f;
#X floatatom 455 222 5 0 0 0 - - - 0;
#X obj 398 159 t b f;
#X floatatom 425 192 5 0 0 0 - - - 0;
#X obj 209 139 t f f;
#X obj 398 102 r parameters-s;
#X obj 176 288 outlet;
#X connect 0 0 1 0;
#X connect 1 0 2 0;
#X connect 2 0 15 0;
#X connect 3 0 13 0;
#X connect 4 0 2 0;
#X connect 5 0 4 0;
#X connect 6 0 1 1;
#X connect 7 0 11 0;
#X connect 7 1 8 0;
#X connect 8 0 10 0;
#X connect 9 0 6 0;
#X connect 10 0 1 1;
#X connect 11 0 9 0;
#X connect 11 1 12 0;
#X connect 12 0 6 1;
#X connect 13 0 6 0;
#X connect 13 1 9 1;
#X connect 14 0 7 0;
#X restore 1588 643 pd morph-parameters;
#N canvas 0 22 1916 1001 morph-parameters 0;
#X obj 176 94 inlet;
#X obj 176 236 pack f f;
#X obj 176 261 line;
#X obj 209 117 r preset-manager-morph-s;
#X msg 72 244 stop;
#X obj 72 214 r STOP-MORPH!;
#X obj 209 206 spigot;
#X obj 398 137 t f f;
#X obj 455 154 == 0;
#X obj 221 176 f;
#X floatatom 455 222 5 0 0 0 - - - 0;
#X obj 398 159 t b f;
#X floatatom 425 192 5 0 0 0 - - - 0;
#X obj 209 139 t f f;
#X obj 398 102 r parameters-s;
#X obj 176 288 outlet;
#X connect 0 0 1 0;
#X connect 1 0 2 0;
#X connect 2 0 15 0;
#X connect 3 0 13 0;
#X connect 4 0 2 0;
#X connect 5 0 4 0;
#X connect 6 0 1 1;
#X connect 7 0 11 0;
#X connect 7 1 8 0;
#X connect 8 0 10 0;
#X connect 9 0 6 0;
#X connect 10 0 1 1;
#X connect 11 0 9 0;
#X connect 11 1 12 0;
#X connect 12 0 6 1;
#X connect 13 0 6 0;
#X connect 13 1 9 1;
#X connect 14 0 7 0;
#X restore 1579 687 pd morph-parameters;
#N canvas 0 22 1916 1001 morph-parameters 0;
#X obj 176 94 inlet;
#X obj 176 236 pack f f;
#X obj 176 261 line;
#X obj 209 117 r preset-manager-morph-s;
#X msg 72 244 stop;
#X obj 72 214 r STOP-MORPH!;
#X obj 209 206 spigot;
#X obj 398 137 t f f;
#X obj 455 154 == 0;
#X obj 221 176 f;
#X floatatom 455 222 5 0 0 0 - - - 0;
#X obj 398 159 t b f;
#X floatatom 425 192 5 0 0 0 - - - 0;
#X obj 209 139 t f f;
#X obj 398 102 r parameters-s;
#X obj 176 288 outlet;
#X connect 0 0 1 0;
#X connect 1 0 2 0;
#X connect 2 0 15 0;
#X connect 3 0 13 0;
#X connect 4 0 2 0;
#X connect 5 0 4 0;
#X connect 6 0 1 1;
#X connect 7 0 11 0;
#X connect 7 1 8 0;
#X connect 8 0 10 0;
#X connect 9 0 6 0;
#X connect 10 0 1 1;
#X connect 11 0 9 0;
#X connect 11 1 12 0;
#X connect 12 0 6 1;
#X connect 13 0 6 0;
#X connect 13 1 9 1;
#X connect 14 0 7 0;
#X restore 1575 729 pd morph-parameters;
#X obj 1594 622 s \$0-kaseta-delay-head-4-pan-r;
#X obj 1588 663 s \$0-kaseta-delay-head-3-pan-r;
#X obj 1579 707 s \$0-kaseta-delay-head-2-pan-r;
#X obj 1574 751 s \$0-kaseta-delay-head-1-pan-r;
#X connect 0 0 83 0;
#X connect 1 0 0 0;
#X connect 2 0 0 0;
#X connect 4 0 2 0;
#X connect 4 1 1 0;
#X connect 5 0 81 0;
#X connect 6 0 19 0;
#X connect 7 0 10 0;
#X connect 7 1 9 0;
#X connect 7 2 8 0;
#X connect 8 0 3 0;
#X connect 9 0 5 0;
#X connect 10 0 6 0;
#X connect 11 0 7 0;
#X connect 12 0 11 0;
#X connect 13 0 17 0;
#X connect 14 0 4 0;
#X connect 14 1 13 0;
#X connect 15 0 14 0;
#X connect 15 1 13 1;
#X connect 16 0 17 1;
#X connect 17 0 25 0;
#X connect 18 0 16 0;
#X connect 19 0 26 0;
#X connect 20 0 21 0;
#X connect 21 0 19 1;
#X connect 22 0 15 0;
#X connect 23 0 6 1;
#X connect 24 0 33 0;
#X connect 25 0 0 0;
#X connect 26 0 3 0;
#X connect 27 0 5 1;
#X connect 28 0 81 1;
#X connect 29 0 81 5;
#X connect 30 0 32 0;
#X connect 31 0 34 0;
#X connect 35 0 81 9;
#X connect 36 0 37 0;
#X connect 38 0 81 11;
#X connect 39 0 81 12;
#X connect 40 0 81 13;
#X connect 41 0 81 14;
#X connect 42 0 81 15;
#X connect 43 0 44 0;
#X connect 45 0 46 0;
#X connect 47 0 50 0;
#X connect 48 0 51 0;
#X connect 49 0 52 0;
#X connect 53 0 81 16;
#X connect 55 0 81 17;
#X connect 57 0 81 26;
#X connect 58 0 81 27;
#X connect 59 0 81 28;
#X connect 60 0 81 29;
#X connect 61 0 80 0;
#X connect 62 0 79 0;
#X connect 63 0 78 0;
#X connect 64 0 77 0;
#X connect 65 0 81 30;
#X connect 66 0 81 31;
#X connect 67 0 81 32;
#X connect 68 0 81 33;
#X connect 69 0 76 0;
#X connect 70 0 75 0;
#X connect 71 0 74 0;
#X connect 72 0 73 0;
#X connect 81 0 82 0;
#X connect 82 0 3 0;
#X connect 83 0 30 0;
#X connect 83 1 24 0;
#X connect 83 2 85 0;
#X connect 83 3 88 0;
#X connect 83 4 91 0;
#X connect 83 5 31 0;
#X connect 83 6 92 0;
#X connect 83 8 94 0;
#X connect 83 9 36 0;
#X connect 83 11 43 0;
#X connect 83 12 45 0;
#X connect 83 13 47 0;
#X connect 83 14 48 0;
#X connect 83 15 49 0;
#X connect 83 16 54 0;
#X connect 83 17 56 0;
#X connect 83 26 64 0;
#X connect 83 27 63 0;
#X connect 83 28 62 0;
#X connect 83 29 61 0;
#X connect 83 30 72 0;
#X connect 83 31 71 0;
#X connect 83 32 70 0;
#X connect 83 33 69 0;
#X connect 83 34 103 0;
#X connect 83 35 102 0;
#X connect 83 36 101 0;
#X connect 83 37 100 0;
#X connect 84 0 81 2;
#X connect 85 0 86 0;
#X connect 87 0 81 3;
#X connect 89 0 81 4;
#X connect 90 0 81 6;
#X connect 93 0 81 8;
#X connect 94 0 95 0;
#X connect 96 0 81 34;
#X connect 97 0 81 35;
#X connect 98 0 81 36;
#X connect 99 0 81 37;
#X connect 100 0 104 0;
#X connect 101 0 105 0;
#X connect 102 0 106 0;
#X connect 103 0 107 0;
#X restore 94 643 pd state-saving-via-preset-manager-module;
#N canvas 396 31 1916 1001 parameter-nudging-system 0;
#X obj 401 67 clip 0 127;
#N canvas 0 22 1916 1001 nudge-parameters 0;
#X obj 124 234 random;
#X obj 232 335 f;
#X obj 232 368 +;
#X obj 257 166 random 2;
#X obj 124 275 t f f;
#X obj 124 351 t b f;
#X obj 124 297 *;
#X obj 257 188 sel 0 1;
#X msg 257 280 -1;
#X msg 335 280 1;
#X obj 124 149 t b b b;
#X obj 124 74 r NUDGE!;
#X obj 157 193 r NUDGE-RANGE;
#X obj 247 308 inlet;
#X obj 232 397 outlet;
#X obj 124 96 spigot;
#X obj 185 79 r parameters2-s;
#X connect 0 0 4 0;
#X connect 1 0 2 0;
#X connect 2 0 14 0;
#X connect 3 0 7 0;
#X connect 4 0 6 0;
#X connect 5 0 2 0;
#X connect 5 1 2 1;
#X connect 6 0 5 0;
#X connect 7 0 8 0;
#X connect 7 1 9 0;
#X connect 8 0 6 1;
#X connect 9 0 6 1;
#X connect 10 0 0 0;
#X connect 10 1 1 0;
#X connect 10 2 3 0;
#X connect 11 0 15 0;
#X connect 12 0 0 1;
#X connect 13 0 1 1;
#X connect 15 0 10 0;
#X connect 16 0 15 1;
#X restore 401 45 pd nudge-parameters;
#X obj 543 63 clip 0 127;
#N canvas 0 22 1916 1001 nudge-parameters 0;
#X obj 124 234 random;
#X obj 232 335 f;
#X obj 232 368 +;
#X obj 257 166 random 2;
#X obj 124 275 t f f;
#X obj 124 351 t b f;
#X obj 124 297 *;
#X obj 257 188 sel 0 1;
#X msg 257 280 -1;
#X msg 335 280 1;
#X obj 124 149 t b b b;
#X obj 124 74 r NUDGE!;
#X obj 157 193 r NUDGE-RANGE;
#X obj 247 308 inlet;
#X obj 232 397 outlet;
#X obj 124 96 spigot;
#X obj 185 79 r parameters2-s;
#X connect 0 0 4 0;
#X connect 1 0 2 0;
#X connect 2 0 14 0;
#X connect 3 0 7 0;
#X connect 4 0 6 0;
#X connect 5 0 2 0;
#X connect 5 1 2 1;
#X connect 6 0 5 0;
#X connect 7 0 8 0;
#X connect 7 1 9 0;
#X connect 8 0 6 1;
#X connect 9 0 6 1;
#X connect 10 0 0 0;
#X connect 10 1 1 0;
#X connect 10 2 3 0;
#X connect 11 0 15 0;
#X connect 12 0 0 1;
#X connect 13 0 1 1;
#X connect 15 0 10 0;
#X connect 16 0 15 1;
#X restore 543 41 pd nudge-parameters;
#X obj 69 70 clip 0 127;
#N canvas 0 22 1916 1001 nudge-parameters 0;
#X obj 124 234 random;
#X obj 232 335 f;
#X obj 232 368 +;
#X obj 257 166 random 2;
#X obj 124 275 t f f;
#X obj 124 351 t b f;
#X obj 124 297 *;
#X obj 257 188 sel 0 1;
#X msg 257 280 -1;
#X msg 335 280 1;
#X obj 124 149 t b b b;
#X obj 124 74 r NUDGE!;
#X obj 157 193 r NUDGE-RANGE;
#X obj 247 308 inlet;
#X obj 232 397 outlet;
#X obj 124 96 spigot;
#X obj 185 79 r parameters2-s;
#X connect 0 0 4 0;
#X connect 1 0 2 0;
#X connect 2 0 14 0;
#X connect 3 0 7 0;
#X connect 4 0 6 0;
#X connect 5 0 2 0;
#X connect 5 1 2 1;
#X connect 6 0 5 0;
#X connect 7 0 8 0;
#X connect 7 1 9 0;
#X connect 8 0 6 1;
#X connect 9 0 6 1;
#X connect 10 0 0 0;
#X connect 10 1 1 0;
#X connect 10 2 3 0;
#X connect 11 0 15 0;
#X connect 12 0 0 1;
#X connect 13 0 1 1;
#X connect 15 0 10 0;
#X connect 16 0 15 1;
#X restore 69 48 pd nudge-parameters;
#X obj 69 25 r \$0-kaseta-pre-amp-s;
#X obj 69 102 s \$0-kaseta-pre-amp-r;
#X obj 401 22 r \$0-kaseta-drive-s;
#X obj 401 99 s \$0-kaseta-drive-r;
#X obj 543 18 r \$0-kaseta-bias-s;
#X obj 543 95 s \$0-kaseta-bias-r;
#X obj 452 195 clip 0 127;
#N canvas 0 22 1916 1001 nudge-parameters 0;
#X obj 124 234 random;
#X obj 232 335 f;
#X obj 232 368 +;
#X obj 257 166 random 2;
#X obj 124 275 t f f;
#X obj 124 351 t b f;
#X obj 124 297 *;
#X obj 257 188 sel 0 1;
#X msg 257 280 -1;
#X msg 335 280 1;
#X obj 124 149 t b b b;
#X obj 124 74 r NUDGE!;
#X obj 157 193 r NUDGE-RANGE;
#X obj 247 308 inlet;
#X obj 232 397 outlet;
#X obj 124 96 spigot;
#X obj 185 79 r parameters2-s;
#X connect 0 0 4 0;
#X connect 1 0 2 0;
#X connect 2 0 14 0;
#X connect 3 0 7 0;
#X connect 4 0 6 0;
#X connect 5 0 2 0;
#X connect 5 1 2 1;
#X connect 6 0 5 0;
#X connect 7 0 8 0;
#X connect 7 1 9 0;
#X connect 8 0 6 1;
#X connect 9 0 6 1;
#X connect 10 0 0 0;
#X connect 10 1 1 0;
#X connect 10 2 3 0;
#X connect 11 0 15 0;
#X connect 12 0 0 1;
#X connect 13 0 1 1;
#X connect 15 0 10 0;
#X connect 16 0 15 1;
#X restore 452 173 pd nudge-parameters;
#X obj 452 149 r \$0-kaseta-wow-depth-s;
#X obj 451 227 s \$0-kaseta-wow-depth-r;
#X obj 56 306 clip 0 127;
#N canvas 0 22 1916 1001 nudge-parameters 0;
#X obj 124 234 random;
#X obj 232 335 f;
#X obj 232 368 +;
#X obj 257 166 random 2;
#X obj 124 275 t f f;
#X obj 124 351 t b f;
#X obj 124 297 *;
#X obj 257 188 sel 0 1;
#X msg 257 280 -1;
#X msg 335 280 1;
#X obj 124 149 t b b b;
#X obj 124 74 r NUDGE!;
#X obj 157 193 r NUDGE-RANGE;
#X obj 247 308 inlet;
#X obj 232 397 outlet;
#X obj 124 96 spigot;
#X obj 185 79 r parameters2-s;
#X connect 0 0 4 0;
#X connect 1 0 2 0;
#X connect 2 0 14 0;
#X connect 3 0 7 0;
#X connect 4 0 6 0;
#X connect 5 0 2 0;
#X connect 5 1 2 1;
#X connect 6 0 5 0;
#X connect 7 0 8 0;
#X connect 7 1 9 0;
#X connect 8 0 6 1;
#X connect 9 0 6 1;
#X connect 10 0 0 0;
#X connect 10 1 1 0;
#X connect 10 2 3 0;
#X connect 11 0 15 0;
#X connect 12 0 0 1;
#X connect 13 0 1 1;
#X connect 15 0 10 0;
#X connect 16 0 15 1;
#X restore 56 284 pd nudge-parameters;
#X obj 56 261 r \$0-kaseta-delay-length-s;
#X obj 56 338 s \$0-kaseta-delay-length-r;
#X obj 57 410 clip 0 127;
#N canvas 0 22 1916 1001 nudge-parameters 0;
#X obj 124 234 random;
#X obj 232 335 f;
#X obj 232 368 +;
#X obj 257 166 random 2;
#X obj 124 275 t f f;
#X obj 124 351 t b f;
#X obj 124 297 *;
#X obj 257 188 sel 0 1;
#X msg 257 280 -1;
#X msg 335 280 1;
#X obj 124 149 t b b b;
#X obj 124 74 r NUDGE!;
#X obj 157 193 r NUDGE-RANGE;
#X obj 247 308 inlet;
#X obj 232 397 outlet;
#X obj 124 96 spigot;
#X obj 185 79 r parameters2-s;
#X connect 0 0 4 0;
#X connect 1 0 2 0;
#X connect 2 0 14 0;
#X connect 3 0 7 0;
#X connect 4 0 6 0;
#X connect 5 0 2 0;
#X connect 5 1 2 1;
#X connect 6 0 5 0;
#X connect 7 0 8 0;
#X connect 7 1 9 0;
#X connect 8 0 6 1;
#X connect 9 0 6 1;
#X connect 10 0 0 0;
#X connect 10 1 1 0;
#X connect 10 2 3 0;
#X connect 11 0 15 0;
#X connect 12 0 0 1;
#X connect 13 0 1 1;
#X connect 15 0 10 0;
#X connect 16 0 15 1;
#X restore 57 388 pd nudge-parameters;
#X obj 57 364 r \$0-kaseta-delay-head-1-position-s;
#X obj 57 442 s \$0-kaseta-delay-head-1-position-r;
#X obj 286 409 clip 0 127;
#N canvas 0 22 1916 1001 nudge-parameters 0;
#X obj 124 234 random;
#X obj 232 335 f;
#X obj 232 368 +;
#X obj 257 166 random 2;
#X obj 124 275 t f f;
#X obj 124 351 t b f;
#X obj 124 297 *;
#X obj 257 188 sel 0 1;
#X msg 257 280 -1;
#X msg 335 280 1;
#X obj 124 149 t b b b;
#X obj 124 74 r NUDGE!;
#X obj 157 193 r NUDGE-RANGE;
#X obj 247 308 inlet;
#X obj 232 397 outlet;
#X obj 124 96 spigot;
#X obj 185 79 r parameters2-s;
#X connect 0 0 4 0;
#X connect 1 0 2 0;
#X connect 2 0 14 0;
#X connect 3 0 7 0;
#X connect 4 0 6 0;
#X connect 5 0 2 0;
#X connect 5 1 2 1;
#X connect 6 0 5 0;
#X connect 7 0 8 0;
#X connect 7 1 9 0;
#X connect 8 0 6 1;
#X connect 9 0 6 1;
#X connect 10 0 0 0;
#X connect 10 1 1 0;
#X connect 10 2 3 0;
#X connect 11 0 15 0;
#X connect 12 0 0 1;
#X connect 13 0 1 1;
#X connect 15 0 10 0;
#X connect 16 0 15 1;
#X restore 286 387 pd nudge-parameters;
#X obj 509 409 clip 0 127;
#N canvas 0 22 1916 1001 nudge-parameters 0;
#X obj 124 234 random;
#X obj 232 335 f;
#X obj 232 368 +;
#X obj 257 166 random 2;
#X obj 124 275 t f f;
#X obj 124 351 t b f;
#X obj 124 297 *;
#X obj 257 188 sel 0 1;
#X msg 257 280 -1;
#X msg 335 280 1;
#X obj 124 149 t b b b;
#X obj 124 74 r NUDGE!;
#X obj 157 193 r NUDGE-RANGE;
#X obj 247 308 inlet;
#X obj 232 397 outlet;
#X obj 124 96 spigot;
#X obj 185 79 r parameters2-s;
#X connect 0 0 4 0;
#X connect 1 0 2 0;
#X connect 2 0 14 0;
#X connect 3 0 7 0;
#X connect 4 0 6 0;
#X connect 5 0 2 0;
#X connect 5 1 2 1;
#X connect 6 0 5 0;
#X connect 7 0 8 0;
#X connect 7 1 9 0;
#X connect 8 0 6 1;
#X connect 9 0 6 1;
#X connect 10 0 0 0;
#X connect 10 1 1 0;
#X connect 10 2 3 0;
#X connect 11 0 15 0;
#X connect 12 0 0 1;
#X connect 13 0 1 1;
#X connect 15 0 10 0;
#X connect 16 0 15 1;
#X restore 509 387 pd nudge-parameters;
#X obj 286 363 r \$0-kaseta-delay-head-2-position-s;
#X obj 286 441 s \$0-kaseta-delay-head-2-position-r;
#X obj 509 363 r \$0-kaseta-delay-head-3-position-s;
#X obj 509 441 s \$0-kaseta-delay-head-3-position-r;
#X obj 739 409 clip 0 127;
#N canvas 0 22 1916 1001 nudge-parameters 0;
#X obj 124 234 random;
#X obj 232 335 f;
#X obj 232 368 +;
#X obj 257 166 random 2;
#X obj 124 275 t f f;
#X obj 124 351 t b f;
#X obj 124 297 *;
#X obj 257 188 sel 0 1;
#X msg 257 280 -1;
#X msg 335 280 1;
#X obj 124 149 t b b b;
#X obj 124 74 r NUDGE!;
#X obj 157 193 r NUDGE-RANGE;
#X obj 247 308 inlet;
#X obj 232 397 outlet;
#X obj 124 96 spigot;
#X obj 185 79 r parameters2-s;
#X connect 0 0 4 0;
#X connect 1 0 2 0;
#X connect 2 0 14 0;
#X connect 3 0 7 0;
#X connect 4 0 6 0;
#X connect 5 0 2 0;
#X connect 5 1 2 1;
#X connect 6 0 5 0;
#X connect 7 0 8 0;
#X connect 7 1 9 0;
#X connect 8 0 6 1;
#X connect 9 0 6 1;
#X connect 10 0 0 0;
#X connect 10 1 1 0;
#X connect 10 2 3 0;
#X connect 11 0 15 0;
#X connect 12 0 0 1;
#X connect 13 0 1 1;
#X connect 15 0 10 0;
#X connect 16 0 15 1;
#X restore 739 387 pd nudge-parameters;
#X obj 739 363 r \$0-kaseta-delay-head-4-position-s;
#X obj 739 441 s \$0-kaseta-delay-head-4-position-r;
#X obj 57 514 clip 0 127;
#N canvas 0 22 1916 1001 nudge-parameters 0;
#X obj 124 234 random;
#X obj 232 335 f;
#X obj 232 368 +;
#X obj 257 166 random 2;
#X obj 124 275 t f f;
#X obj 124 351 t b f;
#X obj 124 297 *;
#X obj 257 188 sel 0 1;
#X msg 257 280 -1;
#X msg 335 280 1;
#X obj 124 149 t b b b;
#X obj 124 74 r NUDGE!;
#X obj 157 193 r NUDGE-RANGE;
#X obj 247 308 inlet;
#X obj 232 397 outlet;
#X obj 124 96 spigot;
#X obj 185 79 r parameters2-s;
#X connect 0 0 4 0;
#X connect 1 0 2 0;
#X connect 2 0 14 0;
#X connect 3 0 7 0;
#X connect 4 0 6 0;
#X connect 5 0 2 0;
#X connect 5 1 2 1;
#X connect 6 0 5 0;
#X connect 7 0 8 0;
#X connect 7 1 9 0;
#X connect 8 0 6 1;
#X connect 9 0 6 1;
#X connect 10 0 0 0;
#X connect 10 1 1 0;
#X connect 10 2 3 0;
#X connect 11 0 15 0;
#X connect 12 0 0 1;
#X connect 13 0 1 1;
#X connect 15 0 10 0;
#X connect 16 0 15 1;
#X restore 57 492 pd nudge-parameters;
#X obj 316 513 clip 0 127;
#N canvas 0 22 1916 1001 nudge-parameters 0;
#X obj 124 234 random;
#X obj 232 335 f;
#X obj 232 368 +;
#X obj 257 166 random 2;
#X obj 124 275 t f f;
#X obj 124 351 t b f;
#X obj 124 297 *;
#X obj 257 188 sel 0 1;
#X msg 257 280 -1;
#X msg 335 280 1;
#X obj 124 149 t b b b;
#X obj 124 74 r NUDGE!;
#X obj 157 193 r NUDGE-RANGE;
#X obj 247 308 inlet;
#X obj 232 397 outlet;
#X obj 124 96 spigot;
#X obj 185 79 r parameters2-s;
#X connect 0 0 4 0;
#X connect 1 0 2 0;
#X connect 2 0 14 0;
#X connect 3 0 7 0;
#X connect 4 0 6 0;
#X connect 5 0 2 0;
#X connect 5 1 2 1;
#X connect 6 0 5 0;
#X connect 7 0 8 0;
#X connect 7 1 9 0;
#X connect 8 0 6 1;
#X connect 9 0 6 1;
#X connect 10 0 0 0;
#X connect 10 1 1 0;
#X connect 10 2 3 0;
#X connect 11 0 15 0;
#X connect 12 0 0 1;
#X connect 13 0 1 1;
#X connect 15 0 10 0;
#X connect 16 0 15 1;
#X restore 316 491 pd nudge-parameters;
#X obj 569 513 clip 0 127;
#N canvas 0 22 1916 1001 nudge-parameters 0;
#X obj 124 234 random;
#X obj 232 335 f;
#X obj 232 368 +;
#X obj 257 166 random 2;
#X obj 124 275 t f f;
#X obj 124 351 t b f;
#X obj 124 297 *;
#X obj 257 188 sel 0 1;
#X msg 257 280 -1;
#X msg 335 280 1;
#X obj 124 149 t b b b;
#X obj 124 74 r NUDGE!;
#X obj 157 193 r NUDGE-RANGE;
#X obj 247 308 inlet;
#X obj 232 397 outlet;
#X obj 124 96 spigot;
#X obj 185 79 r parameters2-s;
#X connect 0 0 4 0;
#X connect 1 0 2 0;
#X connect 2 0 14 0;
#X connect 3 0 7 0;
#X connect 4 0 6 0;
#X connect 5 0 2 0;
#X connect 5 1 2 1;
#X connect 6 0 5 0;
#X connect 7 0 8 0;
#X connect 7 1 9 0;
#X connect 8 0 6 1;
#X connect 9 0 6 1;
#X connect 10 0 0 0;
#X connect 10 1 1 0;
#X connect 10 2 3 0;
#X connect 11 0 15 0;
#X connect 12 0 0 1;
#X connect 13 0 1 1;
#X connect 15 0 10 0;
#X connect 16 0 15 1;
#X restore 569 491 pd nudge-parameters;
#X obj 829 513 clip 0 127;
#N canvas 0 22 1916 1001 nudge-parameters 0;
#X obj 124 234 random;
#X obj 232 335 f;
#X obj 232 368 +;
#X obj 257 166 random 2;
#X obj 124 275 t f f;
#X obj 124 351 t b f;
#X obj 124 297 *;
#X obj 257 188 sel 0 1;
#X msg 257 280 -1;
#X msg 335 280 1;
#X obj 124 149 t b b b;
#X obj 124 74 r NUDGE!;
#X obj 157 193 r NUDGE-RANGE;
#X obj 247 308 inlet;
#X obj 232 397 outlet;
#X obj 124 96 spigot;
#X obj 185 79 r parameters2-s;
#X connect 0 0 4 0;
#X connect 1 0 2 0;
#X connect 2 0 14 0;
#X connect 3 0 7 0;
#X connect 4 0 6 0;
#X connect 5 0 2 0;
#X connect 5 1 2 1;
#X connect 6 0 5 0;
#X connect 7 0 8 0;
#X connect 7 1 9 0;
#X connect 8 0 6 1;
#X connect 9 0 6 1;
#X connect 10 0 0 0;
#X connect 10 1 1 0;
#X connect 10 2 3 0;
#X connect 11 0 15 0;
#X connect 12 0 0 1;
#X connect 13 0 1 1;
#X connect 15 0 10 0;
#X connect 16 0 15 1;
#X restore 829 491 pd nudge-parameters;
#X obj 57 468 r \$0-kaseta-delay-head-1-feedback-amp-s;
#X obj 57 546 s \$0-kaseta-delay-head-1-feedback-amp-r;
#X obj 316 467 r \$0-kaseta-delay-head-2-feedback-amp-s;
#X obj 316 545 s \$0-kaseta-delay-head-2-feedback-amp-r;
#X obj 569 467 r \$0-kaseta-delay-head-3-feedback-amp-s;
#X obj 569 545 s \$0-kaseta-delay-head-3-feedback-amp-r;
#X obj 829 467 r \$0-kaseta-delay-head-4-feedback-amp-s;
#X obj 829 545 s \$0-kaseta-delay-head-4-feedback-amp-r;
#X obj 57 617 clip 0 127;
#N canvas 0 22 1916 1001 nudge-parameters 0;
#X obj 124 234 random;
#X obj 232 335 f;
#X obj 232 368 +;
#X obj 257 166 random 2;
#X obj 124 275 t f f;
#X obj 124 351 t b f;
#X obj 124 297 *;
#X obj 257 188 sel 0 1;
#X msg 257 280 -1;
#X msg 335 280 1;
#X obj 124 149 t b b b;
#X obj 124 74 r NUDGE!;
#X obj 157 193 r NUDGE-RANGE;
#X obj 247 308 inlet;
#X obj 232 397 outlet;
#X obj 124 96 spigot;
#X obj 185 79 r parameters2-s;
#X connect 0 0 4 0;
#X connect 1 0 2 0;
#X connect 2 0 14 0;
#X connect 3 0 7 0;
#X connect 4 0 6 0;
#X connect 5 0 2 0;
#X connect 5 1 2 1;
#X connect 6 0 5 0;
#X connect 7 0 8 0;
#X connect 7 1 9 0;
#X connect 8 0 6 1;
#X connect 9 0 6 1;
#X connect 10 0 0 0;
#X connect 10 1 1 0;
#X connect 10 2 3 0;
#X connect 11 0 15 0;
#X connect 12 0 0 1;
#X connect 13 0 1 1;
#X connect 15 0 10 0;
#X connect 16 0 15 1;
#X restore 57 595 pd nudge-parameters;
#X obj 316 616 clip 0 127;
#N canvas 0 22 1916 1001 nudge-parameters 0;
#X obj 124 234 random;
#X obj 232 335 f;
#X obj 232 368 +;
#X obj 257 166 random 2;
#X obj 124 275 t f f;
#X obj 124 351 t b f;
#X obj 124 297 *;
#X obj 257 188 sel 0 1;
#X msg 257 280 -1;
#X msg 335 280 1;
#X obj 124 149 t b b b;
#X obj 124 74 r NUDGE!;
#X obj 157 193 r NUDGE-RANGE;
#X obj 247 308 inlet;
#X obj 232 397 outlet;
#X obj 124 96 spigot;
#X obj 185 79 r parameters2-s;
#X connect 0 0 4 0;
#X connect 1 0 2 0;
#X connect 2 0 14 0;
#X connect 3 0 7 0;
#X connect 4 0 6 0;
#X connect 5 0 2 0;
#X connect 5 1 2 1;
#X connect 6 0 5 0;
#X connect 7 0 8 0;
#X connect 7 1 9 0;
#X connect 8 0 6 1;
#X connect 9 0 6 1;
#X connect 10 0 0 0;
#X connect 10 1 1 0;
#X connect 10 2 3 0;
#X connect 11 0 15 0;
#X connect 12 0 0 1;
#X connect 13 0 1 1;
#X connect 15 0 10 0;
#X connect 16 0 15 1;
#X restore 316 594 pd nudge-parameters;
#X obj 569 616 clip 0 127;
#N canvas 0 22 1916 1001 nudge-parameters 0;
#X obj 124 234 random;
#X obj 232 335 f;
#X obj 232 368 +;
#X obj 257 166 random 2;
#X obj 124 275 t f f;
#X obj 124 351 t b f;
#X obj 124 297 *;
#X obj 257 188 sel 0 1;
#X msg 257 280 -1;
#X msg 335 280 1;
#X obj 124 149 t b b b;
#X obj 124 74 r NUDGE!;
#X obj 157 193 r NUDGE-RANGE;
#X obj 247 308 inlet;
#X obj 232 397 outlet;
#X obj 124 96 spigot;
#X obj 185 79 r parameters2-s;
#X connect 0 0 4 0;
#X connect 1 0 2 0;
#X connect 2 0 14 0;
#X connect 3 0 7 0;
#X connect 4 0 6 0;
#X connect 5 0 2 0;
#X connect 5 1 2 1;
#X connect 6 0 5 0;
#X connect 7 0 8 0;
#X connect 7 1 9 0;
#X connect 8 0 6 1;
#X connect 9 0 6 1;
#X connect 10 0 0 0;
#X connect 10 1 1 0;
#X connect 10 2 3 0;
#X connect 11 0 15 0;
#X connect 12 0 0 1;
#X connect 13 0 1 1;
#X connect 15 0 10 0;
#X connect 16 0 15 1;
#X restore 569 594 pd nudge-parameters;
#X obj 829 616 clip 0 127;
#N canvas 0 22 1916 1001 nudge-parameters 0;
#X obj 124 234 random;
#X obj 232 335 f;
#X obj 232 368 +;
#X obj 257 166 random 2;
#X obj 124 275 t f f;
#X obj 124 351 t b f;
#X obj 124 297 *;
#X obj 257 188 sel 0 1;
#X msg 257 280 -1;
#X msg 335 280 1;
#X obj 124 149 t b b b;
#X obj 124 74 r NUDGE!;
#X obj 157 193 r NUDGE-RANGE;
#X obj 247 308 inlet;
#X obj 232 397 outlet;
#X obj 124 96 spigot;
#X obj 185 79 r parameters2-s;
#X connect 0 0 4 0;
#X connect 1 0 2 0;
#X connect 2 0 14 0;
#X connect 3 0 7 0;
#X connect 4 0 6 0;
#X connect 5 0 2 0;
#X connect 5 1 2 1;
#X connect 6 0 5 0;
#X connect 7 0 8 0;
#X connect 7 1 9 0;
#X connect 8 0 6 1;
#X connect 9 0 6 1;
#X connect 10 0 0 0;
#X connect 10 1 1 0;
#X connect 10 2 3 0;
#X connect 11 0 15 0;
#X connect 12 0 0 1;
#X connect 13 0 1 1;
#X connect 15 0 10 0;
#X connect 16 0 15 1;
#X restore 829 594 pd nudge-parameters;
#X obj 57 571 r \$0-kaseta-delay-head-1-volume-s;
#X obj 57 649 s \$0-kaseta-delay-head-1-volume-r;
#X obj 316 570 r \$0-kaseta-delay-head-2-volume-s;
#X obj 316 648 s \$0-kaseta-delay-head-2-volume-r;
#X obj 569 570 r \$0-kaseta-delay-head-3-volume-s;
#X obj 569 648 s \$0-kaseta-delay-head-3-volume-r;
#X obj 829 570 r \$0-kaseta-delay-head-4-volume-s;
#X obj 829 648 s \$0-kaseta-delay-head-4-volume-r;
#X obj 229 66 clip 0 127;
#N canvas 0 22 1916 1001 nudge-parameters 0;
#X obj 124 234 random;
#X obj 232 335 f;
#X obj 232 368 +;
#X obj 257 166 random 2;
#X obj 124 275 t f f;
#X obj 124 351 t b f;
#X obj 124 297 *;
#X obj 257 188 sel 0 1;
#X msg 257 280 -1;
#X msg 335 280 1;
#X obj 124 149 t b b b;
#X obj 124 74 r NUDGE!;
#X obj 157 193 r NUDGE-RANGE;
#X obj 247 308 inlet;
#X obj 232 397 outlet;
#X obj 124 96 spigot;
#X obj 185 79 r parameters2-s;
#X connect 0 0 4 0;
#X connect 1 0 2 0;
#X connect 2 0 14 0;
#X connect 3 0 7 0;
#X connect 4 0 6 0;
#X connect 5 0 2 0;
#X connect 5 1 2 1;
#X connect 6 0 5 0;
#X connect 7 0 8 0;
#X connect 7 1 9 0;
#X connect 8 0 6 1;
#X connect 9 0 6 1;
#X connect 10 0 0 0;
#X connect 10 1 1 0;
#X connect 10 2 3 0;
#X connect 11 0 15 0;
#X connect 12 0 0 1;
#X connect 13 0 1 1;
#X connect 15 0 10 0;
#X connect 16 0 15 1;
#X restore 229 44 pd nudge-parameters;
#X obj 229 21 r \$0-kaseta-dry-wet-s;
#X obj 229 98 s \$0-kaseta-dry-wet-r;
#X obj 621 193 clip 0 127;
#N canvas 0 22 1916 1001 nudge-parameters 0;
#X obj 124 234 random;
#X obj 232 335 f;
#X obj 232 368 +;
#X obj 257 166 random 2;
#X obj 124 275 t f f;
#X obj 124 351 t b f;
#X obj 124 297 *;
#X obj 257 188 sel 0 1;
#X msg 257 280 -1;
#X msg 335 280 1;
#X obj 124 149 t b b b;
#X obj 124 74 r NUDGE!;
#X obj 157 193 r NUDGE-RANGE;
#X obj 247 308 inlet;
#X obj 232 397 outlet;
#X obj 124 96 spigot;
#X obj 185 79 r parameters2-s;
#X connect 0 0 4 0;
#X connect 1 0 2 0;
#X connect 2 0 14 0;
#X connect 3 0 7 0;
#X connect 4 0 6 0;
#X connect 5 0 2 0;
#X connect 5 1 2 1;
#X connect 6 0 5 0;
#X connect 7 0 8 0;
#X connect 7 1 9 0;
#X connect 8 0 6 1;
#X connect 9 0 6 1;
#X connect 10 0 0 0;
#X connect 10 1 1 0;
#X connect 10 2 3 0;
#X connect 11 0 15 0;
#X connect 12 0 0 1;
#X connect 13 0 1 1;
#X connect 15 0 10 0;
#X connect 16 0 15 1;
#X restore 621 171 pd nudge-parameters;
#X obj 621 147 r \$0-kaseta-tone-s;
#X obj 620 225 s \$0-kaseta-tone-r;
#X obj 60 736 clip 0 127;
#N canvas 0 22 1916 1001 nudge-parameters 0;
#X obj 124 234 random;
#X obj 232 335 f;
#X obj 232 368 +;
#X obj 257 166 random 2;
#X obj 124 275 t f f;
#X obj 124 351 t b f;
#X obj 124 297 *;
#X obj 257 188 sel 0 1;
#X msg 257 280 -1;
#X msg 335 280 1;
#X obj 124 149 t b b b;
#X obj 124 74 r NUDGE!;
#X obj 157 193 r NUDGE-RANGE;
#X obj 247 308 inlet;
#X obj 232 397 outlet;
#X obj 124 96 spigot;
#X obj 185 79 r parameters2-s;
#X connect 0 0 4 0;
#X connect 1 0 2 0;
#X connect 2 0 14 0;
#X connect 3 0 7 0;
#X connect 4 0 6 0;
#X connect 5 0 2 0;
#X connect 5 1 2 1;
#X connect 6 0 5 0;
#X connect 7 0 8 0;
#X connect 7 1 9 0;
#X connect 8 0 6 1;
#X connect 9 0 6 1;
#X connect 10 0 0 0;
#X connect 10 1 1 0;
#X connect 10 2 3 0;
#X connect 11 0 15 0;
#X connect 12 0 0 1;
#X connect 13 0 1 1;
#X connect 15 0 10 0;
#X connect 16 0 15 1;
#X restore 60 714 pd nudge-parameters;
#X obj 319 735 clip 0 127;
#N canvas 0 22 1916 1001 nudge-parameters 0;
#X obj 124 234 random;
#X obj 232 335 f;
#X obj 232 368 +;
#X obj 257 166 random 2;
#X obj 124 275 t f f;
#X obj 124 351 t b f;
#X obj 124 297 *;
#X obj 257 188 sel 0 1;
#X msg 257 280 -1;
#X msg 335 280 1;
#X obj 124 149 t b b b;
#X obj 124 74 r NUDGE!;
#X obj 157 193 r NUDGE-RANGE;
#X obj 247 308 inlet;
#X obj 232 397 outlet;
#X obj 124 96 spigot;
#X obj 185 79 r parameters2-s;
#X connect 0 0 4 0;
#X connect 1 0 2 0;
#X connect 2 0 14 0;
#X connect 3 0 7 0;
#X connect 4 0 6 0;
#X connect 5 0 2 0;
#X connect 5 1 2 1;
#X connect 6 0 5 0;
#X connect 7 0 8 0;
#X connect 7 1 9 0;
#X connect 8 0 6 1;
#X connect 9 0 6 1;
#X connect 10 0 0 0;
#X connect 10 1 1 0;
#X connect 10 2 3 0;
#X connect 11 0 15 0;
#X connect 12 0 0 1;
#X connect 13 0 1 1;
#X connect 15 0 10 0;
#X connect 16 0 15 1;
#X restore 319 713 pd nudge-parameters;
#X obj 572 735 clip 0 127;
#N canvas 0 22 1916 1001 nudge-parameters 0;
#X obj 124 234 random;
#X obj 232 335 f;
#X obj 232 368 +;
#X obj 257 166 random 2;
#X obj 124 275 t f f;
#X obj 124 351 t b f;
#X obj 124 297 *;
#X obj 257 188 sel 0 1;
#X msg 257 280 -1;
#X msg 335 280 1;
#X obj 124 149 t b b b;
#X obj 124 74 r NUDGE!;
#X obj 157 193 r NUDGE-RANGE;
#X obj 247 308 inlet;
#X obj 232 397 outlet;
#X obj 124 96 spigot;
#X obj 185 79 r parameters2-s;
#X connect 0 0 4 0;
#X connect 1 0 2 0;
#X connect 2 0 14 0;
#X connect 3 0 7 0;
#X connect 4 0 6 0;
#X connect 5 0 2 0;
#X connect 5 1 2 1;
#X connect 6 0 5 0;
#X connect 7 0 8 0;
#X connect 7 1 9 0;
#X connect 8 0 6 1;
#X connect 9 0 6 1;
#X connect 10 0 0 0;
#X connect 10 1 1 0;
#X connect 10 2 3 0;
#X connect 11 0 15 0;
#X connect 12 0 0 1;
#X connect 13 0 1 1;
#X connect 15 0 10 0;
#X connect 16 0 15 1;
#X restore 572 713 pd nudge-parameters;
#X obj 832 735 clip 0 127;
#N canvas 0 22 1916 1001 nudge-parameters 0;
#X obj 124 234 random;
#X obj 232 335 f;
#X obj 232 368 +;
#X obj 257 166 random 2;
#X obj 124 275 t f f;
#X obj 124 351 t b f;
#X obj 124 297 *;
#X obj 257 188 sel 0 1;
#X msg 257 280 -1;
#X msg 335 280 1;
#X obj 124 149 t b b b;
#X obj 124 74 r NUDGE!;
#X obj 157 193 r NUDGE-RANGE;
#X obj 247 308 inlet;
#X obj 232 397 outlet;
#X obj 124 96 spigot;
#X obj 185 79 r parameters2-s;
#X connect 0 0 4 0;
#X connect 1 0 2 0;
#X connect 2 0 14 0;
#X connect 3 0 7 0;
#X connect 4 0 6 0;
#X connect 5 0 2 0;
#X connect 5 1 2 1;
#X connect 6 0 5 0;
#X connect 7 0 8 0;
#X connect 7 1 9 0;
#X connect 8 0 6 1;
#X connect 9 0 6 1;
#X connect 10 0 0 0;
#X connect 10 1 1 0;
#X connect 10 2 3 0;
#X connect 11 0 15 0;
#X connect 12 0 0 1;
#X connect 13 0 1 1;
#X connect 15 0 10 0;
#X connect 16 0 15 1;
#X restore 832 713 pd nudge-parameters;
#X obj 60 690 r \$0-kaseta-delay-head-1-pan-s;
#X obj 60 768 s \$0-kaseta-delay-head-1-pan-r;
#X obj 319 690 r \$0-kaseta-delay-head-2-pan-s;
#X obj 319 767 s \$0-kaseta-delay-head-2-pan-r;
#X obj 572 689 r \$0-kaseta-delay-head-3-pan-s;
#X obj 572 767 s \$0-kaseta-delay-head-3-pan-r;
#X obj 832 689 r \$0-kaseta-delay-head-4-pan-s;
#X obj 832 767 s \$0-kaseta-delay-head-4-pan-r;
#X connect 0 0 9 0;
#X connect 1 0 0 0;
#X connect 2 0 11 0;
#X connect 3 0 2 0;
#X connect 4 0 7 0;
#X connect 5 0 4 0;
#X connect 6 0 5 0;
#X connect 8 0 1 0;
#X connect 10 0 3 0;
#X connect 12 0 15 0;
#X connect 13 0 12 0;
#X connect 14 0 13 0;
#X connect 16 0 19 0;
#X connect 17 0 16 0;
#X connect 18 0 17 0;
#X connect 20 0 23 0;
#X connect 21 0 20 0;
#X connect 22 0 21 0;
#X connect 24 0 29 0;
#X connect 25 0 24 0;
#X connect 26 0 31 0;
#X connect 27 0 26 0;
#X connect 28 0 25 0;
#X connect 30 0 27 0;
#X connect 32 0 35 0;
#X connect 33 0 32 0;
#X connect 34 0 33 0;
#X connect 36 0 45 0;
#X connect 37 0 36 0;
#X connect 38 0 47 0;
#X connect 39 0 38 0;
#X connect 40 0 49 0;
#X connect 41 0 40 0;
#X connect 42 0 51 0;
#X connect 43 0 42 0;
#X connect 44 0 37 0;
#X connect 46 0 39 0;
#X connect 48 0 41 0;
#X connect 50 0 43 0;
#X connect 52 0 61 0;
#X connect 53 0 52 0;
#X connect 54 0 63 0;
#X connect 55 0 54 0;
#X connect 56 0 65 0;
#X connect 57 0 56 0;
#X connect 58 0 67 0;
#X connect 59 0 58 0;
#X connect 60 0 53 0;
#X connect 62 0 55 0;
#X connect 64 0 57 0;
#X connect 66 0 59 0;
#X connect 68 0 71 0;
#X connect 69 0 68 0;
#X connect 70 0 69 0;
#X connect 72 0 75 0;
#X connect 73 0 72 0;
#X connect 74 0 73 0;
#X connect 76 0 85 0;
#X connect 77 0 76 0;
#X connect 78 0 87 0;
#X connect 79 0 78 0;
#X connect 80 0 89 0;
#X connect 81 0 80 0;
#X connect 82 0 91 0;
#X connect 83 0 82 0;
#X connect 84 0 77 0;
#X connect 86 0 79 0;
#X connect 88 0 81 0;
#X connect 90 0 83 0;
#X restore 95 615 pd parameter-nudging-system;
#N canvas 474 23 1916 1001 external-messages 0;
#X floatatom 148 651 5 0 0 0 - - - 0;
#X obj 185 328 spigot;
#X obj 218 288 tgl 15 0 empty empty empty 17 7 0 10 #fcfcfc #000000
#000000 0 1;
#X obj 254 272 ==;
#X obj 269 248 f \$1;
#X obj 269 224 loadbang;
#X msg 185 202 \$1 \$2;
#X msg 185 156 symbol \$1;
#X obj 185 180 pack s f;
#X obj 148 630 f;
#X obj 148 578 t b f;
#X obj 148 601 spigot;
#X obj 185 62 unpack s f f;
#X symbolatom 185 94 10 0 0 0 - - - 0;
#X obj 218 308 t f f;
#X obj 245 332 s \$0-msg-spigot;
#X obj 196 585 r \$0-msg-spigot;
#X floatatom 225 516 5 0 0 0 - - - 0;
#X obj 225 495 f;
#X obj 225 443 t b f;
#X obj 225 466 spigot;
#X obj 273 450 r \$0-msg-spigot;
#X floatatom 416 518 5 0 0 0 - - - 0;
#X obj 416 497 f;
#X obj 416 445 t b f;
#X obj 416 468 spigot;
#X obj 464 452 r \$0-msg-spigot;
#X obj 185 14 r kaseta;
#X floatatom 599 518 5 0 0 0 - - - 0;
#X obj 599 497 f;
#X obj 599 445 t b f;
#X obj 599 468 spigot;
#X obj 647 452 r \$0-msg-spigot;
#X floatatom 686 653 5 0 0 0 - - - 0;
#X obj 686 632 f;
#X obj 686 580 t b f;
#X obj 686 603 spigot;
#X obj 734 587 r \$0-msg-spigot;
#X floatatom 784 519 5 0 0 0 - - - 0;
#X obj 784 498 f;
#X obj 784 446 t b f;
#X obj 784 469 spigot;
#X obj 832 453 r \$0-msg-spigot;
#X floatatom 857 653 5 0 0 0 - - - 0;
#X obj 857 632 f;
#X obj 857 580 t b f;
#X obj 857 603 spigot;
#X obj 905 587 r \$0-msg-spigot;
#X floatatom 1013 517 5 0 0 0 - - - 0;
#X obj 1013 496 f;
#X obj 1013 444 t b f;
#X obj 1013 467 spigot;
#X obj 1061 451 r \$0-msg-spigot;
#X floatatom 1089 652 5 0 0 0 - - - 0;
#X obj 1089 631 f;
#X obj 1089 579 t b f;
#X obj 1089 602 spigot;
#X obj 1137 586 r \$0-msg-spigot;
#X floatatom 1227 517 5 0 0 0 - - - 0;
#X obj 1227 496 f;
#X obj 1227 444 t b f;
#X obj 1227 467 spigot;
#X obj 1275 451 r \$0-msg-spigot;
#X floatatom 1302 651 5 0 0 0 - - - 0;
#X obj 1302 630 f;
#X obj 1302 578 t b f;
#X obj 1302 601 spigot;
#X obj 1350 585 r \$0-msg-spigot;
#X floatatom 85 803 5 0 0 0 - - - 0;
#X obj 85 782 f;
#X obj 85 730 t b f;
#X obj 85 753 spigot;
#X obj 133 737 r \$0-msg-spigot;
#X floatatom 333 803 5 0 0 0 - - - 0;
#X obj 333 782 f;
#X obj 333 730 t b f;
#X obj 333 753 spigot;
#X obj 381 737 r \$0-msg-spigot;
#X floatatom 578 804 5 0 0 0 - - - 0;
#X obj 578 783 f;
#X obj 578 731 t b f;
#X obj 578 754 spigot;
#X obj 626 738 r \$0-msg-spigot;
#X floatatom 818 806 5 0 0 0 - - - 0;
#X obj 818 785 f;
#X obj 818 733 t b f;
#X obj 818 756 spigot;
#X obj 866 740 r \$0-msg-spigot;
#X floatatom 87 927 5 0 0 0 - - - 0;
#X obj 87 906 f;
#X obj 87 854 t b f;
#X obj 87 877 spigot;
#X obj 135 861 r \$0-msg-spigot;
#X floatatom 335 927 5 0 0 0 - - - 0;
#X obj 335 906 f;
#X obj 335 854 t b f;
#X obj 335 877 spigot;
#X obj 383 861 r \$0-msg-spigot;
#X floatatom 580 928 5 0 0 0 - - - 0;
#X obj 580 907 f;
#X obj 580 855 t b f;
#X obj 580 878 spigot;
#X obj 628 862 r \$0-msg-spigot;
#X floatatom 820 930 5 0 0 0 - - - 0;
#X obj 820 909 f;
#X obj 820 857 t b f;
#X obj 820 880 spigot;
#X obj 868 864 r \$0-msg-spigot;
#X obj 225 536 s \$0-kaseta-drive-r;
#X obj 416 538 s \$0-kaseta-bias-r;
#X obj 599 538 s \$0-kaseta-wow-depth-r;
#X obj 784 539 s \$0-kaseta-delay-head-1-position-r;
#X obj 1013 537 s \$0-kaseta-delay-head-3-position-r;
#X obj 1227 537 s \$0-kaseta-delay-quantization-8-r;
#X obj 1302 671 s \$0-kaseta-delay-quantization-6-r;
#X obj 1089 672 s \$0-kaseta-delay-head-4-position-r;
#X obj 857 673 s \$0-kaseta-delay-head-2-position-r;
#X obj 686 674 s \$0-kaseta-delay-length-r;
#X obj 148 671 s \$0-kaseta-pre-amp-r;
#X obj 85 823 s \$0-kaseta-delay-head-1-feedback-amp-r;
#X obj 333 822 s \$0-kaseta-delay-head-2-feedback-amp-r;
#X obj 578 824 s \$0-kaseta-delay-head-3-feedback-amp-r;
#X obj 818 826 s \$0-kaseta-delay-head-4-feedback-amp-r;
#X obj 820 950 s \$0-kaseta-delay-head-4-volume-r;
#X obj 580 948 s \$0-kaseta-delay-head-3-volume-r;
#X obj 335 946 s \$0-kaseta-delay-head-2-volume-r;
#X obj 87 947 s \$0-kaseta-delay-head-1-volume-r;
#X floatatom 66 515 5 0 0 0 - - - 0;
#X obj 66 494 f;
#X obj 66 442 t b f;
#X obj 66 465 spigot;
#X obj 114 449 r \$0-msg-spigot;
#X obj 66 535 s \$0-kaseta-dry-wet-r;
#X floatatom 522 658 5 0 0 0 - - - 0;
#X obj 522 637 f;
#X obj 522 585 t b f;
#X obj 522 608 spigot;
#X obj 570 592 r \$0-msg-spigot;
#X obj 522 678 s \$0-kaseta-tone-r;
#X obj 185 359 route PRE-AMP DRIVE DRY_WET BIAS WOW_FREQ WOW_DEPTH
DELAY_LENGTH DELAY_HEAD_1_POSITION DELAY_HEAD_2_POSITION DELAY_HEAD_3_POSITION
DELAY_HEAD_4_POSITION DELAY_QUANTIZATION_8 DELAY_QUANTIZATION_6 DELAY_HEAD_1_PLAY
DELAY_HEAD_2_PLAY DELAY_HEAD_3_PLAY DELAY_HEAD_4_PLAY DELAY_HEAD_1_FEEDBACK
DELAY_HEAD_2_FEEDBACK DELAY_HEAD_3_FEEDBACK DELAY_HEAD_4_FEEDBACK DELAY_HEAD_1_FEEDBACK_AMP
DELAY_HEAD_2_FEEDBACK_AMP DELAY_HEAD_3_FEEDBACK_AMP DELAY_HEAD_4_FEEDBACK_AMP
DELAY_HEAD_1_VOLUME DELAY_HEAD_2_VOLUME DELAY_HEAD_3_VOLUME DELAY_HEAD_4_VOLUME
WOW_AP_MIX WOW_AMP_NOISE WOW_AMP_SPRING WOW_AMP_FILTER WOW_PHS_NOISE
WOW_PHS_SPRING WOW_PHS_FILTER WOW_PHS_DRIFT TONE DELAY_HEAD_1_PAN DELAY_HEAD_2_PAN
DELAY_HEAD_3_PAN DELAY_HEAD_4_PAN, f 198;
#X floatatom 1102 790 5 0 0 0 - - - 0;
#X obj 1102 769 f;
#X obj 1102 717 t b f;
#X obj 1102 740 spigot;
#X obj 1150 724 r \$0-msg-spigot;
#X floatatom 1350 790 5 0 0 0 - - - 0;
#X obj 1350 769 f;
#X obj 1350 717 t b f;
#X obj 1350 740 spigot;
#X obj 1398 724 r \$0-msg-spigot;
#X floatatom 1114 920 5 0 0 0 - - - 0;
#X obj 1114 899 f;
#X obj 1114 847 t b f;
#X obj 1114 870 spigot;
#X obj 1162 854 r \$0-msg-spigot;
#X floatatom 1354 922 5 0 0 0 - - - 0;
#X obj 1354 901 f;
#X obj 1354 849 t b f;
#X obj 1354 872 spigot;
#X obj 1402 856 r \$0-msg-spigot;
#X obj 1102 810 s \$0-kaseta-delay-head-1-pan-r;
#X obj 1350 809 s \$0-kaseta-delay-head-2-pan-r;
#X obj 1113 940 s \$0-kaseta-delay-head-3-pan-r;
#X obj 1354 942 s \$0-kaseta-delay-head-4-pan-r;
#X connect 0 0 118 0;
#X connect 1 0 139 0;
#X connect 2 0 14 0;
#X connect 3 0 2 0;
#X connect 4 0 3 1;
#X connect 5 0 4 0;
#X connect 6 0 1 0;
#X connect 7 0 8 0;
#X connect 8 0 6 0;
#X connect 9 0 0 0;
#X connect 10 0 11 0;
#X connect 10 1 9 1;
#X connect 11 0 9 0;
#X connect 12 0 13 0;
#X connect 12 1 8 1;
#X connect 12 2 3 0;
#X connect 13 0 7 0;
#X connect 14 0 1 1;
#X connect 14 1 15 0;
#X connect 16 0 11 1;
#X connect 17 0 108 0;
#X connect 18 0 17 0;
#X connect 19 0 20 0;
#X connect 19 1 18 1;
#X connect 20 0 18 0;
#X connect 21 0 20 1;
#X connect 22 0 109 0;
#X connect 23 0 22 0;
#X connect 24 0 25 0;
#X connect 24 1 23 1;
#X connect 25 0 23 0;
#X connect 26 0 25 1;
#X connect 27 0 12 0;
#X connect 28 0 110 0;
#X connect 29 0 28 0;
#X connect 30 0 31 0;
#X connect 30 1 29 1;
#X connect 31 0 29 0;
#X connect 32 0 31 1;
#X connect 33 0 117 0;
#X connect 34 0 33 0;
#X connect 35 0 36 0;
#X connect 35 1 34 1;
#X connect 36 0 34 0;
#X connect 37 0 36 1;
#X connect 38 0 111 0;
#X connect 39 0 38 0;
#X connect 40 0 41 0;
#X connect 40 1 39 1;
#X connect 41 0 39 0;
#X connect 42 0 41 1;
#X connect 43 0 116 0;
#X connect 44 0 43 0;
#X connect 45 0 46 0;
#X connect 45 1 44 1;
#X connect 46 0 44 0;
#X connect 47 0 46 1;
#X connect 48 0 112 0;
#X connect 49 0 48 0;
#X connect 50 0 51 0;
#X connect 50 1 49 1;
#X connect 51 0 49 0;
#X connect 52 0 51 1;
#X connect 53 0 115 0;
#X connect 54 0 53 0;
#X connect 55 0 56 0;
#X connect 55 1 54 1;
#X connect 56 0 54 0;
#X connect 57 0 56 1;
#X connect 58 0 113 0;
#X connect 59 0 58 0;
#X connect 60 0 61 0;
#X connect 60 1 59 1;
#X connect 61 0 59 0;
#X connect 62 0 61 1;
#X connect 63 0 114 0;
#X connect 64 0 63 0;
#X connect 65 0 66 0;
#X connect 65 1 64 1;
#X connect 66 0 64 0;
#X connect 67 0 66 1;
#X connect 68 0 119 0;
#X connect 69 0 68 0;
#X connect 70 0 71 0;
#X connect 70 1 69 1;
#X connect 71 0 69 0;
#X connect 72 0 71 1;
#X connect 73 0 120 0;
#X connect 74 0 73 0;
#X connect 75 0 76 0;
#X connect 75 1 74 1;
#X connect 76 0 74 0;
#X connect 77 0 76 1;
#X connect 78 0 121 0;
#X connect 79 0 78 0;
#X connect 80 0 81 0;
#X connect 80 1 79 1;
#X connect 81 0 79 0;
#X connect 82 0 81 1;
#X connect 83 0 122 0;
#X connect 84 0 83 0;
#X connect 85 0 86 0;
#X connect 85 1 84 1;
#X connect 86 0 84 0;
#X connect 87 0 86 1;
#X connect 88 0 126 0;
#X connect 89 0 88 0;
#X connect 90 0 91 0;
#X connect 90 1 89 1;
#X connect 91 0 89 0;
#X connect 92 0 91 1;
#X connect 93 0 125 0;
#X connect 94 0 93 0;
#X connect 95 0 96 0;
#X connect 95 1 94 1;
#X connect 96 0 94 0;
#X connect 97 0 96 1;
#X connect 98 0 124 0;
#X connect 99 0 98 0;
#X connect 100 0 101 0;
#X connect 100 1 99 1;
#X connect 101 0 99 0;
#X connect 102 0 101 1;
#X connect 103 0 123 0;
#X connect 104 0 103 0;
#X connect 105 0 106 0;
#X connect 105 1 104 1;
#X connect 106 0 104 0;
#X connect 107 0 106 1;
#X connect 127 0 132 0;
#X connect 128 0 127 0;
#X connect 129 0 130 0;
#X connect 129 1 128 1;
#X connect 130 0 128 0;
#X connect 131 0 130 1;
#X connect 133 0 138 0;
#X connect 134 0 133 0;
#X connect 135 0 136 0;
#X connect 135 1 134 1;
#X connect 136 0 134 0;
#X connect 137 0 136 1;
#X connect 139 0 10 0;
#X connect 139 1 19 0;
#X connect 139 2 129 0;
#X connect 139 3 24 0;
#X connect 139 5 30 0;
#X connect 139 6 35 0;
#X connect 139 7 40 0;
#X connect 139 8 45 0;
#X connect 139 9 50 0;
#X connect 139 10 55 0;
#X connect 139 11 60 0;
#X connect 139 12 65 0;
#X connect 139 21 70 0;
#X connect 139 22 75 0;
#X connect 139 23 80 0;
#X connect 139 24 85 0;
#X connect 139 25 90 0;
#X connect 139 26 95 0;
#X connect 139 27 100 0;
#X connect 139 28 105 0;
#X connect 139 37 135 0;
#X connect 139 38 142 0;
#X connect 139 39 147 0;
#X connect 139 40 152 0;
#X connect 139 41 157 0;
#X connect 140 0 160 0;
#X connect 141 0 140 0;
#X connect 142 0 143 0;
#X connect 142 1 141 1;
#X connect 143 0 141 0;
#X connect 144 0 143 1;
#X connect 145 0 161 0;
#X connect 146 0 145 0;
#X connect 147 0 148 0;
#X connect 147 1 146 1;
#X connect 148 0 146 0;
#X connect 149 0 148 1;
#X connect 150 0 162 0;
#X connect 151 0 150 0;
#X connect 152 0 153 0;
#X connect 152 1 151 1;
#X connect 153 0 151 0;
#X connect 154 0 153 1;
#X connect 155 0 163 0;
#X connect 156 0 155 0;
#X connect 157 0 158 0;
#X connect 157 1 156 1;
#X connect 158 0 156 0;
#X connect 159 0 158 1;
#X restore 96 589 pd external-messages;
#X obj 597 835 / 127;
#X obj 105 110 cnv 5 5 5 empty empty IN 0 0 0 8 #fcfcfc #404040 0;
#X obj 155 109 cnv 5 5 5 empty empty DRIVE 0 0 0 8 #fcfcfc #7474a4
0;
#X obj 243 109 cnv 5 5 5 empty empty BIAS 0 0 0 8 #fcfcfc #7474a4 0
;
#X obj 107 128 cnv 5 5 5 empty empty KASETA 0 0 0 12 #fcfcfc #404040
0;
#X obj 154 128 cnv 5 5 5 empty \$0-instance-num 2 0 0 0 12 #fcfcfc
#404040 0;
#X obj 110 145 hsl 128 15 1.27 127 1 1 \$0-kaseta-pre-amp-s \$0-kaseta-pre-amp-r
PRE-AMP 133 7 0 10 #fcfcfc #000000 #000000 8200 1;
#X obj 110 175 hsl 128 15 0 127 0 1 \$0-kaseta-drive-s \$0-kaseta-drive-r
DRIVE 133 7 0 10 #fcfcfc #000000 #000000 10600 1;
#X obj 110 190 hsl 128 15 0 127 0 1 \$0-kaseta-bias-s \$0-kaseta-bias-r
BIAS 133 7 0 10 #fcfcfc #000000 #000000 700 1;
#X obj 1786 997 kaseta~, f 34;
#X obj 840 108 inlet~ IN;
#X obj 1773 131 r~ \$0-kaseta-in;
#X obj 1789 155 r \$0-kaseta-pre-amp;
#X obj 597 812 r \$0-kaseta-pre-amp-s;
#X obj 597 858 s \$0-kaseta-pre-amp;
#X obj 863 231 snapshot~;
#X obj 877 189 loadbang;
#X obj 877 210 metro;
#X obj 597 993 / 127;
#X obj 862 167 inlet~ DRIVE;
#X obj 597 970 r \$0-kaseta-drive-s;
#X obj 911 389 snapshot~;
#X obj 925 347 loadbang;
#X obj 925 368 metro;
#X obj 597 1066 / 127;
#X obj 910 325 inlet~ BIAS;
#X obj 597 1043 r \$0-kaseta-bias-s;
#X obj 839 132 s~ \$0-kaseta-in;
#X msg 1808 287 drive_pot \$1;
#X obj 1808 265 r \$0-kaseta-drive-pot;
#X obj 1820 310 r \$0-kaseta-drive-cv;
#X msg 1820 332 drive_cv \$1;
#X obj 1828 361 r \$0-kaseta-bias-pot;
#X obj 1837 408 r \$0-kaseta-bias-cv;
#X msg 1837 432 bias_cv \$1;
#X obj 597 1015 s \$0-kaseta-drive-pot;
#X obj 597 1088 s \$0-kaseta-bias-pot;
#X obj 911 413 s \$0-kaseta-bias-cv;
#X obj 863 256 s \$0-kaseta-drive-cv;
#X msg 1828 385 bias_pot \$1;
#X msg 1789 177 pre_amp_pot \$1;
#X obj 1865 559 r \$0-kaseta-wow-depth-pot;
#X msg 1865 583 wow_depth_pot \$1;
#X obj 1874 606 r \$0-kaseta-wow-depth-cv;
#X msg 1874 630 wow_depth_cv \$1;
#X obj 330 144 hsl 128 15 0 127 0 1 \$0-kaseta-wow-depth-s \$0-kaseta-wow-depth-r
DEPTH 133 7 0 10 #fcfcfc #000000 #000000 8100 1;
#X obj 785 899 / 127;
#X obj 785 876 r \$0-kaseta-wow-depth-s;
#X obj 785 921 s \$0-kaseta-wow-depth-pot;
#X obj 1122 166 snapshot~;
#X obj 1136 124 loadbang;
#X obj 1136 145 metro;
#X obj 1121 102 inlet~ WOW_FREQ;
#X obj 1122 190 s \$0-kaseta-wow-frequency-cv;
#X obj 1188 326 snapshot~;
#X obj 1202 284 loadbang;
#X obj 1202 305 metro;
#X obj 1187 262 inlet~ WOW_DEPTH;
#X obj 1188 351 s \$0-kaseta-wow-depth-cv;
#X obj 329 109 cnv 5 5 5 empty empty WOW\\\ F. 0 0 0 8 #fcfcfc #7474a4
0;
#X obj 397 109 cnv 5 5 5 empty empty WOW\\\ D. 0 0 0 8 #fcfcfc #7474a4
0;
#X obj 542 145 hsl 128 15 0 127 0 1 \$0-kaseta-delay-length-s \$0-kaseta-delay-length-r
DELAY 133 7 0 10 #fcfcfc #000000 #000000 200 1;
#X obj 542 184 hsl 128 15 0 127 0 1 \$0-kaseta-delay-head-1-position-s
\$0-kaseta-delay-head-1-position-r H1 133 7 0 10 #fcfcfc #000000 #000000
0 1;
#X obj 542 199 hsl 128 15 0 127 0 1 \$0-kaseta-delay-head-2-position-s
\$0-kaseta-delay-head-2-position-r H2 133 7 0 10 #fcfcfc #000000 #000000
3300 1;
#X obj 542 214 hsl 128 15 0 127 0 1 \$0-kaseta-delay-head-3-position-s
\$0-kaseta-delay-head-3-position-r H3 133 7 0 10 #fcfcfc #000000 #000000
1600 1;
#X obj 542 229 hsl 128 15 0 127 0 1 \$0-kaseta-delay-head-4-position-s
\$0-kaseta-delay-head-4-position-r H4 133 7 0 10 #fcfcfc #000000 #000000
7600 1;
#X obj 785 969 / 127;
#X obj 785 946 r \$0-kaseta-delay-length-s;
#X obj 785 991 s \$0-kaseta-delay-length-pot;
#X obj 786 1039 / 127;
#X obj 786 1016 r \$0-kaseta-delay-head-1-position-s;
#X obj 786 1061 s \$0-kaseta-delay-head-1-position-pot;
#X obj 786 1107 / 127;
#X obj 786 1084 r \$0-kaseta-delay-head-2-position-s;
#X obj 786 1129 s \$0-kaseta-delay-head-2-position-pot;
#X obj 785 1173 / 127;
#X obj 785 1150 r \$0-kaseta-delay-head-3-position-s;
#X obj 785 1195 s \$0-kaseta-delay-head-3-position-pot;
#X obj 785 1241 / 127;
#X obj 785 1218 r \$0-kaseta-delay-head-4-position-s;
#X obj 785 1263 s \$0-kaseta-delay-head-4-position-pot;
#X obj 1883 656 r \$0-kaseta-delay-length-pot;
#X msg 1883 680 delay_length_pot \$1;
#X obj 1892 703 r \$0-kaseta-delay-length-cv;
#X msg 1892 727 delay_length_cv \$1;
#X obj 1901 752 r \$0-kaseta-delay-head-1-position-pot;
#X msg 1901 776 delay_head_1_position_pot \$1;
#X obj 1908 802 r \$0-kaseta-delay-head-1-position-cv;
#X obj 1917 853 r \$0-kaseta-delay-head-2-position-pot;
#X msg 1917 877 delay_head_2_position_pot \$1;
#X obj 2027 131 r \$0-kaseta-delay-head-3-position-pot;
#X obj 1926 900 r \$0-kaseta-delay-head-2-position-cv;
#X msg 2027 155 delay_head_3_position_pot \$1;
#X obj 2036 178 r \$0-kaseta-delay-head-3-position-cv;
#X obj 2048 228 r \$0-kaseta-delay-head-4-position-pot;
#X msg 2048 253 delay_head_4_position_pot \$1;
#X obj 2057 276 r \$0-kaseta-delay-head-4-position-cv;
#X obj 1214 492 snapshot~;
#X obj 1228 450 loadbang;
#X obj 1228 471 metro;
#X obj 1213 428 inlet~ DELAY_LENGTH;
#X obj 1214 516 s \$0-kaseta-delay-length-cv;
#X obj 1441 166 snapshot~;
#X obj 1455 124 loadbang;
#X obj 1455 145 metro;
#X obj 1440 102 inlet~ DELAY_HEAD_1_POSITION;
#X obj 1441 190 s \$0-kaseta-delay-head-1-position-cv;
#X obj 1456 288 snapshot~;
#X obj 1470 246 loadbang;
#X obj 1470 267 metro;
#X obj 1455 225 inlet~ DELAY_HEAD_2_POSITION;
#X obj 1456 311 s \$0-kaseta-delay-head-2-position-cv;
#X obj 1470 408 snapshot~;
#X obj 1484 366 loadbang;
#X obj 1484 387 metro;
#X obj 1469 344 inlet~ DELAY_HEAD_3_POSITION;
#X obj 1470 432 s \$0-kaseta-delay-head-3-position-cv;
#X obj 1482 526 snapshot~;
#X obj 1496 484 loadbang;
#X obj 1496 505 metro;
#X obj 1481 462 inlet~ DELAY_HEAD_4_POSITION;
#X obj 1482 550 s \$0-kaseta-delay-head-4-position-cv;
#X obj 469 109 cnv 5 5 5 empty empty DELAY 0 0 0 8 #fcfcfc #7474a4
0;
#X obj 527 109 cnv 5 5 5 empty empty POS.1 0 0 0 8 #fcfcfc #7474a4
0;
#X obj 588 109 cnv 5 5 5 empty empty POS.2 0 0 0 8 #fcfcfc #7474a4
0;
#X obj 641 109 cnv 5 5 5 empty empty POS.3 0 0 0 8 #fcfcfc #7474a4
0;
#X obj 702 109 cnv 5 5 5 empty empty POS.4 0 0 0 8 #fcfcfc #7474a4
0;
#X msg 1908 826 delay_head_1_position_cv \$1;
#X msg 1926 924 delay_head_2_position_cv \$1;
#X msg 2036 202 delay_head_3_position_cv \$1;
#X msg 2057 300 delay_head_4_position_cv \$1;
#X text 693 189 P;
#X text 693 204 O;
#X text 693 219 S;
#X obj 1034 804 r \$0-kaseta-delay-quantization-8-s;
#X obj 1034 825 s \$0-kaseta-delay-quantization-8-switch;
#X obj 2067 326 r \$0-kaseta-delay-quantization-8-switch;
#X msg 2067 350 delay_quantization_8 \$1;
#X obj 1034 848 r \$0-kaseta-delay-quantization-6-s;
#X obj 1034 869 s \$0-kaseta-delay-quantization-6-switch;
#X obj 2079 376 r \$0-kaseta-delay-quantization-6-switch;
#X msg 2079 400 delay_quantization_6 \$1;
#X obj 542 314 hsl 128 15 0 127 0 1 \$0-kaseta-delay-head-1-feedback-amp-s
\$0-kaseta-delay-head-1-feedback-amp-r H1 133 7 0 10 #fcfcfc #000000
#000000 8000 1;
#X obj 542 329 hsl 128 15 0 127 0 1 \$0-kaseta-delay-head-2-feedback-amp-s
\$0-kaseta-delay-head-2-feedback-amp-r H2 133 7 0 10 #fcfcfc #000000
#000000 0 1;
#X obj 542 344 hsl 128 15 0 127 0 1 \$0-kaseta-delay-head-3-feedback-amp-s
\$0-kaseta-delay-head-3-feedback-amp-r H3 133 7 0 10 #fcfcfc #000000
#000000 0 1;
#X obj 542 359 hsl 128 15 0 127 0 1 \$0-kaseta-delay-head-4-feedback-amp-s
\$0-kaseta-delay-head-4-feedback-amp-r H4 133 7 0 10 #fcfcfc #000000
#000000 0 1;
#X text 693 319 F;
#X text 693 334 B;
#X text 693 349 K;
#X obj 1311 828 / 127;
#X obj 1311 896 / 127;
#X obj 1310 962 / 127;
#X obj 1310 1030 / 127;
#X obj 1311 805 r \$0-kaseta-delay-head-1-feedback-amp-s;
#X obj 1311 850 s \$0-kaseta-delay-head-1-feedback-amp-pot;
#X obj 1311 873 r \$0-kaseta-delay-head-2-feedback-amp-s;
#X obj 1311 918 s \$0-kaseta-delay-head-2-feedback-amp-pot;
#X obj 1310 939 r \$0-kaseta-delay-head-3-feedback-amp-s;
#X obj 1310 984 s \$0-kaseta-delay-head-3-feedback-amp-pot;
#X obj 1310 1007 r \$0-kaseta-delay-head-4-feedback-amp-s;
#X obj 1310 1052 s \$0-kaseta-delay-head-4-feedback-amp-pot;
#X obj 2086 430 r \$0-kaseta-delay-head-1-feedback-amp-pot;
#X msg 2086 454 delay_head_1_feedback_amp \$1;
#X obj 2095 477 r \$0-kaseta-delay-head-2-feedback-amp-pot;
#X msg 2095 501 delay_head_2_feedback_amp \$1;
#X obj 2104 524 r \$0-kaseta-delay-head-3-feedback-amp-pot;
#X msg 2104 548 delay_head_3_feedback_amp \$1;
#X obj 2114 573 r \$0-kaseta-delay-head-4-feedback-amp-pot;
#X msg 2114 597 delay_head_4_feedback_amp \$1;
#X obj 542 249 hsl 128 15 0 127 0 1 \$0-kaseta-delay-head-1-volume-s
\$0-kaseta-delay-head-1-volume-r H1 133 7 0 10 #fcfcfc #000000 #000000
7000 1;
#X obj 542 264 hsl 128 15 0 127 0 1 \$0-kaseta-delay-head-2-volume-s
\$0-kaseta-delay-head-2-volume-r H2 133 7 0 10 #fcfcfc #000000 #000000
4000 1;
#X obj 542 279 hsl 128 15 0 127 0 1 \$0-kaseta-delay-head-3-volume-s
\$0-kaseta-delay-head-3-volume-r H3 133 7 0 10 #fcfcfc #000000 #000000
3000 1;
#X obj 542 294 hsl 128 15 0 127 0 1 \$0-kaseta-delay-head-4-volume-s
\$0-kaseta-delay-head-4-volume-r H4 133 7 0 10 #fcfcfc #000000 #000000
4000 1;
#X text 693 254 V;
#X text 693 269 O;
#X text 693 284 L;
#X obj 1310 1100 / 127;
#X obj 1310 1168 / 127;
#X obj 1309 1234 / 127;
#X obj 1309 1302 / 127;
#X obj 1310 1077 r \$0-kaseta-delay-head-1-volume-s;
#X obj 1310 1122 s \$0-kaseta-delay-head-1-volume-pot;
#X obj 1310 1146 r \$0-kaseta-delay-head-2-volume-s;
#X obj 1310 1190 s \$0-kaseta-delay-head-2-volume-pot;
#X obj 1309 1211 r \$0-kaseta-delay-head-3-volume-s;
#X obj 1309 1256 s \$0-kaseta-delay-head-3-volume-pot;
#X obj 1309 1279 r \$0-kaseta-delay-head-4-volume-s;
#X obj 1309 1324 s \$0-kaseta-delay-head-4-volume-pot;
#X obj 2302 132 r \$0-kaseta-delay-head-1-volume-pot;
#X obj 2311 179 r \$0-kaseta-delay-head-2-volume-pot;
#X msg 2302 156 delay_head_1_volume \$1;
#X msg 2311 203 delay_head_2_volume \$1;
#X obj 2320 226 r \$0-kaseta-delay-head-3-volume-pot;
#X msg 2320 250 delay_head_3_volume \$1;
#X obj 2329 275 r \$0-kaseta-delay-head-4-volume-pot;
#X msg 2329 300 delay_head_4_volume \$1;
#X text 638 126 DELAY;
#X text 175 124 HYSTERESIS;
#X obj 1189 66 cnv 5 20 20 empty empty INPUT\\\ BINDINGS 0 0 0 20 #ffffff
#2f004d 0;
#X obj 1007 770 cnv 5 20 20 empty empty SLIDER\\\ BINDINGS 0 0 0 20
#ffffff #2f004d 0;
#X obj 2064 97 cnv 5 20 20 empty empty SIGNALS\\\ TO\\\ EXTERNAL 0
0 0 20 #ffffff #2f004d 0;
#X obj 396 72 cnv 5 20 20 empty empty INTERFACE 0 0 0 20 #ffffff #2f004d
0;
#X obj 70 806 cnv 5 20 20 empty empty OUTPUT\\\ BINDINGS 0 0 0 20 #ffffff
#2f004d 0;
#X obj 75 565 cnv 5 20 20 empty empty AUTOMATONISM\\\ INTEGRATION 0
0 0 20 #ffffff #2f004d 0;
#X obj 2464 2961;
#X obj 112 217 hradio 15 1 0 2 empty empty ORDER 33 7 0 10 #fcfcfc
#000000 #000000 0;
#X obj 112 232 hradio 15 1 0 2 \$0-kaseta-range-s \$0-kaseta-range-r
RANGE 33 7 0 10 #fcfcfc #000000 #000000 0;
#X obj 112 247 hradio 15 1 0 2 empty empty DANGER 33 7 0 10 #fcfcfc
#000000 #000000 0;
#X obj 112 262 hradio 15 1 0 2 \$0-kaseta-delay-quantization-6-s \$0-kaseta-delay-quantization-6-r
QUANT6 33 7 0 10 #fcfcfc #000000 #000000 0;
#X obj 112 277 hradio 15 1 0 2 \$0-kaseta-delay-quantization-8-s \$0-kaseta-delay-quantization-8-r
QUANT8 33 7 0 10 #fcfcfc #000000 #000000 0;
#X obj 112 337 hradio 15 1 0 2 \$0-kaseta-rewind-forward-s \$0-kaseta-rewind-forward-r
REWIND<- 33 7 0 10 #fcfcfc #000000 #000000 0;
#X obj 112 292 hradio 15 1 0 2 empty empty SYNC\\\ W/F 33 7 0 10 #fcfcfc
#000000 #000000 0;
#X obj 112 307 hradio 15 1 0 2 empty empty CYCLE\\\ W/F 33 7 0 10 #fcfcfc
#000000 #000000 0;
#X obj 112 322 hradio 15 1 0 2 empty empty CRACKLING 33 7 0 10 #fcfcfc
#000000 #000000 0;
#X obj 112 352 hradio 15 1 0 2 \$0-kaseta-rewind-backward-s \$0-kaseta-rewind-backward-r
REWIND-> 33 7 0 10 #fcfcfc #000000 #000000 0;
#X obj 110 160 hsl 128 15 0 127 0 1 \$0-kaseta-dry-wet-s \$0-kaseta-dry-wet-r
DRY/WET 133 7 0 10 #fcfcfc #000000 #000000 11900 1;
#X obj 597 917 / 127;
#X obj 597 894 r \$0-kaseta-dry-wet-s;
#X obj 597 939 s \$0-kaseta-dry-wet-pot;
#X obj 1800 213 r \$0-kaseta-dry-wet-pot;
#X msg 1800 235 dry_wet_pot \$1;
#X obj 257 259 tgl 15 0 \$0-kaseta-led-1-s \$0-kaseta-led-1-r empty
17 7 0 10 #fcfcfc #000000 #000000 0 1;
#X obj 272 259 tgl 15 0 \$0-kaseta-led-2-s \$0-kaseta-led-2-r empty
17 7 0 10 #fcfcfc #000000 #000000 0 1;
#X obj 287 259 tgl 15 0 \$0-kaseta-led-3-s \$0-kaseta-led-3-r empty
17 7 0 10 #fcfcfc #000000 #000000 0 1;
#X obj 302 259 tgl 15 0 \$0-kaseta-led-4-s \$0-kaseta-led-4-r empty
17 7 0 10 #fcfcfc #000000 #000000 0 1;
#X obj 257 274 tgl 15 0 \$0-kaseta-led-5-s \$0-kaseta-led-5-r empty
17 7 0 10 #fcfcfc #000000 #000000 0 1;
#X obj 272 274 tgl 15 0 \$0-kaseta-led-6-s \$0-kaseta-led-6-r empty
17 7 0 10 #fcfcfc #000000 #000000 0 1;
#X obj 287 274 tgl 15 0 \$0-kaseta-led-7-s \$0-kaseta-led-7-r empty
17 7 0 10 #fcfcfc #000000 #000000 0 1;
#X obj 302 274 tgl 15 0 \$0-kaseta-led-8-s \$0-kaseta-led-8-r empty
17 7 0 10 #fcfcfc #000000 #000000 0 1;
#X text 269 238 DISPLAY;
#X obj 1851 1422 s \$0-kaseta-led-1-r;
#X obj 1851 1401 snapshot~;
#X obj 1731 998 loadbang;
#X obj 1731 1019 metro;
#X obj 1875 1356 snapshot~;
#X obj 1875 1377 s \$0-kaseta-led-2-r;
#X obj 1900 1309 snapshot~;
#X obj 1926 1264 snapshot~;
#X obj 1952 1222 snapshot~;
#X obj 1977 1177 snapshot~;
#X obj 2001 1130 snapshot~;
#X obj 2026 1085 snapshot~;
#X obj 1900 1330 s \$0-kaseta-led-3-r;
#X obj 1926 1285 s \$0-kaseta-led-4-r;
#X obj 1952 1243 s \$0-kaseta-led-5-r;
#X obj 1977 1198 s \$0-kaseta-led-6-r;
#X obj 2001 1151 s \$0-kaseta-led-7-r;
#X obj 2026 1105 s \$0-kaseta-led-8-r;
#X obj 1034 895 r \$0-kaseta-range-s;
#X obj 1034 916 s \$0-kaseta-range-switch;
#X obj 2126 627 r \$0-kaseta-range-switch;
#X msg 2127 652 delay_range \$1;
#X obj 1034 939 r \$0-kaseta-rewind-forward-s;
#X obj 1034 960 s \$0-kaseta-rewind-forward-switch;
#X obj 1034 983 r \$0-kaseta-rewind-backward-s;
#X obj 1034 1004 s \$0-kaseta-rewind-backward-switch;
#X obj 2139 679 r \$0-kaseta-rewind-forward-switch;
#X msg 2140 704 delay_rewind_forward \$1;
#X obj 2147 732 r \$0-kaseta-rewind-backward-switch;
#X msg 2148 757 delay_rewind_backward \$1;
#X obj 2039 1040 snapshot~;
#X obj 2039 1060 s \$0-kaseta-impulse-r;
#X obj 339 259 tgl 30 0 \$0-kaseta-impulse-s \$0-kaseta-impulse-r empty
17 7 0 10 #fcfcfc #000000 #000000 0 1;
#X obj 95 963 outlet~ IMPULSE;
#X obj 95 941 r~ \$0-kaseta-impulse;
#X obj 2173 1060 s~ \$0-kaseta-impulse;
#X obj 542 165 hsl 128 15 0 127 0 1 \$0-kaseta-tone-s \$0-kaseta-tone-r
TONE 133 7 0 10 #fcfcfc #000000 #000000 7000 1;
#X msg 2396 632 tone \$1;
#X obj 2396 607 r \$0-kaseta-tone-pot;
#X obj 597 1138 / 127;
#X obj 597 1115 r \$0-kaseta-tone-s;
#X obj 597 1160 s \$0-kaseta-tone-pot;
#X text 390 124 WOW/FLUTTER;
#X text 392 162 ^;
#X obj 542 379 hsl 128 15 0 127 0 1 \$0-kaseta-delay-head-1-pan-s \$0-kaseta-delay-head-1-pan-r
H1 133 7 0 10 #fcfcfc #000000 #000000 3000 1;
#X obj 542 394 hsl 128 15 0 127 0 1 \$0-kaseta-delay-head-2-pan-s \$0-kaseta-delay-head-2-pan-r
H2 133 7 0 10 #fcfcfc #000000 #000000 2100 1;
#X obj 542 409 hsl 128 15 0 127 0 1 \$0-kaseta-delay-head-3-pan-s \$0-kaseta-delay-head-3-pan-r
H3 133 7 0 10 #fcfcfc #000000 #000000 0 1;
#X obj 542 424 hsl 128 15 0 127 0 1 \$0-kaseta-delay-head-4-pan-s \$0-kaseta-delay-head-4-pan-r
H4 133 7 0 10 #fcfcfc #000000 #000000 0 1;
#X text 693 384 P;
#X text 693 399 A;
#X text 693 414 N;
#X obj 1049 1069 / 127;
#X obj 1049 1137 / 127;
#X obj 1048 1203 / 127;
#X obj 1048 1271 / 127;
#X obj 1049 1046 r \$0-kaseta-delay-head-1-pan-s;
#X obj 1049 1091 s \$0-kaseta-delay-head-1-pan-pot;
#X obj 1049 1115 r \$0-kaseta-delay-head-2-pan-s;
#X obj 1049 1159 s \$0-kaseta-delay-head-2-pan-pot;
#X obj 1048 1180 r \$0-kaseta-delay-head-3-pan-s;
#X obj 1048 1225 s \$0-kaseta-delay-head-3-pan-pot;
#X obj 1048 1248 r \$0-kaseta-delay-head-4-pan-s;
#X obj 1048 1293 s \$0-kaseta-delay-head-4-pan-pot;
#X obj 2355 334 r \$0-kaseta-delay-head-1-pan-pot;
#X msg 2355 358 delay_head_1_pan \$1;
#X obj 2364 381 r \$0-kaseta-delay-head-2-pan-pot;
#X msg 2364 405 delay_head_2_pan \$1;
#X obj 2373 428 r \$0-kaseta-delay-head-3-pan-pot;
#X msg 2373 452 delay_head_3_pan \$1;
#X obj 2382 477 r \$0-kaseta-delay-head-4-pan-pot;
#X msg 2382 502 delay_head_4_pan \$1;
#X obj 1777 1477 s~ \$0-kaseta-out-l;
#X obj 1791 1451 s~ \$0-kaseta-out-r;
#X obj 94 836 r~ \$0-kaseta-out-l;
#X obj 94 886 r~ \$0-kaseta-out-r;
#X obj 94 858 outlet~ OUT_L;
#X obj 94 908 outlet~ OUT_R;
#X obj 393 438 cnv 5 5 5 empty empty RIGHT 0 0 0 8 #fcfcfc #404040
0;
#X obj 690 442 cnv 5 5 5 empty empty IMPULSE 0 0 0 8 #fcfcfc #404040
0;
#X connect 1 0 3 0;
#X connect 3 0 4 0;
#X connect 4 0 2 0;
#X connect 8 0 22 0;
#X connect 17 0 309 0;
#X connect 17 1 310 0;
#X connect 17 2 239 0;
#X connect 17 3 242 0;
#X connect 17 4 244 0;
#X connect 17 5 245 0;
#X connect 17 6 246 0;
#X connect 17 7 247 0;
#X connect 17 8 248 0;
#X connect 17 9 249 0;
#X connect 17 10 268 0;
#X connect 17 10 273 0;
#X connect 18 0 35 0;
#X connect 19 0 17 0;
#X connect 20 0 48 0;
#X connect 21 0 8 0;
#X connect 23 0 46 0;
#X connect 24 0 25 0;
#X connect 25 0 23 0;
#X connect 26 0 43 0;
#X connect 27 0 23 0;
#X connect 28 0 26 0;
#X connect 29 0 45 0;
#X connect 30 0 31 0;
#X connect 31 0 29 0;
#X connect 32 0 44 0;
#X connect 33 0 29 0;
#X connect 34 0 32 0;
#X connect 36 0 17 0;
#X connect 37 0 36 0;
#X connect 38 0 39 0;
#X connect 39 0 17 0;
#X connect 40 0 47 0;
#X connect 41 0 42 0;
#X connect 42 0 17 0;
#X connect 47 0 17 0;
#X connect 48 0 17 0;
#X connect 49 0 50 0;
#X connect 50 0 17 0;
#X connect 51 0 52 0;
#X connect 52 0 17 0;
#X connect 54 0 56 0;
#X connect 55 0 54 0;
#X connect 57 0 61 0;
#X connect 58 0 59 0;
#X connect 59 0 57 0;
#X connect 60 0 57 0;
#X connect 62 0 66 0;
#X connect 63 0 64 0;
#X connect 64 0 62 0;
#X connect 65 0 62 0;
#X connect 74 0 76 0;
#X connect 75 0 74 0;
#X connect 77 0 79 0;
#X connect 78 0 77 0;
#X connect 80 0 82 0;
#X connect 81 0 80 0;
#X connect 83 0 85 0;
#X connect 84 0 83 0;
#X connect 86 0 88 0;
#X connect 87 0 86 0;
#X connect 89 0 90 0;
#X connect 90 0 17 0;
#X connect 91 0 92 0;
#X connect 92 0 17 0;
#X connect 93 0 94 0;
#X connect 94 0 17 0;
#X connect 95 0 135 0;
#X connect 96 0 97 0;
#X connect 97 0 17 0;
#X connect 98 0 100 0;
#X connect 99 0 136 0;
#X connect 100 0 17 0;
#X connect 101 0 137 0;
#X connect 102 0 103 0;
#X connect 103 0 17 0;
#X connect 104 0 138 0;
#X connect 105 0 109 0;
#X connect 106 0 107 0;
#X connect 107 0 105 0;
#X connect 108 0 105 0;
#X connect 110 0 114 0;
#X connect 111 0 112 0;
#X connect 112 0 110 0;
#X connect 113 0 110 0;
#X connect 115 0 119 0;
#X connect 116 0 117 0;
#X connect 117 0 115 0;
#X connect 118 0 115 0;
#X connect 120 0 124 0;
#X connect 121 0 122 0;
#X connect 122 0 120 0;
#X connect 123 0 120 0;
#X connect 125 0 129 0;
#X connect 126 0 127 0;
#X connect 127 0 125 0;
#X connect 128 0 125 0;
#X connect 135 0 17 0;
#X connect 136 0 17 0;
#X connect 137 0 17 0;
#X connect 138 0 17 0;
#X connect 142 0 143 0;
#X connect 144 0 145 0;
#X connect 145 0 17 0;
#X connect 146 0 147 0;
#X connect 148 0 149 0;
#X connect 149 0 17 0;
#X connect 157 0 162 0;
#X connect 158 0 164 0;
#X connect 159 0 166 0;
#X connect 160 0 168 0;
#X connect 161 0 157 0;
#X connect 163 0 158 0;
#X connect 165 0 159 0;
#X connect 167 0 160 0;
#X connect 169 0 170 0;
#X connect 170 0 17 0;
#X connect 171 0 172 0;
#X connect 172 0 17 0;
#X connect 173 0 174 0;
#X connect 174 0 17 0;
#X connect 175 0 176 0;
#X connect 176 0 17 0;
#X connect 184 0 189 0;
#X connect 185 0 191 0;
#X connect 186 0 193 0;
#X connect 187 0 195 0;
#X connect 188 0 184 0;
#X connect 190 0 185 0;
#X connect 192 0 186 0;
#X connect 194 0 187 0;
#X connect 196 0 198 0;
#X connect 197 0 199 0;
#X connect 198 0 17 0;
#X connect 199 0 17 0;
#X connect 200 0 201 0;
#X connect 201 0 17 0;
#X connect 202 0 203 0;
#X connect 203 0 17 0;
#X connect 224 0 226 0;
#X connect 225 0 224 0;
#X connect 227 0 228 0;
#X connect 228 0 17 0;
#X connect 239 0 238 0;
#X connect 240 0 241 0;
#X connect 241 0 239 0;
#X connect 241 0 242 0;
#X connect 241 0 249 0;
#X connect 241 0 248 0;
#X connect 241 0 247 0;
#X connect 241 0 246 0;
#X connect 241 0 245 0;
#X connect 241 0 244 0;
#X connect 241 0 268 0;
#X connect 242 0 243 0;
#X connect 244 0 250 0;
#X connect 245 0 251 0;
#X connect 246 0 252 0;
#X connect 247 0 253 0;
#X connect 248 0 254 0;
#X connect 249 0 255 0;
#X connect 256 0 257 0;
#X connect 258 0 259 0;
#X connect 259 0 17 0;
#X connect 260 0 261 0;
#X connect 262 0 263 0;
#X connect 264 0 265 0;
#X connect 265 0 17 0;
#X connect 266 0 267 0;
#X connect 267 0 17 0;
#X connect 268 0 269 0;
#X connect 272 0 271 0;
#X connect 275 0 17 0;
#X connect 276 0 275 0;
#X connect 277 0 279 0;
#X connect 278 0 277 0;
#X connect 289 0 294 0;
#X connect 290 0 296 0;
#X connect 291 0 298 0;
#X connect 292 0 300 0;
#X connect 293 0 289 0;
#X connect 295 0 290 0;
#X connect 297 0 291 0;
#X connect 299 0 292 0;
#X connect 301 0 302 0;
#X connect 302 0 17 0;
#X connect 303 0 304 0;
#X connect 304 0 17 0;
#X connect 305 0 306 0;
#X connect 306 0 17 0;
#X connect 307 0 308 0;
#X connect 308 0 17 0;
#X connect 311 0 313 0;
#X connect 312 0 314 0;
#X coords 0 -1 1 1 630 350 2 100 100;
