#N canvas 0 45 1916 1001 10;
#X obj 105 330 cnv 5 5 5 empty empty OUT 0 0 0 8 #fcfcfc #404040 0
;
#N canvas 315 35 1916 1001 state-saving-multiple-instances 0;
#X obj 429 34 loadbang;
#X obj 388 422 textfile;
#X msg 670 405 rewind;
#X msg 627 405 bang;
#X obj 87 846 textfile;
#X obj 627 366 t b b;
#X obj 87 347 f;
#X obj 100 570 f;
#X obj 28 391 t b b b;
#X msg 163 570 clear;
#X obj 495 222 outlet;
#X text 538 223 INSTANCE NUMBER;
#X obj 456 158 f \$1;
#X obj 456 194 t f f f;
#X obj 429 67 t b b;
#X obj 28 368 bng 15 250 50 0 empty empty empty 17 7 0 10 #fcfcfc #000000
#000000;
#X obj 28 24 r SAVE-S;
#X obj 513 42 r \$0-reload!;
#X text 595 43 RETURN TO PREVIOUS VALUE AFTER USING MORPH-SEQ module
;
#X obj 464 747 s \$0-kaseta-pre-amp-r;
#X obj 470 725 s \$0-kaseta-drive-r;
#X obj 480 703 s \$0-kaseta-drive-att-r;
#X obj 494 681 s \$0-kaseta-saturation-r;
#X obj 504 659 s \$0-kaseta-saturation-att-r;
#X obj 515 637 s \$0-kaseta-bias-r;
#X obj 525 615 s \$0-kaseta-bias-att-r;
#X msg 388 397 read statesave/\$1-kaseta-ss.txt;
#X msg 100 806 write statesave/\$1-kaseta-ss.txt;
#X msg 87 428 set \$1 \$2 \$3 \$4 \$5 \$6 \$7;
#X obj 115 59 r \$0-kaseta-pre-amp-s;
#X obj 127 86 r \$0-kaseta-drive-s;
#X obj 162 138 r \$0-kaseta-saturation-s;
#X obj 140 112 r \$0-kaseta-drive-att-s;
#X obj 176 163 r \$0-kaseta-saturation-att-s;
#X obj 188 187 r \$0-kaseta-bias-s;
#X obj 200 211 r \$0-kaseta-bias-att-s;
#X obj 214 236 r \$0-kaseta-wow-frequency-s;
#X obj 228 260 r \$0-kaseta-wow-frequency-att-s;
#X obj 87 390 pack f f f f f f f f f f f;
#X obj 237 284 r \$0-kaseta-wow-depth-s;
#X obj 247 307 r \$0-kaseta-wow-depth-att-s;
#X obj 388 444 unpack f f f f f f f f f f f;
#X obj 548 569 s \$0-kaseta-wow-frequency-att-r;
#X obj 538 591 s \$0-kaseta-wow-frequency-r;
#X obj 567 522 s \$0-kaseta-wow-depth-att-r;
#X obj 557 544 s \$0-kaseta-wow-depth-r;
#X connect 0 0 14 0;
#X connect 1 0 41 0;
#X connect 2 0 1 0;
#X connect 3 0 1 0;
#X connect 5 0 3 0;
#X connect 5 1 2 0;
#X connect 6 0 38 0;
#X connect 7 0 27 0;
#X connect 8 0 7 0;
#X connect 8 1 6 0;
#X connect 8 2 9 0;
#X connect 9 0 4 0;
#X connect 12 0 13 0;
#X connect 13 0 7 1;
#X connect 13 1 26 0;
#X connect 13 2 10 0;
#X connect 14 0 5 0;
#X connect 14 1 12 0;
#X connect 15 0 8 0;
#X connect 16 0 15 0;
#X connect 17 0 14 0;
#X connect 26 0 1 0;
#X connect 27 0 4 0;
#X connect 28 0 4 0;
#X connect 29 0 6 1;
#X connect 30 0 38 1;
#X connect 31 0 38 3;
#X connect 32 0 38 2;
#X connect 33 0 38 4;
#X connect 34 0 38 5;
#X connect 35 0 38 6;
#X connect 36 0 38 7;
#X connect 37 0 38 8;
#X connect 38 0 28 0;
#X connect 39 0 38 9;
#X connect 40 0 38 10;
#X connect 41 0 19 0;
#X connect 41 1 20 0;
#X connect 41 2 21 0;
#X connect 41 3 22 0;
#X connect 41 4 23 0;
#X connect 41 5 24 0;
#X connect 41 6 25 0;
#X connect 41 7 43 0;
#X connect 41 8 42 0;
#X connect 41 9 45 0;
#X connect 41 10 44 0;
#X restore 93 489 pd state-saving-multiple-instances;
#X obj 93 564 s \$0-instance-num;
#X obj 93 516 makefilename %d;
#X msg 93 541 label \$1;
#N canvas 81 22 1916 1001 state-saving-via-preset-manager-module 0
;
#X obj 481 228 textfile;
#X msg 860 211 rewind;
#X msg 817 211 bang;
#X obj 109 746 textfile;
#X obj 817 172 t b b;
#X obj 107 414 f;
#X obj 120 637 f;
#X obj 53 532 t b b b;
#X msg 189 687 clear;
#X obj 107 56 delay 5;
#X obj 53 587 delay 10;
#X msg 53 372 bang;
#X obj 53 26 r STORE-S!;
#X obj 481 129 f;
#X obj 454 93 t b b;
#X obj 469 50 t b f;
#X obj 526 147 f \$1;
#X obj 481 174 pack f f;
#X obj 526 97 loadbang;
#X obj 120 667 pack f f;
#X obj 165 620 loadbang;
#X obj 165 642 f \$1;
#X obj 469 27 r preset-manager-scan;
#X obj 135 598 r preset-manager-store-slot;
#N canvas 0 22 1916 1001 morph-parameters 0;
#X obj 176 94 inlet;
#X obj 176 236 pack f f;
#X obj 176 261 line;
#X obj 209 117 r preset-manager-morph-s;
#X msg 72 244 stop;
#X obj 72 214 r STOP-MORPH!;
#X obj 209 206 spigot;
#X obj 398 137 t f f;
#X obj 455 154 == 0;
#X obj 221 176 f;
#X floatatom 455 222 5 0 0 0 - - - 0;
#X obj 398 159 t b f;
#X floatatom 425 192 5 0 0 0 - - - 0;
#X obj 209 139 t f f;
#X obj 398 102 r parameters-s;
#X obj 176 288 outlet;
#X connect 0 0 1 0;
#X connect 1 0 2 0;
#X connect 2 0 15 0;
#X connect 3 0 13 0;
#X connect 4 0 2 0;
#X connect 5 0 4 0;
#X connect 6 0 1 1;
#X connect 7 0 11 0;
#X connect 7 1 8 0;
#X connect 8 0 10 0;
#X connect 9 0 6 0;
#X connect 10 0 1 1;
#X connect 11 0 9 0;
#X connect 11 1 12 0;
#X connect 12 0 6 1;
#X connect 13 0 6 0;
#X connect 13 1 9 1;
#X connect 14 0 7 0;
#X restore 552 736 pd morph-parameters;
#N canvas 0 22 1916 1001 morph-attenuators 0;
#X obj 176 94 inlet;
#X obj 176 236 pack f f;
#X obj 176 261 line;
#X obj 209 117 r preset-manager-morph-s;
#X msg 72 244 stop;
#X obj 72 214 r STOP-MORPH!;
#X obj 209 206 spigot;
#X obj 398 137 t f f;
#X obj 455 154 == 0;
#X obj 221 176 f;
#X floatatom 455 222 5 0 0 0 - - - 0;
#X obj 398 159 t b f;
#X floatatom 425 192 5 0 0 0 - - - 0;
#X obj 209 139 t f f;
#X obj 398 102 r attenuators-s;
#X obj 176 288 outlet;
#X connect 0 0 1 0;
#X connect 1 0 2 0;
#X connect 2 0 15 0;
#X connect 3 0 13 0;
#X connect 4 0 2 0;
#X connect 5 0 4 0;
#X connect 6 0 1 1;
#X connect 7 0 11 0;
#X connect 7 1 8 0;
#X connect 8 0 10 0;
#X connect 9 0 6 0;
#X connect 10 0 1 1;
#X connect 11 0 9 0;
#X connect 11 1 12 0;
#X connect 12 0 6 1;
#X connect 13 0 6 0;
#X connect 13 1 9 1;
#X connect 14 0 7 0;
#X restore 562 687 pd morph-attenuators;
#X msg 107 541 set \$1 \$2 \$3 \$4 \$5 \$6 \$7;
#X msg 481 203 read statesave/\$1-\$2-kaseta-ss.txt;
#X msg 188 714 write statesave/\$1-\$2-kaseta-ss.txt;
#X obj 122 189 r \$0-kaseta-pre-amp-s;
#X obj 134 216 r \$0-kaseta-drive-s;
#X obj 169 268 r \$0-kaseta-saturation-s;
#X obj 147 242 r \$0-kaseta-drive-att-s;
#X obj 183 293 r \$0-kaseta-saturation-att-s;
#X obj 198 321 r \$0-kaseta-bias-s;
#X obj 214 348 r \$0-kaseta-bias-att-s;
#N canvas 0 22 1916 1001 morph-parameters 0;
#X obj 176 94 inlet;
#X obj 176 236 pack f f;
#X obj 176 261 line;
#X obj 209 117 r preset-manager-morph-s;
#X msg 72 244 stop;
#X obj 72 214 r STOP-MORPH!;
#X obj 209 206 spigot;
#X obj 398 137 t f f;
#X obj 455 154 == 0;
#X obj 221 176 f;
#X floatatom 455 222 5 0 0 0 - - - 0;
#X obj 398 159 t b f;
#X floatatom 425 192 5 0 0 0 - - - 0;
#X obj 209 139 t f f;
#X obj 398 102 r parameters-s;
#X obj 176 288 outlet;
#X connect 0 0 1 0;
#X connect 1 0 2 0;
#X connect 2 0 15 0;
#X connect 3 0 13 0;
#X connect 4 0 2 0;
#X connect 5 0 4 0;
#X connect 6 0 1 1;
#X connect 7 0 11 0;
#X connect 7 1 8 0;
#X connect 8 0 10 0;
#X connect 9 0 6 0;
#X connect 10 0 1 1;
#X connect 11 0 9 0;
#X connect 11 1 12 0;
#X connect 12 0 6 1;
#X connect 13 0 6 0;
#X connect 13 1 9 1;
#X connect 14 0 7 0;
#X restore 546 786 pd morph-parameters;
#N canvas 0 22 1916 1001 morph-parameters 0;
#X obj 176 94 inlet;
#X obj 176 236 pack f f;
#X obj 176 261 line;
#X obj 209 117 r preset-manager-morph-s;
#X msg 72 244 stop;
#X obj 72 214 r STOP-MORPH!;
#X obj 209 206 spigot;
#X obj 398 137 t f f;
#X obj 455 154 == 0;
#X obj 221 176 f;
#X floatatom 455 222 5 0 0 0 - - - 0;
#X obj 398 159 t b f;
#X floatatom 425 192 5 0 0 0 - - - 0;
#X obj 209 139 t f f;
#X obj 398 102 r parameters-s;
#X obj 176 288 outlet;
#X connect 0 0 1 0;
#X connect 1 0 2 0;
#X connect 2 0 15 0;
#X connect 3 0 13 0;
#X connect 4 0 2 0;
#X connect 5 0 4 0;
#X connect 6 0 1 1;
#X connect 7 0 11 0;
#X connect 7 1 8 0;
#X connect 8 0 10 0;
#X connect 9 0 6 0;
#X connect 10 0 1 1;
#X connect 11 0 9 0;
#X connect 11 1 12 0;
#X connect 12 0 6 1;
#X connect 13 0 6 0;
#X connect 13 1 9 1;
#X connect 14 0 7 0;
#X restore 576 638 pd morph-parameters;
#N canvas 0 22 1916 1001 morph-attenuators 0;
#X obj 176 94 inlet;
#X obj 176 236 pack f f;
#X obj 176 261 line;
#X obj 209 117 r preset-manager-morph-s;
#X msg 72 244 stop;
#X obj 72 214 r STOP-MORPH!;
#X obj 209 206 spigot;
#X obj 398 137 t f f;
#X obj 455 154 == 0;
#X obj 221 176 f;
#X floatatom 455 222 5 0 0 0 - - - 0;
#X obj 398 159 t b f;
#X floatatom 425 192 5 0 0 0 - - - 0;
#X obj 209 139 t f f;
#X obj 398 102 r attenuators-s;
#X obj 176 288 outlet;
#X connect 0 0 1 0;
#X connect 1 0 2 0;
#X connect 2 0 15 0;
#X connect 3 0 13 0;
#X connect 4 0 2 0;
#X connect 5 0 4 0;
#X connect 6 0 1 1;
#X connect 7 0 11 0;
#X connect 7 1 8 0;
#X connect 8 0 10 0;
#X connect 9 0 6 0;
#X connect 10 0 1 1;
#X connect 11 0 9 0;
#X connect 11 1 12 0;
#X connect 12 0 6 1;
#X connect 13 0 6 0;
#X connect 13 1 9 1;
#X connect 14 0 7 0;
#X restore 586 589 pd morph-attenuators;
#N canvas 0 22 1916 1001 morph-parameters 0;
#X obj 176 94 inlet;
#X obj 176 236 pack f f;
#X obj 176 261 line;
#X obj 209 117 r preset-manager-morph-s;
#X msg 72 244 stop;
#X obj 72 214 r STOP-MORPH!;
#X obj 209 206 spigot;
#X obj 398 137 t f f;
#X obj 455 154 == 0;
#X obj 221 176 f;
#X floatatom 455 222 5 0 0 0 - - - 0;
#X obj 398 159 t b f;
#X floatatom 425 192 5 0 0 0 - - - 0;
#X obj 209 139 t f f;
#X obj 398 102 r parameters-s;
#X obj 176 288 outlet;
#X connect 0 0 1 0;
#X connect 1 0 2 0;
#X connect 2 0 15 0;
#X connect 3 0 13 0;
#X connect 4 0 2 0;
#X connect 5 0 4 0;
#X connect 6 0 1 1;
#X connect 7 0 11 0;
#X connect 7 1 8 0;
#X connect 8 0 10 0;
#X connect 9 0 6 0;
#X connect 10 0 1 1;
#X connect 11 0 9 0;
#X connect 11 1 12 0;
#X connect 12 0 6 1;
#X connect 13 0 6 0;
#X connect 13 1 9 1;
#X connect 14 0 7 0;
#X restore 597 541 pd morph-parameters;
#N canvas 0 22 1916 1001 morph-attenuators 0;
#X obj 176 94 inlet;
#X obj 176 236 pack f f;
#X obj 176 261 line;
#X obj 209 117 r preset-manager-morph-s;
#X msg 72 244 stop;
#X obj 72 214 r STOP-MORPH!;
#X obj 209 206 spigot;
#X obj 398 137 t f f;
#X obj 455 154 == 0;
#X obj 221 176 f;
#X floatatom 455 222 5 0 0 0 - - - 0;
#X obj 398 159 t b f;
#X floatatom 425 192 5 0 0 0 - - - 0;
#X obj 209 139 t f f;
#X obj 398 102 r attenuators-s;
#X obj 176 288 outlet;
#X connect 0 0 1 0;
#X connect 1 0 2 0;
#X connect 2 0 15 0;
#X connect 3 0 13 0;
#X connect 4 0 2 0;
#X connect 5 0 4 0;
#X connect 6 0 1 1;
#X connect 7 0 11 0;
#X connect 7 1 8 0;
#X connect 8 0 10 0;
#X connect 9 0 6 0;
#X connect 10 0 1 1;
#X connect 11 0 9 0;
#X connect 11 1 12 0;
#X connect 12 0 6 1;
#X connect 13 0 6 0;
#X connect 13 1 9 1;
#X connect 14 0 7 0;
#X restore 607 492 pd morph-attenuators;
#X obj 546 809 s \$0-kaseta-pre-amp-r;
#X obj 552 759 s \$0-kaseta-drive-r;
#X obj 562 711 s \$0-kaseta-drive-att-r;
#X obj 576 661 s \$0-kaseta-saturation-r;
#X obj 586 613 s \$0-kaseta-saturation-att-r;
#X obj 597 564 s \$0-kaseta-bias-r;
#X obj 607 516 s \$0-kaseta-bias-att-r;
#X obj 107 481 pack f f f f f f f f f f f;
#X obj 228 374 r \$0-kaseta-wow-frequency-s;
#X obj 244 399 r \$0-kaseta-wow-frequency-att-s;
#X obj 254 424 r \$0-kaseta-wow-depth-s;
#X obj 269 449 r \$0-kaseta-wow-depth-att-s;
#X obj 481 250 unpack f f f f f f f f f f f;
#N canvas 0 22 1916 1001 morph-parameters 0;
#X obj 176 94 inlet;
#X obj 176 236 pack f f;
#X obj 176 261 line;
#X obj 209 117 r preset-manager-morph-s;
#X msg 72 244 stop;
#X obj 72 214 r STOP-MORPH!;
#X obj 209 206 spigot;
#X obj 398 137 t f f;
#X obj 455 154 == 0;
#X obj 221 176 f;
#X floatatom 455 222 5 0 0 0 - - - 0;
#X obj 398 159 t b f;
#X floatatom 425 192 5 0 0 0 - - - 0;
#X obj 209 139 t f f;
#X obj 398 102 r parameters-s;
#X obj 176 288 outlet;
#X connect 0 0 1 0;
#X connect 1 0 2 0;
#X connect 2 0 15 0;
#X connect 3 0 13 0;
#X connect 4 0 2 0;
#X connect 5 0 4 0;
#X connect 6 0 1 1;
#X connect 7 0 11 0;
#X connect 7 1 8 0;
#X connect 8 0 10 0;
#X connect 9 0 6 0;
#X connect 10 0 1 1;
#X connect 11 0 9 0;
#X connect 11 1 12 0;
#X connect 12 0 6 1;
#X connect 13 0 6 0;
#X connect 13 1 9 1;
#X connect 14 0 7 0;
#X restore 619 444 pd morph-parameters;
#N canvas 0 22 1916 1001 morph-attenuators 0;
#X obj 176 94 inlet;
#X obj 176 236 pack f f;
#X obj 176 261 line;
#X obj 209 117 r preset-manager-morph-s;
#X msg 72 244 stop;
#X obj 72 214 r STOP-MORPH!;
#X obj 209 206 spigot;
#X obj 398 137 t f f;
#X obj 455 154 == 0;
#X obj 221 176 f;
#X floatatom 455 222 5 0 0 0 - - - 0;
#X obj 398 159 t b f;
#X floatatom 425 192 5 0 0 0 - - - 0;
#X obj 209 139 t f f;
#X obj 398 102 r attenuators-s;
#X obj 176 288 outlet;
#X connect 0 0 1 0;
#X connect 1 0 2 0;
#X connect 2 0 15 0;
#X connect 3 0 13 0;
#X connect 4 0 2 0;
#X connect 5 0 4 0;
#X connect 6 0 1 1;
#X connect 7 0 11 0;
#X connect 7 1 8 0;
#X connect 8 0 10 0;
#X connect 9 0 6 0;
#X connect 10 0 1 1;
#X connect 11 0 9 0;
#X connect 11 1 12 0;
#X connect 12 0 6 1;
#X connect 13 0 6 0;
#X connect 13 1 9 1;
#X connect 14 0 7 0;
#X restore 629 395 pd morph-attenuators;
#X obj 629 419 s \$0-kaseta-wow-frequency-att-r;
#X obj 619 467 s \$0-kaseta-wow-frequency-r;
#N canvas 0 22 1916 1001 morph-parameters 0;
#X obj 176 94 inlet;
#X obj 176 236 pack f f;
#X obj 176 261 line;
#X obj 209 117 r preset-manager-morph-s;
#X msg 72 244 stop;
#X obj 72 214 r STOP-MORPH!;
#X obj 209 206 spigot;
#X obj 398 137 t f f;
#X obj 455 154 == 0;
#X obj 221 176 f;
#X floatatom 455 222 5 0 0 0 - - - 0;
#X obj 398 159 t b f;
#X floatatom 425 192 5 0 0 0 - - - 0;
#X obj 209 139 t f f;
#X obj 398 102 r parameters-s;
#X obj 176 288 outlet;
#X connect 0 0 1 0;
#X connect 1 0 2 0;
#X connect 2 0 15 0;
#X connect 3 0 13 0;
#X connect 4 0 2 0;
#X connect 5 0 4 0;
#X connect 6 0 1 1;
#X connect 7 0 11 0;
#X connect 7 1 8 0;
#X connect 8 0 10 0;
#X connect 9 0 6 0;
#X connect 10 0 1 1;
#X connect 11 0 9 0;
#X connect 11 1 12 0;
#X connect 12 0 6 1;
#X connect 13 0 6 0;
#X connect 13 1 9 1;
#X connect 14 0 7 0;
#X restore 644 346 pd morph-parameters;
#N canvas 0 22 1916 1001 morph-attenuators 0;
#X obj 176 94 inlet;
#X obj 176 236 pack f f;
#X obj 176 261 line;
#X obj 209 117 r preset-manager-morph-s;
#X msg 72 244 stop;
#X obj 72 214 r STOP-MORPH!;
#X obj 209 206 spigot;
#X obj 398 137 t f f;
#X obj 455 154 == 0;
#X obj 221 176 f;
#X floatatom 455 222 5 0 0 0 - - - 0;
#X obj 398 159 t b f;
#X floatatom 425 192 5 0 0 0 - - - 0;
#X obj 209 139 t f f;
#X obj 398 102 r attenuators-s;
#X obj 176 288 outlet;
#X connect 0 0 1 0;
#X connect 1 0 2 0;
#X connect 2 0 15 0;
#X connect 3 0 13 0;
#X connect 4 0 2 0;
#X connect 5 0 4 0;
#X connect 6 0 1 1;
#X connect 7 0 11 0;
#X connect 7 1 8 0;
#X connect 8 0 10 0;
#X connect 9 0 6 0;
#X connect 10 0 1 1;
#X connect 11 0 9 0;
#X connect 11 1 12 0;
#X connect 12 0 6 1;
#X connect 13 0 6 0;
#X connect 13 1 9 1;
#X connect 14 0 7 0;
#X restore 654 297 pd morph-attenuators;
#X obj 654 321 s \$0-kaseta-wow-depth-att-r;
#X obj 644 369 s \$0-kaseta-wow-depth-r;
#X connect 0 0 53 0;
#X connect 1 0 0 0;
#X connect 2 0 0 0;
#X connect 4 0 2 0;
#X connect 4 1 1 0;
#X connect 5 0 48 0;
#X connect 6 0 19 0;
#X connect 7 0 10 0;
#X connect 7 1 9 0;
#X connect 7 2 8 0;
#X connect 8 0 3 0;
#X connect 9 0 5 0;
#X connect 10 0 6 0;
#X connect 11 0 7 0;
#X connect 12 0 11 0;
#X connect 13 0 17 0;
#X connect 14 0 4 0;
#X connect 14 1 13 0;
#X connect 15 0 14 0;
#X connect 15 1 13 1;
#X connect 16 0 17 1;
#X connect 17 0 27 0;
#X connect 18 0 16 0;
#X connect 19 0 28 0;
#X connect 20 0 21 0;
#X connect 21 0 19 1;
#X connect 22 0 15 0;
#X connect 23 0 6 1;
#X connect 24 0 42 0;
#X connect 25 0 43 0;
#X connect 26 0 3 0;
#X connect 27 0 0 0;
#X connect 28 0 3 0;
#X connect 29 0 5 1;
#X connect 30 0 48 1;
#X connect 31 0 48 3;
#X connect 32 0 48 2;
#X connect 33 0 48 4;
#X connect 34 0 48 5;
#X connect 35 0 48 6;
#X connect 36 0 41 0;
#X connect 37 0 44 0;
#X connect 38 0 45 0;
#X connect 39 0 46 0;
#X connect 40 0 47 0;
#X connect 48 0 26 0;
#X connect 49 0 48 7;
#X connect 50 0 48 8;
#X connect 51 0 48 9;
#X connect 52 0 48 10;
#X connect 53 0 36 0;
#X connect 53 1 24 0;
#X connect 53 2 25 0;
#X connect 53 3 37 0;
#X connect 53 4 38 0;
#X connect 53 5 39 0;
#X connect 53 6 40 0;
#X connect 53 7 54 0;
#X connect 53 8 55 0;
#X connect 53 9 58 0;
#X connect 53 10 59 0;
#X connect 54 0 57 0;
#X connect 55 0 56 0;
#X connect 58 0 61 0;
#X connect 59 0 60 0;
#X restore 94 461 pd state-saving-via-preset-manager-module;
#N canvas 396 31 1916 1001 parameter-nudging-system 0;
#X obj 540 67 clip 0 127;
#N canvas 0 22 1916 1001 nudge-attenuators 0;
#X obj 124 234 random;
#X obj 232 335 f;
#X obj 232 368 +;
#X obj 257 166 random 2;
#X obj 124 275 t f f;
#X obj 124 351 t b f;
#X obj 124 297 *;
#X obj 257 188 sel 0 1;
#X msg 257 280 -1;
#X msg 335 280 1;
#X obj 124 149 t b b b;
#X obj 124 71 r NUDGE!;
#X obj 157 193 r NUDGE-RANGE;
#X obj 247 308 inlet;
#X obj 232 397 outlet;
#X obj 124 93 spigot;
#X obj 201 76 r attenuators2-s;
#X connect 0 0 4 0;
#X connect 1 0 2 0;
#X connect 2 0 14 0;
#X connect 3 0 7 0;
#X connect 4 0 6 0;
#X connect 5 0 2 0;
#X connect 5 1 2 1;
#X connect 6 0 5 0;
#X connect 7 0 8 0;
#X connect 7 1 9 0;
#X connect 8 0 6 1;
#X connect 9 0 6 1;
#X connect 10 0 0 0;
#X connect 10 1 1 0;
#X connect 10 2 3 0;
#X connect 11 0 15 0;
#X connect 12 0 0 1;
#X connect 13 0 1 1;
#X connect 15 0 10 0;
#X connect 16 0 15 1;
#X restore 540 45 pd nudge-attenuators;
#X obj 362 67 clip 0 127;
#N canvas 0 22 1916 1001 nudge-parameters 0;
#X obj 124 234 random;
#X obj 232 335 f;
#X obj 232 368 +;
#X obj 257 166 random 2;
#X obj 124 275 t f f;
#X obj 124 351 t b f;
#X obj 124 297 *;
#X obj 257 188 sel 0 1;
#X msg 257 280 -1;
#X msg 335 280 1;
#X obj 124 149 t b b b;
#X obj 124 74 r NUDGE!;
#X obj 157 193 r NUDGE-RANGE;
#X obj 247 308 inlet;
#X obj 232 397 outlet;
#X obj 124 96 spigot;
#X obj 185 79 r parameters2-s;
#X connect 0 0 4 0;
#X connect 1 0 2 0;
#X connect 2 0 14 0;
#X connect 3 0 7 0;
#X connect 4 0 6 0;
#X connect 5 0 2 0;
#X connect 5 1 2 1;
#X connect 6 0 5 0;
#X connect 7 0 8 0;
#X connect 7 1 9 0;
#X connect 8 0 6 1;
#X connect 9 0 6 1;
#X connect 10 0 0 0;
#X connect 10 1 1 0;
#X connect 10 2 3 0;
#X connect 11 0 15 0;
#X connect 12 0 0 1;
#X connect 13 0 1 1;
#X connect 15 0 10 0;
#X connect 16 0 15 1;
#X restore 362 45 pd nudge-parameters;
#X obj 204 225 clip 0 127;
#N canvas 0 22 1916 1001 nudge-attenuators 0;
#X obj 124 234 random;
#X obj 232 335 f;
#X obj 232 368 +;
#X obj 257 166 random 2;
#X obj 124 275 t f f;
#X obj 124 351 t b f;
#X obj 124 297 *;
#X obj 257 188 sel 0 1;
#X msg 257 280 -1;
#X msg 335 280 1;
#X obj 124 149 t b b b;
#X obj 124 71 r NUDGE!;
#X obj 157 193 r NUDGE-RANGE;
#X obj 247 308 inlet;
#X obj 232 397 outlet;
#X obj 124 93 spigot;
#X obj 201 76 r attenuators2-s;
#X connect 0 0 4 0;
#X connect 1 0 2 0;
#X connect 2 0 14 0;
#X connect 3 0 7 0;
#X connect 4 0 6 0;
#X connect 5 0 2 0;
#X connect 5 1 2 1;
#X connect 6 0 5 0;
#X connect 7 0 8 0;
#X connect 7 1 9 0;
#X connect 8 0 6 1;
#X connect 9 0 6 1;
#X connect 10 0 0 0;
#X connect 10 1 1 0;
#X connect 10 2 3 0;
#X connect 11 0 15 0;
#X connect 12 0 0 1;
#X connect 13 0 1 1;
#X connect 15 0 10 0;
#X connect 16 0 15 1;
#X restore 204 203 pd nudge-attenuators;
#X obj 26 225 clip 0 127;
#N canvas 0 22 1916 1001 nudge-parameters 0;
#X obj 124 234 random;
#X obj 232 335 f;
#X obj 232 368 +;
#X obj 257 166 random 2;
#X obj 124 275 t f f;
#X obj 124 351 t b f;
#X obj 124 297 *;
#X obj 257 188 sel 0 1;
#X msg 257 280 -1;
#X msg 335 280 1;
#X obj 124 149 t b b b;
#X obj 124 74 r NUDGE!;
#X obj 157 193 r NUDGE-RANGE;
#X obj 247 308 inlet;
#X obj 232 397 outlet;
#X obj 124 96 spigot;
#X obj 185 79 r parameters2-s;
#X connect 0 0 4 0;
#X connect 1 0 2 0;
#X connect 2 0 14 0;
#X connect 3 0 7 0;
#X connect 4 0 6 0;
#X connect 5 0 2 0;
#X connect 5 1 2 1;
#X connect 6 0 5 0;
#X connect 7 0 8 0;
#X connect 7 1 9 0;
#X connect 8 0 6 1;
#X connect 9 0 6 1;
#X connect 10 0 0 0;
#X connect 10 1 1 0;
#X connect 10 2 3 0;
#X connect 11 0 15 0;
#X connect 12 0 0 1;
#X connect 13 0 1 1;
#X connect 15 0 10 0;
#X connect 16 0 15 1;
#X restore 26 203 pd nudge-parameters;
#X obj 606 225 clip 0 127;
#N canvas 0 22 1916 1001 nudge-attenuators 0;
#X obj 124 234 random;
#X obj 232 335 f;
#X obj 232 368 +;
#X obj 257 166 random 2;
#X obj 124 275 t f f;
#X obj 124 351 t b f;
#X obj 124 297 *;
#X obj 257 188 sel 0 1;
#X msg 257 280 -1;
#X msg 335 280 1;
#X obj 124 149 t b b b;
#X obj 124 71 r NUDGE!;
#X obj 157 193 r NUDGE-RANGE;
#X obj 247 308 inlet;
#X obj 232 397 outlet;
#X obj 124 93 spigot;
#X obj 201 76 r attenuators2-s;
#X connect 0 0 4 0;
#X connect 1 0 2 0;
#X connect 2 0 14 0;
#X connect 3 0 7 0;
#X connect 4 0 6 0;
#X connect 5 0 2 0;
#X connect 5 1 2 1;
#X connect 6 0 5 0;
#X connect 7 0 8 0;
#X connect 7 1 9 0;
#X connect 8 0 6 1;
#X connect 9 0 6 1;
#X connect 10 0 0 0;
#X connect 10 1 1 0;
#X connect 10 2 3 0;
#X connect 11 0 15 0;
#X connect 12 0 0 1;
#X connect 13 0 1 1;
#X connect 15 0 10 0;
#X connect 16 0 15 1;
#X restore 606 203 pd nudge-attenuators;
#X obj 428 225 clip 0 127;
#N canvas 0 22 1916 1001 nudge-parameters 0;
#X obj 124 234 random;
#X obj 232 335 f;
#X obj 232 368 +;
#X obj 257 166 random 2;
#X obj 124 275 t f f;
#X obj 124 351 t b f;
#X obj 124 297 *;
#X obj 257 188 sel 0 1;
#X msg 257 280 -1;
#X msg 335 280 1;
#X obj 124 149 t b b b;
#X obj 124 74 r NUDGE!;
#X obj 157 193 r NUDGE-RANGE;
#X obj 247 308 inlet;
#X obj 232 397 outlet;
#X obj 124 96 spigot;
#X obj 185 79 r parameters2-s;
#X connect 0 0 4 0;
#X connect 1 0 2 0;
#X connect 2 0 14 0;
#X connect 3 0 7 0;
#X connect 4 0 6 0;
#X connect 5 0 2 0;
#X connect 5 1 2 1;
#X connect 6 0 5 0;
#X connect 7 0 8 0;
#X connect 7 1 9 0;
#X connect 8 0 6 1;
#X connect 9 0 6 1;
#X connect 10 0 0 0;
#X connect 10 1 1 0;
#X connect 10 2 3 0;
#X connect 11 0 15 0;
#X connect 12 0 0 1;
#X connect 13 0 1 1;
#X connect 15 0 10 0;
#X connect 16 0 15 1;
#X restore 428 203 pd nudge-parameters;
#X obj 69 70 clip 0 127;
#N canvas 0 22 1916 1001 nudge-parameters 0;
#X obj 124 234 random;
#X obj 232 335 f;
#X obj 232 368 +;
#X obj 257 166 random 2;
#X obj 124 275 t f f;
#X obj 124 351 t b f;
#X obj 124 297 *;
#X obj 257 188 sel 0 1;
#X msg 257 280 -1;
#X msg 335 280 1;
#X obj 124 149 t b b b;
#X obj 124 74 r NUDGE!;
#X obj 157 193 r NUDGE-RANGE;
#X obj 247 308 inlet;
#X obj 232 397 outlet;
#X obj 124 96 spigot;
#X obj 185 79 r parameters2-s;
#X connect 0 0 4 0;
#X connect 1 0 2 0;
#X connect 2 0 14 0;
#X connect 3 0 7 0;
#X connect 4 0 6 0;
#X connect 5 0 2 0;
#X connect 5 1 2 1;
#X connect 6 0 5 0;
#X connect 7 0 8 0;
#X connect 7 1 9 0;
#X connect 8 0 6 1;
#X connect 9 0 6 1;
#X connect 10 0 0 0;
#X connect 10 1 1 0;
#X connect 10 2 3 0;
#X connect 11 0 15 0;
#X connect 12 0 0 1;
#X connect 13 0 1 1;
#X connect 15 0 10 0;
#X connect 16 0 15 1;
#X restore 69 48 pd nudge-parameters;
#X obj 69 25 r \$0-kaseta-pre-amp-s;
#X obj 69 102 s \$0-kaseta-pre-amp-r;
#X obj 362 22 r \$0-kaseta-drive-s;
#X obj 362 99 s \$0-kaseta-drive-r;
#X obj 540 22 r \$0-kaseta-drive-att-s;
#X obj 540 99 s \$0-kaseta-drive-att-r;
#X obj 26 180 r \$0-kaseta-saturation-s;
#X obj 26 257 s \$0-kaseta-saturation-r;
#X obj 204 180 r \$0-kaseta-saturation-att-s;
#X obj 204 257 s \$0-kaseta-saturation-att-r;
#X obj 428 180 r \$0-kaseta-bias-s;
#X obj 606 180 r \$0-kaseta-bias-att-s;
#X obj 606 257 s \$0-kaseta-bias-att-r;
#X obj 205 350 clip 0 127;
#N canvas 0 22 1916 1001 nudge-attenuators 0;
#X obj 124 234 random;
#X obj 232 335 f;
#X obj 232 368 +;
#X obj 257 166 random 2;
#X obj 124 275 t f f;
#X obj 124 351 t b f;
#X obj 124 297 *;
#X obj 257 188 sel 0 1;
#X msg 257 280 -1;
#X msg 335 280 1;
#X obj 124 149 t b b b;
#X obj 124 71 r NUDGE!;
#X obj 157 193 r NUDGE-RANGE;
#X obj 247 308 inlet;
#X obj 232 397 outlet;
#X obj 124 93 spigot;
#X obj 201 76 r attenuators2-s;
#X connect 0 0 4 0;
#X connect 1 0 2 0;
#X connect 2 0 14 0;
#X connect 3 0 7 0;
#X connect 4 0 6 0;
#X connect 5 0 2 0;
#X connect 5 1 2 1;
#X connect 6 0 5 0;
#X connect 7 0 8 0;
#X connect 7 1 9 0;
#X connect 8 0 6 1;
#X connect 9 0 6 1;
#X connect 10 0 0 0;
#X connect 10 1 1 0;
#X connect 10 2 3 0;
#X connect 11 0 15 0;
#X connect 12 0 0 1;
#X connect 13 0 1 1;
#X connect 15 0 10 0;
#X connect 16 0 15 1;
#X restore 205 328 pd nudge-attenuators;
#X obj 27 350 clip 0 127;
#N canvas 0 22 1916 1001 nudge-parameters 0;
#X obj 124 234 random;
#X obj 232 335 f;
#X obj 232 368 +;
#X obj 257 166 random 2;
#X obj 124 275 t f f;
#X obj 124 351 t b f;
#X obj 124 297 *;
#X obj 257 188 sel 0 1;
#X msg 257 280 -1;
#X msg 335 280 1;
#X obj 124 149 t b b b;
#X obj 124 74 r NUDGE!;
#X obj 157 193 r NUDGE-RANGE;
#X obj 247 308 inlet;
#X obj 232 397 outlet;
#X obj 124 96 spigot;
#X obj 185 79 r parameters2-s;
#X connect 0 0 4 0;
#X connect 1 0 2 0;
#X connect 2 0 14 0;
#X connect 3 0 7 0;
#X connect 4 0 6 0;
#X connect 5 0 2 0;
#X connect 5 1 2 1;
#X connect 6 0 5 0;
#X connect 7 0 8 0;
#X connect 7 1 9 0;
#X connect 8 0 6 1;
#X connect 9 0 6 1;
#X connect 10 0 0 0;
#X connect 10 1 1 0;
#X connect 10 2 3 0;
#X connect 11 0 15 0;
#X connect 12 0 0 1;
#X connect 13 0 1 1;
#X connect 15 0 10 0;
#X connect 16 0 15 1;
#X restore 27 328 pd nudge-parameters;
#X obj 27 305 r \$0-kaseta-wow-frequency-s;
#X obj 27 382 s \$0-kaseta-wow-frequency-r;
#X obj 428 257 s \$0-kaseta-bias-r;
#X obj 205 305 r \$0-kaseta-wow-frequency-att-s;
#X obj 205 382 s \$0-kaseta-wow-frequency-att-r;
#X obj 602 349 clip 0 127;
#N canvas 0 22 1916 1001 nudge-attenuators 0;
#X obj 124 234 random;
#X obj 232 335 f;
#X obj 232 368 +;
#X obj 257 166 random 2;
#X obj 124 275 t f f;
#X obj 124 351 t b f;
#X obj 124 297 *;
#X obj 257 188 sel 0 1;
#X msg 257 280 -1;
#X msg 335 280 1;
#X obj 124 149 t b b b;
#X obj 124 71 r NUDGE!;
#X obj 157 193 r NUDGE-RANGE;
#X obj 247 308 inlet;
#X obj 232 397 outlet;
#X obj 124 93 spigot;
#X obj 201 76 r attenuators2-s;
#X connect 0 0 4 0;
#X connect 1 0 2 0;
#X connect 2 0 14 0;
#X connect 3 0 7 0;
#X connect 4 0 6 0;
#X connect 5 0 2 0;
#X connect 5 1 2 1;
#X connect 6 0 5 0;
#X connect 7 0 8 0;
#X connect 7 1 9 0;
#X connect 8 0 6 1;
#X connect 9 0 6 1;
#X connect 10 0 0 0;
#X connect 10 1 1 0;
#X connect 10 2 3 0;
#X connect 11 0 15 0;
#X connect 12 0 0 1;
#X connect 13 0 1 1;
#X connect 15 0 10 0;
#X connect 16 0 15 1;
#X restore 602 327 pd nudge-attenuators;
#X obj 424 349 clip 0 127;
#N canvas 0 22 1916 1001 nudge-parameters 0;
#X obj 124 234 random;
#X obj 232 335 f;
#X obj 232 368 +;
#X obj 257 166 random 2;
#X obj 124 275 t f f;
#X obj 124 351 t b f;
#X obj 124 297 *;
#X obj 257 188 sel 0 1;
#X msg 257 280 -1;
#X msg 335 280 1;
#X obj 124 149 t b b b;
#X obj 124 74 r NUDGE!;
#X obj 157 193 r NUDGE-RANGE;
#X obj 247 308 inlet;
#X obj 232 397 outlet;
#X obj 124 96 spigot;
#X obj 185 79 r parameters2-s;
#X connect 0 0 4 0;
#X connect 1 0 2 0;
#X connect 2 0 14 0;
#X connect 3 0 7 0;
#X connect 4 0 6 0;
#X connect 5 0 2 0;
#X connect 5 1 2 1;
#X connect 6 0 5 0;
#X connect 7 0 8 0;
#X connect 7 1 9 0;
#X connect 8 0 6 1;
#X connect 9 0 6 1;
#X connect 10 0 0 0;
#X connect 10 1 1 0;
#X connect 10 2 3 0;
#X connect 11 0 15 0;
#X connect 12 0 0 1;
#X connect 13 0 1 1;
#X connect 15 0 10 0;
#X connect 16 0 15 1;
#X restore 424 327 pd nudge-parameters;
#X obj 424 303 r \$0-kaseta-wow-depth-s;
#X obj 423 381 s \$0-kaseta-wow-depth-r;
#X obj 602 304 r \$0-kaseta-wow-depth-att-s;
#X obj 602 381 s \$0-kaseta-wow-depth-att-r;
#X connect 0 0 19 0;
#X connect 1 0 0 0;
#X connect 2 0 17 0;
#X connect 3 0 2 0;
#X connect 4 0 23 0;
#X connect 5 0 4 0;
#X connect 6 0 21 0;
#X connect 7 0 6 0;
#X connect 8 0 26 0;
#X connect 9 0 8 0;
#X connect 10 0 33 0;
#X connect 11 0 10 0;
#X connect 12 0 15 0;
#X connect 13 0 12 0;
#X connect 14 0 13 0;
#X connect 16 0 3 0;
#X connect 18 0 1 0;
#X connect 20 0 7 0;
#X connect 22 0 5 0;
#X connect 24 0 11 0;
#X connect 25 0 9 0;
#X connect 27 0 35 0;
#X connect 28 0 27 0;
#X connect 29 0 32 0;
#X connect 30 0 29 0;
#X connect 31 0 30 0;
#X connect 34 0 28 0;
#X connect 36 0 43 0;
#X connect 37 0 36 0;
#X connect 38 0 41 0;
#X connect 39 0 38 0;
#X connect 40 0 39 0;
#X connect 42 0 37 0;
#X restore 95 433 pd parameter-nudging-system;
#N canvas 474 23 1916 1001 external-messages 0;
#X floatatom 109 625 5 0 0 0 - - - 0;
#X obj 185 328 spigot;
#X obj 218 288 tgl 15 0 empty empty empty 17 7 0 10 #fcfcfc #000000
#000000 0 1;
#X obj 254 272 ==;
#X obj 269 248 f \$1;
#X obj 269 224 loadbang;
#X msg 185 202 \$1 \$2;
#X msg 185 156 symbol \$1;
#X obj 185 180 pack s f;
#X obj 109 604 f;
#X obj 109 552 t b f;
#X obj 109 575 spigot;
#X obj 185 62 unpack s f f;
#X symbolatom 185 94 10 0 0 0 - - - 0;
#X obj 218 308 t f f;
#X obj 245 332 s \$0-msg-spigot;
#X obj 157 559 r \$0-msg-spigot;
#X floatatom 186 490 5 0 0 0 - - - 0;
#X obj 186 469 f;
#X obj 186 417 t b f;
#X obj 186 440 spigot;
#X obj 234 424 r \$0-msg-spigot;
#X floatatom 279 626 5 0 0 0 - - - 0;
#X obj 279 605 f;
#X obj 279 553 t b f;
#X obj 279 576 spigot;
#X obj 327 560 r \$0-msg-spigot;
#X floatatom 377 492 5 0 0 0 - - - 0;
#X obj 377 471 f;
#X obj 377 419 t b f;
#X obj 377 442 spigot;
#X obj 425 426 r \$0-msg-spigot;
#X obj 186 510 s \$0-kaseta-drive;
#X obj 109 645 s \$0-kaseta-pre-amp;
#X obj 279 646 s \$0-kaseta-saturation;
#X obj 377 512 s \$0-kaseta-bias;
#X obj 185 14 r kaseta;
#X obj 185 380 route PRE-AMP DRIVE SATURATION BIAS WOW_FREQ WOW_DEPTH
;
#X floatatom 462 626 5 0 0 0 - - - 0;
#X obj 462 605 f;
#X obj 462 553 t b f;
#X obj 462 576 spigot;
#X obj 510 560 r \$0-msg-spigot;
#X floatatom 560 492 5 0 0 0 - - - 0;
#X obj 560 471 f;
#X obj 560 419 t b f;
#X obj 560 442 spigot;
#X obj 608 426 r \$0-msg-spigot;
#X obj 560 512 s \$0-kaseta-wow-depth;
#X obj 462 646 s \$0-kaseta-wow-frequency;
#X connect 0 0 33 0;
#X connect 1 0 37 0;
#X connect 2 0 14 0;
#X connect 3 0 2 0;
#X connect 4 0 3 1;
#X connect 5 0 4 0;
#X connect 6 0 1 0;
#X connect 7 0 8 0;
#X connect 8 0 6 0;
#X connect 9 0 0 0;
#X connect 10 0 11 0;
#X connect 10 1 9 1;
#X connect 11 0 9 0;
#X connect 12 0 13 0;
#X connect 12 1 8 1;
#X connect 12 2 3 0;
#X connect 13 0 7 0;
#X connect 14 0 1 1;
#X connect 14 1 15 0;
#X connect 16 0 11 1;
#X connect 17 0 32 0;
#X connect 18 0 17 0;
#X connect 19 0 20 0;
#X connect 19 1 18 1;
#X connect 20 0 18 0;
#X connect 21 0 20 1;
#X connect 22 0 34 0;
#X connect 23 0 22 0;
#X connect 24 0 25 0;
#X connect 24 1 23 1;
#X connect 25 0 23 0;
#X connect 26 0 25 1;
#X connect 27 0 35 0;
#X connect 28 0 27 0;
#X connect 29 0 30 0;
#X connect 29 1 28 1;
#X connect 30 0 28 0;
#X connect 31 0 30 1;
#X connect 36 0 12 0;
#X connect 37 0 10 0;
#X connect 37 1 19 0;
#X connect 37 2 24 0;
#X connect 37 3 29 0;
#X connect 37 4 40 0;
#X connect 37 5 45 0;
#X connect 38 0 49 0;
#X connect 39 0 38 0;
#X connect 40 0 41 0;
#X connect 40 1 39 1;
#X connect 41 0 39 0;
#X connect 42 0 41 1;
#X connect 43 0 48 0;
#X connect 44 0 43 0;
#X connect 45 0 46 0;
#X connect 45 1 44 1;
#X connect 46 0 44 0;
#X connect 47 0 46 1;
#X restore 96 407 pd external-messages;
#X obj 429 650 / 127;
#X obj 105 110 cnv 5 5 5 empty empty IN 0 0 0 8 #fcfcfc #404040 0;
#X obj 134 109 cnv 5 5 5 empty empty DRIVE 0 0 0 8 #fcfcfc #7474a4
0;
#X obj 178 109 cnv 5 5 5 empty empty SAT. 0 0 0 8 #fcfcfc #7474a4 0
;
#X obj 218 109 cnv 5 5 5 empty empty BIAS 0 0 0 8 #fcfcfc #7474a4 0
;
#X obj 107 128 cnv 5 5 5 empty empty KASETA 0 0 0 12 #fcfcfc #404040
0;
#X obj 154 128 cnv 5 5 5 empty \$0-instance-num 1 0 0 0 12 #fcfcfc
#404040 0;
#X obj 110 145 hsl 128 15 1.27 127 1 1 \$0-kaseta-pre-amp-s \$0-kaseta-pre-amp-r
PRE-AMP 133 7 0 10 #fcfcfc #000000 #000000 12700 1;
#X obj 110 160 hsl 128 15 0 127 0 1 \$0-kaseta-drive-s \$0-kaseta-drive-r
DRIVE 133 7 0 10 #fcfcfc #000000 #000000 0 1;
#X obj 110 175 hsl 128 15 0 127 0 1 \$0-kaseta-drive-att-s \$0-kaseta-drive-att-r
ATT 133 7 0 10 #9898dc #000000 #000000 12700 1;
#X obj 110 190 hsl 128 15 0 127 0 1 \$0-kaseta-saturation-s \$0-kaseta-saturation-r
SATURATION 133 7 0 10 #fcfcfc #000000 #000000 0 1;
#X obj 110 205 hsl 128 15 0 127 0 1 \$0-kaseta-saturation-att-s \$0-kaseta-saturation-att-r
ATT 133 7 0 10 #9898dc #000000 #000000 0 1;
#X obj 110 220 hsl 128 15 0 127 0 1 \$0-kaseta-bias-s \$0-kaseta-bias-r
BIAS 133 7 0 10 #fcfcfc #000000 #000000 12700 1;
#X obj 110 235 hsl 128 15 0 127 0 1 \$0-kaseta-bias-att-s \$0-kaseta-bias-att-r
ATT 133 7 0 10 #9898dc #000000 #000000 0 1;
#X obj 94 626 r~ \$0-kaseta-out;
#X obj 94 648 outlet~ OUT;
#X obj 1136 669 s~ \$0-kaseta-out;
#X obj 1136 627 kaseta~;
#X obj 477 32 inlet~ IN;
#X obj 1171 27 r~ \$0-kaseta-in;
#X obj 1187 51 r \$0-kaseta-pre-amp;
#X obj 429 627 r \$0-kaseta-pre-amp-s;
#X obj 429 673 s \$0-kaseta-pre-amp;
#X obj 500 155 snapshot~;
#X obj 514 113 loadbang;
#X obj 514 134 metro;
#X obj 583 144 / 127;
#X obj 568 178 *;
#X obj 429 728 / 127;
#X obj 499 91 inlet~ DRIVE;
#X obj 583 121 r \$0-kaseta-drive-att-s;
#X obj 429 705 r \$0-kaseta-drive-s;
#X obj 523 317 snapshot~;
#X obj 537 275 loadbang;
#X obj 537 296 metro;
#X obj 606 316 / 127;
#X obj 591 350 *;
#X obj 429 807 / 127;
#X obj 522 253 inlet~ SATURATION;
#X obj 606 293 r \$0-kaseta-saturation-att-s;
#X obj 429 784 r \$0-kaseta-saturation-s;
#X obj 613 491 snapshot~;
#X obj 627 449 loadbang;
#X obj 627 470 metro;
#X obj 696 490 / 127;
#X obj 681 524 *;
#X obj 429 881 / 127;
#X obj 612 427 inlet~ BIAS;
#X obj 696 467 r \$0-kaseta-bias-att-s;
#X obj 429 858 r \$0-kaseta-bias-s;
#X obj 476 56 s~ \$0-kaseta-in;
#X msg 1206 123 drive_pot \$1;
#X obj 1206 101 r \$0-kaseta-drive-pot;
#X obj 1218 146 r \$0-kaseta-drive-cv;
#X msg 1218 168 drive_cv \$1;
#X obj 1227 193 r \$0-kaseta-saturation-pot;
#X msg 1227 216 saturation_pot \$1;
#X obj 1235 240 r \$0-kaseta-saturation-cv;
#X msg 1235 263 saturation_cv \$1;
#X obj 1242 286 r \$0-kaseta-bias-pot;
#X obj 1251 333 r \$0-kaseta-bias-cv;
#X msg 1251 357 bias_cv \$1;
#X obj 591 372 s \$0-kaseta-saturation-cv;
#X obj 429 829 s \$0-kaseta-saturation-pot;
#X obj 429 750 s \$0-kaseta-drive-pot;
#X obj 429 903 s \$0-kaseta-bias-pot;
#X obj 681 547 s \$0-kaseta-bias-cv;
#X obj 568 199 s \$0-kaseta-drive-cv;
#X msg 1242 310 bias_pot \$1;
#X msg 1187 73 pre_amp_pot \$1;
#X obj 1259 384 r \$0-kaseta-wow-frequency-pot;
#X msg 1259 408 wow_frequency_pot \$1;
#X obj 1268 431 r \$0-kaseta-wow-frequency-cv;
#X msg 1268 455 wow_frequency_cv \$1;
#X obj 1279 484 r \$0-kaseta-wow-depth-pot;
#X msg 1279 508 wow_depth_pot \$1;
#X obj 1288 531 r \$0-kaseta-wow-depth-cv;
#X msg 1288 555 wow_depth_cv \$1;
#X obj 110 250 hsl 128 15 0 127 0 1 \$0-kaseta-wow-frequency-s \$0-kaseta-wow-frequency-r
WOW\\\ FREQ 133 7 0 10 #fcfcfc #000000 #000000 0 1;
#X obj 110 265 hsl 128 15 0 127 0 1 \$0-kaseta-wow-frequency-att-s
\$0-kaseta-wow-frequency-att-r ATT 133 7 0 10 #9898dc #000000 #000000
0 1;
#X obj 110 280 hsl 128 15 0 127 0 1 \$0-kaseta-wow-depth-s \$0-kaseta-wow-depth-r
WOW\\\ DEPTH 133 7 0 10 #fcfcfc #000000 #000000 12700 1;
#X obj 110 295 hsl 128 15 0 127 0 1 \$0-kaseta-bias-att-s \$0-kaseta-bias-att-r
ATT 133 7 0 10 #9898dc #000000 #000000 0 1;
#X obj 617 645 / 127;
#X obj 617 622 r \$0-kaseta-wow-frequency-s;
#X obj 617 667 s \$0-kaseta-wow-frequency-pot;
#X obj 617 714 / 127;
#X obj 617 691 r \$0-kaseta-wow-depth-s;
#X obj 617 736 s \$0-kaseta-wow-depth-pot;
#X obj 759 90 snapshot~;
#X obj 773 48 loadbang;
#X obj 773 69 metro;
#X obj 842 89 / 127;
#X obj 827 123 *;
#X obj 758 26 inlet~ WOW_FREQ;
#X obj 842 66 r \$0-kaseta-wow-frequency-att-s;
#X obj 827 145 s \$0-kaseta-wow-frequency-cv;
#X obj 795 250 snapshot~;
#X obj 809 208 loadbang;
#X obj 809 229 metro;
#X obj 878 249 / 127;
#X obj 863 283 *;
#X obj 794 186 inlet~ WOW_DEPTH;
#X obj 878 226 r \$0-kaseta-wow-depth-att-s;
#X obj 863 305 s \$0-kaseta-wow-depth-cv;
#X obj 252 109 cnv 5 5 5 empty empty WOW\\\ F. 0 0 0 8 #fcfcfc #7474a4
0;
#X obj 289 109 cnv 5 5 5 empty empty WOW\\\ D. 0 0 0 8 #fcfcfc #7474a4
0;
#X connect 1 0 3 0;
#X connect 3 0 4 0;
#X connect 4 0 2 0;
#X connect 8 0 30 0;
#X connect 22 0 23 0;
#X connect 25 0 24 0;
#X connect 26 0 58 0;
#X connect 27 0 25 0;
#X connect 28 0 77 0;
#X connect 29 0 8 0;
#X connect 31 0 35 0;
#X connect 32 0 33 0;
#X connect 33 0 31 0;
#X connect 34 0 35 1;
#X connect 35 0 75 0;
#X connect 36 0 72 0;
#X connect 37 0 31 0;
#X connect 38 0 34 0;
#X connect 39 0 36 0;
#X connect 40 0 44 0;
#X connect 41 0 42 0;
#X connect 42 0 40 0;
#X connect 43 0 44 1;
#X connect 44 0 70 0;
#X connect 45 0 71 0;
#X connect 46 0 40 0;
#X connect 47 0 43 0;
#X connect 48 0 45 0;
#X connect 49 0 53 0;
#X connect 50 0 51 0;
#X connect 51 0 49 0;
#X connect 52 0 53 1;
#X connect 53 0 74 0;
#X connect 54 0 73 0;
#X connect 55 0 49 0;
#X connect 56 0 52 0;
#X connect 57 0 54 0;
#X connect 59 0 25 0;
#X connect 60 0 59 0;
#X connect 61 0 62 0;
#X connect 62 0 25 0;
#X connect 63 0 64 0;
#X connect 64 0 25 0;
#X connect 65 0 66 0;
#X connect 66 0 25 0;
#X connect 67 0 76 0;
#X connect 68 0 69 0;
#X connect 69 0 25 0;
#X connect 76 0 25 0;
#X connect 77 0 25 0;
#X connect 78 0 79 0;
#X connect 79 0 25 0;
#X connect 80 0 81 0;
#X connect 81 0 25 0;
#X connect 82 0 83 0;
#X connect 83 0 25 0;
#X connect 84 0 85 0;
#X connect 85 0 25 0;
#X connect 90 0 92 0;
#X connect 91 0 90 0;
#X connect 93 0 95 0;
#X connect 94 0 93 0;
#X connect 96 0 100 0;
#X connect 97 0 98 0;
#X connect 98 0 96 0;
#X connect 99 0 100 1;
#X connect 100 0 103 0;
#X connect 101 0 96 0;
#X connect 102 0 99 0;
#X connect 104 0 108 0;
#X connect 105 0 106 0;
#X connect 106 0 104 0;
#X connect 107 0 108 1;
#X connect 108 0 111 0;
#X connect 109 0 104 0;
#X connect 110 0 107 0;
#X coords 0 -1 1 1 220 240 2 100 100;
