#N canvas 0 45 1916 1001 10;
#X obj 105 350 cnv 5 5 5 empty empty OUT 0 0 0 8 #fcfcfc #404040 0
;
#N canvas 0 45 1916 1001 state-saving-multiple-instances 0;
#X obj 1066 31 loadbang;
#X obj 1044 291 textfile;
#X msg 1326 274 rewind;
#X msg 1283 274 bang;
#X obj 95 916 textfile;
#X obj 1283 235 t b b;
#X obj 92 680 f;
#X obj 102 822 f;
#X obj 33 724 t b b b;
#X msg 165 822 clear;
#X obj 1132 219 outlet;
#X text 1175 220 INSTANCE NUMBER;
#X obj 1093 155 f \$1;
#X obj 1093 191 t f f f;
#X obj 1066 64 t b b;
#X obj 33 701 bng 15 250 50 0 empty empty empty 17 7 0 10 #fcfcfc #000000
#000000;
#X obj 28 24 r SAVE-S;
#X obj 1150 39 r \$0-reload!;
#X text 1232 40 RETURN TO PREVIOUS VALUE AFTER USING MORPH-SEQ module
;
#X obj 1183 925 s \$0-kaseta-pre-amp-r;
#X obj 1189 903 s \$0-kaseta-drive-r;
#X obj 1199 881 s \$0-kaseta-drive-att-r;
#X obj 1213 859 s \$0-kaseta-saturation-r;
#X obj 1223 837 s \$0-kaseta-saturation-att-r;
#X obj 1234 815 s \$0-kaseta-bias-r;
#X obj 1244 793 s \$0-kaseta-bias-att-r;
#X msg 1044 266 read statesave/\$1-kaseta-ss.txt;
#X msg 108 876 write statesave/\$1-kaseta-ss.txt;
#X obj 115 59 r \$0-kaseta-pre-amp-s;
#X obj 127 86 r \$0-kaseta-drive-s;
#X obj 162 138 r \$0-kaseta-saturation-s;
#X obj 140 112 r \$0-kaseta-drive-att-s;
#X obj 176 163 r \$0-kaseta-saturation-att-s;
#X obj 188 187 r \$0-kaseta-bias-s;
#X obj 200 211 r \$0-kaseta-bias-att-s;
#X obj 214 236 r \$0-kaseta-wow-frequency-s;
#X obj 228 260 r \$0-kaseta-wow-frequency-att-s;
#X obj 237 284 r \$0-kaseta-wow-depth-s;
#X obj 247 307 r \$0-kaseta-wow-depth-att-s;
#X obj 1267 747 s \$0-kaseta-wow-frequency-att-r;
#X obj 1257 769 s \$0-kaseta-wow-frequency-r;
#X obj 1286 700 s \$0-kaseta-wow-depth-att-r;
#X obj 1276 722 s \$0-kaseta-wow-depth-r;
#X obj 258 335 r \$0-kaseta-delay-length-s;
#X obj 266 360 r \$0-kaseta-delay-head-1-position-s;
#X obj 273 383 r \$0-kaseta-delay-head-2-position-s;
#X obj 282 407 r \$0-kaseta-delay-head-3-position-s;
#X obj 290 433 r \$0-kaseta-delay-head-4-position-s;
#X obj 1296 676 s \$0-kaseta-delay-length-r;
#X obj 1302 652 s \$0-kaseta-delay-head-1-position-r;
#X obj 1310 629 s \$0-kaseta-delay-head-2-position-r;
#X obj 1316 605 s \$0-kaseta-delay-head-3-position-r;
#X obj 1325 581 s \$0-kaseta-delay-head-4-position-r;
#X obj 301 458 r \$0-kaseta-delay-quantization-8-s;
#X obj 1335 557 s \$0-kaseta-delay-quantization-8-r;
#X obj 314 483 r \$0-kaseta-delay-quantization-6-s;
#X obj 1343 534 s \$0-kaseta-delay-quantization-6-r;
#X obj 383 607 r \$0-kaseta-delay-head-1-feedback-s;
#X obj 394 632 r \$0-kaseta-delay-head-2-feedback-s;
#X obj 407 657 r \$0-kaseta-delay-head-3-feedback-s;
#X obj 421 680 r \$0-kaseta-delay-head-4-feedback-s;
#X obj 1403 353 s \$0-kaseta-delay-head-4-feedback-r;
#X obj 1397 374 s \$0-kaseta-delay-head-3-feedback-r;
#X obj 1389 397 s \$0-kaseta-delay-head-2-feedback-r;
#X obj 1383 420 s \$0-kaseta-delay-head-1-feedback-r;
#X obj 330 508 r \$0-kaseta-delay-head-1-play-s;
#X obj 341 533 r \$0-kaseta-delay-head-2-play-s;
#X obj 354 558 r \$0-kaseta-delay-head-3-play-s;
#X obj 367 581 r \$0-kaseta-delay-head-4-play-s;
#X obj 1375 443 s \$0-kaseta-delay-head-4-play-r;
#X obj 1369 464 s \$0-kaseta-delay-head-3-play-r;
#X obj 1361 487 s \$0-kaseta-delay-head-2-play-r;
#X obj 1355 510 s \$0-kaseta-delay-head-1-play-r;
#X obj 1425 862 s \$0-kaseta-delay-head-4-feedback-amp-r;
#X obj 1419 883 s \$0-kaseta-delay-head-3-feedback-amp-r;
#X obj 1411 906 s \$0-kaseta-delay-head-2-feedback-amp-r;
#X obj 1404 929 s \$0-kaseta-delay-head-1-feedback-amp-r;
#X obj 359 59 r \$0-kaseta-delay-head-1-feedback-amp-s;
#X obj 372 84 r \$0-kaseta-delay-head-2-feedback-amp-s;
#X obj 383 109 r \$0-kaseta-delay-head-3-feedback-amp-s;
#X obj 397 131 r \$0-kaseta-delay-head-4-feedback-amp-s;
#X msg 92 761 set \$1 \$2 \$3 \$4 \$5 \$6 \$7 \$8 \$9 \$10 \$11 \$12
\$13 \$14 \$15 \$16 \$17 \$18 \$19 \$20 \$21 \$22 \$23 \$24 \$25 \$26
\$27 \$28 \$29 \$30 \$31 \$32 \$33 \$32, f 67;
#X obj 92 723 pack f f f f f f f f f f f f f f f f f f f f f f f f
f f f f f f f f f f, f 73;
#X obj 1044 313 unpack f f f f f f f f f f f f f f f f f f f f f f
f f f f f f f f f f f f, f 75;
#X obj 411 154 r \$0-kaseta-delay-head-1-volume-s;
#X obj 424 179 r \$0-kaseta-delay-head-2-volume-s;
#X obj 435 204 r \$0-kaseta-delay-head-3-volume-s;
#X obj 449 226 r \$0-kaseta-delay-head-4-volume-s;
#X obj 1454 772 s \$0-kaseta-delay-head-4-volume-r;
#X obj 1448 793 s \$0-kaseta-delay-head-3-volume-r;
#X obj 1440 816 s \$0-kaseta-delay-head-2-volume-r;
#X obj 1433 839 s \$0-kaseta-delay-head-1-volume-r;
#X connect 0 0 14 0;
#X connect 1 0 83 0;
#X connect 2 0 1 0;
#X connect 3 0 1 0;
#X connect 5 0 3 0;
#X connect 5 1 2 0;
#X connect 6 0 82 0;
#X connect 7 0 27 0;
#X connect 8 0 7 0;
#X connect 8 1 6 0;
#X connect 8 2 9 0;
#X connect 9 0 4 0;
#X connect 12 0 13 0;
#X connect 13 0 7 1;
#X connect 13 1 26 0;
#X connect 13 2 10 0;
#X connect 14 0 5 0;
#X connect 14 1 12 0;
#X connect 15 0 8 0;
#X connect 16 0 15 0;
#X connect 17 0 14 0;
#X connect 26 0 1 0;
#X connect 27 0 4 0;
#X connect 28 0 6 1;
#X connect 29 0 82 1;
#X connect 30 0 82 3;
#X connect 31 0 82 2;
#X connect 32 0 82 4;
#X connect 33 0 82 5;
#X connect 34 0 82 6;
#X connect 35 0 82 7;
#X connect 36 0 82 8;
#X connect 37 0 82 9;
#X connect 38 0 82 10;
#X connect 43 0 82 11;
#X connect 44 0 82 12;
#X connect 45 0 82 13;
#X connect 46 0 82 14;
#X connect 47 0 82 15;
#X connect 53 0 82 16;
#X connect 55 0 82 17;
#X connect 57 0 82 22;
#X connect 58 0 82 23;
#X connect 59 0 82 24;
#X connect 60 0 82 25;
#X connect 65 0 82 18;
#X connect 66 0 82 19;
#X connect 67 0 82 20;
#X connect 68 0 82 21;
#X connect 77 0 82 26;
#X connect 78 0 82 27;
#X connect 79 0 82 28;
#X connect 80 0 82 29;
#X connect 81 0 4 0;
#X connect 82 0 81 0;
#X connect 83 0 19 0;
#X connect 83 1 20 0;
#X connect 83 2 21 0;
#X connect 83 3 22 0;
#X connect 83 4 23 0;
#X connect 83 5 24 0;
#X connect 83 6 25 0;
#X connect 83 7 40 0;
#X connect 83 8 39 0;
#X connect 83 9 42 0;
#X connect 83 10 41 0;
#X connect 83 11 48 0;
#X connect 83 12 49 0;
#X connect 83 13 50 0;
#X connect 83 14 51 0;
#X connect 83 15 52 0;
#X connect 83 16 54 0;
#X connect 83 17 56 0;
#X connect 83 18 72 0;
#X connect 83 19 71 0;
#X connect 83 20 70 0;
#X connect 83 21 69 0;
#X connect 83 22 64 0;
#X connect 83 23 63 0;
#X connect 83 24 62 0;
#X connect 83 25 61 0;
#X connect 83 26 76 0;
#X connect 83 27 75 0;
#X connect 83 28 74 0;
#X connect 83 29 73 0;
#X connect 83 30 91 0;
#X connect 83 31 90 0;
#X connect 83 32 89 0;
#X connect 83 33 88 0;
#X connect 84 0 82 30;
#X connect 85 0 82 31;
#X connect 86 0 82 32;
#X connect 87 0 82 33;
#X restore 93 489 pd state-saving-multiple-instances;
#X obj 93 564 s \$0-instance-num;
#X obj 93 516 makefilename %d;
#X msg 93 541 label \$1;
#N canvas 81 22 1916 1001 state-saving-via-preset-manager-module 0
;
#X obj 1017 241 textfile;
#X msg 1396 224 rewind;
#X msg 1353 224 bang;
#X obj 109 856 textfile;
#X obj 1353 185 t b b;
#X obj 107 414 f;
#X obj 120 747 f;
#X obj 53 642 t b b b;
#X msg 189 797 clear;
#X obj 107 56 delay 5;
#X obj 53 697 delay 10;
#X msg 53 372 bang;
#X obj 53 26 r STORE-S!;
#X obj 1017 142 f;
#X obj 990 106 t b b;
#X obj 1005 63 t b f;
#X obj 1062 160 f \$1;
#X obj 1017 187 pack f f;
#X obj 1062 110 loadbang;
#X obj 120 777 pack f f;
#X obj 165 730 loadbang;
#X obj 165 752 f \$1;
#X obj 1005 40 r preset-manager-scan;
#X obj 135 708 r preset-manager-store-slot;
#N canvas 0 22 1916 1001 morph-parameters 0;
#X obj 176 94 inlet;
#X obj 176 236 pack f f;
#X obj 176 261 line;
#X obj 209 117 r preset-manager-morph-s;
#X msg 72 244 stop;
#X obj 72 214 r STOP-MORPH!;
#X obj 209 206 spigot;
#X obj 398 137 t f f;
#X obj 455 154 == 0;
#X obj 221 176 f;
#X floatatom 455 222 5 0 0 0 - - - 0;
#X obj 398 159 t b f;
#X floatatom 425 192 5 0 0 0 - - - 0;
#X obj 209 139 t f f;
#X obj 398 102 r parameters-s;
#X obj 176 288 outlet;
#X connect 0 0 1 0;
#X connect 1 0 2 0;
#X connect 2 0 15 0;
#X connect 3 0 13 0;
#X connect 4 0 2 0;
#X connect 5 0 4 0;
#X connect 6 0 1 1;
#X connect 7 0 11 0;
#X connect 7 1 8 0;
#X connect 8 0 10 0;
#X connect 9 0 6 0;
#X connect 10 0 1 1;
#X connect 11 0 9 0;
#X connect 11 1 12 0;
#X connect 12 0 6 1;
#X connect 13 0 6 0;
#X connect 13 1 9 1;
#X connect 14 0 7 0;
#X restore 1069 753 pd morph-parameters;
#N canvas 0 22 1916 1001 morph-attenuators 0;
#X obj 176 94 inlet;
#X obj 176 236 pack f f;
#X obj 176 261 line;
#X obj 209 117 r preset-manager-morph-s;
#X msg 72 244 stop;
#X obj 72 214 r STOP-MORPH!;
#X obj 209 206 spigot;
#X obj 398 137 t f f;
#X obj 455 154 == 0;
#X obj 221 176 f;
#X floatatom 455 222 5 0 0 0 - - - 0;
#X obj 398 159 t b f;
#X floatatom 425 192 5 0 0 0 - - - 0;
#X obj 209 139 t f f;
#X obj 398 102 r attenuators-s;
#X obj 176 288 outlet;
#X connect 0 0 1 0;
#X connect 1 0 2 0;
#X connect 2 0 15 0;
#X connect 3 0 13 0;
#X connect 4 0 2 0;
#X connect 5 0 4 0;
#X connect 6 0 1 1;
#X connect 7 0 11 0;
#X connect 7 1 8 0;
#X connect 8 0 10 0;
#X connect 9 0 6 0;
#X connect 10 0 1 1;
#X connect 11 0 9 0;
#X connect 11 1 12 0;
#X connect 12 0 6 1;
#X connect 13 0 6 0;
#X connect 13 1 9 1;
#X connect 14 0 7 0;
#X restore 1079 704 pd morph-attenuators;
#X msg 1017 216 read statesave/\$1-\$2-kaseta-ss.txt;
#X msg 188 824 write statesave/\$1-\$2-kaseta-ss.txt;
#X obj 122 99 r \$0-kaseta-pre-amp-s;
#X obj 134 126 r \$0-kaseta-drive-s;
#X obj 169 178 r \$0-kaseta-saturation-s;
#X obj 147 152 r \$0-kaseta-drive-att-s;
#X obj 183 203 r \$0-kaseta-saturation-att-s;
#X obj 198 231 r \$0-kaseta-bias-s;
#X obj 214 258 r \$0-kaseta-bias-att-s;
#N canvas 0 22 1916 1001 morph-parameters 0;
#X obj 176 94 inlet;
#X obj 176 236 pack f f;
#X obj 176 261 line;
#X obj 209 117 r preset-manager-morph-s;
#X msg 72 244 stop;
#X obj 72 214 r STOP-MORPH!;
#X obj 209 206 spigot;
#X obj 398 137 t f f;
#X obj 455 154 == 0;
#X obj 221 176 f;
#X floatatom 455 222 5 0 0 0 - - - 0;
#X obj 398 159 t b f;
#X floatatom 425 192 5 0 0 0 - - - 0;
#X obj 209 139 t f f;
#X obj 398 102 r parameters-s;
#X obj 176 288 outlet;
#X connect 0 0 1 0;
#X connect 1 0 2 0;
#X connect 2 0 15 0;
#X connect 3 0 13 0;
#X connect 4 0 2 0;
#X connect 5 0 4 0;
#X connect 6 0 1 1;
#X connect 7 0 11 0;
#X connect 7 1 8 0;
#X connect 8 0 10 0;
#X connect 9 0 6 0;
#X connect 10 0 1 1;
#X connect 11 0 9 0;
#X connect 11 1 12 0;
#X connect 12 0 6 1;
#X connect 13 0 6 0;
#X connect 13 1 9 1;
#X connect 14 0 7 0;
#X restore 1063 803 pd morph-parameters;
#N canvas 0 22 1916 1001 morph-parameters 0;
#X obj 176 94 inlet;
#X obj 176 236 pack f f;
#X obj 176 261 line;
#X obj 209 117 r preset-manager-morph-s;
#X msg 72 244 stop;
#X obj 72 214 r STOP-MORPH!;
#X obj 209 206 spigot;
#X obj 398 137 t f f;
#X obj 455 154 == 0;
#X obj 221 176 f;
#X floatatom 455 222 5 0 0 0 - - - 0;
#X obj 398 159 t b f;
#X floatatom 425 192 5 0 0 0 - - - 0;
#X obj 209 139 t f f;
#X obj 398 102 r parameters-s;
#X obj 176 288 outlet;
#X connect 0 0 1 0;
#X connect 1 0 2 0;
#X connect 2 0 15 0;
#X connect 3 0 13 0;
#X connect 4 0 2 0;
#X connect 5 0 4 0;
#X connect 6 0 1 1;
#X connect 7 0 11 0;
#X connect 7 1 8 0;
#X connect 8 0 10 0;
#X connect 9 0 6 0;
#X connect 10 0 1 1;
#X connect 11 0 9 0;
#X connect 11 1 12 0;
#X connect 12 0 6 1;
#X connect 13 0 6 0;
#X connect 13 1 9 1;
#X connect 14 0 7 0;
#X restore 1093 655 pd morph-parameters;
#N canvas 0 22 1916 1001 morph-attenuators 0;
#X obj 176 94 inlet;
#X obj 176 236 pack f f;
#X obj 176 261 line;
#X obj 209 117 r preset-manager-morph-s;
#X msg 72 244 stop;
#X obj 72 214 r STOP-MORPH!;
#X obj 209 206 spigot;
#X obj 398 137 t f f;
#X obj 455 154 == 0;
#X obj 221 176 f;
#X floatatom 455 222 5 0 0 0 - - - 0;
#X obj 398 159 t b f;
#X floatatom 425 192 5 0 0 0 - - - 0;
#X obj 209 139 t f f;
#X obj 398 102 r attenuators-s;
#X obj 176 288 outlet;
#X connect 0 0 1 0;
#X connect 1 0 2 0;
#X connect 2 0 15 0;
#X connect 3 0 13 0;
#X connect 4 0 2 0;
#X connect 5 0 4 0;
#X connect 6 0 1 1;
#X connect 7 0 11 0;
#X connect 7 1 8 0;
#X connect 8 0 10 0;
#X connect 9 0 6 0;
#X connect 10 0 1 1;
#X connect 11 0 9 0;
#X connect 11 1 12 0;
#X connect 12 0 6 1;
#X connect 13 0 6 0;
#X connect 13 1 9 1;
#X connect 14 0 7 0;
#X restore 1103 606 pd morph-attenuators;
#N canvas 0 22 1916 1001 morph-parameters 0;
#X obj 176 94 inlet;
#X obj 176 236 pack f f;
#X obj 176 261 line;
#X obj 209 117 r preset-manager-morph-s;
#X msg 72 244 stop;
#X obj 72 214 r STOP-MORPH!;
#X obj 209 206 spigot;
#X obj 398 137 t f f;
#X obj 455 154 == 0;
#X obj 221 176 f;
#X floatatom 455 222 5 0 0 0 - - - 0;
#X obj 398 159 t b f;
#X floatatom 425 192 5 0 0 0 - - - 0;
#X obj 209 139 t f f;
#X obj 398 102 r parameters-s;
#X obj 176 288 outlet;
#X connect 0 0 1 0;
#X connect 1 0 2 0;
#X connect 2 0 15 0;
#X connect 3 0 13 0;
#X connect 4 0 2 0;
#X connect 5 0 4 0;
#X connect 6 0 1 1;
#X connect 7 0 11 0;
#X connect 7 1 8 0;
#X connect 8 0 10 0;
#X connect 9 0 6 0;
#X connect 10 0 1 1;
#X connect 11 0 9 0;
#X connect 11 1 12 0;
#X connect 12 0 6 1;
#X connect 13 0 6 0;
#X connect 13 1 9 1;
#X connect 14 0 7 0;
#X restore 1114 558 pd morph-parameters;
#N canvas 0 22 1916 1001 morph-attenuators 0;
#X obj 176 94 inlet;
#X obj 176 236 pack f f;
#X obj 176 261 line;
#X obj 209 117 r preset-manager-morph-s;
#X msg 72 244 stop;
#X obj 72 214 r STOP-MORPH!;
#X obj 209 206 spigot;
#X obj 398 137 t f f;
#X obj 455 154 == 0;
#X obj 221 176 f;
#X floatatom 455 222 5 0 0 0 - - - 0;
#X obj 398 159 t b f;
#X floatatom 425 192 5 0 0 0 - - - 0;
#X obj 209 139 t f f;
#X obj 398 102 r attenuators-s;
#X obj 176 288 outlet;
#X connect 0 0 1 0;
#X connect 1 0 2 0;
#X connect 2 0 15 0;
#X connect 3 0 13 0;
#X connect 4 0 2 0;
#X connect 5 0 4 0;
#X connect 6 0 1 1;
#X connect 7 0 11 0;
#X connect 7 1 8 0;
#X connect 8 0 10 0;
#X connect 9 0 6 0;
#X connect 10 0 1 1;
#X connect 11 0 9 0;
#X connect 11 1 12 0;
#X connect 12 0 6 1;
#X connect 13 0 6 0;
#X connect 13 1 9 1;
#X connect 14 0 7 0;
#X restore 1124 509 pd morph-attenuators;
#X obj 1063 826 s \$0-kaseta-pre-amp-r;
#X obj 1069 776 s \$0-kaseta-drive-r;
#X obj 1079 728 s \$0-kaseta-drive-att-r;
#X obj 1093 678 s \$0-kaseta-saturation-r;
#X obj 1103 630 s \$0-kaseta-saturation-att-r;
#X obj 1114 581 s \$0-kaseta-bias-r;
#X obj 1124 533 s \$0-kaseta-bias-att-r;
#X obj 228 284 r \$0-kaseta-wow-frequency-s;
#X obj 244 309 r \$0-kaseta-wow-frequency-att-s;
#X obj 254 334 r \$0-kaseta-wow-depth-s;
#X obj 269 359 r \$0-kaseta-wow-depth-att-s;
#N canvas 0 22 1916 1001 morph-parameters 0;
#X obj 176 94 inlet;
#X obj 176 236 pack f f;
#X obj 176 261 line;
#X obj 209 117 r preset-manager-morph-s;
#X msg 72 244 stop;
#X obj 72 214 r STOP-MORPH!;
#X obj 209 206 spigot;
#X obj 398 137 t f f;
#X obj 455 154 == 0;
#X obj 221 176 f;
#X floatatom 455 222 5 0 0 0 - - - 0;
#X obj 398 159 t b f;
#X floatatom 425 192 5 0 0 0 - - - 0;
#X obj 209 139 t f f;
#X obj 398 102 r parameters-s;
#X obj 176 288 outlet;
#X connect 0 0 1 0;
#X connect 1 0 2 0;
#X connect 2 0 15 0;
#X connect 3 0 13 0;
#X connect 4 0 2 0;
#X connect 5 0 4 0;
#X connect 6 0 1 1;
#X connect 7 0 11 0;
#X connect 7 1 8 0;
#X connect 8 0 10 0;
#X connect 9 0 6 0;
#X connect 10 0 1 1;
#X connect 11 0 9 0;
#X connect 11 1 12 0;
#X connect 12 0 6 1;
#X connect 13 0 6 0;
#X connect 13 1 9 1;
#X connect 14 0 7 0;
#X restore 1136 461 pd morph-parameters;
#N canvas 0 22 1916 1001 morph-attenuators 0;
#X obj 176 94 inlet;
#X obj 176 236 pack f f;
#X obj 176 261 line;
#X obj 209 117 r preset-manager-morph-s;
#X msg 72 244 stop;
#X obj 72 214 r STOP-MORPH!;
#X obj 209 206 spigot;
#X obj 398 137 t f f;
#X obj 455 154 == 0;
#X obj 221 176 f;
#X floatatom 455 222 5 0 0 0 - - - 0;
#X obj 398 159 t b f;
#X floatatom 425 192 5 0 0 0 - - - 0;
#X obj 209 139 t f f;
#X obj 398 102 r attenuators-s;
#X obj 176 288 outlet;
#X connect 0 0 1 0;
#X connect 1 0 2 0;
#X connect 2 0 15 0;
#X connect 3 0 13 0;
#X connect 4 0 2 0;
#X connect 5 0 4 0;
#X connect 6 0 1 1;
#X connect 7 0 11 0;
#X connect 7 1 8 0;
#X connect 8 0 10 0;
#X connect 9 0 6 0;
#X connect 10 0 1 1;
#X connect 11 0 9 0;
#X connect 11 1 12 0;
#X connect 12 0 6 1;
#X connect 13 0 6 0;
#X connect 13 1 9 1;
#X connect 14 0 7 0;
#X restore 1146 412 pd morph-attenuators;
#X obj 1146 436 s \$0-kaseta-wow-frequency-att-r;
#X obj 1136 484 s \$0-kaseta-wow-frequency-r;
#N canvas 0 22 1916 1001 morph-parameters 0;
#X obj 176 94 inlet;
#X obj 176 236 pack f f;
#X obj 176 261 line;
#X obj 209 117 r preset-manager-morph-s;
#X msg 72 244 stop;
#X obj 72 214 r STOP-MORPH!;
#X obj 209 206 spigot;
#X obj 398 137 t f f;
#X obj 455 154 == 0;
#X obj 221 176 f;
#X floatatom 455 222 5 0 0 0 - - - 0;
#X obj 398 159 t b f;
#X floatatom 425 192 5 0 0 0 - - - 0;
#X obj 209 139 t f f;
#X obj 398 102 r parameters-s;
#X obj 176 288 outlet;
#X connect 0 0 1 0;
#X connect 1 0 2 0;
#X connect 2 0 15 0;
#X connect 3 0 13 0;
#X connect 4 0 2 0;
#X connect 5 0 4 0;
#X connect 6 0 1 1;
#X connect 7 0 11 0;
#X connect 7 1 8 0;
#X connect 8 0 10 0;
#X connect 9 0 6 0;
#X connect 10 0 1 1;
#X connect 11 0 9 0;
#X connect 11 1 12 0;
#X connect 12 0 6 1;
#X connect 13 0 6 0;
#X connect 13 1 9 1;
#X connect 14 0 7 0;
#X restore 1161 363 pd morph-parameters;
#N canvas 0 22 1916 1001 morph-attenuators 0;
#X obj 176 94 inlet;
#X obj 176 236 pack f f;
#X obj 176 261 line;
#X obj 209 117 r preset-manager-morph-s;
#X msg 72 244 stop;
#X obj 72 214 r STOP-MORPH!;
#X obj 209 206 spigot;
#X obj 398 137 t f f;
#X obj 455 154 == 0;
#X obj 221 176 f;
#X floatatom 455 222 5 0 0 0 - - - 0;
#X obj 398 159 t b f;
#X floatatom 425 192 5 0 0 0 - - - 0;
#X obj 209 139 t f f;
#X obj 398 102 r attenuators-s;
#X obj 176 288 outlet;
#X connect 0 0 1 0;
#X connect 1 0 2 0;
#X connect 2 0 15 0;
#X connect 3 0 13 0;
#X connect 4 0 2 0;
#X connect 5 0 4 0;
#X connect 6 0 1 1;
#X connect 7 0 11 0;
#X connect 7 1 8 0;
#X connect 8 0 10 0;
#X connect 9 0 6 0;
#X connect 10 0 1 1;
#X connect 11 0 9 0;
#X connect 11 1 12 0;
#X connect 12 0 6 1;
#X connect 13 0 6 0;
#X connect 13 1 9 1;
#X connect 14 0 7 0;
#X restore 1171 314 pd morph-attenuators;
#X obj 1171 338 s \$0-kaseta-wow-depth-att-r;
#X obj 1161 386 s \$0-kaseta-wow-depth-r;
#X obj 279 387 r \$0-kaseta-delay-length-s;
#X obj 288 414 r \$0-kaseta-delay-head-1-position-s;
#X obj 293 437 r \$0-kaseta-delay-head-2-position-s;
#X obj 305 464 r \$0-kaseta-delay-head-3-position-s;
#X obj 319 490 r \$0-kaseta-delay-head-4-position-s;
#N canvas 0 22 1916 1001 morph-parameters 0;
#X obj 176 94 inlet;
#X obj 176 236 pack f f;
#X obj 176 261 line;
#X obj 209 117 r preset-manager-morph-s;
#X msg 72 244 stop;
#X obj 72 214 r STOP-MORPH!;
#X obj 209 206 spigot;
#X obj 398 137 t f f;
#X obj 455 154 == 0;
#X obj 221 176 f;
#X floatatom 455 222 5 0 0 0 - - - 0;
#X obj 398 159 t b f;
#X floatatom 425 192 5 0 0 0 - - - 0;
#X obj 209 139 t f f;
#X obj 398 102 r parameters-s;
#X obj 176 288 outlet;
#X connect 0 0 1 0;
#X connect 1 0 2 0;
#X connect 2 0 15 0;
#X connect 3 0 13 0;
#X connect 4 0 2 0;
#X connect 5 0 4 0;
#X connect 6 0 1 1;
#X connect 7 0 11 0;
#X connect 7 1 8 0;
#X connect 8 0 10 0;
#X connect 9 0 6 0;
#X connect 10 0 1 1;
#X connect 11 0 9 0;
#X connect 11 1 12 0;
#X connect 12 0 6 1;
#X connect 13 0 6 0;
#X connect 13 1 9 1;
#X connect 14 0 7 0;
#X restore 1269 902 pd morph-parameters;
#X obj 1269 925 s \$0-kaseta-delay-length-r;
#N canvas 0 22 1916 1001 morph-parameters 0;
#X obj 176 94 inlet;
#X obj 176 236 pack f f;
#X obj 176 261 line;
#X obj 209 117 r preset-manager-morph-s;
#X msg 72 244 stop;
#X obj 72 214 r STOP-MORPH!;
#X obj 209 206 spigot;
#X obj 398 137 t f f;
#X obj 455 154 == 0;
#X obj 221 176 f;
#X floatatom 455 222 5 0 0 0 - - - 0;
#X obj 398 159 t b f;
#X floatatom 425 192 5 0 0 0 - - - 0;
#X obj 209 139 t f f;
#X obj 398 102 r parameters-s;
#X obj 176 288 outlet;
#X connect 0 0 1 0;
#X connect 1 0 2 0;
#X connect 2 0 15 0;
#X connect 3 0 13 0;
#X connect 4 0 2 0;
#X connect 5 0 4 0;
#X connect 6 0 1 1;
#X connect 7 0 11 0;
#X connect 7 1 8 0;
#X connect 8 0 10 0;
#X connect 9 0 6 0;
#X connect 10 0 1 1;
#X connect 11 0 9 0;
#X connect 11 1 12 0;
#X connect 12 0 6 1;
#X connect 13 0 6 0;
#X connect 13 1 9 1;
#X connect 14 0 7 0;
#X restore 1280 854 pd morph-parameters;
#X obj 1280 877 s \$0-kaseta-delay-head-1-position-r;
#N canvas 0 22 1916 1001 morph-parameters 0;
#X obj 176 94 inlet;
#X obj 176 236 pack f f;
#X obj 176 261 line;
#X obj 209 117 r preset-manager-morph-s;
#X msg 72 244 stop;
#X obj 72 214 r STOP-MORPH!;
#X obj 209 206 spigot;
#X obj 398 137 t f f;
#X obj 455 154 == 0;
#X obj 221 176 f;
#X floatatom 455 222 5 0 0 0 - - - 0;
#X obj 398 159 t b f;
#X floatatom 425 192 5 0 0 0 - - - 0;
#X obj 209 139 t f f;
#X obj 398 102 r parameters-s;
#X obj 176 288 outlet;
#X connect 0 0 1 0;
#X connect 1 0 2 0;
#X connect 2 0 15 0;
#X connect 3 0 13 0;
#X connect 4 0 2 0;
#X connect 5 0 4 0;
#X connect 6 0 1 1;
#X connect 7 0 11 0;
#X connect 7 1 8 0;
#X connect 8 0 10 0;
#X connect 9 0 6 0;
#X connect 10 0 1 1;
#X connect 11 0 9 0;
#X connect 11 1 12 0;
#X connect 12 0 6 1;
#X connect 13 0 6 0;
#X connect 13 1 9 1;
#X connect 14 0 7 0;
#X restore 1289 806 pd morph-parameters;
#N canvas 0 22 1916 1001 morph-parameters 0;
#X obj 176 94 inlet;
#X obj 176 236 pack f f;
#X obj 176 261 line;
#X obj 209 117 r preset-manager-morph-s;
#X msg 72 244 stop;
#X obj 72 214 r STOP-MORPH!;
#X obj 209 206 spigot;
#X obj 398 137 t f f;
#X obj 455 154 == 0;
#X obj 221 176 f;
#X floatatom 455 222 5 0 0 0 - - - 0;
#X obj 398 159 t b f;
#X floatatom 425 192 5 0 0 0 - - - 0;
#X obj 209 139 t f f;
#X obj 398 102 r parameters-s;
#X obj 176 288 outlet;
#X connect 0 0 1 0;
#X connect 1 0 2 0;
#X connect 2 0 15 0;
#X connect 3 0 13 0;
#X connect 4 0 2 0;
#X connect 5 0 4 0;
#X connect 6 0 1 1;
#X connect 7 0 11 0;
#X connect 7 1 8 0;
#X connect 8 0 10 0;
#X connect 9 0 6 0;
#X connect 10 0 1 1;
#X connect 11 0 9 0;
#X connect 11 1 12 0;
#X connect 12 0 6 1;
#X connect 13 0 6 0;
#X connect 13 1 9 1;
#X connect 14 0 7 0;
#X restore 1301 758 pd morph-parameters;
#N canvas 0 22 1916 1001 morph-parameters 0;
#X obj 176 94 inlet;
#X obj 176 236 pack f f;
#X obj 176 261 line;
#X obj 209 117 r preset-manager-morph-s;
#X msg 72 244 stop;
#X obj 72 214 r STOP-MORPH!;
#X obj 209 206 spigot;
#X obj 398 137 t f f;
#X obj 455 154 == 0;
#X obj 221 176 f;
#X floatatom 455 222 5 0 0 0 - - - 0;
#X obj 398 159 t b f;
#X floatatom 425 192 5 0 0 0 - - - 0;
#X obj 209 139 t f f;
#X obj 398 102 r parameters-s;
#X obj 176 288 outlet;
#X connect 0 0 1 0;
#X connect 1 0 2 0;
#X connect 2 0 15 0;
#X connect 3 0 13 0;
#X connect 4 0 2 0;
#X connect 5 0 4 0;
#X connect 6 0 1 1;
#X connect 7 0 11 0;
#X connect 7 1 8 0;
#X connect 8 0 10 0;
#X connect 9 0 6 0;
#X connect 10 0 1 1;
#X connect 11 0 9 0;
#X connect 11 1 12 0;
#X connect 12 0 6 1;
#X connect 13 0 6 0;
#X connect 13 1 9 1;
#X connect 14 0 7 0;
#X restore 1311 711 pd morph-parameters;
#X obj 1289 829 s \$0-kaseta-delay-head-2-position-r;
#X obj 1301 781 s \$0-kaseta-delay-head-3-position-r;
#X obj 1311 734 s \$0-kaseta-delay-head-4-position-r;
#X obj 330 514 r \$0-kaseta-delay-quantization-8-s;
#X obj 1321 687 s \$0-kaseta-delay-quantization-8-r;
#X obj 339 539 r \$0-kaseta-delay-quantization-6-s;
#X obj 1329 662 s \$0-kaseta-delay-quantization-6-r;
#X obj 412 150 r \$0-kaseta-delay-head-1-feedback-s;
#X obj 423 175 r \$0-kaseta-delay-head-2-feedback-s;
#X obj 436 200 r \$0-kaseta-delay-head-3-feedback-s;
#X obj 450 223 r \$0-kaseta-delay-head-4-feedback-s;
#X obj 1387 481 s \$0-kaseta-delay-head-4-feedback-r;
#X obj 1381 502 s \$0-kaseta-delay-head-3-feedback-r;
#X obj 1373 525 s \$0-kaseta-delay-head-2-feedback-r;
#X obj 1367 548 s \$0-kaseta-delay-head-1-feedback-r;
#X obj 359 51 r \$0-kaseta-delay-head-1-play-s;
#X obj 370 76 r \$0-kaseta-delay-head-2-play-s;
#X obj 383 101 r \$0-kaseta-delay-head-3-play-s;
#X obj 396 124 r \$0-kaseta-delay-head-4-play-s;
#X obj 1359 571 s \$0-kaseta-delay-head-4-play-r;
#X obj 1353 592 s \$0-kaseta-delay-head-3-play-r;
#X obj 1345 615 s \$0-kaseta-delay-head-2-play-r;
#X obj 1339 638 s \$0-kaseta-delay-head-1-play-r;
#X obj 462 248 r \$0-kaseta-delay-head-1-feedback-amp-s;
#X obj 473 273 r \$0-kaseta-delay-head-2-feedback-amp-s;
#X obj 486 298 r \$0-kaseta-delay-head-3-feedback-amp-s;
#X obj 500 321 r \$0-kaseta-delay-head-4-feedback-amp-s;
#N canvas 0 22 1916 1001 morph-parameters 0;
#X obj 176 94 inlet;
#X obj 176 236 pack f f;
#X obj 176 261 line;
#X obj 209 117 r preset-manager-morph-s;
#X msg 72 244 stop;
#X obj 72 214 r STOP-MORPH!;
#X obj 209 206 spigot;
#X obj 398 137 t f f;
#X obj 455 154 == 0;
#X obj 221 176 f;
#X floatatom 455 222 5 0 0 0 - - - 0;
#X obj 398 159 t b f;
#X floatatom 425 192 5 0 0 0 - - - 0;
#X obj 209 139 t f f;
#X obj 398 102 r parameters-s;
#X obj 176 288 outlet;
#X connect 0 0 1 0;
#X connect 1 0 2 0;
#X connect 2 0 15 0;
#X connect 3 0 13 0;
#X connect 4 0 2 0;
#X connect 5 0 4 0;
#X connect 6 0 1 1;
#X connect 7 0 11 0;
#X connect 7 1 8 0;
#X connect 8 0 10 0;
#X connect 9 0 6 0;
#X connect 10 0 1 1;
#X connect 11 0 9 0;
#X connect 11 1 12 0;
#X connect 12 0 6 1;
#X connect 13 0 6 0;
#X connect 13 1 9 1;
#X connect 14 0 7 0;
#X restore 1416 307 pd morph-parameters;
#N canvas 0 22 1916 1001 morph-parameters 0;
#X obj 176 94 inlet;
#X obj 176 236 pack f f;
#X obj 176 261 line;
#X obj 209 117 r preset-manager-morph-s;
#X msg 72 244 stop;
#X obj 72 214 r STOP-MORPH!;
#X obj 209 206 spigot;
#X obj 398 137 t f f;
#X obj 455 154 == 0;
#X obj 221 176 f;
#X floatatom 455 222 5 0 0 0 - - - 0;
#X obj 398 159 t b f;
#X floatatom 425 192 5 0 0 0 - - - 0;
#X obj 209 139 t f f;
#X obj 398 102 r parameters-s;
#X obj 176 288 outlet;
#X connect 0 0 1 0;
#X connect 1 0 2 0;
#X connect 2 0 15 0;
#X connect 3 0 13 0;
#X connect 4 0 2 0;
#X connect 5 0 4 0;
#X connect 6 0 1 1;
#X connect 7 0 11 0;
#X connect 7 1 8 0;
#X connect 8 0 10 0;
#X connect 9 0 6 0;
#X connect 10 0 1 1;
#X connect 11 0 9 0;
#X connect 11 1 12 0;
#X connect 12 0 6 1;
#X connect 13 0 6 0;
#X connect 13 1 9 1;
#X connect 14 0 7 0;
#X restore 1410 351 pd morph-parameters;
#N canvas 0 22 1916 1001 morph-parameters 0;
#X obj 176 94 inlet;
#X obj 176 236 pack f f;
#X obj 176 261 line;
#X obj 209 117 r preset-manager-morph-s;
#X msg 72 244 stop;
#X obj 72 214 r STOP-MORPH!;
#X obj 209 206 spigot;
#X obj 398 137 t f f;
#X obj 455 154 == 0;
#X obj 221 176 f;
#X floatatom 455 222 5 0 0 0 - - - 0;
#X obj 398 159 t b f;
#X floatatom 425 192 5 0 0 0 - - - 0;
#X obj 209 139 t f f;
#X obj 398 102 r parameters-s;
#X obj 176 288 outlet;
#X connect 0 0 1 0;
#X connect 1 0 2 0;
#X connect 2 0 15 0;
#X connect 3 0 13 0;
#X connect 4 0 2 0;
#X connect 5 0 4 0;
#X connect 6 0 1 1;
#X connect 7 0 11 0;
#X connect 7 1 8 0;
#X connect 8 0 10 0;
#X connect 9 0 6 0;
#X connect 10 0 1 1;
#X connect 11 0 9 0;
#X connect 11 1 12 0;
#X connect 12 0 6 1;
#X connect 13 0 6 0;
#X connect 13 1 9 1;
#X connect 14 0 7 0;
#X restore 1401 395 pd morph-parameters;
#N canvas 0 22 1916 1001 morph-parameters 0;
#X obj 176 94 inlet;
#X obj 176 236 pack f f;
#X obj 176 261 line;
#X obj 209 117 r preset-manager-morph-s;
#X msg 72 244 stop;
#X obj 72 214 r STOP-MORPH!;
#X obj 209 206 spigot;
#X obj 398 137 t f f;
#X obj 455 154 == 0;
#X obj 221 176 f;
#X floatatom 455 222 5 0 0 0 - - - 0;
#X obj 398 159 t b f;
#X floatatom 425 192 5 0 0 0 - - - 0;
#X obj 209 139 t f f;
#X obj 398 102 r parameters-s;
#X obj 176 288 outlet;
#X connect 0 0 1 0;
#X connect 1 0 2 0;
#X connect 2 0 15 0;
#X connect 3 0 13 0;
#X connect 4 0 2 0;
#X connect 5 0 4 0;
#X connect 6 0 1 1;
#X connect 7 0 11 0;
#X connect 7 1 8 0;
#X connect 8 0 10 0;
#X connect 9 0 6 0;
#X connect 10 0 1 1;
#X connect 11 0 9 0;
#X connect 11 1 12 0;
#X connect 12 0 6 1;
#X connect 13 0 6 0;
#X connect 13 1 9 1;
#X connect 14 0 7 0;
#X restore 1397 437 pd morph-parameters;
#X msg 107 651 set \$1 \$2 \$3 \$4 \$5 \$6 \$7 \$8 \$9 \$10 \$11 \$12
\$13 \$14 \$15 \$16 \$17 \$18 \$19 \$20 \$21 \$22 \$23 \$24 \$25 \$26
\$27 \$28 \$29 \$30 \$31 \$32 \$33 \$32, f 67;
#X obj 107 591 pack f f f f f f f f f f f f f f f f f f f f f f f f
f f f f f f f f f f, f 73;
#X obj 512 345 r \$0-kaseta-delay-head-1-volume-s;
#X obj 523 370 r \$0-kaseta-delay-head-2-volume-s;
#X obj 536 395 r \$0-kaseta-delay-head-3-volume-s;
#X obj 550 418 r \$0-kaseta-delay-head-4-volume-s;
#X obj 1017 263 unpack f f f f f f f f f f f f f f f f f f f f f f
f f f f f f f f f f f f, f 75;
#N canvas 0 22 1916 1001 morph-parameters 0;
#X obj 176 94 inlet;
#X obj 176 236 pack f f;
#X obj 176 261 line;
#X obj 209 117 r preset-manager-morph-s;
#X msg 72 244 stop;
#X obj 72 214 r STOP-MORPH!;
#X obj 209 206 spigot;
#X obj 398 137 t f f;
#X obj 455 154 == 0;
#X obj 221 176 f;
#X floatatom 455 222 5 0 0 0 - - - 0;
#X obj 398 159 t b f;
#X floatatom 425 192 5 0 0 0 - - - 0;
#X obj 209 139 t f f;
#X obj 398 102 r parameters-s;
#X obj 176 288 outlet;
#X connect 0 0 1 0;
#X connect 1 0 2 0;
#X connect 2 0 15 0;
#X connect 3 0 13 0;
#X connect 4 0 2 0;
#X connect 5 0 4 0;
#X connect 6 0 1 1;
#X connect 7 0 11 0;
#X connect 7 1 8 0;
#X connect 8 0 10 0;
#X connect 9 0 6 0;
#X connect 10 0 1 1;
#X connect 11 0 9 0;
#X connect 11 1 12 0;
#X connect 12 0 6 1;
#X connect 13 0 6 0;
#X connect 13 1 9 1;
#X connect 14 0 7 0;
#X restore 1563 778 pd morph-parameters;
#N canvas 0 22 1916 1001 morph-parameters 0;
#X obj 176 94 inlet;
#X obj 176 236 pack f f;
#X obj 176 261 line;
#X obj 209 117 r preset-manager-morph-s;
#X msg 72 244 stop;
#X obj 72 214 r STOP-MORPH!;
#X obj 209 206 spigot;
#X obj 398 137 t f f;
#X obj 455 154 == 0;
#X obj 221 176 f;
#X floatatom 455 222 5 0 0 0 - - - 0;
#X obj 398 159 t b f;
#X floatatom 425 192 5 0 0 0 - - - 0;
#X obj 209 139 t f f;
#X obj 398 102 r parameters-s;
#X obj 176 288 outlet;
#X connect 0 0 1 0;
#X connect 1 0 2 0;
#X connect 2 0 15 0;
#X connect 3 0 13 0;
#X connect 4 0 2 0;
#X connect 5 0 4 0;
#X connect 6 0 1 1;
#X connect 7 0 11 0;
#X connect 7 1 8 0;
#X connect 8 0 10 0;
#X connect 9 0 6 0;
#X connect 10 0 1 1;
#X connect 11 0 9 0;
#X connect 11 1 12 0;
#X connect 12 0 6 1;
#X connect 13 0 6 0;
#X connect 13 1 9 1;
#X connect 14 0 7 0;
#X restore 1557 822 pd morph-parameters;
#N canvas 0 22 1916 1001 morph-parameters 0;
#X obj 176 94 inlet;
#X obj 176 236 pack f f;
#X obj 176 261 line;
#X obj 209 117 r preset-manager-morph-s;
#X msg 72 244 stop;
#X obj 72 214 r STOP-MORPH!;
#X obj 209 206 spigot;
#X obj 398 137 t f f;
#X obj 455 154 == 0;
#X obj 221 176 f;
#X floatatom 455 222 5 0 0 0 - - - 0;
#X obj 398 159 t b f;
#X floatatom 425 192 5 0 0 0 - - - 0;
#X obj 209 139 t f f;
#X obj 398 102 r parameters-s;
#X obj 176 288 outlet;
#X connect 0 0 1 0;
#X connect 1 0 2 0;
#X connect 2 0 15 0;
#X connect 3 0 13 0;
#X connect 4 0 2 0;
#X connect 5 0 4 0;
#X connect 6 0 1 1;
#X connect 7 0 11 0;
#X connect 7 1 8 0;
#X connect 8 0 10 0;
#X connect 9 0 6 0;
#X connect 10 0 1 1;
#X connect 11 0 9 0;
#X connect 11 1 12 0;
#X connect 12 0 6 1;
#X connect 13 0 6 0;
#X connect 13 1 9 1;
#X connect 14 0 7 0;
#X restore 1548 866 pd morph-parameters;
#N canvas 0 22 1916 1001 morph-parameters 0;
#X obj 176 94 inlet;
#X obj 176 236 pack f f;
#X obj 176 261 line;
#X obj 209 117 r preset-manager-morph-s;
#X msg 72 244 stop;
#X obj 72 214 r STOP-MORPH!;
#X obj 209 206 spigot;
#X obj 398 137 t f f;
#X obj 455 154 == 0;
#X obj 221 176 f;
#X floatatom 455 222 5 0 0 0 - - - 0;
#X obj 398 159 t b f;
#X floatatom 425 192 5 0 0 0 - - - 0;
#X obj 209 139 t f f;
#X obj 398 102 r parameters-s;
#X obj 176 288 outlet;
#X connect 0 0 1 0;
#X connect 1 0 2 0;
#X connect 2 0 15 0;
#X connect 3 0 13 0;
#X connect 4 0 2 0;
#X connect 5 0 4 0;
#X connect 6 0 1 1;
#X connect 7 0 11 0;
#X connect 7 1 8 0;
#X connect 8 0 10 0;
#X connect 9 0 6 0;
#X connect 10 0 1 1;
#X connect 11 0 9 0;
#X connect 11 1 12 0;
#X connect 12 0 6 1;
#X connect 13 0 6 0;
#X connect 13 1 9 1;
#X connect 14 0 7 0;
#X restore 1544 908 pd morph-parameters;
#X obj 1543 930 s \$0-kaseta-delay-head-1-volume-r;
#X obj 1548 886 s \$0-kaseta-delay-head-2-volume-r;
#X obj 1557 842 s \$0-kaseta-delay-head-3-volume-r;
#X obj 1563 801 s \$0-kaseta-delay-head-4-volume-r;
#X obj 1396 459 s \$0-kaseta-delay-head-1-feedback-amp-r;
#X obj 1401 415 s \$0-kaseta-delay-head-2-feedback-amp-r;
#X obj 1410 371 s \$0-kaseta-delay-head-3-feedback-amp-r;
#X obj 1416 330 s \$0-kaseta-delay-head-4-feedback-amp-r;
#X connect 0 0 108 0;
#X connect 1 0 0 0;
#X connect 2 0 0 0;
#X connect 4 0 2 0;
#X connect 4 1 1 0;
#X connect 5 0 103 0;
#X connect 6 0 19 0;
#X connect 7 0 10 0;
#X connect 7 1 9 0;
#X connect 7 2 8 0;
#X connect 8 0 3 0;
#X connect 9 0 5 0;
#X connect 10 0 6 0;
#X connect 11 0 7 0;
#X connect 12 0 11 0;
#X connect 13 0 17 0;
#X connect 14 0 4 0;
#X connect 14 1 13 0;
#X connect 15 0 14 0;
#X connect 15 1 13 1;
#X connect 16 0 17 1;
#X connect 17 0 26 0;
#X connect 18 0 16 0;
#X connect 19 0 27 0;
#X connect 20 0 21 0;
#X connect 21 0 19 1;
#X connect 22 0 15 0;
#X connect 23 0 6 1;
#X connect 24 0 41 0;
#X connect 25 0 42 0;
#X connect 26 0 0 0;
#X connect 27 0 3 0;
#X connect 28 0 5 1;
#X connect 29 0 103 1;
#X connect 30 0 103 3;
#X connect 31 0 103 2;
#X connect 32 0 103 4;
#X connect 33 0 103 5;
#X connect 34 0 103 6;
#X connect 35 0 40 0;
#X connect 36 0 43 0;
#X connect 37 0 44 0;
#X connect 38 0 45 0;
#X connect 39 0 46 0;
#X connect 47 0 103 7;
#X connect 48 0 103 8;
#X connect 49 0 103 9;
#X connect 50 0 103 10;
#X connect 51 0 54 0;
#X connect 52 0 53 0;
#X connect 55 0 58 0;
#X connect 56 0 57 0;
#X connect 59 0 103 11;
#X connect 60 0 103 12;
#X connect 61 0 103 13;
#X connect 62 0 103 14;
#X connect 63 0 103 15;
#X connect 64 0 65 0;
#X connect 66 0 67 0;
#X connect 68 0 71 0;
#X connect 69 0 72 0;
#X connect 70 0 73 0;
#X connect 74 0 103 16;
#X connect 76 0 103 17;
#X connect 78 0 103 22;
#X connect 79 0 103 23;
#X connect 80 0 103 24;
#X connect 81 0 103 25;
#X connect 86 0 103 18;
#X connect 87 0 103 19;
#X connect 88 0 103 20;
#X connect 89 0 103 21;
#X connect 94 0 103 26;
#X connect 95 0 103 27;
#X connect 96 0 103 28;
#X connect 97 0 103 29;
#X connect 98 0 120 0;
#X connect 99 0 119 0;
#X connect 100 0 118 0;
#X connect 101 0 117 0;
#X connect 102 0 3 0;
#X connect 103 0 102 0;
#X connect 104 0 103 30;
#X connect 105 0 103 31;
#X connect 106 0 103 32;
#X connect 107 0 103 33;
#X connect 108 0 35 0;
#X connect 108 1 24 0;
#X connect 108 2 25 0;
#X connect 108 3 36 0;
#X connect 108 4 37 0;
#X connect 108 5 38 0;
#X connect 108 6 39 0;
#X connect 108 7 51 0;
#X connect 108 8 52 0;
#X connect 108 9 55 0;
#X connect 108 10 56 0;
#X connect 108 11 64 0;
#X connect 108 12 66 0;
#X connect 108 13 68 0;
#X connect 108 14 69 0;
#X connect 108 15 70 0;
#X connect 108 16 75 0;
#X connect 108 17 77 0;
#X connect 108 18 93 0;
#X connect 108 19 92 0;
#X connect 108 20 91 0;
#X connect 108 21 90 0;
#X connect 108 22 85 0;
#X connect 108 23 84 0;
#X connect 108 24 83 0;
#X connect 108 25 82 0;
#X connect 108 26 101 0;
#X connect 108 27 100 0;
#X connect 108 28 99 0;
#X connect 108 29 98 0;
#X connect 108 30 112 0;
#X connect 108 31 111 0;
#X connect 108 32 110 0;
#X connect 108 33 109 0;
#X connect 109 0 116 0;
#X connect 110 0 115 0;
#X connect 111 0 114 0;
#X connect 112 0 113 0;
#X restore 94 461 pd state-saving-via-preset-manager-module;
#N canvas 396 31 1916 1001 parameter-nudging-system 0;
#X obj 540 67 clip 0 127;
#N canvas 0 22 1916 1001 nudge-attenuators 0;
#X obj 124 234 random;
#X obj 232 335 f;
#X obj 232 368 +;
#X obj 257 166 random 2;
#X obj 124 275 t f f;
#X obj 124 351 t b f;
#X obj 124 297 *;
#X obj 257 188 sel 0 1;
#X msg 257 280 -1;
#X msg 335 280 1;
#X obj 124 149 t b b b;
#X obj 124 71 r NUDGE!;
#X obj 157 193 r NUDGE-RANGE;
#X obj 247 308 inlet;
#X obj 232 397 outlet;
#X obj 124 93 spigot;
#X obj 201 76 r attenuators2-s;
#X connect 0 0 4 0;
#X connect 1 0 2 0;
#X connect 2 0 14 0;
#X connect 3 0 7 0;
#X connect 4 0 6 0;
#X connect 5 0 2 0;
#X connect 5 1 2 1;
#X connect 6 0 5 0;
#X connect 7 0 8 0;
#X connect 7 1 9 0;
#X connect 8 0 6 1;
#X connect 9 0 6 1;
#X connect 10 0 0 0;
#X connect 10 1 1 0;
#X connect 10 2 3 0;
#X connect 11 0 15 0;
#X connect 12 0 0 1;
#X connect 13 0 1 1;
#X connect 15 0 10 0;
#X connect 16 0 15 1;
#X restore 540 45 pd nudge-attenuators;
#X obj 362 67 clip 0 127;
#N canvas 0 22 1916 1001 nudge-parameters 0;
#X obj 124 234 random;
#X obj 232 335 f;
#X obj 232 368 +;
#X obj 257 166 random 2;
#X obj 124 275 t f f;
#X obj 124 351 t b f;
#X obj 124 297 *;
#X obj 257 188 sel 0 1;
#X msg 257 280 -1;
#X msg 335 280 1;
#X obj 124 149 t b b b;
#X obj 124 74 r NUDGE!;
#X obj 157 193 r NUDGE-RANGE;
#X obj 247 308 inlet;
#X obj 232 397 outlet;
#X obj 124 96 spigot;
#X obj 185 79 r parameters2-s;
#X connect 0 0 4 0;
#X connect 1 0 2 0;
#X connect 2 0 14 0;
#X connect 3 0 7 0;
#X connect 4 0 6 0;
#X connect 5 0 2 0;
#X connect 5 1 2 1;
#X connect 6 0 5 0;
#X connect 7 0 8 0;
#X connect 7 1 9 0;
#X connect 8 0 6 1;
#X connect 9 0 6 1;
#X connect 10 0 0 0;
#X connect 10 1 1 0;
#X connect 10 2 3 0;
#X connect 11 0 15 0;
#X connect 12 0 0 1;
#X connect 13 0 1 1;
#X connect 15 0 10 0;
#X connect 16 0 15 1;
#X restore 362 45 pd nudge-parameters;
#X obj 204 225 clip 0 127;
#N canvas 0 22 1916 1001 nudge-attenuators 0;
#X obj 124 234 random;
#X obj 232 335 f;
#X obj 232 368 +;
#X obj 257 166 random 2;
#X obj 124 275 t f f;
#X obj 124 351 t b f;
#X obj 124 297 *;
#X obj 257 188 sel 0 1;
#X msg 257 280 -1;
#X msg 335 280 1;
#X obj 124 149 t b b b;
#X obj 124 71 r NUDGE!;
#X obj 157 193 r NUDGE-RANGE;
#X obj 247 308 inlet;
#X obj 232 397 outlet;
#X obj 124 93 spigot;
#X obj 201 76 r attenuators2-s;
#X connect 0 0 4 0;
#X connect 1 0 2 0;
#X connect 2 0 14 0;
#X connect 3 0 7 0;
#X connect 4 0 6 0;
#X connect 5 0 2 0;
#X connect 5 1 2 1;
#X connect 6 0 5 0;
#X connect 7 0 8 0;
#X connect 7 1 9 0;
#X connect 8 0 6 1;
#X connect 9 0 6 1;
#X connect 10 0 0 0;
#X connect 10 1 1 0;
#X connect 10 2 3 0;
#X connect 11 0 15 0;
#X connect 12 0 0 1;
#X connect 13 0 1 1;
#X connect 15 0 10 0;
#X connect 16 0 15 1;
#X restore 204 203 pd nudge-attenuators;
#X obj 26 225 clip 0 127;
#N canvas 0 22 1916 1001 nudge-parameters 0;
#X obj 124 234 random;
#X obj 232 335 f;
#X obj 232 368 +;
#X obj 257 166 random 2;
#X obj 124 275 t f f;
#X obj 124 351 t b f;
#X obj 124 297 *;
#X obj 257 188 sel 0 1;
#X msg 257 280 -1;
#X msg 335 280 1;
#X obj 124 149 t b b b;
#X obj 124 74 r NUDGE!;
#X obj 157 193 r NUDGE-RANGE;
#X obj 247 308 inlet;
#X obj 232 397 outlet;
#X obj 124 96 spigot;
#X obj 185 79 r parameters2-s;
#X connect 0 0 4 0;
#X connect 1 0 2 0;
#X connect 2 0 14 0;
#X connect 3 0 7 0;
#X connect 4 0 6 0;
#X connect 5 0 2 0;
#X connect 5 1 2 1;
#X connect 6 0 5 0;
#X connect 7 0 8 0;
#X connect 7 1 9 0;
#X connect 8 0 6 1;
#X connect 9 0 6 1;
#X connect 10 0 0 0;
#X connect 10 1 1 0;
#X connect 10 2 3 0;
#X connect 11 0 15 0;
#X connect 12 0 0 1;
#X connect 13 0 1 1;
#X connect 15 0 10 0;
#X connect 16 0 15 1;
#X restore 26 203 pd nudge-parameters;
#X obj 606 225 clip 0 127;
#N canvas 0 22 1916 1001 nudge-attenuators 0;
#X obj 124 234 random;
#X obj 232 335 f;
#X obj 232 368 +;
#X obj 257 166 random 2;
#X obj 124 275 t f f;
#X obj 124 351 t b f;
#X obj 124 297 *;
#X obj 257 188 sel 0 1;
#X msg 257 280 -1;
#X msg 335 280 1;
#X obj 124 149 t b b b;
#X obj 124 71 r NUDGE!;
#X obj 157 193 r NUDGE-RANGE;
#X obj 247 308 inlet;
#X obj 232 397 outlet;
#X obj 124 93 spigot;
#X obj 201 76 r attenuators2-s;
#X connect 0 0 4 0;
#X connect 1 0 2 0;
#X connect 2 0 14 0;
#X connect 3 0 7 0;
#X connect 4 0 6 0;
#X connect 5 0 2 0;
#X connect 5 1 2 1;
#X connect 6 0 5 0;
#X connect 7 0 8 0;
#X connect 7 1 9 0;
#X connect 8 0 6 1;
#X connect 9 0 6 1;
#X connect 10 0 0 0;
#X connect 10 1 1 0;
#X connect 10 2 3 0;
#X connect 11 0 15 0;
#X connect 12 0 0 1;
#X connect 13 0 1 1;
#X connect 15 0 10 0;
#X connect 16 0 15 1;
#X restore 606 203 pd nudge-attenuators;
#X obj 428 225 clip 0 127;
#N canvas 0 22 1916 1001 nudge-parameters 0;
#X obj 124 234 random;
#X obj 232 335 f;
#X obj 232 368 +;
#X obj 257 166 random 2;
#X obj 124 275 t f f;
#X obj 124 351 t b f;
#X obj 124 297 *;
#X obj 257 188 sel 0 1;
#X msg 257 280 -1;
#X msg 335 280 1;
#X obj 124 149 t b b b;
#X obj 124 74 r NUDGE!;
#X obj 157 193 r NUDGE-RANGE;
#X obj 247 308 inlet;
#X obj 232 397 outlet;
#X obj 124 96 spigot;
#X obj 185 79 r parameters2-s;
#X connect 0 0 4 0;
#X connect 1 0 2 0;
#X connect 2 0 14 0;
#X connect 3 0 7 0;
#X connect 4 0 6 0;
#X connect 5 0 2 0;
#X connect 5 1 2 1;
#X connect 6 0 5 0;
#X connect 7 0 8 0;
#X connect 7 1 9 0;
#X connect 8 0 6 1;
#X connect 9 0 6 1;
#X connect 10 0 0 0;
#X connect 10 1 1 0;
#X connect 10 2 3 0;
#X connect 11 0 15 0;
#X connect 12 0 0 1;
#X connect 13 0 1 1;
#X connect 15 0 10 0;
#X connect 16 0 15 1;
#X restore 428 203 pd nudge-parameters;
#X obj 69 70 clip 0 127;
#N canvas 0 22 1916 1001 nudge-parameters 0;
#X obj 124 234 random;
#X obj 232 335 f;
#X obj 232 368 +;
#X obj 257 166 random 2;
#X obj 124 275 t f f;
#X obj 124 351 t b f;
#X obj 124 297 *;
#X obj 257 188 sel 0 1;
#X msg 257 280 -1;
#X msg 335 280 1;
#X obj 124 149 t b b b;
#X obj 124 74 r NUDGE!;
#X obj 157 193 r NUDGE-RANGE;
#X obj 247 308 inlet;
#X obj 232 397 outlet;
#X obj 124 96 spigot;
#X obj 185 79 r parameters2-s;
#X connect 0 0 4 0;
#X connect 1 0 2 0;
#X connect 2 0 14 0;
#X connect 3 0 7 0;
#X connect 4 0 6 0;
#X connect 5 0 2 0;
#X connect 5 1 2 1;
#X connect 6 0 5 0;
#X connect 7 0 8 0;
#X connect 7 1 9 0;
#X connect 8 0 6 1;
#X connect 9 0 6 1;
#X connect 10 0 0 0;
#X connect 10 1 1 0;
#X connect 10 2 3 0;
#X connect 11 0 15 0;
#X connect 12 0 0 1;
#X connect 13 0 1 1;
#X connect 15 0 10 0;
#X connect 16 0 15 1;
#X restore 69 48 pd nudge-parameters;
#X obj 69 25 r \$0-kaseta-pre-amp-s;
#X obj 69 102 s \$0-kaseta-pre-amp-r;
#X obj 362 22 r \$0-kaseta-drive-s;
#X obj 362 99 s \$0-kaseta-drive-r;
#X obj 540 22 r \$0-kaseta-drive-att-s;
#X obj 540 99 s \$0-kaseta-drive-att-r;
#X obj 26 180 r \$0-kaseta-saturation-s;
#X obj 26 257 s \$0-kaseta-saturation-r;
#X obj 204 180 r \$0-kaseta-saturation-att-s;
#X obj 204 257 s \$0-kaseta-saturation-att-r;
#X obj 428 180 r \$0-kaseta-bias-s;
#X obj 606 180 r \$0-kaseta-bias-att-s;
#X obj 606 257 s \$0-kaseta-bias-att-r;
#X obj 205 350 clip 0 127;
#N canvas 0 22 1916 1001 nudge-attenuators 0;
#X obj 124 234 random;
#X obj 232 335 f;
#X obj 232 368 +;
#X obj 257 166 random 2;
#X obj 124 275 t f f;
#X obj 124 351 t b f;
#X obj 124 297 *;
#X obj 257 188 sel 0 1;
#X msg 257 280 -1;
#X msg 335 280 1;
#X obj 124 149 t b b b;
#X obj 124 71 r NUDGE!;
#X obj 157 193 r NUDGE-RANGE;
#X obj 247 308 inlet;
#X obj 232 397 outlet;
#X obj 124 93 spigot;
#X obj 201 76 r attenuators2-s;
#X connect 0 0 4 0;
#X connect 1 0 2 0;
#X connect 2 0 14 0;
#X connect 3 0 7 0;
#X connect 4 0 6 0;
#X connect 5 0 2 0;
#X connect 5 1 2 1;
#X connect 6 0 5 0;
#X connect 7 0 8 0;
#X connect 7 1 9 0;
#X connect 8 0 6 1;
#X connect 9 0 6 1;
#X connect 10 0 0 0;
#X connect 10 1 1 0;
#X connect 10 2 3 0;
#X connect 11 0 15 0;
#X connect 12 0 0 1;
#X connect 13 0 1 1;
#X connect 15 0 10 0;
#X connect 16 0 15 1;
#X restore 205 328 pd nudge-attenuators;
#X obj 27 350 clip 0 127;
#N canvas 0 22 1916 1001 nudge-parameters 0;
#X obj 124 234 random;
#X obj 232 335 f;
#X obj 232 368 +;
#X obj 257 166 random 2;
#X obj 124 275 t f f;
#X obj 124 351 t b f;
#X obj 124 297 *;
#X obj 257 188 sel 0 1;
#X msg 257 280 -1;
#X msg 335 280 1;
#X obj 124 149 t b b b;
#X obj 124 74 r NUDGE!;
#X obj 157 193 r NUDGE-RANGE;
#X obj 247 308 inlet;
#X obj 232 397 outlet;
#X obj 124 96 spigot;
#X obj 185 79 r parameters2-s;
#X connect 0 0 4 0;
#X connect 1 0 2 0;
#X connect 2 0 14 0;
#X connect 3 0 7 0;
#X connect 4 0 6 0;
#X connect 5 0 2 0;
#X connect 5 1 2 1;
#X connect 6 0 5 0;
#X connect 7 0 8 0;
#X connect 7 1 9 0;
#X connect 8 0 6 1;
#X connect 9 0 6 1;
#X connect 10 0 0 0;
#X connect 10 1 1 0;
#X connect 10 2 3 0;
#X connect 11 0 15 0;
#X connect 12 0 0 1;
#X connect 13 0 1 1;
#X connect 15 0 10 0;
#X connect 16 0 15 1;
#X restore 27 328 pd nudge-parameters;
#X obj 27 305 r \$0-kaseta-wow-frequency-s;
#X obj 27 382 s \$0-kaseta-wow-frequency-r;
#X obj 428 257 s \$0-kaseta-bias-r;
#X obj 205 305 r \$0-kaseta-wow-frequency-att-s;
#X obj 205 382 s \$0-kaseta-wow-frequency-att-r;
#X obj 602 349 clip 0 127;
#N canvas 0 22 1916 1001 nudge-attenuators 0;
#X obj 124 234 random;
#X obj 232 335 f;
#X obj 232 368 +;
#X obj 257 166 random 2;
#X obj 124 275 t f f;
#X obj 124 351 t b f;
#X obj 124 297 *;
#X obj 257 188 sel 0 1;
#X msg 257 280 -1;
#X msg 335 280 1;
#X obj 124 149 t b b b;
#X obj 124 71 r NUDGE!;
#X obj 157 193 r NUDGE-RANGE;
#X obj 247 308 inlet;
#X obj 232 397 outlet;
#X obj 124 93 spigot;
#X obj 201 76 r attenuators2-s;
#X connect 0 0 4 0;
#X connect 1 0 2 0;
#X connect 2 0 14 0;
#X connect 3 0 7 0;
#X connect 4 0 6 0;
#X connect 5 0 2 0;
#X connect 5 1 2 1;
#X connect 6 0 5 0;
#X connect 7 0 8 0;
#X connect 7 1 9 0;
#X connect 8 0 6 1;
#X connect 9 0 6 1;
#X connect 10 0 0 0;
#X connect 10 1 1 0;
#X connect 10 2 3 0;
#X connect 11 0 15 0;
#X connect 12 0 0 1;
#X connect 13 0 1 1;
#X connect 15 0 10 0;
#X connect 16 0 15 1;
#X restore 602 327 pd nudge-attenuators;
#X obj 424 349 clip 0 127;
#N canvas 0 22 1916 1001 nudge-parameters 0;
#X obj 124 234 random;
#X obj 232 335 f;
#X obj 232 368 +;
#X obj 257 166 random 2;
#X obj 124 275 t f f;
#X obj 124 351 t b f;
#X obj 124 297 *;
#X obj 257 188 sel 0 1;
#X msg 257 280 -1;
#X msg 335 280 1;
#X obj 124 149 t b b b;
#X obj 124 74 r NUDGE!;
#X obj 157 193 r NUDGE-RANGE;
#X obj 247 308 inlet;
#X obj 232 397 outlet;
#X obj 124 96 spigot;
#X obj 185 79 r parameters2-s;
#X connect 0 0 4 0;
#X connect 1 0 2 0;
#X connect 2 0 14 0;
#X connect 3 0 7 0;
#X connect 4 0 6 0;
#X connect 5 0 2 0;
#X connect 5 1 2 1;
#X connect 6 0 5 0;
#X connect 7 0 8 0;
#X connect 7 1 9 0;
#X connect 8 0 6 1;
#X connect 9 0 6 1;
#X connect 10 0 0 0;
#X connect 10 1 1 0;
#X connect 10 2 3 0;
#X connect 11 0 15 0;
#X connect 12 0 0 1;
#X connect 13 0 1 1;
#X connect 15 0 10 0;
#X connect 16 0 15 1;
#X restore 424 327 pd nudge-parameters;
#X obj 424 303 r \$0-kaseta-wow-depth-s;
#X obj 423 381 s \$0-kaseta-wow-depth-r;
#X obj 602 304 r \$0-kaseta-wow-depth-att-s;
#X obj 602 381 s \$0-kaseta-wow-depth-att-r;
#X obj 28 460 clip 0 127;
#N canvas 0 22 1916 1001 nudge-parameters 0;
#X obj 124 234 random;
#X obj 232 335 f;
#X obj 232 368 +;
#X obj 257 166 random 2;
#X obj 124 275 t f f;
#X obj 124 351 t b f;
#X obj 124 297 *;
#X obj 257 188 sel 0 1;
#X msg 257 280 -1;
#X msg 335 280 1;
#X obj 124 149 t b b b;
#X obj 124 74 r NUDGE!;
#X obj 157 193 r NUDGE-RANGE;
#X obj 247 308 inlet;
#X obj 232 397 outlet;
#X obj 124 96 spigot;
#X obj 185 79 r parameters2-s;
#X connect 0 0 4 0;
#X connect 1 0 2 0;
#X connect 2 0 14 0;
#X connect 3 0 7 0;
#X connect 4 0 6 0;
#X connect 5 0 2 0;
#X connect 5 1 2 1;
#X connect 6 0 5 0;
#X connect 7 0 8 0;
#X connect 7 1 9 0;
#X connect 8 0 6 1;
#X connect 9 0 6 1;
#X connect 10 0 0 0;
#X connect 10 1 1 0;
#X connect 10 2 3 0;
#X connect 11 0 15 0;
#X connect 12 0 0 1;
#X connect 13 0 1 1;
#X connect 15 0 10 0;
#X connect 16 0 15 1;
#X restore 28 438 pd nudge-parameters;
#X obj 28 415 r \$0-kaseta-delay-length-s;
#X obj 28 492 s \$0-kaseta-delay-length-r;
#X obj 29 564 clip 0 127;
#N canvas 0 22 1916 1001 nudge-parameters 0;
#X obj 124 234 random;
#X obj 232 335 f;
#X obj 232 368 +;
#X obj 257 166 random 2;
#X obj 124 275 t f f;
#X obj 124 351 t b f;
#X obj 124 297 *;
#X obj 257 188 sel 0 1;
#X msg 257 280 -1;
#X msg 335 280 1;
#X obj 124 149 t b b b;
#X obj 124 74 r NUDGE!;
#X obj 157 193 r NUDGE-RANGE;
#X obj 247 308 inlet;
#X obj 232 397 outlet;
#X obj 124 96 spigot;
#X obj 185 79 r parameters2-s;
#X connect 0 0 4 0;
#X connect 1 0 2 0;
#X connect 2 0 14 0;
#X connect 3 0 7 0;
#X connect 4 0 6 0;
#X connect 5 0 2 0;
#X connect 5 1 2 1;
#X connect 6 0 5 0;
#X connect 7 0 8 0;
#X connect 7 1 9 0;
#X connect 8 0 6 1;
#X connect 9 0 6 1;
#X connect 10 0 0 0;
#X connect 10 1 1 0;
#X connect 10 2 3 0;
#X connect 11 0 15 0;
#X connect 12 0 0 1;
#X connect 13 0 1 1;
#X connect 15 0 10 0;
#X connect 16 0 15 1;
#X restore 29 542 pd nudge-parameters;
#X obj 29 518 r \$0-kaseta-delay-head-1-position-s;
#X obj 29 596 s \$0-kaseta-delay-head-1-position-r;
#X obj 258 563 clip 0 127;
#N canvas 0 22 1916 1001 nudge-parameters 0;
#X obj 124 234 random;
#X obj 232 335 f;
#X obj 232 368 +;
#X obj 257 166 random 2;
#X obj 124 275 t f f;
#X obj 124 351 t b f;
#X obj 124 297 *;
#X obj 257 188 sel 0 1;
#X msg 257 280 -1;
#X msg 335 280 1;
#X obj 124 149 t b b b;
#X obj 124 74 r NUDGE!;
#X obj 157 193 r NUDGE-RANGE;
#X obj 247 308 inlet;
#X obj 232 397 outlet;
#X obj 124 96 spigot;
#X obj 185 79 r parameters2-s;
#X connect 0 0 4 0;
#X connect 1 0 2 0;
#X connect 2 0 14 0;
#X connect 3 0 7 0;
#X connect 4 0 6 0;
#X connect 5 0 2 0;
#X connect 5 1 2 1;
#X connect 6 0 5 0;
#X connect 7 0 8 0;
#X connect 7 1 9 0;
#X connect 8 0 6 1;
#X connect 9 0 6 1;
#X connect 10 0 0 0;
#X connect 10 1 1 0;
#X connect 10 2 3 0;
#X connect 11 0 15 0;
#X connect 12 0 0 1;
#X connect 13 0 1 1;
#X connect 15 0 10 0;
#X connect 16 0 15 1;
#X restore 258 541 pd nudge-parameters;
#X obj 481 563 clip 0 127;
#N canvas 0 22 1916 1001 nudge-parameters 0;
#X obj 124 234 random;
#X obj 232 335 f;
#X obj 232 368 +;
#X obj 257 166 random 2;
#X obj 124 275 t f f;
#X obj 124 351 t b f;
#X obj 124 297 *;
#X obj 257 188 sel 0 1;
#X msg 257 280 -1;
#X msg 335 280 1;
#X obj 124 149 t b b b;
#X obj 124 74 r NUDGE!;
#X obj 157 193 r NUDGE-RANGE;
#X obj 247 308 inlet;
#X obj 232 397 outlet;
#X obj 124 96 spigot;
#X obj 185 79 r parameters2-s;
#X connect 0 0 4 0;
#X connect 1 0 2 0;
#X connect 2 0 14 0;
#X connect 3 0 7 0;
#X connect 4 0 6 0;
#X connect 5 0 2 0;
#X connect 5 1 2 1;
#X connect 6 0 5 0;
#X connect 7 0 8 0;
#X connect 7 1 9 0;
#X connect 8 0 6 1;
#X connect 9 0 6 1;
#X connect 10 0 0 0;
#X connect 10 1 1 0;
#X connect 10 2 3 0;
#X connect 11 0 15 0;
#X connect 12 0 0 1;
#X connect 13 0 1 1;
#X connect 15 0 10 0;
#X connect 16 0 15 1;
#X restore 481 541 pd nudge-parameters;
#X obj 258 517 r \$0-kaseta-delay-head-2-position-s;
#X obj 258 595 s \$0-kaseta-delay-head-2-position-r;
#X obj 481 517 r \$0-kaseta-delay-head-3-position-s;
#X obj 481 595 s \$0-kaseta-delay-head-3-position-r;
#X obj 711 563 clip 0 127;
#N canvas 0 22 1916 1001 nudge-parameters 0;
#X obj 124 234 random;
#X obj 232 335 f;
#X obj 232 368 +;
#X obj 257 166 random 2;
#X obj 124 275 t f f;
#X obj 124 351 t b f;
#X obj 124 297 *;
#X obj 257 188 sel 0 1;
#X msg 257 280 -1;
#X msg 335 280 1;
#X obj 124 149 t b b b;
#X obj 124 74 r NUDGE!;
#X obj 157 193 r NUDGE-RANGE;
#X obj 247 308 inlet;
#X obj 232 397 outlet;
#X obj 124 96 spigot;
#X obj 185 79 r parameters2-s;
#X connect 0 0 4 0;
#X connect 1 0 2 0;
#X connect 2 0 14 0;
#X connect 3 0 7 0;
#X connect 4 0 6 0;
#X connect 5 0 2 0;
#X connect 5 1 2 1;
#X connect 6 0 5 0;
#X connect 7 0 8 0;
#X connect 7 1 9 0;
#X connect 8 0 6 1;
#X connect 9 0 6 1;
#X connect 10 0 0 0;
#X connect 10 1 1 0;
#X connect 10 2 3 0;
#X connect 11 0 15 0;
#X connect 12 0 0 1;
#X connect 13 0 1 1;
#X connect 15 0 10 0;
#X connect 16 0 15 1;
#X restore 711 541 pd nudge-parameters;
#X obj 711 517 r \$0-kaseta-delay-head-4-position-s;
#X obj 711 595 s \$0-kaseta-delay-head-4-position-r;
#X obj 29 668 clip 0 127;
#N canvas 0 22 1916 1001 nudge-parameters 0;
#X obj 124 234 random;
#X obj 232 335 f;
#X obj 232 368 +;
#X obj 257 166 random 2;
#X obj 124 275 t f f;
#X obj 124 351 t b f;
#X obj 124 297 *;
#X obj 257 188 sel 0 1;
#X msg 257 280 -1;
#X msg 335 280 1;
#X obj 124 149 t b b b;
#X obj 124 74 r NUDGE!;
#X obj 157 193 r NUDGE-RANGE;
#X obj 247 308 inlet;
#X obj 232 397 outlet;
#X obj 124 96 spigot;
#X obj 185 79 r parameters2-s;
#X connect 0 0 4 0;
#X connect 1 0 2 0;
#X connect 2 0 14 0;
#X connect 3 0 7 0;
#X connect 4 0 6 0;
#X connect 5 0 2 0;
#X connect 5 1 2 1;
#X connect 6 0 5 0;
#X connect 7 0 8 0;
#X connect 7 1 9 0;
#X connect 8 0 6 1;
#X connect 9 0 6 1;
#X connect 10 0 0 0;
#X connect 10 1 1 0;
#X connect 10 2 3 0;
#X connect 11 0 15 0;
#X connect 12 0 0 1;
#X connect 13 0 1 1;
#X connect 15 0 10 0;
#X connect 16 0 15 1;
#X restore 29 646 pd nudge-parameters;
#X obj 288 667 clip 0 127;
#N canvas 0 22 1916 1001 nudge-parameters 0;
#X obj 124 234 random;
#X obj 232 335 f;
#X obj 232 368 +;
#X obj 257 166 random 2;
#X obj 124 275 t f f;
#X obj 124 351 t b f;
#X obj 124 297 *;
#X obj 257 188 sel 0 1;
#X msg 257 280 -1;
#X msg 335 280 1;
#X obj 124 149 t b b b;
#X obj 124 74 r NUDGE!;
#X obj 157 193 r NUDGE-RANGE;
#X obj 247 308 inlet;
#X obj 232 397 outlet;
#X obj 124 96 spigot;
#X obj 185 79 r parameters2-s;
#X connect 0 0 4 0;
#X connect 1 0 2 0;
#X connect 2 0 14 0;
#X connect 3 0 7 0;
#X connect 4 0 6 0;
#X connect 5 0 2 0;
#X connect 5 1 2 1;
#X connect 6 0 5 0;
#X connect 7 0 8 0;
#X connect 7 1 9 0;
#X connect 8 0 6 1;
#X connect 9 0 6 1;
#X connect 10 0 0 0;
#X connect 10 1 1 0;
#X connect 10 2 3 0;
#X connect 11 0 15 0;
#X connect 12 0 0 1;
#X connect 13 0 1 1;
#X connect 15 0 10 0;
#X connect 16 0 15 1;
#X restore 288 645 pd nudge-parameters;
#X obj 541 667 clip 0 127;
#N canvas 0 22 1916 1001 nudge-parameters 0;
#X obj 124 234 random;
#X obj 232 335 f;
#X obj 232 368 +;
#X obj 257 166 random 2;
#X obj 124 275 t f f;
#X obj 124 351 t b f;
#X obj 124 297 *;
#X obj 257 188 sel 0 1;
#X msg 257 280 -1;
#X msg 335 280 1;
#X obj 124 149 t b b b;
#X obj 124 74 r NUDGE!;
#X obj 157 193 r NUDGE-RANGE;
#X obj 247 308 inlet;
#X obj 232 397 outlet;
#X obj 124 96 spigot;
#X obj 185 79 r parameters2-s;
#X connect 0 0 4 0;
#X connect 1 0 2 0;
#X connect 2 0 14 0;
#X connect 3 0 7 0;
#X connect 4 0 6 0;
#X connect 5 0 2 0;
#X connect 5 1 2 1;
#X connect 6 0 5 0;
#X connect 7 0 8 0;
#X connect 7 1 9 0;
#X connect 8 0 6 1;
#X connect 9 0 6 1;
#X connect 10 0 0 0;
#X connect 10 1 1 0;
#X connect 10 2 3 0;
#X connect 11 0 15 0;
#X connect 12 0 0 1;
#X connect 13 0 1 1;
#X connect 15 0 10 0;
#X connect 16 0 15 1;
#X restore 541 645 pd nudge-parameters;
#X obj 801 667 clip 0 127;
#N canvas 0 22 1916 1001 nudge-parameters 0;
#X obj 124 234 random;
#X obj 232 335 f;
#X obj 232 368 +;
#X obj 257 166 random 2;
#X obj 124 275 t f f;
#X obj 124 351 t b f;
#X obj 124 297 *;
#X obj 257 188 sel 0 1;
#X msg 257 280 -1;
#X msg 335 280 1;
#X obj 124 149 t b b b;
#X obj 124 74 r NUDGE!;
#X obj 157 193 r NUDGE-RANGE;
#X obj 247 308 inlet;
#X obj 232 397 outlet;
#X obj 124 96 spigot;
#X obj 185 79 r parameters2-s;
#X connect 0 0 4 0;
#X connect 1 0 2 0;
#X connect 2 0 14 0;
#X connect 3 0 7 0;
#X connect 4 0 6 0;
#X connect 5 0 2 0;
#X connect 5 1 2 1;
#X connect 6 0 5 0;
#X connect 7 0 8 0;
#X connect 7 1 9 0;
#X connect 8 0 6 1;
#X connect 9 0 6 1;
#X connect 10 0 0 0;
#X connect 10 1 1 0;
#X connect 10 2 3 0;
#X connect 11 0 15 0;
#X connect 12 0 0 1;
#X connect 13 0 1 1;
#X connect 15 0 10 0;
#X connect 16 0 15 1;
#X restore 801 645 pd nudge-parameters;
#X obj 29 622 r \$0-kaseta-delay-head-1-feedback-amp-s;
#X obj 29 700 s \$0-kaseta-delay-head-1-feedback-amp-r;
#X obj 288 621 r \$0-kaseta-delay-head-2-feedback-amp-s;
#X obj 288 699 s \$0-kaseta-delay-head-2-feedback-amp-r;
#X obj 541 621 r \$0-kaseta-delay-head-3-feedback-amp-s;
#X obj 541 699 s \$0-kaseta-delay-head-3-feedback-amp-r;
#X obj 801 621 r \$0-kaseta-delay-head-4-feedback-amp-s;
#X obj 801 699 s \$0-kaseta-delay-head-4-feedback-amp-r;
#X obj 29 771 clip 0 127;
#N canvas 0 22 1916 1001 nudge-parameters 0;
#X obj 124 234 random;
#X obj 232 335 f;
#X obj 232 368 +;
#X obj 257 166 random 2;
#X obj 124 275 t f f;
#X obj 124 351 t b f;
#X obj 124 297 *;
#X obj 257 188 sel 0 1;
#X msg 257 280 -1;
#X msg 335 280 1;
#X obj 124 149 t b b b;
#X obj 124 74 r NUDGE!;
#X obj 157 193 r NUDGE-RANGE;
#X obj 247 308 inlet;
#X obj 232 397 outlet;
#X obj 124 96 spigot;
#X obj 185 79 r parameters2-s;
#X connect 0 0 4 0;
#X connect 1 0 2 0;
#X connect 2 0 14 0;
#X connect 3 0 7 0;
#X connect 4 0 6 0;
#X connect 5 0 2 0;
#X connect 5 1 2 1;
#X connect 6 0 5 0;
#X connect 7 0 8 0;
#X connect 7 1 9 0;
#X connect 8 0 6 1;
#X connect 9 0 6 1;
#X connect 10 0 0 0;
#X connect 10 1 1 0;
#X connect 10 2 3 0;
#X connect 11 0 15 0;
#X connect 12 0 0 1;
#X connect 13 0 1 1;
#X connect 15 0 10 0;
#X connect 16 0 15 1;
#X restore 29 749 pd nudge-parameters;
#X obj 288 770 clip 0 127;
#N canvas 0 22 1916 1001 nudge-parameters 0;
#X obj 124 234 random;
#X obj 232 335 f;
#X obj 232 368 +;
#X obj 257 166 random 2;
#X obj 124 275 t f f;
#X obj 124 351 t b f;
#X obj 124 297 *;
#X obj 257 188 sel 0 1;
#X msg 257 280 -1;
#X msg 335 280 1;
#X obj 124 149 t b b b;
#X obj 124 74 r NUDGE!;
#X obj 157 193 r NUDGE-RANGE;
#X obj 247 308 inlet;
#X obj 232 397 outlet;
#X obj 124 96 spigot;
#X obj 185 79 r parameters2-s;
#X connect 0 0 4 0;
#X connect 1 0 2 0;
#X connect 2 0 14 0;
#X connect 3 0 7 0;
#X connect 4 0 6 0;
#X connect 5 0 2 0;
#X connect 5 1 2 1;
#X connect 6 0 5 0;
#X connect 7 0 8 0;
#X connect 7 1 9 0;
#X connect 8 0 6 1;
#X connect 9 0 6 1;
#X connect 10 0 0 0;
#X connect 10 1 1 0;
#X connect 10 2 3 0;
#X connect 11 0 15 0;
#X connect 12 0 0 1;
#X connect 13 0 1 1;
#X connect 15 0 10 0;
#X connect 16 0 15 1;
#X restore 288 748 pd nudge-parameters;
#X obj 541 770 clip 0 127;
#N canvas 0 22 1916 1001 nudge-parameters 0;
#X obj 124 234 random;
#X obj 232 335 f;
#X obj 232 368 +;
#X obj 257 166 random 2;
#X obj 124 275 t f f;
#X obj 124 351 t b f;
#X obj 124 297 *;
#X obj 257 188 sel 0 1;
#X msg 257 280 -1;
#X msg 335 280 1;
#X obj 124 149 t b b b;
#X obj 124 74 r NUDGE!;
#X obj 157 193 r NUDGE-RANGE;
#X obj 247 308 inlet;
#X obj 232 397 outlet;
#X obj 124 96 spigot;
#X obj 185 79 r parameters2-s;
#X connect 0 0 4 0;
#X connect 1 0 2 0;
#X connect 2 0 14 0;
#X connect 3 0 7 0;
#X connect 4 0 6 0;
#X connect 5 0 2 0;
#X connect 5 1 2 1;
#X connect 6 0 5 0;
#X connect 7 0 8 0;
#X connect 7 1 9 0;
#X connect 8 0 6 1;
#X connect 9 0 6 1;
#X connect 10 0 0 0;
#X connect 10 1 1 0;
#X connect 10 2 3 0;
#X connect 11 0 15 0;
#X connect 12 0 0 1;
#X connect 13 0 1 1;
#X connect 15 0 10 0;
#X connect 16 0 15 1;
#X restore 541 748 pd nudge-parameters;
#X obj 801 770 clip 0 127;
#N canvas 0 22 1916 1001 nudge-parameters 0;
#X obj 124 234 random;
#X obj 232 335 f;
#X obj 232 368 +;
#X obj 257 166 random 2;
#X obj 124 275 t f f;
#X obj 124 351 t b f;
#X obj 124 297 *;
#X obj 257 188 sel 0 1;
#X msg 257 280 -1;
#X msg 335 280 1;
#X obj 124 149 t b b b;
#X obj 124 74 r NUDGE!;
#X obj 157 193 r NUDGE-RANGE;
#X obj 247 308 inlet;
#X obj 232 397 outlet;
#X obj 124 96 spigot;
#X obj 185 79 r parameters2-s;
#X connect 0 0 4 0;
#X connect 1 0 2 0;
#X connect 2 0 14 0;
#X connect 3 0 7 0;
#X connect 4 0 6 0;
#X connect 5 0 2 0;
#X connect 5 1 2 1;
#X connect 6 0 5 0;
#X connect 7 0 8 0;
#X connect 7 1 9 0;
#X connect 8 0 6 1;
#X connect 9 0 6 1;
#X connect 10 0 0 0;
#X connect 10 1 1 0;
#X connect 10 2 3 0;
#X connect 11 0 15 0;
#X connect 12 0 0 1;
#X connect 13 0 1 1;
#X connect 15 0 10 0;
#X connect 16 0 15 1;
#X restore 801 748 pd nudge-parameters;
#X obj 29 725 r \$0-kaseta-delay-head-1-volume-s;
#X obj 29 803 s \$0-kaseta-delay-head-1-volume-r;
#X obj 288 724 r \$0-kaseta-delay-head-2-volume-s;
#X obj 288 802 s \$0-kaseta-delay-head-2-volume-r;
#X obj 541 724 r \$0-kaseta-delay-head-3-volume-s;
#X obj 541 802 s \$0-kaseta-delay-head-3-volume-r;
#X obj 801 724 r \$0-kaseta-delay-head-4-volume-s;
#X obj 801 802 s \$0-kaseta-delay-head-4-volume-r;
#X connect 0 0 19 0;
#X connect 1 0 0 0;
#X connect 2 0 17 0;
#X connect 3 0 2 0;
#X connect 4 0 23 0;
#X connect 5 0 4 0;
#X connect 6 0 21 0;
#X connect 7 0 6 0;
#X connect 8 0 26 0;
#X connect 9 0 8 0;
#X connect 10 0 33 0;
#X connect 11 0 10 0;
#X connect 12 0 15 0;
#X connect 13 0 12 0;
#X connect 14 0 13 0;
#X connect 16 0 3 0;
#X connect 18 0 1 0;
#X connect 20 0 7 0;
#X connect 22 0 5 0;
#X connect 24 0 11 0;
#X connect 25 0 9 0;
#X connect 27 0 35 0;
#X connect 28 0 27 0;
#X connect 29 0 32 0;
#X connect 30 0 29 0;
#X connect 31 0 30 0;
#X connect 34 0 28 0;
#X connect 36 0 43 0;
#X connect 37 0 36 0;
#X connect 38 0 41 0;
#X connect 39 0 38 0;
#X connect 40 0 39 0;
#X connect 42 0 37 0;
#X connect 44 0 47 0;
#X connect 45 0 44 0;
#X connect 46 0 45 0;
#X connect 48 0 51 0;
#X connect 49 0 48 0;
#X connect 50 0 49 0;
#X connect 52 0 57 0;
#X connect 53 0 52 0;
#X connect 54 0 59 0;
#X connect 55 0 54 0;
#X connect 56 0 53 0;
#X connect 58 0 55 0;
#X connect 60 0 63 0;
#X connect 61 0 60 0;
#X connect 62 0 61 0;
#X connect 64 0 73 0;
#X connect 65 0 64 0;
#X connect 66 0 75 0;
#X connect 67 0 66 0;
#X connect 68 0 77 0;
#X connect 69 0 68 0;
#X connect 70 0 79 0;
#X connect 71 0 70 0;
#X connect 72 0 65 0;
#X connect 74 0 67 0;
#X connect 76 0 69 0;
#X connect 78 0 71 0;
#X connect 80 0 89 0;
#X connect 81 0 80 0;
#X connect 82 0 91 0;
#X connect 83 0 82 0;
#X connect 84 0 93 0;
#X connect 85 0 84 0;
#X connect 86 0 95 0;
#X connect 87 0 86 0;
#X connect 88 0 81 0;
#X connect 90 0 83 0;
#X connect 92 0 85 0;
#X connect 94 0 87 0;
#X restore 95 433 pd parameter-nudging-system;
#N canvas 474 23 1916 1001 external-messages 0;
#X floatatom 148 651 5 0 0 0 - - - 0;
#X obj 185 328 spigot;
#X obj 218 288 tgl 15 0 empty empty empty 17 7 0 10 #fcfcfc #000000
#000000 0 1;
#X obj 254 272 ==;
#X obj 269 248 f \$1;
#X obj 269 224 loadbang;
#X msg 185 202 \$1 \$2;
#X msg 185 156 symbol \$1;
#X obj 185 180 pack s f;
#X obj 148 630 f;
#X obj 148 578 t b f;
#X obj 148 601 spigot;
#X obj 185 62 unpack s f f;
#X symbolatom 185 94 10 0 0 0 - - - 0;
#X obj 218 308 t f f;
#X obj 245 332 s \$0-msg-spigot;
#X obj 196 585 r \$0-msg-spigot;
#X floatatom 225 516 5 0 0 0 - - - 0;
#X obj 225 495 f;
#X obj 225 443 t b f;
#X obj 225 466 spigot;
#X obj 273 450 r \$0-msg-spigot;
#X floatatom 318 652 5 0 0 0 - - - 0;
#X obj 318 631 f;
#X obj 318 579 t b f;
#X obj 318 602 spigot;
#X obj 366 586 r \$0-msg-spigot;
#X floatatom 416 518 5 0 0 0 - - - 0;
#X obj 416 497 f;
#X obj 416 445 t b f;
#X obj 416 468 spigot;
#X obj 464 452 r \$0-msg-spigot;
#X obj 225 536 s \$0-kaseta-drive;
#X obj 148 671 s \$0-kaseta-pre-amp;
#X obj 318 672 s \$0-kaseta-saturation;
#X obj 416 538 s \$0-kaseta-bias;
#X obj 185 14 r kaseta;
#X floatatom 501 652 5 0 0 0 - - - 0;
#X obj 501 631 f;
#X obj 501 579 t b f;
#X obj 501 602 spigot;
#X obj 549 586 r \$0-msg-spigot;
#X floatatom 599 518 5 0 0 0 - - - 0;
#X obj 599 497 f;
#X obj 599 445 t b f;
#X obj 599 468 spigot;
#X obj 647 452 r \$0-msg-spigot;
#X obj 599 538 s \$0-kaseta-wow-depth;
#X obj 501 672 s \$0-kaseta-wow-frequency;
#X floatatom 686 653 5 0 0 0 - - - 0;
#X obj 686 632 f;
#X obj 686 580 t b f;
#X obj 686 603 spigot;
#X obj 734 587 r \$0-msg-spigot;
#X floatatom 784 519 5 0 0 0 - - - 0;
#X obj 784 498 f;
#X obj 784 446 t b f;
#X obj 784 469 spigot;
#X obj 832 453 r \$0-msg-spigot;
#X obj 784 539 s \$0-kaseta-delay-head-1-position;
#X obj 686 673 s \$0-kaseta-delay-length;
#X floatatom 857 653 5 0 0 0 - - - 0;
#X obj 857 632 f;
#X obj 857 580 t b f;
#X obj 857 603 spigot;
#X obj 905 587 r \$0-msg-spigot;
#X floatatom 1013 517 5 0 0 0 - - - 0;
#X obj 1013 496 f;
#X obj 1013 444 t b f;
#X obj 1013 467 spigot;
#X obj 1061 451 r \$0-msg-spigot;
#X floatatom 1089 652 5 0 0 0 - - - 0;
#X obj 1089 631 f;
#X obj 1089 579 t b f;
#X obj 1089 602 spigot;
#X obj 1137 586 r \$0-msg-spigot;
#X obj 857 673 s \$0-kaseta-delay-head-2-position;
#X obj 1013 537 s \$0-kaseta-delay-head-3-position;
#X obj 1089 672 s \$0-kaseta-delay-head-4-position;
#X floatatom 1227 517 5 0 0 0 - - - 0;
#X obj 1227 496 f;
#X obj 1227 444 t b f;
#X obj 1227 467 spigot;
#X obj 1275 451 r \$0-msg-spigot;
#X obj 1227 537 s \$0-kaseta-delay-quantization-8;
#X floatatom 1302 651 5 0 0 0 - - - 0;
#X obj 1302 630 f;
#X obj 1302 578 t b f;
#X obj 1302 601 spigot;
#X obj 1350 585 r \$0-msg-spigot;
#X obj 1302 671 s \$0-kaseta-delay-quantization-6;
#X floatatom 167 776 5 0 0 0 - - - 0;
#X obj 167 755 f;
#X obj 167 703 t b f;
#X obj 167 726 spigot;
#X obj 215 710 r \$0-msg-spigot;
#X floatatom 365 777 5 0 0 0 - - - 0;
#X obj 365 756 f;
#X obj 365 704 t b f;
#X obj 365 727 spigot;
#X obj 413 711 r \$0-msg-spigot;
#X floatatom 558 777 5 0 0 0 - - - 0;
#X obj 558 756 f;
#X obj 558 704 t b f;
#X obj 558 727 spigot;
#X obj 606 711 r \$0-msg-spigot;
#X floatatom 750 777 5 0 0 0 - - - 0;
#X obj 750 756 f;
#X obj 750 704 t b f;
#X obj 750 727 spigot;
#X obj 798 711 r \$0-msg-spigot;
#X floatatom 130 899 5 0 0 0 - - - 0;
#X obj 130 878 f;
#X obj 130 826 t b f;
#X obj 130 849 spigot;
#X obj 178 833 r \$0-msg-spigot;
#X floatatom 348 899 5 0 0 0 - - - 0;
#X obj 348 878 f;
#X obj 348 826 t b f;
#X obj 348 849 spigot;
#X obj 396 833 r \$0-msg-spigot;
#X floatatom 563 900 5 0 0 0 - - - 0;
#X obj 563 879 f;
#X obj 563 827 t b f;
#X obj 563 850 spigot;
#X obj 611 834 r \$0-msg-spigot;
#X floatatom 773 902 5 0 0 0 - - - 0;
#X obj 773 881 f;
#X obj 773 829 t b f;
#X obj 773 852 spigot;
#X obj 821 836 r \$0-msg-spigot;
#X obj 130 919 s \$0-kaseta-delay-head-1-feedback;
#X obj 348 919 s \$0-kaseta-delay-head-2-feedback;
#X obj 563 921 s \$0-kaseta-delay-head-3-feedback;
#X obj 773 922 s \$0-kaseta-delay-head-4-feedback;
#X obj 167 795 s \$0-kaseta-delay-head-1-play;
#X obj 365 797 s \$0-kaseta-delay-head-2-play;
#X obj 558 798 s \$0-kaseta-delay-head-3-play;
#X obj 750 797 s \$0-kaseta-delay-head-4-play;
#X floatatom 130 1016 5 0 0 0 - - - 0;
#X obj 130 995 f;
#X obj 130 943 t b f;
#X obj 130 966 spigot;
#X obj 178 950 r \$0-msg-spigot;
#X floatatom 378 1016 5 0 0 0 - - - 0;
#X obj 378 995 f;
#X obj 378 943 t b f;
#X obj 378 966 spigot;
#X obj 426 950 r \$0-msg-spigot;
#X floatatom 623 1017 5 0 0 0 - - - 0;
#X obj 623 996 f;
#X obj 623 944 t b f;
#X obj 623 967 spigot;
#X obj 671 951 r \$0-msg-spigot;
#X floatatom 863 1019 5 0 0 0 - - - 0;
#X obj 863 998 f;
#X obj 863 946 t b f;
#X obj 863 969 spigot;
#X obj 911 953 r \$0-msg-spigot;
#X obj 130 1036 s \$0-kaseta-delay-head-1-feedback-amp;
#X obj 378 1035 s \$0-kaseta-delay-head-2-feedback-amp;
#X obj 623 1037 s \$0-kaseta-delay-head-3-feedback-amp;
#X obj 863 1039 s \$0-kaseta-delay-head-4-feedback-amp;
#X obj 185 380 route PRE-AMP DRIVE SATURATION BIAS WOW_FREQ WOW_DEPTH
DELAY_LENGTH DELAY_HEAD_1_POSITION DELAY_HEAD_2_POSITION DELAY_HEAD_3_POSITION
DELAY_HEAD_4_POSITION DELAY_QUANTIZATION_8 DELAY_QUANTIZATION_6 DELAY_HEAD_1_PLAY
DELAY_HEAD_2_PLAY DELAY_HEAD_3_PLAY DELAY_HEAD_4_PLAY DELAY_HEAD_1_FEEDBACK
DELAY_HEAD_2_FEEDBACK DELAY_HEAD_3_FEEDBACK DELAY_HEAD_4_FEEDBACK DELAY_HEAD_1_FEEDBACK_AMP
DELAY_HEAD_2_FEEDBACK_AMP DELAY_HEAD_3_FEEDBACK_AMP DELAY_HEAD_4_FEEDBACK_AMP
DELAY_HEAD_1_VOLUME DELAY_HEAD_2_VOLUME DELAY_HEAD_3_VOLUME DELAY_HEAD_4_VOLUME
, f 198;
#X floatatom 132 1140 5 0 0 0 - - - 0;
#X obj 132 1119 f;
#X obj 132 1067 t b f;
#X obj 132 1090 spigot;
#X obj 180 1074 r \$0-msg-spigot;
#X floatatom 380 1140 5 0 0 0 - - - 0;
#X obj 380 1119 f;
#X obj 380 1067 t b f;
#X obj 380 1090 spigot;
#X obj 428 1074 r \$0-msg-spigot;
#X floatatom 625 1141 5 0 0 0 - - - 0;
#X obj 625 1120 f;
#X obj 625 1068 t b f;
#X obj 625 1091 spigot;
#X obj 673 1075 r \$0-msg-spigot;
#X floatatom 865 1143 5 0 0 0 - - - 0;
#X obj 865 1122 f;
#X obj 865 1070 t b f;
#X obj 865 1093 spigot;
#X obj 913 1077 r \$0-msg-spigot;
#X obj 132 1160 s \$0-kaseta-delay-head-1-volume;
#X obj 380 1159 s \$0-kaseta-delay-head-2-volume;
#X obj 625 1161 s \$0-kaseta-delay-head-3-volume;
#X obj 865 1163 s \$0-kaseta-delay-head-4-volume;
#X connect 0 0 33 0;
#X connect 1 0 163 0;
#X connect 2 0 14 0;
#X connect 3 0 2 0;
#X connect 4 0 3 1;
#X connect 5 0 4 0;
#X connect 6 0 1 0;
#X connect 7 0 8 0;
#X connect 8 0 6 0;
#X connect 9 0 0 0;
#X connect 10 0 11 0;
#X connect 10 1 9 1;
#X connect 11 0 9 0;
#X connect 12 0 13 0;
#X connect 12 1 8 1;
#X connect 12 2 3 0;
#X connect 13 0 7 0;
#X connect 14 0 1 1;
#X connect 14 1 15 0;
#X connect 16 0 11 1;
#X connect 17 0 32 0;
#X connect 18 0 17 0;
#X connect 19 0 20 0;
#X connect 19 1 18 1;
#X connect 20 0 18 0;
#X connect 21 0 20 1;
#X connect 22 0 34 0;
#X connect 23 0 22 0;
#X connect 24 0 25 0;
#X connect 24 1 23 1;
#X connect 25 0 23 0;
#X connect 26 0 25 1;
#X connect 27 0 35 0;
#X connect 28 0 27 0;
#X connect 29 0 30 0;
#X connect 29 1 28 1;
#X connect 30 0 28 0;
#X connect 31 0 30 1;
#X connect 36 0 12 0;
#X connect 37 0 48 0;
#X connect 38 0 37 0;
#X connect 39 0 40 0;
#X connect 39 1 38 1;
#X connect 40 0 38 0;
#X connect 41 0 40 1;
#X connect 42 0 47 0;
#X connect 43 0 42 0;
#X connect 44 0 45 0;
#X connect 44 1 43 1;
#X connect 45 0 43 0;
#X connect 46 0 45 1;
#X connect 49 0 60 0;
#X connect 50 0 49 0;
#X connect 51 0 52 0;
#X connect 51 1 50 1;
#X connect 52 0 50 0;
#X connect 53 0 52 1;
#X connect 54 0 59 0;
#X connect 55 0 54 0;
#X connect 56 0 57 0;
#X connect 56 1 55 1;
#X connect 57 0 55 0;
#X connect 58 0 57 1;
#X connect 61 0 76 0;
#X connect 62 0 61 0;
#X connect 63 0 64 0;
#X connect 63 1 62 1;
#X connect 64 0 62 0;
#X connect 65 0 64 1;
#X connect 66 0 77 0;
#X connect 67 0 66 0;
#X connect 68 0 69 0;
#X connect 68 1 67 1;
#X connect 69 0 67 0;
#X connect 70 0 69 1;
#X connect 71 0 78 0;
#X connect 72 0 71 0;
#X connect 73 0 74 0;
#X connect 73 1 72 1;
#X connect 74 0 72 0;
#X connect 75 0 74 1;
#X connect 79 0 84 0;
#X connect 80 0 79 0;
#X connect 81 0 82 0;
#X connect 81 1 80 1;
#X connect 82 0 80 0;
#X connect 83 0 82 1;
#X connect 85 0 90 0;
#X connect 86 0 85 0;
#X connect 87 0 88 0;
#X connect 87 1 86 1;
#X connect 88 0 86 0;
#X connect 89 0 88 1;
#X connect 91 0 135 0;
#X connect 92 0 91 0;
#X connect 93 0 94 0;
#X connect 93 1 92 1;
#X connect 94 0 92 0;
#X connect 95 0 94 1;
#X connect 96 0 136 0;
#X connect 97 0 96 0;
#X connect 98 0 99 0;
#X connect 98 1 97 1;
#X connect 99 0 97 0;
#X connect 100 0 99 1;
#X connect 101 0 137 0;
#X connect 102 0 101 0;
#X connect 103 0 104 0;
#X connect 103 1 102 1;
#X connect 104 0 102 0;
#X connect 105 0 104 1;
#X connect 106 0 138 0;
#X connect 107 0 106 0;
#X connect 108 0 109 0;
#X connect 108 1 107 1;
#X connect 109 0 107 0;
#X connect 110 0 109 1;
#X connect 111 0 131 0;
#X connect 112 0 111 0;
#X connect 113 0 114 0;
#X connect 113 1 112 1;
#X connect 114 0 112 0;
#X connect 115 0 114 1;
#X connect 116 0 132 0;
#X connect 117 0 116 0;
#X connect 118 0 119 0;
#X connect 118 1 117 1;
#X connect 119 0 117 0;
#X connect 120 0 119 1;
#X connect 121 0 133 0;
#X connect 122 0 121 0;
#X connect 123 0 124 0;
#X connect 123 1 122 1;
#X connect 124 0 122 0;
#X connect 125 0 124 1;
#X connect 126 0 134 0;
#X connect 127 0 126 0;
#X connect 128 0 129 0;
#X connect 128 1 127 1;
#X connect 129 0 127 0;
#X connect 130 0 129 1;
#X connect 139 0 159 0;
#X connect 140 0 139 0;
#X connect 141 0 142 0;
#X connect 141 1 140 1;
#X connect 142 0 140 0;
#X connect 143 0 142 1;
#X connect 144 0 160 0;
#X connect 145 0 144 0;
#X connect 146 0 147 0;
#X connect 146 1 145 1;
#X connect 147 0 145 0;
#X connect 148 0 147 1;
#X connect 149 0 161 0;
#X connect 150 0 149 0;
#X connect 151 0 152 0;
#X connect 151 1 150 1;
#X connect 152 0 150 0;
#X connect 153 0 152 1;
#X connect 154 0 162 0;
#X connect 155 0 154 0;
#X connect 156 0 157 0;
#X connect 156 1 155 1;
#X connect 157 0 155 0;
#X connect 158 0 157 1;
#X connect 163 0 10 0;
#X connect 163 1 19 0;
#X connect 163 2 24 0;
#X connect 163 3 29 0;
#X connect 163 4 39 0;
#X connect 163 5 44 0;
#X connect 163 6 51 0;
#X connect 163 7 56 0;
#X connect 163 8 63 0;
#X connect 163 9 68 0;
#X connect 163 10 73 0;
#X connect 163 11 81 0;
#X connect 163 12 87 0;
#X connect 163 13 93 0;
#X connect 163 14 98 0;
#X connect 163 15 103 0;
#X connect 163 16 108 0;
#X connect 163 17 113 0;
#X connect 163 18 118 0;
#X connect 163 19 123 0;
#X connect 163 20 128 0;
#X connect 163 21 141 0;
#X connect 163 22 146 0;
#X connect 163 23 151 0;
#X connect 163 24 156 0;
#X connect 163 25 166 0;
#X connect 163 26 171 0;
#X connect 163 27 176 0;
#X connect 163 28 181 0;
#X connect 164 0 184 0;
#X connect 165 0 164 0;
#X connect 166 0 167 0;
#X connect 166 1 165 1;
#X connect 167 0 165 0;
#X connect 168 0 167 1;
#X connect 169 0 185 0;
#X connect 170 0 169 0;
#X connect 171 0 172 0;
#X connect 171 1 170 1;
#X connect 172 0 170 0;
#X connect 173 0 172 1;
#X connect 174 0 186 0;
#X connect 175 0 174 0;
#X connect 176 0 177 0;
#X connect 176 1 175 1;
#X connect 177 0 175 0;
#X connect 178 0 177 1;
#X connect 179 0 187 0;
#X connect 180 0 179 0;
#X connect 181 0 182 0;
#X connect 181 1 180 1;
#X connect 182 0 180 0;
#X connect 183 0 182 1;
#X restore 96 407 pd external-messages;
#X obj 574 653 / 127;
#X obj 105 110 cnv 5 5 5 empty empty IN 0 0 0 8 #fcfcfc #404040 0;
#X obj 135 109 cnv 5 5 5 empty empty DRIVE 0 0 0 8 #fcfcfc #7474a4
0;
#X obj 187 109 cnv 5 5 5 empty empty SAT. 0 0 0 8 #fcfcfc #7474a4 0
;
#X obj 227 109 cnv 5 5 5 empty empty BIAS 0 0 0 8 #fcfcfc #7474a4 0
;
#X obj 107 128 cnv 5 5 5 empty empty KASETA 0 0 0 12 #fcfcfc #404040
0;
#X obj 154 128 cnv 5 5 5 empty \$0-instance-num 2 0 0 0 12 #fcfcfc
#404040 0;
#X obj 110 145 hsl 128 15 1.27 127 1 1 \$0-kaseta-pre-amp-s \$0-kaseta-pre-amp-r
PRE-AMP 133 7 0 10 #fcfcfc #000000 #000000 8600 1;
#X obj 110 160 hsl 128 15 0 127 0 1 \$0-kaseta-drive-s \$0-kaseta-drive-r
DRIVE 133 7 0 10 #fcfcfc #000000 #000000 0 1;
#X obj 110 175 hsl 128 15 0 127 0 1 \$0-kaseta-drive-att-s \$0-kaseta-drive-att-r
ATT 133 7 0 10 #9898dc #000000 #000000 0 1;
#X obj 110 190 hsl 128 15 0 127 0 1 \$0-kaseta-saturation-s \$0-kaseta-saturation-r
SATURATION 133 7 0 10 #fcfcfc #000000 #000000 0 1;
#X obj 110 205 hsl 128 15 0 127 0 1 \$0-kaseta-saturation-att-s \$0-kaseta-saturation-att-r
ATT 133 7 0 10 #9898dc #000000 #000000 0 1;
#X obj 110 220 hsl 128 15 0 127 0 1 \$0-kaseta-bias-s \$0-kaseta-bias-r
BIAS 133 7 0 10 #fcfcfc #000000 #000000 0 1;
#X obj 110 235 hsl 128 15 0 127 0 1 \$0-kaseta-bias-att-s \$0-kaseta-bias-att-r
ATT 133 7 0 10 #9898dc #000000 #000000 0 1;
#X obj 94 626 r~ \$0-kaseta-out;
#X obj 94 648 outlet~ OUT;
#X obj 1786 949 s~ \$0-kaseta-out;
#X obj 1786 907 kaseta~;
#X obj 822 44 inlet~ IN;
#X obj 1773 41 r~ \$0-kaseta-in;
#X obj 1789 65 r \$0-kaseta-pre-amp;
#X obj 574 630 r \$0-kaseta-pre-amp-s;
#X obj 574 676 s \$0-kaseta-pre-amp;
#X obj 845 167 snapshot~;
#X obj 859 125 loadbang;
#X obj 859 146 metro;
#X obj 928 156 / 127;
#X obj 913 190 *;
#X obj 574 731 / 127;
#X obj 844 103 inlet~ DRIVE;
#X obj 928 133 r \$0-kaseta-drive-att-s;
#X obj 574 708 r \$0-kaseta-drive-s;
#X obj 868 329 snapshot~;
#X obj 882 287 loadbang;
#X obj 882 308 metro;
#X obj 951 328 / 127;
#X obj 936 362 *;
#X obj 574 810 / 127;
#X obj 867 265 inlet~ SATURATION;
#X obj 951 305 r \$0-kaseta-saturation-att-s;
#X obj 574 787 r \$0-kaseta-saturation-s;
#X obj 958 503 snapshot~;
#X obj 972 461 loadbang;
#X obj 972 482 metro;
#X obj 1041 502 / 127;
#X obj 1026 536 *;
#X obj 574 884 / 127;
#X obj 957 439 inlet~ BIAS;
#X obj 1041 479 r \$0-kaseta-bias-att-s;
#X obj 574 861 r \$0-kaseta-bias-s;
#X obj 821 68 s~ \$0-kaseta-in;
#X msg 1808 137 drive_pot \$1;
#X obj 1808 115 r \$0-kaseta-drive-pot;
#X obj 1820 160 r \$0-kaseta-drive-cv;
#X msg 1820 182 drive_cv \$1;
#X obj 1829 207 r \$0-kaseta-saturation-pot;
#X msg 1829 230 saturation_pot \$1;
#X obj 1837 254 r \$0-kaseta-saturation-cv;
#X msg 1837 277 saturation_cv \$1;
#X obj 1844 300 r \$0-kaseta-bias-pot;
#X obj 1853 347 r \$0-kaseta-bias-cv;
#X msg 1853 371 bias_cv \$1;
#X obj 936 384 s \$0-kaseta-saturation-cv;
#X obj 574 832 s \$0-kaseta-saturation-pot;
#X obj 574 753 s \$0-kaseta-drive-pot;
#X obj 574 906 s \$0-kaseta-bias-pot;
#X obj 1026 559 s \$0-kaseta-bias-cv;
#X obj 913 211 s \$0-kaseta-drive-cv;
#X msg 1844 324 bias_pot \$1;
#X msg 1789 87 pre_amp_pot \$1;
#X obj 1861 398 r \$0-kaseta-wow-frequency-pot;
#X msg 1861 422 wow_frequency_pot \$1;
#X obj 1870 445 r \$0-kaseta-wow-frequency-cv;
#X msg 1870 469 wow_frequency_cv \$1;
#X obj 1881 498 r \$0-kaseta-wow-depth-pot;
#X msg 1881 522 wow_depth_pot \$1;
#X obj 1890 545 r \$0-kaseta-wow-depth-cv;
#X msg 1890 569 wow_depth_cv \$1;
#X obj 110 250 hsl 128 15 0 127 0 1 \$0-kaseta-wow-frequency-s \$0-kaseta-wow-frequency-r
WOW\\\ FREQ 133 7 0 10 #fcfcfc #000000 #000000 0 1;
#X obj 110 265 hsl 128 15 0 127 0 1 \$0-kaseta-wow-frequency-att-s
\$0-kaseta-wow-frequency-att-r ATT 133 7 0 10 #9898dc #000000 #000000
0 1;
#X obj 110 280 hsl 128 15 0 127 0 1 \$0-kaseta-wow-depth-s \$0-kaseta-wow-depth-r
WOW\\\ DEPTH 133 7 0 10 #fcfcfc #000000 #000000 0 1;
#X obj 110 295 hsl 128 15 0 127 0 1 \$0-kaseta-wow-depth-att-s \$0-kaseta-wow-depth-att-r
ATT 133 7 0 10 #9898dc #000000 #000000 0 1;
#X obj 762 648 / 127;
#X obj 762 625 r \$0-kaseta-wow-frequency-s;
#X obj 762 670 s \$0-kaseta-wow-frequency-pot;
#X obj 762 717 / 127;
#X obj 762 694 r \$0-kaseta-wow-depth-s;
#X obj 762 739 s \$0-kaseta-wow-depth-pot;
#X obj 1104 102 snapshot~;
#X obj 1118 60 loadbang;
#X obj 1118 81 metro;
#X obj 1187 101 / 127;
#X obj 1172 135 *;
#X obj 1103 38 inlet~ WOW_FREQ;
#X obj 1187 78 r \$0-kaseta-wow-frequency-att-s;
#X obj 1172 157 s \$0-kaseta-wow-frequency-cv;
#X obj 1140 262 snapshot~;
#X obj 1154 220 loadbang;
#X obj 1154 241 metro;
#X obj 1223 261 / 127;
#X obj 1208 295 *;
#X obj 1139 198 inlet~ WOW_DEPTH;
#X obj 1223 238 r \$0-kaseta-wow-depth-att-s;
#X obj 1208 317 s \$0-kaseta-wow-depth-cv;
#X obj 265 109 cnv 5 5 5 empty empty WOW\\\ F. 0 0 0 8 #fcfcfc #7474a4
0;
#X obj 313 109 cnv 5 5 5 empty empty WOW\\\ D. 0 0 0 8 #fcfcfc #7474a4
0;
#X obj 322 145 hsl 128 15 0 127 0 1 \$0-kaseta-delay-length-s \$0-kaseta-delay-length-r
DELAY 133 7 0 10 #fcfcfc #000000 #000000 700 1;
#X obj 322 164 hsl 128 15 0 127 0 1 \$0-kaseta-delay-head-1-position-s
\$0-kaseta-delay-head-1-position-r H1 133 7 0 10 #fcfcfc #000000 #000000
2500 1;
#X obj 322 179 hsl 128 15 0 127 0 1 \$0-kaseta-delay-head-2-position-s
\$0-kaseta-delay-head-2-position-r H2 133 7 0 10 #fcfcfc #000000 #000000
900 1;
#X obj 322 194 hsl 128 15 0 127 0 1 \$0-kaseta-delay-head-3-position-s
\$0-kaseta-delay-head-3-position-r H3 133 7 0 10 #fcfcfc #000000 #000000
600 1;
#X obj 322 209 hsl 128 15 0 127 0 1 \$0-kaseta-delay-head-4-position-s
\$0-kaseta-delay-head-4-position-r H4 133 7 0 10 #fcfcfc #000000 #000000
4700 1;
#X obj 762 787 / 127;
#X obj 762 764 r \$0-kaseta-delay-length-s;
#X obj 762 809 s \$0-kaseta-delay-length-pot;
#X obj 763 857 / 127;
#X obj 763 834 r \$0-kaseta-delay-head-1-position-s;
#X obj 763 879 s \$0-kaseta-delay-head-1-position-pot;
#X obj 763 925 / 127;
#X obj 763 902 r \$0-kaseta-delay-head-2-position-s;
#X obj 763 947 s \$0-kaseta-delay-head-2-position-pot;
#X obj 762 991 / 127;
#X obj 762 968 r \$0-kaseta-delay-head-3-position-s;
#X obj 762 1013 s \$0-kaseta-delay-head-3-position-pot;
#X obj 762 1059 / 127;
#X obj 762 1036 r \$0-kaseta-delay-head-4-position-s;
#X obj 762 1081 s \$0-kaseta-delay-head-4-position-pot;
#X obj 1899 595 r \$0-kaseta-delay-length-pot;
#X msg 1899 619 delay_length_pot \$1;
#X obj 1908 642 r \$0-kaseta-delay-length-cv;
#X msg 1908 666 delay_length_cv \$1;
#X obj 1917 691 r \$0-kaseta-delay-head-1-position-pot;
#X msg 1917 715 delay_head_1_position_pot \$1;
#X obj 1926 738 r \$0-kaseta-delay-head-1-position-cv;
#X obj 1935 789 r \$0-kaseta-delay-head-2-position-pot;
#X msg 1935 813 delay_head_2_position_pot \$1;
#X obj 2027 41 r \$0-kaseta-delay-head-3-position-pot;
#X obj 1944 836 r \$0-kaseta-delay-head-2-position-cv;
#X msg 2027 65 delay_head_3_position_pot \$1;
#X obj 2036 88 r \$0-kaseta-delay-head-3-position-cv;
#X obj 2048 138 r \$0-kaseta-delay-head-4-position-pot;
#X msg 2048 163 delay_head_4_position_pot \$1;
#X obj 2057 186 r \$0-kaseta-delay-head-4-position-cv;
#X obj 1196 428 snapshot~;
#X obj 1210 386 loadbang;
#X obj 1210 407 metro;
#X obj 1195 364 inlet~ DELAY_LENGTH;
#X obj 1196 452 s \$0-kaseta-delay-length-cv;
#X obj 1423 102 snapshot~;
#X obj 1437 60 loadbang;
#X obj 1437 81 metro;
#X obj 1422 38 inlet~ DELAY_HEAD_1_POSITION;
#X obj 1423 126 s \$0-kaseta-delay-head-1-position-cv;
#X obj 1438 224 snapshot~;
#X obj 1452 182 loadbang;
#X obj 1452 203 metro;
#X obj 1437 161 inlet~ DELAY_HEAD_2_POSITION;
#X obj 1438 247 s \$0-kaseta-delay-head-2-position-cv;
#X obj 1452 344 snapshot~;
#X obj 1466 302 loadbang;
#X obj 1466 323 metro;
#X obj 1451 280 inlet~ DELAY_HEAD_3_POSITION;
#X obj 1452 368 s \$0-kaseta-delay-head-3-position-cv;
#X obj 1464 462 snapshot~;
#X obj 1478 420 loadbang;
#X obj 1478 441 metro;
#X obj 1463 398 inlet~ DELAY_HEAD_4_POSITION;
#X obj 1464 486 s \$0-kaseta-delay-head-4-position-cv;
#X obj 365 109 cnv 5 5 5 empty empty DELAY 0 0 0 8 #fcfcfc #7474a4
0;
#X obj 412 109 cnv 5 5 5 empty empty POS.1 0 0 0 8 #fcfcfc #7474a4
0;
#X obj 460 109 cnv 5 5 5 empty empty POS.2 0 0 0 8 #fcfcfc #7474a4
0;
#X obj 507 109 cnv 5 5 5 empty empty POS.3 0 0 0 8 #fcfcfc #7474a4
0;
#X obj 542 109 cnv 5 5 5 empty empty POS.4 0 0 0 8 #fcfcfc #7474a4
0;
#X msg 1926 762 delay_head_1_position_cv \$1;
#X msg 1944 860 delay_head_2_position_cv \$1;
#X msg 2036 112 delay_head_3_position_cv \$1;
#X msg 2057 210 delay_head_4_position_cv \$1;
#X text 473 169 P;
#X text 473 184 O;
#X text 473 199 S;
#X obj 497 270 tgl 15 1 \$0-kaseta-delay-quantization-8-s \$0-kaseta-delay-quantization-8-r
QUANT\\\ 8 17 7 0 10 #fcfcfc #000000 #000000 0 1;
#X obj 1011 622 r \$0-kaseta-delay-quantization-8-s;
#X obj 1011 643 s \$0-kaseta-delay-quantization-8-switch;
#X obj 2067 236 r \$0-kaseta-delay-quantization-8-switch;
#X msg 2067 260 delay_quantization_8 \$1;
#X obj 497 250 tgl 15 1 \$0-kaseta-delay-quantization-6-s \$0-kaseta-delay-quantization-6-r
QUANT\\\ 6 17 7 0 10 #fcfcfc #000000 #000000 0 1;
#X obj 1011 666 r \$0-kaseta-delay-quantization-6-s;
#X obj 1011 687 s \$0-kaseta-delay-quantization-6-switch;
#X obj 2079 286 r \$0-kaseta-delay-quantization-6-switch;
#X msg 2079 310 delay_quantization_6 \$1;
#X obj 517 222 tgl 15 0 \$0-kaseta-delay-head-4-feedback-s \$0-kaseta-delay-head-4-feedback-r
H4 17 7 0 10 #fcfcfc #000000 #000000 0 1;
#X obj 517 202 tgl 15 0 \$0-kaseta-delay-head-3-feedback-s \$0-kaseta-delay-head-3-feedback-r
H3 17 7 0 10 #fcfcfc #000000 #000000 0 1;
#X obj 517 182 tgl 15 0 \$0-kaseta-delay-head-2-feedback-s \$0-kaseta-delay-head-2-feedback-r
H2 17 7 0 10 #fcfcfc #000000 #000000 0 1;
#X obj 517 162 tgl 15 0 \$0-kaseta-delay-head-1-feedback-s \$0-kaseta-delay-head-1-feedback-r
H1 17 7 0 10 #fcfcfc #000000 #000000 0 1;
#X text 517 143 FB;
#X obj 497 222 tgl 15 0 \$0-kaseta-delay-head-4-play-s \$0-kaseta-delay-head-4-play-r
empty 17 7 0 10 #fcfcfc #000000 #000000 0 1;
#X obj 497 202 tgl 15 0 \$0-kaseta-delay-head-3-play-s \$0-kaseta-delay-head-3-play-r
empty 17 7 0 10 #fcfcfc #000000 #000000 0 1;
#X obj 497 182 tgl 15 0 \$0-kaseta-delay-head-2-play-s \$0-kaseta-delay-head-2-play-r
empty 17 7 0 10 #fcfcfc #000000 #000000 0 1;
#X obj 497 162 tgl 15 0 \$0-kaseta-delay-head-1-play-s \$0-kaseta-delay-head-1-play-r
empty 17 7 0 10 #fcfcfc #000000 #000000 0 1;
#X obj 1011 880 r \$0-kaseta-delay-head-1-feedback-s;
#X obj 1011 901 s \$0-kaseta-delay-head-1-feedback-switch;
#X obj 1011 923 r \$0-kaseta-delay-head-2-feedback-s;
#X obj 1011 944 s \$0-kaseta-delay-head-2-feedback-switch;
#X obj 1011 965 r \$0-kaseta-delay-head-3-feedback-s;
#X obj 1011 987 s \$0-kaseta-delay-head-3-feedback-switch;
#X obj 1011 1008 r \$0-kaseta-delay-head-4-feedback-s;
#X obj 1011 1029 s \$0-kaseta-delay-head-4-feedback-switch;
#X obj 2133 527 r \$0-kaseta-delay-head-1-feedback-switch;
#X msg 2133 551 delay_head_1_feedback \$1;
#X obj 2142 574 r \$0-kaseta-delay-head-2-feedback-switch;
#X msg 2142 598 delay_head_2_feedback \$1;
#X obj 2151 621 r \$0-kaseta-delay-head-3-feedback-switch;
#X msg 2151 645 delay_head_3_feedback \$1;
#X obj 2161 670 r \$0-kaseta-delay-head-4-feedback-switch;
#X msg 2161 694 delay_head_4_feedback \$1;
#X text 495 143 PLY;
#X obj 1011 709 r \$0-kaseta-delay-head-1-play-s;
#X obj 1011 730 s \$0-kaseta-delay-head-1-play-switch;
#X obj 1011 752 r \$0-kaseta-delay-head-2-play-s;
#X obj 1011 773 s \$0-kaseta-delay-head-2-play-switch;
#X obj 1011 796 r \$0-kaseta-delay-head-3-play-s;
#X obj 1011 816 s \$0-kaseta-delay-head-3-play-switch;
#X obj 1011 838 r \$0-kaseta-delay-head-4-play-s;
#X obj 1011 858 s \$0-kaseta-delay-head-4-play-switch;
#X obj 2090 335 r \$0-kaseta-delay-head-1-play-switch;
#X msg 2090 359 delay_head_1_play \$1;
#X obj 2099 382 r \$0-kaseta-delay-head-2-play-switch;
#X msg 2099 406 delay_head_2_play \$1;
#X obj 2108 429 r \$0-kaseta-delay-head-3-play-switch;
#X msg 2108 453 delay_head_3_play \$1;
#X obj 2119 478 r \$0-kaseta-delay-head-4-play-switch;
#X msg 2119 502 delay_head_4_play \$1;
#X obj 322 294 hsl 128 15 0 127 0 1 \$0-kaseta-delay-head-1-feedback-amp-s
\$0-kaseta-delay-head-1-feedback-amp-r H1 133 7 0 10 #fcfcfc #000000
#000000 900 1;
#X obj 322 309 hsl 128 15 0 127 0 1 \$0-kaseta-delay-head-2-feedback-amp-s
\$0-kaseta-delay-head-2-feedback-amp-r H2 133 7 0 10 #fcfcfc #000000
#000000 1900 1;
#X obj 322 324 hsl 128 15 0 127 0 1 \$0-kaseta-delay-head-3-feedback-amp-s
\$0-kaseta-delay-head-3-feedback-amp-r H3 133 7 0 10 #fcfcfc #000000
#000000 2900 1;
#X obj 322 339 hsl 128 15 0 127 0 1 \$0-kaseta-delay-head-4-feedback-amp-s
\$0-kaseta-delay-head-4-feedback-amp-r H4 133 7 0 10 #fcfcfc #000000
#000000 1000 1;
#X text 473 299 F;
#X text 473 314 B;
#X text 473 329 K;
#X obj 1288 646 / 127;
#X obj 1288 714 / 127;
#X obj 1287 780 / 127;
#X obj 1287 848 / 127;
#X obj 1288 623 r \$0-kaseta-delay-head-1-feedback-amp-s;
#X obj 1288 668 s \$0-kaseta-delay-head-1-feedback-amp-pot;
#X obj 1288 691 r \$0-kaseta-delay-head-2-feedback-amp-s;
#X obj 1288 736 s \$0-kaseta-delay-head-2-feedback-amp-pot;
#X obj 1287 757 r \$0-kaseta-delay-head-3-feedback-amp-s;
#X obj 1287 802 s \$0-kaseta-delay-head-3-feedback-amp-pot;
#X obj 1287 825 r \$0-kaseta-delay-head-4-feedback-amp-s;
#X obj 1287 870 s \$0-kaseta-delay-head-4-feedback-amp-pot;
#X obj 2171 722 r \$0-kaseta-delay-head-1-feedback-amp-pot;
#X msg 2171 746 delay_head_1_feedback_amp \$1;
#X obj 2180 769 r \$0-kaseta-delay-head-2-feedback-amp-pot;
#X msg 2180 793 delay_head_2_feedback_amp \$1;
#X obj 2189 816 r \$0-kaseta-delay-head-3-feedback-amp-pot;
#X msg 2189 840 delay_head_3_feedback_amp \$1;
#X obj 2199 865 r \$0-kaseta-delay-head-4-feedback-amp-pot;
#X msg 2199 889 delay_head_4_feedback_amp \$1;
#X obj 322 229 hsl 128 15 0 127 0 1 \$0-kaseta-delay-head-1-volume-s
\$0-kaseta-delay-head-1-volume-r H1 133 7 0 10 #fcfcfc #000000 #000000
900 1;
#X obj 322 244 hsl 128 15 0 127 0 1 \$0-kaseta-delay-head-2-volume-s
\$0-kaseta-delay-head-2-volume-r H2 133 7 0 10 #fcfcfc #000000 #000000
1900 1;
#X obj 322 259 hsl 128 15 0 127 0 1 \$0-kaseta-delay-head-3-volume-s
\$0-kaseta-delay-head-3-volume-r H3 133 7 0 10 #fcfcfc #000000 #000000
2900 1;
#X obj 322 274 hsl 128 15 0 127 0 1 \$0-kaseta-delay-head-4-volume-s
\$0-kaseta-delay-head-4-volume-r H4 133 7 0 10 #fcfcfc #000000 #000000
1000 1;
#X text 473 234 V;
#X text 473 249 O;
#X text 473 264 L;
#X obj 1287 918 / 127;
#X obj 1287 986 / 127;
#X obj 1286 1052 / 127;
#X obj 1286 1120 / 127;
#X obj 1287 895 r \$0-kaseta-delay-head-1-volume-s;
#X obj 1287 940 s \$0-kaseta-delay-head-1-volume-pot;
#X obj 1287 964 r \$0-kaseta-delay-head-2-volume-s;
#X obj 1287 1008 s \$0-kaseta-delay-head-2-volume-pot;
#X obj 1286 1029 r \$0-kaseta-delay-head-3-volume-s;
#X obj 1286 1074 s \$0-kaseta-delay-head-3-volume-pot;
#X obj 1286 1097 r \$0-kaseta-delay-head-4-volume-s;
#X obj 1286 1142 s \$0-kaseta-delay-head-4-volume-pot;
#X obj 2302 42 r \$0-kaseta-delay-head-1-volume-pot;
#X obj 2311 89 r \$0-kaseta-delay-head-2-volume-pot;
#X msg 2302 66 delay_head_1_volume \$1;
#X msg 2311 113 delay_head_2_volume \$1;
#X obj 2320 136 r \$0-kaseta-delay-head-3-volume-pot;
#X msg 2320 160 delay_head_3_volume \$1;
#X obj 2329 185 r \$0-kaseta-delay-head-4-volume-pot;
#X msg 2329 210 delay_head_4_volume \$1;
#X connect 1 0 3 0;
#X connect 3 0 4 0;
#X connect 4 0 2 0;
#X connect 8 0 30 0;
#X connect 22 0 23 0;
#X connect 25 0 24 0;
#X connect 26 0 58 0;
#X connect 27 0 25 0;
#X connect 28 0 77 0;
#X connect 29 0 8 0;
#X connect 31 0 35 0;
#X connect 32 0 33 0;
#X connect 33 0 31 0;
#X connect 34 0 35 1;
#X connect 35 0 75 0;
#X connect 36 0 72 0;
#X connect 37 0 31 0;
#X connect 38 0 34 0;
#X connect 39 0 36 0;
#X connect 40 0 44 0;
#X connect 41 0 42 0;
#X connect 42 0 40 0;
#X connect 43 0 44 1;
#X connect 44 0 70 0;
#X connect 45 0 71 0;
#X connect 46 0 40 0;
#X connect 47 0 43 0;
#X connect 48 0 45 0;
#X connect 49 0 53 0;
#X connect 50 0 51 0;
#X connect 51 0 49 0;
#X connect 52 0 53 1;
#X connect 53 0 74 0;
#X connect 54 0 73 0;
#X connect 55 0 49 0;
#X connect 56 0 52 0;
#X connect 57 0 54 0;
#X connect 59 0 25 0;
#X connect 60 0 59 0;
#X connect 61 0 62 0;
#X connect 62 0 25 0;
#X connect 63 0 64 0;
#X connect 64 0 25 0;
#X connect 65 0 66 0;
#X connect 66 0 25 0;
#X connect 67 0 76 0;
#X connect 68 0 69 0;
#X connect 69 0 25 0;
#X connect 76 0 25 0;
#X connect 77 0 25 0;
#X connect 78 0 79 0;
#X connect 79 0 25 0;
#X connect 80 0 81 0;
#X connect 81 0 25 0;
#X connect 82 0 83 0;
#X connect 83 0 25 0;
#X connect 84 0 85 0;
#X connect 85 0 25 0;
#X connect 90 0 92 0;
#X connect 91 0 90 0;
#X connect 93 0 95 0;
#X connect 94 0 93 0;
#X connect 96 0 100 0;
#X connect 97 0 98 0;
#X connect 98 0 96 0;
#X connect 99 0 100 1;
#X connect 100 0 103 0;
#X connect 101 0 96 0;
#X connect 102 0 99 0;
#X connect 104 0 108 0;
#X connect 105 0 106 0;
#X connect 106 0 104 0;
#X connect 107 0 108 1;
#X connect 108 0 111 0;
#X connect 109 0 104 0;
#X connect 110 0 107 0;
#X connect 119 0 121 0;
#X connect 120 0 119 0;
#X connect 122 0 124 0;
#X connect 123 0 122 0;
#X connect 125 0 127 0;
#X connect 126 0 125 0;
#X connect 128 0 130 0;
#X connect 129 0 128 0;
#X connect 131 0 133 0;
#X connect 132 0 131 0;
#X connect 134 0 135 0;
#X connect 135 0 25 0;
#X connect 136 0 137 0;
#X connect 137 0 25 0;
#X connect 138 0 139 0;
#X connect 139 0 25 0;
#X connect 140 0 180 0;
#X connect 141 0 142 0;
#X connect 142 0 25 0;
#X connect 143 0 145 0;
#X connect 144 0 181 0;
#X connect 145 0 25 0;
#X connect 146 0 182 0;
#X connect 147 0 148 0;
#X connect 148 0 25 0;
#X connect 149 0 183 0;
#X connect 150 0 154 0;
#X connect 151 0 152 0;
#X connect 152 0 150 0;
#X connect 153 0 150 0;
#X connect 155 0 159 0;
#X connect 156 0 157 0;
#X connect 157 0 155 0;
#X connect 158 0 155 0;
#X connect 160 0 164 0;
#X connect 161 0 162 0;
#X connect 162 0 160 0;
#X connect 163 0 160 0;
#X connect 165 0 169 0;
#X connect 166 0 167 0;
#X connect 167 0 165 0;
#X connect 168 0 165 0;
#X connect 170 0 174 0;
#X connect 171 0 172 0;
#X connect 172 0 170 0;
#X connect 173 0 170 0;
#X connect 180 0 25 0;
#X connect 181 0 25 0;
#X connect 182 0 25 0;
#X connect 183 0 25 0;
#X connect 188 0 189 0;
#X connect 190 0 191 0;
#X connect 191 0 25 0;
#X connect 193 0 194 0;
#X connect 195 0 196 0;
#X connect 196 0 25 0;
#X connect 206 0 207 0;
#X connect 208 0 209 0;
#X connect 210 0 211 0;
#X connect 212 0 213 0;
#X connect 214 0 215 0;
#X connect 215 0 25 0;
#X connect 216 0 217 0;
#X connect 217 0 25 0;
#X connect 218 0 219 0;
#X connect 219 0 25 0;
#X connect 220 0 221 0;
#X connect 221 0 25 0;
#X connect 223 0 224 0;
#X connect 225 0 226 0;
#X connect 227 0 228 0;
#X connect 229 0 230 0;
#X connect 231 0 232 0;
#X connect 232 0 25 0;
#X connect 233 0 234 0;
#X connect 234 0 25 0;
#X connect 235 0 236 0;
#X connect 236 0 25 0;
#X connect 237 0 238 0;
#X connect 238 0 25 0;
#X connect 246 0 251 0;
#X connect 247 0 253 0;
#X connect 248 0 255 0;
#X connect 249 0 257 0;
#X connect 250 0 246 0;
#X connect 252 0 247 0;
#X connect 254 0 248 0;
#X connect 256 0 249 0;
#X connect 258 0 259 0;
#X connect 259 0 25 0;
#X connect 260 0 261 0;
#X connect 261 0 25 0;
#X connect 262 0 263 0;
#X connect 263 0 25 0;
#X connect 264 0 265 0;
#X connect 265 0 25 0;
#X connect 273 0 278 0;
#X connect 274 0 280 0;
#X connect 275 0 282 0;
#X connect 276 0 284 0;
#X connect 277 0 273 0;
#X connect 279 0 274 0;
#X connect 281 0 275 0;
#X connect 283 0 276 0;
#X connect 285 0 287 0;
#X connect 286 0 288 0;
#X connect 287 0 25 0;
#X connect 288 0 25 0;
#X connect 289 0 290 0;
#X connect 290 0 25 0;
#X connect 291 0 292 0;
#X connect 292 0 25 0;
#X coords 0 -1 1 1 470 260 2 100 100;
