#N canvas 0 22 1916 1001 10;
#X obj 23 466 cnv 15 400 30 empty empty OUTPUTS: 20 12 0 14 #9898dc
#fcfcfc 0;
#X obj 20 134 cnv 15 400 30 empty empty CONTROLS: 20 12 0 14 #9898dc
#fcfcfc 0;
#X obj 20 334 cnv 15 400 30 empty empty INPUTS: 20 12 0 14 #9898dc
#fcfcfc 0;
#X obj 20 17 cnv 15 400 30 empty empty KASETA 20 12 0 14 #90d4b0 #fcfcfc
0;
#X obj 445 23 achordion 3;
#X text 24 61 TODO;
#X text 24 172 TODO;
#X text 24 370 TODO;
#X text 26 500 TODO;
