#N canvas 169 23 956 1001 10;
#X obj 105 270 cnv 5 5 5 empty empty OUT 0 0 0 8 #fcfcfc #404040 0
;
#N canvas 315 35 1916 1001 state-saving-multiple-instances 0;
#X obj 429 34 loadbang;
#X obj 388 422 textfile;
#X msg 670 405 rewind;
#X msg 627 405 bang;
#X obj 87 826 textfile;
#X obj 627 366 t b b;
#X obj 87 327 f;
#X obj 100 550 f;
#X obj 28 371 t b b b;
#X msg 163 550 clear;
#X obj 495 222 outlet;
#X text 538 223 INSTANCE NUMBER;
#X obj 456 158 f \$1;
#X obj 456 194 t f f f;
#X obj 429 67 t b b;
#X obj 28 348 bng 15 250 50 0 empty empty empty 17 7 0 10 #fcfcfc #000000
#000000;
#X obj 28 24 r SAVE-S;
#X obj 513 42 r \$0-reload!;
#X text 595 43 RETURN TO PREVIOUS VALUE AFTER USING MORPH-SEQ module
;
#X obj 464 677 s \$0-kaseta-pre-amp-r;
#X obj 470 655 s \$0-kaseta-drive-r;
#X obj 480 633 s \$0-kaseta-drive-att-r;
#X obj 494 611 s \$0-kaseta-saturation-r;
#X obj 504 589 s \$0-kaseta-saturation-att-r;
#X obj 515 567 s \$0-kaseta-bias-r;
#X obj 525 545 s \$0-kaseta-bias-att-r;
#X obj 388 444 unpack f f f f f f f;
#X msg 388 397 read statesave/\$1-kaseta-ss.txt;
#X msg 100 786 write statesave/\$1-kaseta-ss.txt;
#X msg 87 408 set \$1 \$2 \$3 \$4 \$5 \$6 \$7;
#X obj 87 370 pack f f f f f f f;
#X obj 105 159 r \$0-kaseta-pre-amp-s;
#X obj 117 186 r \$0-kaseta-drive-s;
#X obj 152 238 r \$0-kaseta-saturation-s;
#X obj 130 212 r \$0-kaseta-drive-att-s;
#X obj 166 263 r \$0-kaseta-saturation-att-s;
#X obj 181 291 r \$0-kaseta-bias-s;
#X obj 197 318 r \$0-kaseta-bias-att-s;
#X connect 0 0 14 0;
#X connect 1 0 26 0;
#X connect 2 0 1 0;
#X connect 3 0 1 0;
#X connect 5 0 3 0;
#X connect 5 1 2 0;
#X connect 6 0 30 0;
#X connect 7 0 28 0;
#X connect 8 0 7 0;
#X connect 8 1 6 0;
#X connect 8 2 9 0;
#X connect 9 0 4 0;
#X connect 12 0 13 0;
#X connect 13 0 7 1;
#X connect 13 1 27 0;
#X connect 13 2 10 0;
#X connect 14 0 5 0;
#X connect 14 1 12 0;
#X connect 15 0 8 0;
#X connect 16 0 15 0;
#X connect 17 0 14 0;
#X connect 26 0 19 0;
#X connect 26 1 20 0;
#X connect 26 2 21 0;
#X connect 26 3 22 0;
#X connect 26 4 23 0;
#X connect 26 5 24 0;
#X connect 26 6 25 0;
#X connect 27 0 1 0;
#X connect 28 0 4 0;
#X connect 29 0 4 0;
#X connect 30 0 29 0;
#X connect 31 0 6 1;
#X connect 32 0 30 1;
#X connect 33 0 30 3;
#X connect 34 0 30 2;
#X connect 35 0 30 4;
#X connect 36 0 30 5;
#X connect 37 0 30 6;
#X restore 386 123 pd state-saving-multiple-instances;
#X obj 386 198 s \$0-instance-num;
#X obj 386 150 makefilename %d;
#X msg 386 175 label \$1;
#N canvas 81 22 1916 1001 state-saving-via-preset-manager-module 0
;
#X obj 481 228 textfile;
#X msg 860 211 rewind;
#X msg 817 211 bang;
#X obj 109 746 textfile;
#X obj 817 172 t b b;
#X obj 107 414 f;
#X obj 120 637 f;
#X obj 53 532 t b b b;
#X msg 189 687 clear;
#X obj 107 56 delay 5;
#X obj 53 587 delay 10;
#X msg 53 372 bang;
#X obj 53 26 r STORE-S!;
#X obj 481 129 f;
#X obj 454 93 t b b;
#X obj 469 50 t b f;
#X obj 526 147 f \$1;
#X obj 481 174 pack f f;
#X obj 526 97 loadbang;
#X obj 120 667 pack f f;
#X obj 165 620 loadbang;
#X obj 165 642 f \$1;
#X obj 469 27 r preset-manager-scan;
#X obj 135 598 r preset-manager-store-slot;
#N canvas 0 22 1916 1001 morph-parameters 0;
#X obj 176 94 inlet;
#X obj 176 236 pack f f;
#X obj 176 261 line;
#X obj 209 117 r preset-manager-morph-s;
#X msg 72 244 stop;
#X obj 72 214 r STOP-MORPH!;
#X obj 209 206 spigot;
#X obj 398 137 t f f;
#X obj 455 154 == 0;
#X obj 221 176 f;
#X floatatom 455 222 5 0 0 0 - - - 0;
#X obj 398 159 t b f;
#X floatatom 425 192 5 0 0 0 - - - 0;
#X obj 209 139 t f f;
#X obj 398 102 r parameters-s;
#X obj 176 288 outlet;
#X connect 0 0 1 0;
#X connect 1 0 2 0;
#X connect 2 0 15 0;
#X connect 3 0 13 0;
#X connect 4 0 2 0;
#X connect 5 0 4 0;
#X connect 6 0 1 1;
#X connect 7 0 11 0;
#X connect 7 1 8 0;
#X connect 8 0 10 0;
#X connect 9 0 6 0;
#X connect 10 0 1 1;
#X connect 11 0 9 0;
#X connect 11 1 12 0;
#X connect 12 0 6 1;
#X connect 13 0 6 0;
#X connect 13 1 9 1;
#X connect 14 0 7 0;
#X restore 562 666 pd morph-parameters;
#N canvas 0 22 1916 1001 morph-attenuators 0;
#X obj 176 94 inlet;
#X obj 176 236 pack f f;
#X obj 176 261 line;
#X obj 209 117 r preset-manager-morph-s;
#X msg 72 244 stop;
#X obj 72 214 r STOP-MORPH!;
#X obj 209 206 spigot;
#X obj 398 137 t f f;
#X obj 455 154 == 0;
#X obj 221 176 f;
#X floatatom 455 222 5 0 0 0 - - - 0;
#X obj 398 159 t b f;
#X floatatom 425 192 5 0 0 0 - - - 0;
#X obj 209 139 t f f;
#X obj 398 102 r attenuators-s;
#X obj 176 288 outlet;
#X connect 0 0 1 0;
#X connect 1 0 2 0;
#X connect 2 0 15 0;
#X connect 3 0 13 0;
#X connect 4 0 2 0;
#X connect 5 0 4 0;
#X connect 6 0 1 1;
#X connect 7 0 11 0;
#X connect 7 1 8 0;
#X connect 8 0 10 0;
#X connect 9 0 6 0;
#X connect 10 0 1 1;
#X connect 11 0 9 0;
#X connect 11 1 12 0;
#X connect 12 0 6 1;
#X connect 13 0 6 0;
#X connect 13 1 9 1;
#X connect 14 0 7 0;
#X restore 572 617 pd morph-attenuators;
#X obj 107 481 pack f f f f f f f;
#X msg 107 541 set \$1 \$2 \$3 \$4 \$5 \$6 \$7;
#X obj 481 250 unpack f f f f f f f;
#X msg 481 203 read statesave/\$1-\$2-kaseta-ss.txt;
#X msg 188 714 write statesave/\$1-\$2-kaseta-ss.txt;
#X obj 122 289 r \$0-kaseta-pre-amp-s;
#X obj 134 316 r \$0-kaseta-drive-s;
#X obj 169 368 r \$0-kaseta-saturation-s;
#X obj 147 342 r \$0-kaseta-drive-att-s;
#X obj 183 393 r \$0-kaseta-saturation-att-s;
#X obj 198 421 r \$0-kaseta-bias-s;
#X obj 214 448 r \$0-kaseta-bias-att-s;
#N canvas 0 22 1916 1001 morph-parameters 0;
#X obj 176 94 inlet;
#X obj 176 236 pack f f;
#X obj 176 261 line;
#X obj 209 117 r preset-manager-morph-s;
#X msg 72 244 stop;
#X obj 72 214 r STOP-MORPH!;
#X obj 209 206 spigot;
#X obj 398 137 t f f;
#X obj 455 154 == 0;
#X obj 221 176 f;
#X floatatom 455 222 5 0 0 0 - - - 0;
#X obj 398 159 t b f;
#X floatatom 425 192 5 0 0 0 - - - 0;
#X obj 209 139 t f f;
#X obj 398 102 r parameters-s;
#X obj 176 288 outlet;
#X connect 0 0 1 0;
#X connect 1 0 2 0;
#X connect 2 0 15 0;
#X connect 3 0 13 0;
#X connect 4 0 2 0;
#X connect 5 0 4 0;
#X connect 6 0 1 1;
#X connect 7 0 11 0;
#X connect 7 1 8 0;
#X connect 8 0 10 0;
#X connect 9 0 6 0;
#X connect 10 0 1 1;
#X connect 11 0 9 0;
#X connect 11 1 12 0;
#X connect 12 0 6 1;
#X connect 13 0 6 0;
#X connect 13 1 9 1;
#X connect 14 0 7 0;
#X restore 556 716 pd morph-parameters;
#N canvas 0 22 1916 1001 morph-parameters 0;
#X obj 176 94 inlet;
#X obj 176 236 pack f f;
#X obj 176 261 line;
#X obj 209 117 r preset-manager-morph-s;
#X msg 72 244 stop;
#X obj 72 214 r STOP-MORPH!;
#X obj 209 206 spigot;
#X obj 398 137 t f f;
#X obj 455 154 == 0;
#X obj 221 176 f;
#X floatatom 455 222 5 0 0 0 - - - 0;
#X obj 398 159 t b f;
#X floatatom 425 192 5 0 0 0 - - - 0;
#X obj 209 139 t f f;
#X obj 398 102 r parameters-s;
#X obj 176 288 outlet;
#X connect 0 0 1 0;
#X connect 1 0 2 0;
#X connect 2 0 15 0;
#X connect 3 0 13 0;
#X connect 4 0 2 0;
#X connect 5 0 4 0;
#X connect 6 0 1 1;
#X connect 7 0 11 0;
#X connect 7 1 8 0;
#X connect 8 0 10 0;
#X connect 9 0 6 0;
#X connect 10 0 1 1;
#X connect 11 0 9 0;
#X connect 11 1 12 0;
#X connect 12 0 6 1;
#X connect 13 0 6 0;
#X connect 13 1 9 1;
#X connect 14 0 7 0;
#X restore 586 568 pd morph-parameters;
#N canvas 0 22 1916 1001 morph-attenuators 0;
#X obj 176 94 inlet;
#X obj 176 236 pack f f;
#X obj 176 261 line;
#X obj 209 117 r preset-manager-morph-s;
#X msg 72 244 stop;
#X obj 72 214 r STOP-MORPH!;
#X obj 209 206 spigot;
#X obj 398 137 t f f;
#X obj 455 154 == 0;
#X obj 221 176 f;
#X floatatom 455 222 5 0 0 0 - - - 0;
#X obj 398 159 t b f;
#X floatatom 425 192 5 0 0 0 - - - 0;
#X obj 209 139 t f f;
#X obj 398 102 r attenuators-s;
#X obj 176 288 outlet;
#X connect 0 0 1 0;
#X connect 1 0 2 0;
#X connect 2 0 15 0;
#X connect 3 0 13 0;
#X connect 4 0 2 0;
#X connect 5 0 4 0;
#X connect 6 0 1 1;
#X connect 7 0 11 0;
#X connect 7 1 8 0;
#X connect 8 0 10 0;
#X connect 9 0 6 0;
#X connect 10 0 1 1;
#X connect 11 0 9 0;
#X connect 11 1 12 0;
#X connect 12 0 6 1;
#X connect 13 0 6 0;
#X connect 13 1 9 1;
#X connect 14 0 7 0;
#X restore 596 519 pd morph-attenuators;
#N canvas 0 22 1916 1001 morph-parameters 0;
#X obj 176 94 inlet;
#X obj 176 236 pack f f;
#X obj 176 261 line;
#X obj 209 117 r preset-manager-morph-s;
#X msg 72 244 stop;
#X obj 72 214 r STOP-MORPH!;
#X obj 209 206 spigot;
#X obj 398 137 t f f;
#X obj 455 154 == 0;
#X obj 221 176 f;
#X floatatom 455 222 5 0 0 0 - - - 0;
#X obj 398 159 t b f;
#X floatatom 425 192 5 0 0 0 - - - 0;
#X obj 209 139 t f f;
#X obj 398 102 r parameters-s;
#X obj 176 288 outlet;
#X connect 0 0 1 0;
#X connect 1 0 2 0;
#X connect 2 0 15 0;
#X connect 3 0 13 0;
#X connect 4 0 2 0;
#X connect 5 0 4 0;
#X connect 6 0 1 1;
#X connect 7 0 11 0;
#X connect 7 1 8 0;
#X connect 8 0 10 0;
#X connect 9 0 6 0;
#X connect 10 0 1 1;
#X connect 11 0 9 0;
#X connect 11 1 12 0;
#X connect 12 0 6 1;
#X connect 13 0 6 0;
#X connect 13 1 9 1;
#X connect 14 0 7 0;
#X restore 607 471 pd morph-parameters;
#N canvas 0 22 1916 1001 morph-attenuators 0;
#X obj 176 94 inlet;
#X obj 176 236 pack f f;
#X obj 176 261 line;
#X obj 209 117 r preset-manager-morph-s;
#X msg 72 244 stop;
#X obj 72 214 r STOP-MORPH!;
#X obj 209 206 spigot;
#X obj 398 137 t f f;
#X obj 455 154 == 0;
#X obj 221 176 f;
#X floatatom 455 222 5 0 0 0 - - - 0;
#X obj 398 159 t b f;
#X floatatom 425 192 5 0 0 0 - - - 0;
#X obj 209 139 t f f;
#X obj 398 102 r attenuators-s;
#X obj 176 288 outlet;
#X connect 0 0 1 0;
#X connect 1 0 2 0;
#X connect 2 0 15 0;
#X connect 3 0 13 0;
#X connect 4 0 2 0;
#X connect 5 0 4 0;
#X connect 6 0 1 1;
#X connect 7 0 11 0;
#X connect 7 1 8 0;
#X connect 8 0 10 0;
#X connect 9 0 6 0;
#X connect 10 0 1 1;
#X connect 11 0 9 0;
#X connect 11 1 12 0;
#X connect 12 0 6 1;
#X connect 13 0 6 0;
#X connect 13 1 9 1;
#X connect 14 0 7 0;
#X restore 617 422 pd morph-attenuators;
#X obj 556 739 s \$0-kaseta-pre-amp-r;
#X obj 562 689 s \$0-kaseta-drive-r;
#X obj 572 641 s \$0-kaseta-drive-att-r;
#X obj 586 591 s \$0-kaseta-saturation-r;
#X obj 596 543 s \$0-kaseta-saturation-att-r;
#X obj 607 494 s \$0-kaseta-bias-r;
#X obj 617 446 s \$0-kaseta-bias-att-r;
#X connect 0 0 28 0;
#X connect 1 0 0 0;
#X connect 2 0 0 0;
#X connect 4 0 2 0;
#X connect 4 1 1 0;
#X connect 5 0 26 0;
#X connect 6 0 19 0;
#X connect 7 0 10 0;
#X connect 7 1 9 0;
#X connect 7 2 8 0;
#X connect 8 0 3 0;
#X connect 9 0 5 0;
#X connect 10 0 6 0;
#X connect 11 0 7 0;
#X connect 12 0 11 0;
#X connect 13 0 17 0;
#X connect 14 0 4 0;
#X connect 14 1 13 0;
#X connect 15 0 14 0;
#X connect 15 1 13 1;
#X connect 16 0 17 1;
#X connect 17 0 29 0;
#X connect 18 0 16 0;
#X connect 19 0 30 0;
#X connect 20 0 21 0;
#X connect 21 0 19 1;
#X connect 22 0 15 0;
#X connect 23 0 6 1;
#X connect 24 0 44 0;
#X connect 25 0 45 0;
#X connect 26 0 27 0;
#X connect 27 0 3 0;
#X connect 28 0 38 0;
#X connect 28 1 24 0;
#X connect 28 2 25 0;
#X connect 28 3 39 0;
#X connect 28 4 40 0;
#X connect 28 5 41 0;
#X connect 28 6 42 0;
#X connect 29 0 0 0;
#X connect 30 0 3 0;
#X connect 31 0 5 1;
#X connect 32 0 26 1;
#X connect 33 0 26 3;
#X connect 34 0 26 2;
#X connect 35 0 26 4;
#X connect 36 0 26 5;
#X connect 37 0 26 6;
#X connect 38 0 43 0;
#X connect 39 0 46 0;
#X connect 40 0 47 0;
#X connect 41 0 48 0;
#X connect 42 0 49 0;
#X restore 387 95 pd state-saving-via-preset-manager-module;
#N canvas 396 31 1916 1001 parameter-nudging-system 0;
#X obj 540 67 clip 0 127;
#N canvas 0 22 1916 1001 nudge-attenuators 0;
#X obj 124 234 random;
#X obj 232 335 f;
#X obj 232 368 +;
#X obj 257 166 random 2;
#X obj 124 275 t f f;
#X obj 124 351 t b f;
#X obj 124 297 *;
#X obj 257 188 sel 0 1;
#X msg 257 280 -1;
#X msg 335 280 1;
#X obj 124 149 t b b b;
#X obj 124 71 r NUDGE!;
#X obj 157 193 r NUDGE-RANGE;
#X obj 247 308 inlet;
#X obj 232 397 outlet;
#X obj 124 93 spigot;
#X obj 201 76 r attenuators2-s;
#X connect 0 0 4 0;
#X connect 1 0 2 0;
#X connect 2 0 14 0;
#X connect 3 0 7 0;
#X connect 4 0 6 0;
#X connect 5 0 2 0;
#X connect 5 1 2 1;
#X connect 6 0 5 0;
#X connect 7 0 8 0;
#X connect 7 1 9 0;
#X connect 8 0 6 1;
#X connect 9 0 6 1;
#X connect 10 0 0 0;
#X connect 10 1 1 0;
#X connect 10 2 3 0;
#X connect 11 0 15 0;
#X connect 12 0 0 1;
#X connect 13 0 1 1;
#X connect 15 0 10 0;
#X connect 16 0 15 1;
#X restore 540 45 pd nudge-attenuators;
#X obj 362 67 clip 0 127;
#N canvas 0 22 1916 1001 nudge-parameters 0;
#X obj 124 234 random;
#X obj 232 335 f;
#X obj 232 368 +;
#X obj 257 166 random 2;
#X obj 124 275 t f f;
#X obj 124 351 t b f;
#X obj 124 297 *;
#X obj 257 188 sel 0 1;
#X msg 257 280 -1;
#X msg 335 280 1;
#X obj 124 149 t b b b;
#X obj 124 74 r NUDGE!;
#X obj 157 193 r NUDGE-RANGE;
#X obj 247 308 inlet;
#X obj 232 397 outlet;
#X obj 124 96 spigot;
#X obj 185 79 r parameters2-s;
#X connect 0 0 4 0;
#X connect 1 0 2 0;
#X connect 2 0 14 0;
#X connect 3 0 7 0;
#X connect 4 0 6 0;
#X connect 5 0 2 0;
#X connect 5 1 2 1;
#X connect 6 0 5 0;
#X connect 7 0 8 0;
#X connect 7 1 9 0;
#X connect 8 0 6 1;
#X connect 9 0 6 1;
#X connect 10 0 0 0;
#X connect 10 1 1 0;
#X connect 10 2 3 0;
#X connect 11 0 15 0;
#X connect 12 0 0 1;
#X connect 13 0 1 1;
#X connect 15 0 10 0;
#X connect 16 0 15 1;
#X restore 362 45 pd nudge-parameters;
#X obj 204 225 clip 0 127;
#N canvas 0 22 1916 1001 nudge-attenuators 0;
#X obj 124 234 random;
#X obj 232 335 f;
#X obj 232 368 +;
#X obj 257 166 random 2;
#X obj 124 275 t f f;
#X obj 124 351 t b f;
#X obj 124 297 *;
#X obj 257 188 sel 0 1;
#X msg 257 280 -1;
#X msg 335 280 1;
#X obj 124 149 t b b b;
#X obj 124 71 r NUDGE!;
#X obj 157 193 r NUDGE-RANGE;
#X obj 247 308 inlet;
#X obj 232 397 outlet;
#X obj 124 93 spigot;
#X obj 201 76 r attenuators2-s;
#X connect 0 0 4 0;
#X connect 1 0 2 0;
#X connect 2 0 14 0;
#X connect 3 0 7 0;
#X connect 4 0 6 0;
#X connect 5 0 2 0;
#X connect 5 1 2 1;
#X connect 6 0 5 0;
#X connect 7 0 8 0;
#X connect 7 1 9 0;
#X connect 8 0 6 1;
#X connect 9 0 6 1;
#X connect 10 0 0 0;
#X connect 10 1 1 0;
#X connect 10 2 3 0;
#X connect 11 0 15 0;
#X connect 12 0 0 1;
#X connect 13 0 1 1;
#X connect 15 0 10 0;
#X connect 16 0 15 1;
#X restore 204 203 pd nudge-attenuators;
#X obj 26 225 clip 0 127;
#N canvas 0 22 1916 1001 nudge-parameters 0;
#X obj 124 234 random;
#X obj 232 335 f;
#X obj 232 368 +;
#X obj 257 166 random 2;
#X obj 124 275 t f f;
#X obj 124 351 t b f;
#X obj 124 297 *;
#X obj 257 188 sel 0 1;
#X msg 257 280 -1;
#X msg 335 280 1;
#X obj 124 149 t b b b;
#X obj 124 74 r NUDGE!;
#X obj 157 193 r NUDGE-RANGE;
#X obj 247 308 inlet;
#X obj 232 397 outlet;
#X obj 124 96 spigot;
#X obj 185 79 r parameters2-s;
#X connect 0 0 4 0;
#X connect 1 0 2 0;
#X connect 2 0 14 0;
#X connect 3 0 7 0;
#X connect 4 0 6 0;
#X connect 5 0 2 0;
#X connect 5 1 2 1;
#X connect 6 0 5 0;
#X connect 7 0 8 0;
#X connect 7 1 9 0;
#X connect 8 0 6 1;
#X connect 9 0 6 1;
#X connect 10 0 0 0;
#X connect 10 1 1 0;
#X connect 10 2 3 0;
#X connect 11 0 15 0;
#X connect 12 0 0 1;
#X connect 13 0 1 1;
#X connect 15 0 10 0;
#X connect 16 0 15 1;
#X restore 26 203 pd nudge-parameters;
#X obj 606 225 clip 0 127;
#N canvas 0 22 1916 1001 nudge-attenuators 0;
#X obj 124 234 random;
#X obj 232 335 f;
#X obj 232 368 +;
#X obj 257 166 random 2;
#X obj 124 275 t f f;
#X obj 124 351 t b f;
#X obj 124 297 *;
#X obj 257 188 sel 0 1;
#X msg 257 280 -1;
#X msg 335 280 1;
#X obj 124 149 t b b b;
#X obj 124 71 r NUDGE!;
#X obj 157 193 r NUDGE-RANGE;
#X obj 247 308 inlet;
#X obj 232 397 outlet;
#X obj 124 93 spigot;
#X obj 201 76 r attenuators2-s;
#X connect 0 0 4 0;
#X connect 1 0 2 0;
#X connect 2 0 14 0;
#X connect 3 0 7 0;
#X connect 4 0 6 0;
#X connect 5 0 2 0;
#X connect 5 1 2 1;
#X connect 6 0 5 0;
#X connect 7 0 8 0;
#X connect 7 1 9 0;
#X connect 8 0 6 1;
#X connect 9 0 6 1;
#X connect 10 0 0 0;
#X connect 10 1 1 0;
#X connect 10 2 3 0;
#X connect 11 0 15 0;
#X connect 12 0 0 1;
#X connect 13 0 1 1;
#X connect 15 0 10 0;
#X connect 16 0 15 1;
#X restore 606 203 pd nudge-attenuators;
#X obj 428 225 clip 0 127;
#N canvas 0 22 1916 1001 nudge-parameters 0;
#X obj 124 234 random;
#X obj 232 335 f;
#X obj 232 368 +;
#X obj 257 166 random 2;
#X obj 124 275 t f f;
#X obj 124 351 t b f;
#X obj 124 297 *;
#X obj 257 188 sel 0 1;
#X msg 257 280 -1;
#X msg 335 280 1;
#X obj 124 149 t b b b;
#X obj 124 74 r NUDGE!;
#X obj 157 193 r NUDGE-RANGE;
#X obj 247 308 inlet;
#X obj 232 397 outlet;
#X obj 124 96 spigot;
#X obj 185 79 r parameters2-s;
#X connect 0 0 4 0;
#X connect 1 0 2 0;
#X connect 2 0 14 0;
#X connect 3 0 7 0;
#X connect 4 0 6 0;
#X connect 5 0 2 0;
#X connect 5 1 2 1;
#X connect 6 0 5 0;
#X connect 7 0 8 0;
#X connect 7 1 9 0;
#X connect 8 0 6 1;
#X connect 9 0 6 1;
#X connect 10 0 0 0;
#X connect 10 1 1 0;
#X connect 10 2 3 0;
#X connect 11 0 15 0;
#X connect 12 0 0 1;
#X connect 13 0 1 1;
#X connect 15 0 10 0;
#X connect 16 0 15 1;
#X restore 428 203 pd nudge-parameters;
#X obj 69 70 clip 0 127;
#N canvas 0 22 1916 1001 nudge-parameters 0;
#X obj 124 234 random;
#X obj 232 335 f;
#X obj 232 368 +;
#X obj 257 166 random 2;
#X obj 124 275 t f f;
#X obj 124 351 t b f;
#X obj 124 297 *;
#X obj 257 188 sel 0 1;
#X msg 257 280 -1;
#X msg 335 280 1;
#X obj 124 149 t b b b;
#X obj 124 74 r NUDGE!;
#X obj 157 193 r NUDGE-RANGE;
#X obj 247 308 inlet;
#X obj 232 397 outlet;
#X obj 124 96 spigot;
#X obj 185 79 r parameters2-s;
#X connect 0 0 4 0;
#X connect 1 0 2 0;
#X connect 2 0 14 0;
#X connect 3 0 7 0;
#X connect 4 0 6 0;
#X connect 5 0 2 0;
#X connect 5 1 2 1;
#X connect 6 0 5 0;
#X connect 7 0 8 0;
#X connect 7 1 9 0;
#X connect 8 0 6 1;
#X connect 9 0 6 1;
#X connect 10 0 0 0;
#X connect 10 1 1 0;
#X connect 10 2 3 0;
#X connect 11 0 15 0;
#X connect 12 0 0 1;
#X connect 13 0 1 1;
#X connect 15 0 10 0;
#X connect 16 0 15 1;
#X restore 69 48 pd nudge-parameters;
#X obj 69 25 r \$0-kaseta-pre-amp-s;
#X obj 69 102 s \$0-kaseta-pre-amp-r;
#X obj 362 22 r \$0-kaseta-drive-s;
#X obj 362 99 s \$0-kaseta-drive-r;
#X obj 540 22 r \$0-kaseta-drive-att-s;
#X obj 540 99 s \$0-kaseta-drive-att-r;
#X obj 26 180 r \$0-kaseta-saturation-s;
#X obj 26 257 s \$0-kaseta-saturation-r;
#X obj 204 180 r \$0-kaseta-saturation-att-s;
#X obj 204 257 s \$0-kaseta-saturation-att-r;
#X obj 428 180 r \$0-kaseta-bias-s;
#X obj 428 257 s \$0-kase-bias-r;
#X obj 606 180 r \$0-kaseta-bias-att-s;
#X obj 606 257 s \$0-kaseta-bias-att-r;
#X connect 0 0 19 0;
#X connect 1 0 0 0;
#X connect 2 0 17 0;
#X connect 3 0 2 0;
#X connect 4 0 23 0;
#X connect 5 0 4 0;
#X connect 6 0 21 0;
#X connect 7 0 6 0;
#X connect 8 0 27 0;
#X connect 9 0 8 0;
#X connect 10 0 25 0;
#X connect 11 0 10 0;
#X connect 12 0 15 0;
#X connect 13 0 12 0;
#X connect 14 0 13 0;
#X connect 16 0 3 0;
#X connect 18 0 1 0;
#X connect 20 0 7 0;
#X connect 22 0 5 0;
#X connect 24 0 11 0;
#X connect 26 0 9 0;
#X restore 388 67 pd parameter-nudging-system;
#N canvas 474 23 1916 1001 external-messages 0;
#X floatatom 109 625 5 0 0 0 - - - 0;
#X obj 185 328 spigot;
#X obj 218 288 tgl 15 0 empty empty empty 17 7 0 10 #fcfcfc #000000
#000000 0 1;
#X obj 254 272 ==;
#X obj 269 248 f \$1;
#X obj 269 224 loadbang;
#X msg 185 202 \$1 \$2;
#X msg 185 156 symbol \$1;
#X obj 185 180 pack s f;
#X obj 109 604 f;
#X obj 109 552 t b f;
#X obj 109 575 spigot;
#X obj 185 62 unpack s f f;
#X symbolatom 185 94 10 0 0 0 - - - 0;
#X obj 218 308 t f f;
#X obj 245 332 s \$0-msg-spigot;
#X obj 157 559 r \$0-msg-spigot;
#X floatatom 186 490 5 0 0 0 - - - 0;
#X obj 186 469 f;
#X obj 186 417 t b f;
#X obj 186 440 spigot;
#X obj 234 424 r \$0-msg-spigot;
#X floatatom 279 626 5 0 0 0 - - - 0;
#X obj 279 605 f;
#X obj 279 553 t b f;
#X obj 279 576 spigot;
#X obj 327 560 r \$0-msg-spigot;
#X floatatom 377 492 5 0 0 0 - - - 0;
#X obj 377 471 f;
#X obj 377 419 t b f;
#X obj 377 442 spigot;
#X obj 425 426 r \$0-msg-spigot;
#X obj 185 380 route PRE-AMP DRIVE SATURATION BIAS;
#X obj 186 510 s \$0-kaseta-drive;
#X obj 109 645 s \$0-kaseta-pre-amp;
#X obj 279 646 s \$0-kaseta-saturation;
#X obj 377 512 s \$0-kaseta-bias;
#X obj 185 14 r kaseta;
#X connect 0 0 34 0;
#X connect 1 0 32 0;
#X connect 2 0 14 0;
#X connect 3 0 2 0;
#X connect 4 0 3 1;
#X connect 5 0 4 0;
#X connect 6 0 1 0;
#X connect 7 0 8 0;
#X connect 8 0 6 0;
#X connect 9 0 0 0;
#X connect 10 0 11 0;
#X connect 10 1 9 1;
#X connect 11 0 9 0;
#X connect 12 0 13 0;
#X connect 12 1 8 1;
#X connect 12 2 3 0;
#X connect 13 0 7 0;
#X connect 14 0 1 1;
#X connect 14 1 15 0;
#X connect 16 0 11 1;
#X connect 17 0 33 0;
#X connect 18 0 17 0;
#X connect 19 0 20 0;
#X connect 19 1 18 1;
#X connect 20 0 18 0;
#X connect 21 0 20 1;
#X connect 22 0 35 0;
#X connect 23 0 22 0;
#X connect 24 0 25 0;
#X connect 24 1 23 1;
#X connect 25 0 23 0;
#X connect 26 0 25 1;
#X connect 27 0 36 0;
#X connect 28 0 27 0;
#X connect 29 0 30 0;
#X connect 29 1 28 1;
#X connect 30 0 28 0;
#X connect 31 0 30 1;
#X connect 32 0 10 0;
#X connect 32 1 19 0;
#X connect 32 2 24 0;
#X connect 32 3 29 0;
#X connect 37 0 12 0;
#X restore 389 41 pd external-messages;
#X obj 754 345 snapshot~;
#X obj 768 303 loadbang;
#X obj 768 324 metro;
#X obj 802 384 +;
#X obj 832 356 / 127;
#X obj 105 110 cnv 5 5 5 empty empty IN 0 0 0 8 #fcfcfc #404040 0;
#X obj 185 109 cnv 5 5 5 empty empty DRIVE 0 0 0 8 #fcfcfc #7474a4
0;
#X obj 230 110 cnv 5 5 5 empty empty SATURATION 0 0 0 8 #fcfcfc #7474a4
0;
#X obj 296 111 cnv 5 5 5 empty empty BIAS 0 0 0 8 #fcfcfc #7474a4 0
;
#X obj 139 109 cnv 5 5 5 empty empty PRE-AMP 0 0 0 8 #fcfcfc #404040
0;
#X obj 107 128 cnv 5 5 5 empty empty KASETA 0 0 0 12 #fcfcfc #404040
0;
#X obj 154 128 cnv 5 5 5 empty \$0-instance-num 1 0 0 0 12 #fcfcfc
#404040 0;
#X obj 110 145 hsl 128 15 1.27 127 1 1 \$0-kaseta-pre-amp-s \$0-kaseta-pre-amp-r
PRE-AMP 133 7 0 10 #fcfcfc #000000 #000000 6100 1;
#X obj 110 160 hsl 128 15 0.2 127 1 1 \$0-kaseta-drive-s \$0-kaseta-drive-r
DRIVE 133 7 0 10 #fcfcfc #000000 #000000 10050 1;
#X obj 110 175 hsl 128 15 0 127 0 1 \$0-kaseta-drive-att-s \$0-kaseta-drive-att-r
ATT 133 7 0 10 #9898dc #000000 #000000 0 1;
#X obj 110 190 hsl 128 15 0 127 0 1 \$0-kaseta-saturation-s \$0-kaseta-saturation-r
SATURATION 133 7 0 10 #fcfcfc #000000 #000000 4700 1;
#X obj 110 205 hsl 128 15 0 127 0 1 \$0-kaseta-saturation-att-s \$0-kaseta-saturation-att-r
ATT 133 7 0 10 #9898dc #000000 #000000 0 1;
#X obj 110 220 hsl 128 15 0 127 0 1 \$0-kaseta-bias-s \$0-kaseta-bias-r
BIAS 133 7 0 10 #fcfcfc #000000 #000000 10100 1;
#X obj 110 235 hsl 128 15 0 127 0 1 \$0-kaseta-bias-att-s \$0-kaseta-bias-att-r
ATT 133 7 0 10 #9898dc #000000 #000000 0 1;
#X obj 387 260 r~ \$0-kaseta-out;
#X obj 387 282 outlet~ OUT;
#X obj 171 621 s~ \$0-kaseta-out;
#X obj 171 579 kaseta~;
#X msg 171 451 drive \$1;
#X msg 189 501 saturation \$1;
#X obj 171 401 r \$0-kaseta-drive;
#X obj 189 478 r \$0-kaseta-saturation;
#X obj 200 526 r \$0-kaseta-bias;
#X obj 727 32 inlet~ IN;
#X obj 136 319 r~ \$0-kaseta-in;
#X obj 151 343 r \$0-kaseta-pre-amp;
#X obj 753 281 inlet~ PRE-AMP;
#X obj 832 333 r \$0-kaseta-pre-amp-s;
#X obj 802 409 s \$0-kaseta-pre-amp;
#X obj 780 535 snapshot~;
#X obj 794 493 loadbang;
#X obj 794 514 metro;
#X obj 848 614 +;
#X obj 863 534 / 127;
#X obj 848 568 *;
#X obj 882 586 / 127;
#X obj 779 471 inlet~ DRIVE;
#X obj 863 511 r \$0-kaseta-drive-att-s;
#X obj 882 563 r \$0-kaseta-drive-s;
#X obj 848 639 s \$0-kaseta-drive;
#X obj 933 97 snapshot~;
#X obj 947 55 loadbang;
#X obj 947 76 metro;
#X obj 1001 176 +;
#X obj 1016 96 / 127;
#X obj 1001 130 *;
#X obj 1035 148 / 127;
#X obj 932 33 inlet~ SATURATION;
#X obj 1016 73 r \$0-kaseta-saturation-att-s;
#X obj 1035 125 r \$0-kaseta-saturation-s;
#X obj 1001 201 s \$0-kaseta-saturation;
#X obj 1023 341 snapshot~;
#X obj 1037 299 loadbang;
#X obj 1037 320 metro;
#X obj 1091 420 +;
#X obj 1106 340 / 127;
#X obj 1091 374 *;
#X obj 1125 392 / 127;
#X obj 1022 277 inlet~ BIAS;
#X obj 1106 317 r \$0-kaseta-bias-att-s;
#X obj 1125 369 r \$0-kaseta-bias-s;
#X obj 1091 445 s \$0-kaseta-bias;
#X obj 726 56 s~ \$0-kaseta-in;
#X msg 200 550 width \$1;
#X obj 151 366 * 20;
#X obj 136 398 *~;
#X floatatom 289 163 4 0 0 0 - - - 0;
#X obj 171 424 * 30;
#X floatatom 289 143 4 0 0 0 - - - 0;
#X connect 1 0 3 0;
#X connect 3 0 4 0;
#X connect 4 0 2 0;
#X connect 8 0 11 0;
#X connect 9 0 10 0;
#X connect 10 0 8 0;
#X connect 11 0 41 0;
#X connect 12 0 11 1;
#X connect 27 0 28 0;
#X connect 30 0 29 0;
#X connect 31 0 30 0;
#X connect 32 0 30 0;
#X connect 33 0 80 0;
#X connect 34 0 32 0;
#X connect 35 0 76 0;
#X connect 36 0 75 0;
#X connect 37 0 78 0;
#X connect 38 0 77 0;
#X connect 39 0 8 0;
#X connect 40 0 12 0;
#X connect 42 0 47 0;
#X connect 43 0 44 0;
#X connect 44 0 42 0;
#X connect 45 0 52 0;
#X connect 46 0 47 1;
#X connect 47 0 45 0;
#X connect 48 0 45 1;
#X connect 49 0 42 0;
#X connect 50 0 46 0;
#X connect 51 0 48 0;
#X connect 53 0 58 0;
#X connect 54 0 55 0;
#X connect 55 0 53 0;
#X connect 56 0 63 0;
#X connect 57 0 58 1;
#X connect 58 0 56 0;
#X connect 59 0 56 1;
#X connect 60 0 53 0;
#X connect 61 0 57 0;
#X connect 62 0 59 0;
#X connect 64 0 69 0;
#X connect 65 0 66 0;
#X connect 66 0 64 0;
#X connect 67 0 74 0;
#X connect 68 0 69 1;
#X connect 69 0 67 0;
#X connect 70 0 67 1;
#X connect 71 0 64 0;
#X connect 72 0 68 0;
#X connect 73 0 70 0;
#X connect 76 0 30 0;
#X connect 77 0 78 1;
#X connect 77 0 81 0;
#X connect 78 0 30 0;
#X connect 80 0 31 0;
#X connect 80 0 79 0;
#X coords 0 -1 1 1 220 180 2 100 100;
