#N canvas 0 22 1916 1001 10;
#X obj 103 363 inlet~;
#X obj 103 470 tabwrite~ \$0-scope;
#X obj 122 114 cnv 5 5 5 empty empty OSCILLOSCOPE 0 0 0 12 #fcfcfc
#404040 0;
#X obj 104 109 cnv 5 5 5 empty empty IN 0 0 0 8 #fcfcfc #000000 0;
#N canvas 0 22 450 278 (subpatch) 0;
#X array \$0-scope 512 float 0;
#X coords 0 1 511 -1 200 120 1 0 0;
#X restore 119 142 graph;
#X obj 148 363 loadbang;
#X obj 148 431 metro 200;
#X msg 148 385 1;
#X connect 0 0 1 0;
#X connect 5 0 7 0;
#X connect 6 0 1 0;
#X connect 7 0 6 0;
#X coords 0 -1 1 1 240 180 2 100 100;
